<svg xmlns="http://www.w3.org/2000/svg" width="17.023" height="13" viewBox="0 0 17.023 13"><defs><style>.a{fill:#fe9801;}</style></defs><path class="a" d="M16.358,68.18a.665.665,0,0,0,.665-.665V63.16a2.663,2.663,0,0,0-2.66-2.66H2.66A2.663,2.663,0,0,0,0,63.16v7.68A2.663,2.663,0,0,0,2.66,73.5h11.7a2.663,2.663,0,0,0,2.66-2.66.665.665,0,0,0-1.33,0,1.331,1.331,0,0,1-1.33,1.33H2.66a1.331,1.331,0,0,1-1.33-1.33V63.3l5.777,3.592a2.643,2.643,0,0,0,2.809,0L15.693,63.3v4.215A.665.665,0,0,0,16.358,68.18ZM9.214,65.764a1.322,1.322,0,0,1-1.4,0L1.885,62.08a1.323,1.323,0,0,1,.775-.25h11.7a1.323,1.323,0,0,1,.775.25Z" transform="translate(0 -60.5)"/></svg>