<svg xmlns="http://www.w3.org/2000/svg" width="13.22" height="16.509" viewBox="0 0 13.22 16.509"><defs><style>.a{fill:#fe9801;}</style></defs><g transform="translate(0)"><g transform="translate(2.579 2.579)"><g transform="translate(0)"><path class="a" d="M135.03,80a4.03,4.03,0,1,0,1.105,7.907.645.645,0,1,0-.353-1.24,2.737,2.737,0,1,1,1.873-1.848.645.645,0,1,0,1.235.37A4.033,4.033,0,0,0,135.03,80Z" transform="translate(-131 -80)"/></g></g><g transform="translate(0)"><path class="a" d="M62.284,1.933A6.61,6.61,0,0,0,51,6.6a6.907,6.907,0,0,0,1.091,3.686,19.631,19.631,0,0,0,2.332,2.894,22.012,22.012,0,0,1,2.448,3.025.645.645,0,0,0,.545.3h.387a.645.645,0,0,0,.545-.3A22.012,22.012,0,0,1,60.8,13.183a19.627,19.627,0,0,0,2.332-2.894A6.908,6.908,0,0,0,64.223,6.6,6.567,6.567,0,0,0,62.284,1.933Zm-2.437,10.38a26.579,26.579,0,0,0-2.234,2.677,26.572,26.572,0,0,0-2.234-2.677C53.724,10.5,52.295,8.937,52.293,6.6a5.32,5.32,0,0,1,10.64,0C62.931,8.937,61.5,10.5,59.847,12.314Z" transform="translate(-51.003 0)"/></g></g></svg>