<svg xmlns="http://www.w3.org/2000/svg" xmlns:xlink="http://www.w3.org/1999/xlink" width="56" height="56" viewBox="0 0 56 56"><defs><style>.a{fill:none;}.b{fill:#fe9801;}.c{fill:url(#a);}</style><linearGradient id="a" x1="0.5" x2="0.5" y2="1" gradientUnits="objectBoundingBox"><stop offset="0" stop-color="#0056aa"/><stop offset="1" stop-color="#283654"/></linearGradient></defs><g transform="translate(-936.064 -1468.702)"><circle class="a" cx="28" cy="28" r="28" transform="translate(936.064 1468.702)"/><g transform="translate(943.889 1468.747)"><g transform="translate(0)"><path class="b" d="M-3484.778,156.658v1.913c-.056.028-.032.081-.034.123a22.527,22.527,0,0,1-.292,2.554,31.548,31.548,0,0,1-1.987,6.674,58.94,58.94,0,0,1-4.74,8.951c-1.942,3.08-4.072,6.029-6.262,8.935-.92,1.222-1.825,2.456-2.79,3.643-.9,1.111-1.845,2.189-2.77,3.282l-1.225,1.446c-.037.044-.061.12-.138.025-.494-.615-1.055-1.171-1.59-1.749-1.02-1.1-2.063-2.185-2.976-3.378-1.861-2.435-3.73-4.865-5.554-7.329a91.218,91.218,0,0,1-5.352-7.913,37.665,37.665,0,0,1-3.474-7.46,23.72,23.72,0,0,1-1-4.429,30.279,30.279,0,0,1-.161-3.071,21.662,21.662,0,0,1,.34-4.636,18.624,18.624,0,0,1,3.5-7.882,19.876,19.876,0,0,1,14.587-7.947,19.363,19.363,0,0,1,5.875.407,20.088,20.088,0,0,1,8.564,4.136,26.846,26.846,0,0,1,2.827,2.822,17.075,17.075,0,0,1,4.6,10.43A1.085,1.085,0,0,0-3484.778,156.658Zm-20.43-12.738a11.964,11.964,0,0,0-2.058.191,14.307,14.307,0,0,0-5.15,1.909,14.881,14.881,0,0,0-3.548,2.981,15.723,15.723,0,0,0-2.167,3.239,15.166,15.166,0,0,0-.957,2.421,16.492,16.492,0,0,0-.68,4.2,15.352,15.352,0,0,0,.062,1.681,14.672,14.672,0,0,0,.4,2.463,15.562,15.562,0,0,0,1.464,3.744,15.163,15.163,0,0,0,2.23,3.089,15.128,15.128,0,0,0,2.175,1.911,14.489,14.489,0,0,0,4.791,2.277,14.244,14.244,0,0,0,3.272.484c.383.012.762-.01,1.143-.01a8.432,8.432,0,0,0,1.037-.082,14.754,14.754,0,0,0,3.087-.728,14.166,14.166,0,0,0,3.065-1.507,14.931,14.931,0,0,0,3.244-2.836,15.6,15.6,0,0,0,1.945-2.868,15.5,15.5,0,0,0,1.094-2.684,16.608,16.608,0,0,0,.687-4.236,14.94,14.94,0,0,0-.1-2.009,14.881,14.881,0,0,0-.687-3.22,15.489,15.489,0,0,0-1.882-3.842,16.248,16.248,0,0,0-1.735-2.142,13.273,13.273,0,0,0-1.406-1.264,14.8,14.8,0,0,0-3.223-1.936A14.956,14.956,0,0,0-3505.208,143.921Z" transform="translate(3525.132 -138.339)"/><path class="c" d="M-3356.521,298.743a14.953,14.953,0,0,1,6.112,1.228,14.8,14.8,0,0,1,3.223,1.936,13.27,13.27,0,0,1,1.406,1.264,16.171,16.171,0,0,1,1.735,2.142,15.5,15.5,0,0,1,1.883,3.842,14.879,14.879,0,0,1,.686,3.22,14.94,14.94,0,0,1,.1,2.009,16.566,16.566,0,0,1-.688,4.236,15.494,15.494,0,0,1-1.093,2.684,15.626,15.626,0,0,1-1.946,2.868,14.935,14.935,0,0,1-3.243,2.836,14.164,14.164,0,0,1-3.065,1.507,14.767,14.767,0,0,1-3.087.728,8.43,8.43,0,0,1-1.037.082c-.38,0-.76.021-1.142.01a14.236,14.236,0,0,1-3.271-.484,14.482,14.482,0,0,1-4.791-2.277,15.128,15.128,0,0,1-2.175-1.911,15.155,15.155,0,0,1-2.231-3.089,15.531,15.531,0,0,1-1.464-3.744,14.722,14.722,0,0,1-.4-2.463,15.352,15.352,0,0,1-.062-1.681,16.492,16.492,0,0,1,.68-4.2,15.168,15.168,0,0,1,.957-2.421,15.723,15.723,0,0,1,2.167-3.239,14.886,14.886,0,0,1,3.549-2.981,14.306,14.306,0,0,1,5.149-1.909A11.97,11.97,0,0,1-3356.521,298.743Zm.068,25.206.017-.051c.226,0,.452,0,.678,0,.1,0,.2-.018.294-.028a9.481,9.481,0,0,0,5.544-2.482,10.131,10.131,0,0,0,2.908-10.328,9.806,9.806,0,0,0-10.568-7.129,9.393,9.393,0,0,0-5.28,2.382,10.081,10.081,0,0,0-2.369,11.993A9.7,9.7,0,0,0-3356.453,323.949Z" transform="translate(3376.444 -293.162)"/></g></g></g></svg>