
<svg xmlns="http://www.w3.org/2000/svg" width="15.97" height="14.638" viewBox="0 0 15.97 14.638"><defs><style>.a{fill:#fe9801;}</style></defs><g transform="translate(0 -0.008)"><path class="a" d="M7.319,14.646A7.319,7.319,0,1,1,11.268,1.165a.5.5,0,0,1-.54.84A6.32,6.32,0,1,0,13.64,7.327c0-.208-.01-.415-.029-.617a.5.5,0,0,1,.993-.1q.034.352.034.714A7.328,7.328,0,0,1,7.319,14.646Zm0,0"/><path class="a" d="M152.833,29.665a.5.5,0,0,1-.353-.146l-2.994-2.994a.5.5,0,0,1,.706-.706l2.642,2.642,6.966-6.966a.5.5,0,1,1,.706.706l-7.319,7.319A.5.5,0,0,1,152.833,29.665Zm0,0" transform="translate(-144.682 -20.674)"/></g></svg>