<svg xmlns="http://www.w3.org/2000/svg" xmlns:xlink="http://www.w3.org/1999/xlink" width="72" height="72" viewBox="0 0 72 72"><defs><style>.a{fill:none;}.b{fill:url(#a);}.c{fill:#fe9801;}.d{fill:#fefdfd;}.e{fill:#fedfb0;}.f{fill:#fef2de;}.g{fill:#fea626;}</style><linearGradient id="a" x1="0.5" x2="0.5" y2="1" gradientUnits="objectBoundingBox"><stop offset="0" stop-color="#0056aa"/><stop offset="1" stop-color="#283654"/></linearGradient></defs><g transform="translate(-1203.855 -3781.425)"><circle class="a" cx="36" cy="36" r="36" transform="translate(1203.855 3781.425)"/><g transform="translate(-3757.29 217.884)"><g transform="translate(4966 3566.116)"><path class="b" d="M5074.026,3633.272h-.287a.254.254,0,0,1-.05-.206q.029-8.008.063-16.016a2.789,2.789,0,0,1,.343-1.925c1.038.481,2.1.91,3.1,1.46a2.155,2.155,0,0,0,2.482-.1c3.065-1.946,6.195-3.791,9.3-5.677.675-.41,1.342-.833,2.288-1.422l-7.409-3.4c2.171-1.892,4.9-2.939,7.243-4.738l-7.192-3.584,7.256-4.608-1.352-.657-16.122-7.843c.053-6,.167-12-.06-17.992l.019-.018.67.115c3.046,1.059,6.1,2.1,9.137,3.18q10.79,3.853,21.568,7.743v1.148c-.212.07-.258.24-.281.438q-1,8.595-2.012,17.189c-.828,7.054-1.674,14.107-2.461,21.166a2.008,2.008,0,0,1-1.228,1.708q-5.89,3.226-11.739,6.528C5082.879,3628.264,5078.35,3630.587,5074.026,3633.272Z" transform="translate(-5042.737 -3566.423)"/><path class="c" d="M4996.9,3566.61c.227,6,.113,11.994.06,17.992a4.5,4.5,0,0,1-1.053-.421c-2.372-1.742-4.471-1.465-6.842.294-2.842,2.108-6,3.8-9.207,5.79.831.421,1.456.724,2.067,1.052,1.7.913,3.577,1.492,5.133,2.682l-7.213,4.41,7.2,3.6c-1.781,1.446-3.859,2.433-5.747,3.714-.384.261-1.069.388-1.057.851.015.581.759.619,1.2.836q7.95,3.906,15.923,7.766a2.792,2.792,0,0,0-.343,1.925q-.04,8.008-.063,16.016a2.968,2.968,0,0,1-.538-.179q-12.431-6.925-24.866-13.842a1.824,1.824,0,0,1-.937-1.624c-1.268-11.326-2.512-22.656-3.833-33.976-.195-1.669-.092-3.4-.778-5v-1.148a2.925,2.925,0,0,0,1.654-.365c4.9-1.739,9.78-3.515,14.677-5.253C4987.18,3570,4992.041,3568.314,4996.9,3566.61Z" transform="translate(-4966 -3566.468)"/><path class="d" d="M5021.465,3634.723c-1.556-1.19-3.432-1.769-5.133-2.682-.611-.328-1.236-.63-2.067-1.052,3.211-1.991,6.364-3.681,9.207-5.79,2.371-1.759,4.47-2.037,6.842-.294a4.5,4.5,0,0,0,1.052.421l16.122,7.843,1.352.657-7.256,4.608c-1.438.84-2.893,1.653-4.309,2.529a2.149,2.149,0,0,1-2.391.106c-2.059-1.1-4.126-2.212-6.274-3.122C5026.2,3636.928,5024,3635.451,5021.465,3634.723Z" transform="translate(-5000.411 -3607.193)"/><path class="e" d="M5032.71,3703.083q-7.965-3.877-15.924-7.766c-.441-.217-1.186-.255-1.2-.836-.012-.463.673-.59,1.058-.851,1.888-1.281,3.966-2.268,5.747-3.714.308.128.624.241.923.387,3.911,1.9,7.846,3.752,11.715,5.734a3.384,3.384,0,0,0,3.954-.174,10.36,10.36,0,0,1,3.492-1.919l7.409,3.4c-.946.589-1.613,1.012-2.288,1.422-3.1,1.886-6.232,3.732-9.3,5.677a2.155,2.155,0,0,1-2.482.1C5034.814,3703.993,5033.748,3703.564,5032.71,3703.083Z" transform="translate(-5001.352 -3654.38)"/><path class="f" d="M5041.5,3674.058a10.355,10.355,0,0,0-3.492,1.919,3.385,3.385,0,0,1-3.954.174c-3.869-1.981-7.8-3.834-11.715-5.734-.3-.146-.615-.259-.923-.387l-7.2-3.6,7.213-4.41c2.537.728,4.736,2.205,7.145,3.225,2.148.909,4.216,2.019,6.274,3.122a2.148,2.148,0,0,0,2.391-.106c1.416-.876,2.87-1.689,4.308-2.529l7.192,3.584C5046.4,3671.118,5043.669,3672.166,5041.5,3674.058Z" transform="translate(-5000.376 -3634.493)"/><path class="g" d="M5073.7,3566.24c.274-.256.471-.064.67.115Z" transform="translate(-5042.784 -3566.115)"/></g></g></g></svg>