<svg xmlns="http://www.w3.org/2000/svg" xmlns:xlink="http://www.w3.org/1999/xlink" width="72" height="72" viewBox="0 0 72 72"><defs><style>.a{fill:none;}.b{fill:#fe9801;}.c{fill:#fff;}.d{fill:url(#a);}.e{fill:url(#b);}</style><linearGradient id="a" x1="-15.744" y1="7.03" x2="-15.45" y2="7.03" gradientUnits="objectBoundingBox"><stop offset="0" stop-color="#0b58a8"/><stop offset="1" stop-color="#283654"/></linearGradient><linearGradient id="b" x1="0.5" x2="0.5" y2="1" gradientUnits="objectBoundingBox"><stop offset="0" stop-color="#0056aa"/><stop offset="1" stop-color="#283654"/></linearGradient></defs><g transform="translate(-1207.371 -3615.425)"><circle class="a" cx="36" cy="36" r="36" transform="translate(1207.371 3615.425)"/><g transform="translate(1211.789 3618)"><path class="a" d="M-223,139" transform="translate(223 -139)"/><g transform="translate(0.692 1.663)"><path class="b" d="M-138.5,207.133l-4.856,11.275a.328.328,0,0,0,.3.466h4.856V206.9a.5.5,0,0,0-.3.233" transform="translate(169.174 -185.98)"/><path class="b" d="M-190.082,182.081h-7.051a.291.291,0,0,0-.3.2l-3.725,8.547a.32.32,0,0,1-.3.2h-5.887a.336.336,0,0,1-.3-.466l17.693-38.114a.356.356,0,0,1,.3-.2v-8.215c-.1,0-.233-.033-.333-.033a5.305,5.305,0,0,0-1.763.3l-25.709,9.08a5.111,5.111,0,0,0-3.426,5.454l3.958,33.824a5.181,5.181,0,0,0,2.661,3.924l21.751,11.94a5.218,5.218,0,0,0,2.528.665,1.364,1.364,0,0,0,.366-.033V182.081Z" transform="translate(220.919 -144)"/><path class="c" d="M-164,169.249l-17.56,38.147a.328.328,0,0,0,.3.466h5.853a.291.291,0,0,0,.3-.2l3.692-8.581a.32.32,0,0,1,.3-.2h7.417v-5.222h-4.856a.328.328,0,0,1-.3-.466L-164,181.921a.366.366,0,0,1,.333-.2V169.083a.291.291,0,0,0-.333.166" transform="translate(194.669 -160.735)"/><path class="d" d="M-122.545,218.574-127.4,207.3a.32.32,0,0,0-.3-.2v11.94h4.856a.328.328,0,0,0,.3-.466" transform="translate(158.703 -186.114)"/><path class="e" d="M-102.788,196.549a5.085,5.085,0,0,0,2.627-3.858l4.29-33.824a5.181,5.181,0,0,0-3.492-5.521l-26.407-8.913a4.47,4.47,0,0,0-1.33-.233v8.215a.32.32,0,0,1,.3.2l17.693,38.147a.328.328,0,0,1-.3.466h-5.887a.291.291,0,0,1-.3-.2l-3.725-8.581a.32.32,0,0,0-.3-.2h-7.45V209.32a5.421,5.421,0,0,0,2.162-.632Z" transform="translate(158.303 -144.133)"/></g></g></g></svg>