<svg xmlns="http://www.w3.org/2000/svg" xmlns:xlink="http://www.w3.org/1999/xlink" width="72" height="72" viewBox="0 0 72 72"><defs><style>.a{fill:none;}.b{fill:url(#a);}.c{fill:#7f6c9c;}.d{fill:#fdfdfd;}</style><linearGradient id="a" x1="0.5" x2="0.5" y2="1" gradientUnits="objectBoundingBox"><stop offset="0" stop-color="#0056aa"/><stop offset="1" stop-color="#283654"/></linearGradient></defs><g transform="translate(-1047.945 -3780.945)"><circle class="a" cx="36" cy="36" r="36" transform="translate(1047.945 3780.945)"/><g transform="translate(-4282 318)"><g transform="translate(5334 3467)"><path class="b" d="M5343.452,3467h.358c.179.187.412.117.623.117q21.511,0,43.023,0c.211,0,.443.07.622-.117h.239c.039.124.146.105.241.12a10.581,10.581,0,0,1,8.68,7.009c.328.829.374,1.723.65,2.562v.239c-.2.172-.129.406-.129.616q0,21.4,0,42.8c0,.21-.073.444.128.615v.359c-.172.073-.11.235-.133.362a10.6,10.6,0,0,1-7.794,8.8,13.577,13.577,0,0,0-1.763.414h-.718c-.2-.184-.454-.116-.685-.116q-20.941-.005-41.882,0c-.212,0-.443-.062-.624.117h-.718c-.194-.21-.471-.174-.711-.215a10.648,10.648,0,0,1-8.542-8.061,4.126,4.126,0,0,0-.319-1.3v-.359c.2-.172.128-.405.128-.615q0-21.4,0-42.8c0-.211.071-.444-.128-.616v-.359c.168-.076.111-.237.134-.365a10.648,10.648,0,0,1,7.055-8.591C5341.925,3467.33,5342.725,3467.3,5343.452,3467Zm31.807,31.141c.087-.234.286-.254.435-.326a7.862,7.862,0,0,0,4.783-6.908c.25-4.009-1.071-6.943-4.6-8.691a14.652,14.652,0,0,0-6.622-1.315c-5.742-.006-11.484,0-17.227-.013-.5,0-.676.088-.675.643q.027,17.974,0,35.948c0,.477.091.644.61.643,5.723-.02,11.445.005,17.167-.021a17.882,17.882,0,0,0,7.218-1.416,9,9,0,0,0,5.35-5.675,11.682,11.682,0,0,0,.258-5.736,8.187,8.187,0,0,0-5.137-6.615C5376.316,3498.458,5375.787,3498.314,5375.259,3498.141Z" transform="translate(-5334 -3467)"/><path class="c" d="M5460.268,3467c-.179.187-.411.117-.622.117q-21.512,0-43.023,0c-.21,0-.443.07-.623-.117Z" transform="translate(-5406.189 -3467)"/><path class="c" d="M5334,3550c.2.173.128.406.128.616q0,21.4,0,42.8c0,.21.073.444-.128.615Z" transform="translate(-5334 -3540.07)"/><path class="c" d="M5866.961,3594.029c-.2-.172-.128-.405-.128-.615q-.005-21.4,0-42.8c0-.211-.069-.444.129-.616Z" transform="translate(-5803.072 -3540.07)"/><path class="c" d="M5420,4000.054c.182-.179.412-.117.625-.117q20.94,0,41.881,0c.231,0,.482-.067.686.116Z" transform="translate(-5409.71 -3936.165)"/><path class="d" d="M5502.956,3600.323c.527.173,1.057.318,1.564.518a8.186,8.186,0,0,1,5.137,6.615,11.688,11.688,0,0,1-.258,5.736,9,9,0,0,1-5.35,5.676,17.88,17.88,0,0,1-7.218,1.416c-5.722.026-11.444,0-17.166.021-.52,0-.611-.166-.611-.642q.02-17.974,0-35.948c0-.554.174-.645.676-.643,5.742.017,11.484.006,17.227.013a14.653,14.653,0,0,1,6.622,1.315c3.528,1.749,4.848,4.682,4.6,8.691a7.863,7.863,0,0,1-4.784,6.908C5503.241,3600.07,5503.042,3600.089,5502.956,3600.323Zm-10.9,3.077v-.019c-1.992,0-3.984.007-5.977-.007-.342,0-.488.058-.486.451q.023,5.379,0,10.757c0,.347.112.43.442.429,3.825-.013,7.65.01,11.475-.03a6.222,6.222,0,0,0,3.563-1.025,6.343,6.343,0,0,0,1.365-8.273,5.5,5.5,0,0,0-4.647-2.27C5495.883,3603.355,5493.969,3603.4,5492.057,3603.4Zm-.343-14.964v-.049c-1.874,0-3.748.006-5.621-.005-.33,0-.5.043-.5.447q.023,4.694,0,9.388c0,.379.132.464.483.463,3.369-.011,6.737,0,10.105-.011a6.066,6.066,0,0,0,3.256-.832,4.91,4.91,0,0,0,2.234-4.882c-.146-2.706-1.395-4.3-4.521-4.5C5495.346,3588.345,5493.527,3588.437,5491.714,3588.437Z" transform="translate(-5461.696 -3569.183)"/><path class="b" d="M5540.2,3752.813c1.913,0,3.826-.046,5.737.013a5.5,5.5,0,0,1,4.647,2.27,6.343,6.343,0,0,1-1.364,8.273,6.22,6.22,0,0,1-3.563,1.025c-3.824.041-7.65.017-11.475.03-.331,0-.444-.082-.442-.429q.018-5.379,0-10.757c0-.393.145-.453.487-.451,1.992.013,3.984.007,5.976.007Z" transform="translate(-5509.841 -3718.594)"/><path class="b" d="M5539.86,3627.526c1.813,0,3.633-.091,5.439.02,3.125.194,4.375,1.792,4.52,4.5a4.91,4.91,0,0,1-2.233,4.882,6.068,6.068,0,0,1-3.256.832c-3.369.01-6.737,0-10.106.011-.35,0-.484-.083-.482-.463q.021-4.694,0-9.388c0-.4.168-.448.5-.446,1.874.011,3.748.005,5.621.005Z" transform="translate(-5509.843 -3608.272)"/></g></g></g></svg>