<svg xmlns="http://www.w3.org/2000/svg" width="82.867" height="80.105" viewBox="0 0 82.867 80.105"><defs><style>.a{fill:#14406d;}.b{fill:#fef0d4;}.c{fill:#fe9801;}</style></defs><path class="a" d="M77.589,17.066H12.678a4.146,4.146,0,0,0-4.145,4.145V69.549h80.1V21.211a4.146,4.146,0,0,0-4.145-4.145h-6.9Z" transform="translate(-7.152 -15.685)"/><rect class="b" width="69.056" height="44.196" transform="translate(6.906 5.906)"/><g transform="translate(1.381 51.101)"><path class="c" d="M84.493,335.315H12.678a4.146,4.146,0,0,1-4.145-4.145v-6.9h80.1v6.9A4.145,4.145,0,0,1,84.493,335.315Z" transform="translate(-8.533 -324.266)"/><path class="c" d="M166.671,466.324H130.762A2.762,2.762,0,0,1,128,463.561h0a2.762,2.762,0,0,1,2.762-2.762h35.909a2.762,2.762,0,0,1,2.762,2.762h0A2.762,2.762,0,0,1,166.671,466.324Z" transform="translate(-108.664 -438.701)"/></g><path class="c" d="M322.542,207.553l-4.181-4.181a.183.183,0,0,1,0-.26l2.7-2.7-13.811-4.143,4.143,13.811,2.633-2.632a.423.423,0,0,1,.6,0l4.012,4.014Z" transform="translate(-257.523 -165.882)"/><rect class="c" width="11.049" height="5.524" transform="translate(24.86 27.622)"/><path class="a" d="M81.486,61.015H1.381A1.382,1.382,0,0,1,0,59.634V14.059A5.532,5.532,0,0,1,5.526,8.533H77.341a5.532,5.532,0,0,1,5.526,5.526V59.634A1.382,1.382,0,0,1,81.486,61.015ZM2.762,58.253H80.1V14.059A2.766,2.766,0,0,0,77.341,11.3H5.526a2.766,2.766,0,0,0-2.764,2.764V58.253Z" transform="translate(0 -8.533)"/><path class="a" d="M77.341,329.545H5.526A5.532,5.532,0,0,1,0,324.019v-6.9a1.382,1.382,0,0,1,1.381-1.381h80.1a1.382,1.382,0,0,1,1.381,1.381v6.9A5.532,5.532,0,0,1,77.341,329.545ZM2.762,318.5v5.523a2.766,2.766,0,0,0,2.764,2.764H77.341a2.766,2.766,0,0,0,2.764-2.764V318.5Z" transform="translate(0 -266.014)"/><path class="a" d="M231.535,352.629h-8.287a1.381,1.381,0,0,1,0-2.762h8.287a1.381,1.381,0,0,1,0,2.762Z" transform="translate(-185.958 -294.622)"/><path class="a" d="M159.519,460.554H123.61a4.143,4.143,0,0,1,0-8.287h35.909a4.143,4.143,0,1,1,0,8.287Zm-35.909-5.525a1.381,1.381,0,0,0,0,2.762h35.909a1.381,1.381,0,1,0,0-2.762Z" transform="translate(-100.131 -380.449)"/><path class="a" d="M185.366,397.812H154.981a1.381,1.381,0,1,1,0-2.762c4.583,0,6.906-3.253,6.906-9.668A1.382,1.382,0,0,1,163.268,384h13.811a1.382,1.382,0,0,1,1.381,1.381c0,6.415,2.323,9.668,6.906,9.668a1.381,1.381,0,0,1,0,2.762Zm-23.657-2.762H178.64c-1.7-1.884-2.7-4.689-2.9-8.287H164.612C164.41,390.361,163.409,393.166,161.708,395.05Z" transform="translate(-128.74 -323.232)"/><path class="a" d="M311.488,205.687a1.378,1.378,0,0,1-.976-.4l-3.334-3.335-1.953,1.954a1.38,1.38,0,0,1-2.3-.58l-4.143-13.811a1.381,1.381,0,0,1,1.719-1.719l13.811,4.143a1.381,1.381,0,0,1,.579,2.3l-1.855,1.855,3.334,3.334a1.379,1.379,0,0,1,0,1.953l-3.906,3.907A1.378,1.378,0,0,1,311.488,205.687Zm-4.31-6.9a1.8,1.8,0,0,1,1.275.528l3.036,3.037,1.953-1.954-3.2-3.2a1.565,1.565,0,0,1,0-2.211l1.069-1.069-9.139-2.742,2.742,9.139,1-1A1.8,1.8,0,0,1,307.177,198.789Zm5.009-3.55,0,0Z" transform="translate(-250.375 -158.729)"/><path class="a" d="M150.986,86.468H112.315a1.382,1.382,0,0,1-1.381-1.381V78.181a1.382,1.382,0,0,1,1.381-1.381h38.671a1.382,1.382,0,0,1,1.381,1.381v6.906A1.382,1.382,0,0,1,150.986,86.468ZM113.7,83.706h35.909V79.562H113.7Z" transform="translate(-92.979 -65.751)"/><path class="a" d="M157.5,178.954H146.448a1.382,1.382,0,0,1-1.381-1.381v-5.525a1.382,1.382,0,0,1,1.381-1.381H157.5a1.382,1.382,0,0,1,1.381,1.381v5.524A1.382,1.382,0,0,1,157.5,178.954Zm-9.668-2.762h8.287v-2.762h-8.287Z" transform="translate(-121.588 -144.426)"/><path class="a" d="M145.194,105.8H112.315a1.382,1.382,0,0,1-1.381-1.381V78.181a1.382,1.382,0,0,1,1.381-1.381h38.671a1.382,1.382,0,0,1,1.381,1.381V98.619a1.382,1.382,0,0,1-1.777,1.323l-5.821-1.747,1.748,5.83a1.382,1.382,0,0,1-1.323,1.779Zm-31.5-2.762h29.641l-1.953-6.508a1.382,1.382,0,0,1,1.719-1.721l6.5,1.95v-17.2H113.7Z" transform="translate(-92.979 -65.751)"/></svg>