<svg xmlns="http://www.w3.org/2000/svg" width="52.879" height="43.109" viewBox="0 0 52.879 43.109"><defs><style>.a{fill:none;}.b{fill:#010101;}.c{fill:#14406d;}.d{fill:#fe9801;}</style></defs><g transform="translate(220 -160)"><path class="a" d="M-220,160"/><g transform="translate(-218.654 160.727)"><rect class="b" width="19.924" height="1.427" transform="translate(27.112 4.55)"/><path class="c" d="M-134.579,162.7h-34.167a2.838,2.838,0,0,0-2.854,2.854v20.408h2.854v-16.1h34.167V194.04h-8.535c.538,1.158.888,2.154.888,2.154-.215.242-.431.458-.646.673h8.266a2.873,2.873,0,0,0,2.854-2.854V165.554A2.832,2.832,0,0,0-134.579,162.7Zm-32.04,4.981a1.419,1.419,0,0,1-1.427-1.427,1.436,1.436,0,0,1,1.427-1.427,1.419,1.419,0,0,1,1.427,1.427A1.4,1.4,0,0,1-166.619,167.681Zm4.281,0a1.419,1.419,0,0,1-1.427-1.427,1.436,1.436,0,0,1,1.427-1.427,1.419,1.419,0,0,1,1.427,1.427A1.419,1.419,0,0,1-162.338,167.681Zm4.362,0a1.419,1.419,0,0,1-1.427-1.427,1.436,1.436,0,0,1,1.427-1.427,1.419,1.419,0,0,1,1.427,1.427A1.419,1.419,0,0,1-157.976,167.681Z" transform="translate(183.285 -162.7)"/><path class="c" d="M-154.7,263.45a11.517,11.517,0,0,0-1.831-2.935,4.02,4.02,0,0,0-1.1-.727,1.141,1.141,0,0,0-.565-.054c-.969.162-2.208,2.208-4.254,3.716h-10.312a9.786,9.786,0,0,1-1.7-1.965h5.708s1.642.108,1.642-1.185v-3.258a1.525,1.525,0,0,0-1.642-1.642H-185.2v13.947s11.093,3.473,15.024,3.473c0,0,9.181.377,15.7-6.489.215-.215.431-.431.646-.673A15.883,15.883,0,0,0-154.7,263.45Z" transform="translate(193.223 -230.441)"/><rect class="c" width="5.654" height="19.143" transform="translate(0 23.182)"/><path class="d" d="M0,0H34V24H25.542s-2.241-5.5-4.907-5.434c-2.95,0-6.892,5.434-6.892,5.434V15.969H0Z" transform="translate(14.654 7.268)"/></g></g></svg>