<svg xmlns="http://www.w3.org/2000/svg" width="50.421" height="45.584" viewBox="0 0 50.421 45.584"><defs><style>.a{fill:#fe9801;}.b{fill:#14406d;}</style></defs><g transform="translate(221.527 -155.39)"><path class="a" d="M-168.891,159h-47.2a1.613,1.613,0,0,0-1.612,1.612v42.36a1.613,1.613,0,0,0,1.612,1.612h47.2a1.613,1.613,0,0,0,1.612-1.612v-42.36A1.613,1.613,0,0,0-168.891,159Zm-10.979,30.436a1.246,1.246,0,0,1-1.251,1.251h-1.445a10.807,10.807,0,0,1-.584,1.418l1.028,1.028a1.242,1.242,0,0,1,0,1.779l-2.78,2.78a1.242,1.242,0,0,1-1.779,0l-1.028-1.028a10.808,10.808,0,0,1-1.418.584v1.445a1.246,1.246,0,0,1-1.251,1.251H-194.3a1.246,1.246,0,0,1-1.251-1.251v-1.445a10.808,10.808,0,0,1-1.418-.584l-1.028,1.028a1.242,1.242,0,0,1-1.779,0l-2.78-2.78a1.242,1.242,0,0,1,0-1.779l1.028-1.028a10.806,10.806,0,0,1-.584-1.418h-1.445a1.246,1.246,0,0,1-1.251-1.251v-3.919a1.246,1.246,0,0,1,1.251-1.251h1.445a10.808,10.808,0,0,1,.584-1.418l-1.028-1.028a1.242,1.242,0,0,1,0-1.779l2.78-2.78a1.242,1.242,0,0,1,1.779,0l1.028,1.028a10.806,10.806,0,0,1,1.418-.584v-1.473a1.246,1.246,0,0,1,1.251-1.251h3.919a1.246,1.246,0,0,1,1.251,1.251v1.445a10.806,10.806,0,0,1,1.418.584l1.028-1.028a1.242,1.242,0,0,1,1.779,0l2.78,2.78a1.242,1.242,0,0,1,0,1.779l-1.028,1.028a10.806,10.806,0,0,1,.584,1.418h1.445a1.246,1.246,0,0,1,1.251,1.251v3.947Zm9.367-19.123h-43.972v-8.088H-170.5v8.088Z" transform="translate(-3.827 -3.61)"/><path class="b" d="M-179.871,189.436a1.246,1.246,0,0,1-1.251,1.251h-1.445a10.807,10.807,0,0,1-.584,1.418l1.028,1.028a1.242,1.242,0,0,1,0,1.779l-2.78,2.78a1.242,1.242,0,0,1-1.779,0l-1.028-1.028a10.808,10.808,0,0,1-1.418.584v1.445a1.246,1.246,0,0,1-1.251,1.251H-194.3a1.246,1.246,0,0,1-1.251-1.251v-1.445a10.808,10.808,0,0,1-1.418-.584l-1.028,1.028a1.242,1.242,0,0,1-1.779,0l-2.78-2.78a1.242,1.242,0,0,1,0-1.779l1.028-1.028a10.806,10.806,0,0,1-.584-1.418h-1.445a1.246,1.246,0,0,1-1.251-1.251v-3.919a1.246,1.246,0,0,1,1.251-1.251h1.445a10.808,10.808,0,0,1,.584-1.418l-1.028-1.028a1.242,1.242,0,0,1,0-1.779l2.78-2.78a1.242,1.242,0,0,1,1.779,0l1.028,1.028a10.806,10.806,0,0,1,1.418-.584v-1.473a1.246,1.246,0,0,1,1.251-1.251h3.919a1.246,1.246,0,0,1,1.251,1.251v1.445a10.806,10.806,0,0,1,1.418.584l1.028-1.028a1.242,1.242,0,0,1,1.779,0l2.78,2.78a1.242,1.242,0,0,1,0,1.779l-1.028,1.028a10.806,10.806,0,0,1,.584,1.418h1.445a1.246,1.246,0,0,1,1.251,1.251v3.947Z" transform="translate(-3.827 -3.61)"/><circle class="a" cx="6.476" cy="6.476" r="6.476" transform="translate(-202.654 177.598)"/></g></svg>