<svg xmlns="http://www.w3.org/2000/svg" width="80" height="80.318" viewBox="0 0 80 80.318"><defs><style>.a{fill:#fe9801;}.b{fill:#fff;}.c{fill:#14406d;}</style></defs><path class="a" d="M403.016,10A68.742,68.742,0,0,1,399.2,28.385l-14.57-14.57A68.74,68.74,0,0,1,403.016,10Z" transform="translate(-324.624 -8.431)"/><path class="b" d="M331.046,113.265a6.279,6.279,0,1,1-8.88,0A6.279,6.279,0,0,1,331.046,113.265Z" transform="translate(-270.318 -93.949)"/><g transform="translate(16.433 19.217)"><path class="a" d="M291.02,277.276c8.09,12.135-7.054,19.979-15.538,19.979a11.663,11.663,0,0,0,3.143-10.176l-1.656-1.656a62.3,62.3,0,0,0,13.84-8.412Z" transform="translate(-248.843 -252.773)"/><path class="a" d="M163.116,238.3l-.254-.254a3.043,3.043,0,0,1-.855-2.871,54.7,54.7,0,0,1,2.934-8.371l16.293,16.293a54.7,54.7,0,0,1-8.371,2.934,3.043,3.043,0,0,1-2.871-.855l-.254-.254Z" transform="translate(-153.108 -210.444)"/><path class="a" d="M125.751,124.9l.265.212a62.307,62.307,0,0,0-8.412,13.84l-1.656-1.656a11.663,11.663,0,0,0-10.176,3.142C105.772,131.955,113.616,116.811,125.751,124.9Z" transform="translate(-105.772 -122.596)"/></g><path class="a" d="M115.78,300.041l6.621,6.621a12.371,12.371,0,0,1-3.31,5.569c-3.678,3.678-13.319,4.439-13.319,4.439s.761-9.641,4.439-13.319A12.371,12.371,0,0,1,115.78,300.041Z" transform="translate(-89.265 -252.981)"/><path class="c" d="M254.267,243.1a1.57,1.57,0,1,0-2.221,0A1.571,1.571,0,0,0,254.267,243.1Z" transform="translate(-212.284 -202.705)"/><path class="c" d="M324,114.815a7.849,7.849,0,1,0-11.1,0A7.845,7.845,0,0,0,324,114.815Zm-8.88-8.88a4.709,4.709,0,1,1,0,6.66A4.707,4.707,0,0,1,315.118,105.936Z" transform="translate(-262.125 -85.509)"/><path class="c" d="M96.987,38.537A1.569,1.569,0,0,0,98.7,38.2a9.993,9.993,0,0,1,8.311-2.788l.55.55a55.215,55.215,0,0,0-2.592,7.624,4.443,4.443,0,0,0,.19,2.727,14.865,14.865,0,0,0-4.239,2.989c-4.041,4.041-4.861,13.888-4.894,14.305A1.569,1.569,0,0,0,97.588,65.3q.062,0,.124,0c.417-.033,10.265-.853,14.305-4.894A14.865,14.865,0,0,0,115,56.159a4.433,4.433,0,0,0,2.728.189,55.219,55.219,0,0,0,7.623-2.592l.55.55a9.993,9.993,0,0,1-2.788,8.311,1.57,1.57,0,0,0,1.11,2.679c6.213,0,14.9-3.7,18.1-9.677,1.389-2.6,2.335-6.7-.681-11.827,1.279-1.081,2.511-2.211,3.672-3.373A52.558,52.558,0,0,0,157.41,20.477a69.73,69.73,0,0,0,3.9-18.851A1.569,1.569,0,0,0,159.688,0a69.731,69.731,0,0,0-18.85,3.9A52.554,52.554,0,0,0,120.9,16c-1.161,1.161-2.292,2.393-3.373,3.672-5.125-3.017-9.231-2.071-11.827-.681-5.977,3.2-9.677,11.885-9.677,18.1A1.571,1.571,0,0,0,96.987,38.537Zm12.81,19.64c-2.158,2.158-7.221,3.3-10.421,3.761.465-3.2,1.6-8.263,3.762-10.421a11.312,11.312,0,0,1,4.019-2.641l5.282,5.282A11.31,11.31,0,0,1,109.8,58.177Zm7.156-4.87a1.473,1.473,0,0,1-1.372-.445l-7.128-7.128a1.474,1.474,0,0,1-.446-1.372,50.965,50.965,0,0,1,1.96-6l12.98,12.98A50.931,50.931,0,0,1,116.953,53.307Zm22.6.83c-2.057,3.842-7.235,6.675-11.953,7.65a13.36,13.36,0,0,0,1.287-8.621,1.639,1.639,0,0,0-.477-.793,63.49,63.49,0,0,0,10.75-6.595C140.8,48.762,140.931,51.569,139.557,54.137Zm15.684-37.092L144.269,6.073a70.571,70.571,0,0,1,13.773-2.8A70.581,70.581,0,0,1,155.241,17.045Zm-32.125,1.173A48.945,48.945,0,0,1,140.959,7.2l13.153,13.153A48.941,48.941,0,0,1,143.1,38.2a56.973,56.973,0,0,1-4.527,4.061,60.307,60.307,0,0,1-12.513,7.757L111.3,35.258a60.3,60.3,0,0,1,7.757-12.513A56.963,56.963,0,0,1,123.116,18.218Zm-15.939,3.539c2.568-1.374,5.375-1.239,8.359.394a63.466,63.466,0,0,0-6.595,10.75,1.655,1.655,0,0,0-.831-.488,13.416,13.416,0,0,0-8.583,1.3C100.5,28.992,103.335,23.813,107.177,21.757Z" transform="translate(-81.314 0)"/><path class="c" d="M197.7,417.241l4.439-4.441a1.57,1.57,0,0,0-2.22-2.22l-4.439,4.441a1.57,1.57,0,0,0,2.22,2.22Z" transform="translate(-164.563 -345.795)"/><path class="c" d="M56.271,275.82l4.441-4.439a1.57,1.57,0,1,0-2.219-2.22L54.052,273.6a1.57,1.57,0,1,0,2.219,2.22Z" transform="translate(-45.18 -226.553)"/><path class="c" d="M95.944,424.731,85.311,435.362a1.57,1.57,0,1,0,2.22,2.22l10.633-10.631a1.57,1.57,0,1,0-2.22-2.22Z" transform="translate(-71.606 -357.724)"/><path class="c" d="M15.944,424.731,5.311,435.362a1.57,1.57,0,1,0,2.22,2.22l10.633-10.631a1.57,1.57,0,1,0-2.22-2.22Z" transform="translate(-4.09 -357.724)"/><path class="c" d="M2.681,352.723,13.312,342.09a1.57,1.57,0,1,0-2.22-2.22L.461,350.5a1.57,1.57,0,1,0,2.22,2.22Z" transform="translate(-0.001 -286.174)"/><path class="c" d="M282.551,202.889l2.22-2.219a1.57,1.57,0,0,0-2.22-2.22l-2.22,2.22a1.57,1.57,0,0,0,2.22,2.22Z" transform="translate(-236.156 -166.933)"/></svg>