<svg xmlns="http://www.w3.org/2000/svg" width="80" height="80" viewBox="0 0 80 80"><defs><style>.a{fill:#fe9801;}.b{fill:#14406d;}</style></defs><g transform="translate(72.138 1.572)"><path class="a" d="M468.29,230v6.29H462V230h6.29Z" transform="translate(-462 -195.407)"/><path class="a" d="M465.145,10A3.145,3.145,0,1,1,462,13.145,3.144,3.144,0,0,1,465.145,10Z" transform="translate(-462 -10)"/></g><path class="a" d="M198.014,399a3.145,3.145,0,0,1,0,6.29H179.145a3.145,3.145,0,0,1,0-6.29Z" transform="translate(-148.579 -336.768)"/><g transform="translate(1.572 1.572)"><rect class="a" width="20.044" height="10.022" transform="translate(28.659 66.236)"/><path class="a" d="M242.29,13.286v3H236V10h6.29v3.286Z" transform="translate(-200.464 -10)"/><path class="a" d="M239.145,273A3.145,3.145,0,1,1,236,276.145,3.144,3.144,0,0,1,239.145,273Z" transform="translate(-200.464 -231.943)"/><path class="a" d="M16.29,230v6.29H10V230h6.29Z" transform="translate(-10 -195.656)"/><path class="a" d="M13.145,10A3.145,3.145,0,1,1,10,13.145,3.144,3.144,0,0,1,13.145,10Z" transform="translate(-10 -10)"/></g><path class="b" d="M453.421,146.813H451.54a35.718,35.718,0,0,0-4.237-12.847,1.572,1.572,0,0,0-2.748,1.53,32.588,32.588,0,0,1,3.813,11.317h-1.238a1.572,1.572,0,0,0-1.572,1.572v6.29a1.572,1.572,0,0,0,1.572,1.572h6.29a1.572,1.572,0,0,0,1.572-1.572v-6.29A1.572,1.572,0,0,0,453.421,146.813Zm-1.572,6.29H448.7v-3.145h3.145Z" transform="translate(-374.993 -112.405)"/><path class="b" d="M180.59,130.288c0-.024,0-.049,0-.073s-.007-.066-.012-.1-.005-.04-.009-.06c-.007-.038-.017-.076-.027-.114,0-.014-.007-.029-.011-.043-.014-.047-.03-.093-.049-.138l-.005-.015a1.549,1.549,0,0,0-.073-.153l-15.724-28.774a1.572,1.572,0,0,0-2.76,0l-15.724,28.774a1.548,1.548,0,0,0-.073.153l-.006.015c-.018.045-.035.091-.049.138,0,.014-.007.028-.011.043-.01.038-.019.075-.027.114,0,.02-.006.04-.009.06s-.009.066-.012.1,0,.049,0,.073,0,.039,0,.059,0,.02,0,.031,0,.049,0,.074,0,.062.008.093.006.043.01.065.012.068.02.1.009.037.014.056c.01.036.021.071.033.106,0,.01.006.02.009.03l5.671,15.027a4.717,4.717,0,0,0,.517,8.676v8.6a1.572,1.572,0,0,0,1.572,1.572h18.869a1.572,1.572,0,0,0,1.572-1.572v-8.6a4.717,4.717,0,0,0,.517-8.677l5.671-15.029c0-.01.006-.02.009-.03.012-.035.024-.07.034-.106.005-.019.01-.037.014-.056s.014-.067.02-.1.007-.043.01-.065.006-.062.008-.093,0-.049,0-.074,0-.02,0-.031S180.591,130.308,180.59,130.288Zm-7.859,1.632h4.016l-5.1,13.523H154.949l-5.1-13.523h4.016a1.572,1.572,0,0,0,0-3.145h-3.639l11.5-21.046V125.9a4.717,4.717,0,1,0,3.145,0V107.729l11.5,21.046h-3.639a1.572,1.572,0,1,0,0,3.145Zm-9.434-3.145a1.572,1.572,0,1,1-1.572,1.572A1.574,1.574,0,0,1,163.3,128.775Zm-7.862,32.863v-6.761h15.724v6.761Zm18.408-10.367a1.562,1.562,0,0,1-1.112.461H153.862a1.572,1.572,0,0,1,0-3.145h18.874a1.572,1.572,0,0,1,1.106,2.683Z" transform="translate(-123.296 -84.783)"/><path class="b" d="M9.828,133.356a1.572,1.572,0,0,0-2.139.609,35.717,35.717,0,0,0-4.237,12.847H1.572A1.572,1.572,0,0,0,0,148.385v6.29a1.572,1.572,0,0,0,1.572,1.572h6.29a1.572,1.572,0,0,0,1.572-1.572v-6.29a1.572,1.572,0,0,0-1.572-1.572H6.624A32.592,32.592,0,0,1,10.437,135.5,1.572,1.572,0,0,0,9.828,133.356ZM6.29,153.1H3.145v-3.145H6.29Z" transform="translate(0 -112.405)"/><path class="b" d="M64.09,11.649a34.55,34.55,0,0,0-8.9-5.359H70.894a4.717,4.717,0,1,0,0-3.145H44.687V1.572A1.567,1.567,0,0,0,43.125,0h-6.25a1.567,1.567,0,0,0-1.563,1.572V3.145H9.106a4.717,4.717,0,1,0,0,3.145H24.815a34.55,34.55,0,0,0-8.9,5.359,1.579,1.579,0,0,0-.187,2.216,1.555,1.555,0,0,0,2.2.189A35.117,35.117,0,0,1,35.312,6.623V7.862a1.567,1.567,0,0,0,1.563,1.572h6.25a1.567,1.567,0,0,0,1.563-1.572V6.623a35.119,35.119,0,0,1,17.388,7.431,1.555,1.555,0,0,0,2.2-.189A1.579,1.579,0,0,0,64.09,11.649Zm11.223-8.5A1.572,1.572,0,1,1,73.75,4.717,1.569,1.569,0,0,1,75.312,3.145ZM4.687,6.29A1.572,1.572,0,1,1,6.25,4.717,1.569,1.569,0,0,1,4.687,6.29Zm36.875,0H38.437V3.145h3.125V6.29Z" transform="translate(0 0)"/><path class="b" d="M423.572,100a1.572,1.572,0,1,0,1.572,1.572A1.573,1.573,0,0,0,423.572,100Z" transform="translate(-356.152 -84.379)"/><path class="b" d="M71.572,100a1.572,1.572,0,1,0,1.572,1.572A1.573,1.573,0,0,0,71.572,100Z" transform="translate(-58.993 -84.379)"/></svg>