<svg xmlns="http://www.w3.org/2000/svg" width="373.734" height="315.822" viewBox="0 0 373.734 315.822"><defs><style>.a{fill:#fe9801;opacity:0.1;}</style></defs><path class="a" d="M2476.651,1433.89l-187.607-235.106c6.774-7.382,13.467-14.669,20.154-21.963q26.24-28.617,52.521-57.195a5.085,5.085,0,0,1,3.334-1.505q111.346-.105,222.694-.007a4.759,4.759,0,0,1,3.169,1.347q34.98,38.371,69.833,76.857c2.7,2.972,2.659,3.02.167,6.15q-91.176,114.553-182.357,229.1C2478.033,1432.23,2477.486,1432.875,2476.651,1433.89ZM2641.9,1205.825h-3.225q-50.053,0-100.105-.058c-2.255-.005-3.051.7-3.571,2.815q-22.572,91.673-45.259,183.319c-.384,1.554-.7,3.125-1.042,4.689l.65.373Zm-329.756,0-.474.717q76.106,95.362,152.213,190.721l.566-.371c-.187-.9-.344-1.815-.563-2.711-5.107-20.8-10.169-41.612-15.347-62.395q-15.336-61.56-30.728-123.1c-.547-2.2-1.414-2.919-3.729-2.913q-49.695.124-99.391.057Zm118.389.161q22.806,91.369,45.488,182.235l.982,0,45.286-182.239Zm-20.631-13.652-40.814-61.547-56.627,61.547Zm137.8-.068h92.135l-55.186-60.741C2571.612,1151.511,2560.122,1171.827,2547.7,1192.265Zm-29.57-.011c-.824-1.34-1.366-2.267-1.953-3.167-8.809-13.5-17.573-27.031-26.459-40.481-3.561-5.389-7.391-10.6-11.1-15.891-1.123-1.6-2.261-1.7-3.471-.068-1.3,1.75-2.73,3.409-3.949,5.213q-17.6,26.035-35.128,52.112c-.378.561-.671,1.18-1.291,2.282Zm-24.038-60.745,39.122,59.693,35.669-59.693Zm-71.966,55.667,37.537-55.615h-74.349Z" transform="translate(-2289.044 -1118.068)"/></svg>