<svg xmlns="http://www.w3.org/2000/svg" width="80.001" height="80.001" viewBox="0 0 80.001 80.001"><defs><style>.a{fill:#fe9801;}.b{fill:#14406d;}</style></defs><path class="a" d="M48.438,250A38.419,38.419,0,0,0,10,288.438v.938H86.876v-.938A38.414,38.414,0,0,0,48.438,250Z" transform="translate(-8.437 -210.937)"/><path class="a" d="M294.438,49.375H274.75V40H256V58.75h18.75v9.375h19.688l-9.375-9.375Z" transform="translate(-215.999 -33.75)"/><ellipse class="b" cx="1" cy="2" rx="1" ry="2" transform="translate(66 48.001)"/><path class="b" d="M72.968,54.829A1.563,1.563,0,0,0,70.4,56.605,36.414,36.414,0,0,1,75.98,69.363c-3.785-4.1-10.059-7.584-18.024-9.793-2.074-7.922-5.248-14.086-9.025-17.862a36.416,36.416,0,0,1,11.966,5.4,1.562,1.562,0,1,0,1.776-2.571,39.646,39.646,0,0,0-21.109-7V26.563H57.188v7.813a1.563,1.563,0,0,0,1.563,1.563H78.439a1.562,1.562,0,0,0,1.1-2.667L71.273,25l8.27-8.27a1.562,1.562,0,0,0-1.105-2.667H60.313V6.25a1.563,1.563,0,0,0-1.563-1.563H41.563V1.562a1.563,1.563,0,1,0-3.125,0V37.533A39.974,39.974,0,0,0,0,77.5v.938A1.563,1.563,0,0,0,1.563,80H78.439A1.563,1.563,0,0,0,80,78.439V77.5a39.7,39.7,0,0,0-7.033-22.672Zm3.745,22.047H60.3a76.9,76.9,0,0,0-1.525-13.81C68.746,66.169,75.592,71.447,76.713,76.876ZM41.563,40.8c6.614,1.481,11,11.363,12.912,17.91a67.891,67.891,0,0,0-12.912-1.5Zm-3.125,0V57.207a67.876,67.876,0,0,0-12.912,1.5C27.435,52.184,31.818,42.285,38.438,40.8Zm-13.8,21.321a64.258,64.258,0,0,1,13.8-1.79V76.876H22.831A72.974,72.974,0,0,1,24.634,62.123ZM19.706,76.876H3.288c1.121-5.429,7.967-10.707,17.942-13.81a76.9,76.9,0,0,0-1.525,13.81ZM41.563,60.333a64.258,64.258,0,0,1,13.8,1.79,72.964,72.964,0,0,1,1.8,14.753H41.563ZM67.959,23.9a1.563,1.563,0,0,0,0,2.21l6.708,6.708H60.313V17.188H74.666ZM57.188,7.813V23.438H41.563V7.813Zm-26.12,33.9c-3.776,3.776-6.951,9.94-9.024,17.86-7.963,2.208-14.235,5.692-18.02,9.789A36.936,36.936,0,0,1,31.069,41.709Z" transform="translate(0 0)"/></svg>