<svg xmlns="http://www.w3.org/2000/svg" xmlns:xlink="http://www.w3.org/1999/xlink" width="72" height="72" viewBox="0 0 72 72"><defs><style>.a{fill:none;}.b{fill:url(#a);}.c{fill:#fe9801;}</style><linearGradient id="a" x1="0.5" x2="0.5" y2="1" gradientUnits="objectBoundingBox"><stop offset="0" stop-color="#0056aa"/><stop offset="1" stop-color="#283654"/></linearGradient></defs><g transform="translate(-1361.938 -3611.323)"><circle class="a" cx="36" cy="36" r="36" transform="translate(1361.938 3611.323)"/><g transform="translate(-1621.559 1162.818)"><g transform="translate(2991.559 2449)"><path class="b" d="M3028.449,2449q0,26.079.029,52.157c0,1.031-.331,1.325-1.262,1.483a73.068,73.068,0,0,1-16.854,1.219,27.214,27.214,0,0,1-8.871-1.909,15.308,15.308,0,0,1-9.609-12.026,30.243,30.243,0,0,1-.323-4.241,35.012,35.012,0,0,1,.317-4.623c1.233-6.25,4.622-10.808,10.534-13.335a23.58,23.58,0,0,1,12.886-1.446c1.461.211,1.455.251,1.455-1.18,0-1.46-.006-2.921,0-4.382q.029-5.859.067-11.717Zm-11.348,36.379v-7c0-2.383,0-2.383-2.367-2.7-5.54-.746-9.659,2.026-10.638,7.186a13.612,13.612,0,0,0-.22,3.305c.273,4.788,2.5,7.709,6.553,8.566a19.4,19.4,0,0,0,6.018.063c.719-.073.655-.524.655-1Q3017.1,2489.588,3017.1,2485.379Z" transform="translate(-2991.559 -2449)"/><path class="c" d="M3153.006,2564.086a16.9,16.9,0,0,1-5.592,11.284,22.59,22.59,0,0,1-5.241,3.432,1.288,1.288,0,0,1-1.235.066q-5.03-2.377-10.085-4.744c.27-.522.778-.613,1.187-.793,6.4-2.824,9.355-7.888,9.789-14.719.369-5.809.208-11.617.25-17.426.032-4.585.006-9.172.007-13.758,0-.5-.132-1.05.7-1.045,3.553.022,7.108-.16,10.658.1q-.011,14.293-.018,28.587C3153.428,2555.368,3153.137,2562.473,3153.006,2564.086Z" transform="translate(-3097.796 -2507.986)"/><path class="c" d="M3188.866,2449c-.014,3.6-.053,7.193-.025,10.789.006.814-.2,1.086-1.046,1.073q-4.861-.072-9.724,0c-.85.013-1.052-.259-1.046-1.073.028-3.6-.011-7.192-.025-10.789Z" transform="translate(-3132.99 -2449)"/></g></g></g></svg>