<svg xmlns="http://www.w3.org/2000/svg" xmlns:xlink="http://www.w3.org/1999/xlink" width="55.682" height="23.056" viewBox="0 0 55.682 23.056"><defs><style>.a{fill:none;}.b{fill:url(#a);}</style><linearGradient id="a" y1="0.498" x2="1" y2="0.498" gradientUnits="objectBoundingBox"><stop offset="0" stop-color="#0b58a8"/><stop offset="1" stop-color="#283654"/></linearGradient></defs><g transform="translate(0 0)"><path class="a" d="M-217,199" transform="translate(217 -199)"/><path class="b" d="M-179.479,219.615c.221-.552.441-1.076.634-1.627.993-3.116,2.013-6.233,2.979-9.349a12.31,12.31,0,0,1,1.544-3.42,6.984,6.984,0,0,1,4.771-2.785,16.361,16.361,0,0,1,2.317-.165c2.317-.028,4.633,0,6.95,0a2.384,2.384,0,0,1,.414.028c-.055.138-.083.221-.138.331-.855,1.544-1.71,3.089-2.592,4.606-1.544,2.648-3.089,5.3-4.661,7.915a41.915,41.915,0,0,1-3.365,4.826,14.012,14.012,0,0,1-3.144,2.979,5.179,5.179,0,0,1-2.785.855c-3.64-.028-7.281,0-10.921,0a4.015,4.015,0,0,1-2.785-1.131,9.8,9.8,0,0,1-2.344-3.778,60.087,60.087,0,0,1-2.206-7.915c-.3-1.241-.634-2.482-.965-3.723a1.9,1.9,0,0,0-.11-.276l-.248.248a30.252,30.252,0,0,0-3.778,4.606,5.95,5.95,0,0,0-.579,1.572c-.634,1.958-1.186,3.944-1.875,5.9a7.072,7.072,0,0,1-3.64,4.22,8.068,8.068,0,0,1-3.365.827c-1.738.028-3.5.055-5.24.055-.414,0-.441-.028-.331-.441a53.9,53.9,0,0,1,2.9-8.136,37.293,37.293,0,0,1,4.5-7.639,18.5,18.5,0,0,1,4.33-4.22,6.365,6.365,0,0,1,2.841-1.131,3.337,3.337,0,0,1,.524-.028c3.723,0,7.446.028,11.17-.028a5.061,5.061,0,0,1,4.523,2.427,15.2,15.2,0,0,1,1.572,3.227,66.788,66.788,0,0,1,1.9,6.978c.331,1.351.689,2.675,1.048,4,.028.11.083.193.11.3l.055-.11Z" transform="translate(215.552 -201.358)"/></g></svg>