<svg xmlns="http://www.w3.org/2000/svg" width="72" height="72" viewBox="0 0 72 72"><defs><style>.a{fill:none;}.b{fill:#fe9801;}.c{fill:#002446;}.d{fill:#0056aa;}</style></defs><g transform="translate(-1205.631 -3779.964)"><circle class="a" cx="36" cy="36" r="36" transform="translate(1205.631 3779.964)"/><g transform="translate(-896.24 585.985)"><g transform="translate(2111.651 3194.015)"><path class="b" d="M2139.807,3265.943h-1.5a.123.123,0,0,0-.1-.053,5.73,5.73,0,0,1-1.792-.683q-10.239-5.724-20.482-11.439c-.98-.547-1.957-1.1-2.935-1.651q0-.156-.008-.311c.188-1.233.373-2.467.564-3.7q.412-2.66.832-5.319.391-2.5.78-5.006.416-2.66.833-5.319.422-2.7.843-5.4.413-2.646.828-5.291.448-2.873.894-5.746.5-3.214,1.007-6.428.422-2.7.842-5.4.361-2.318.723-4.637c.215-1.375.423-2.75.646-4.124a1.68,1.68,0,0,1,3.106-.582c.06.1.113.2.167.3q3.635,6.825,7.269,13.651c.537,1.008,1.068,2.019,1.6,3.029l.053.1-.171.2c-.185-.335-.375-.668-.555-1.006q-.784-1.473-1.562-2.949l-1.548-2.925q-.814-1.539-1.626-3.078c-.511-.967-1.026-1.931-1.534-2.9-.539-1.028-1.069-2.061-1.608-3.09-.214-.408-.416-.824-.666-1.209a1.48,1.48,0,0,0-1.932-.5,1.52,1.52,0,0,0-.819,1.155c-.177.99-.323,1.985-.479,2.979-.147.946-.287,1.894-.435,2.84-.142.908-.288,1.815-.433,2.722q-.165,1.035-.332,2.069-.122.766-.24,1.532c-.108.7-.212,1.4-.321,2.1-.083.529-.173,1.058-.255,1.587-.109.7-.212,1.4-.321,2.1-.082.53-.174,1.058-.255,1.588-.108.71-.206,1.421-.315,2.131-.162,1.051-.331,2.1-.5,3.151q-.195,1.234-.389,2.469c-.1.615-.2,1.229-.295,1.845-.146.947-.284,1.895-.431,2.841-.163,1.051-.334,2.1-.5,3.15-.125.795-.241,1.591-.367,2.385-.142.9-.293,1.8-.433,2.7-.146.937-.281,1.875-.426,2.813-.166,1.069-.338,2.138-.506,3.207-.14.889-.276,1.78-.416,2.669q-.194,1.235-.392,2.469c-.129.813-.26,1.627-.386,2.441-.1.653-.2,1.307-.293,1.96-.031.107-.06.215-.094.322a.119.119,0,0,0,.033.149c.014.052.046.1.1.062a1.348,1.348,0,0,0,.193-.171c7.895-7.859,15.74-15.768,23.653-23.61,6.194-6.139,12.339-12.327,18.506-18.492.115-.116.226-.237.348-.345a1.349,1.349,0,0,1,2.137.337,2.711,2.711,0,0,1,.292.958c.131.8.253,1.608.383,2.412.121.747.249,1.493.371,2.24.131.8.258,1.608.389,2.411.1.6.2,1.19.3,1.786.166,1.031.324,2.063.49,3.093.182,1.125.37,2.25.554,3.375q.224,1.375.445,2.751c.1.624.2,1.248.3,1.872.143.889.282,1.778.426,2.667q.245,1.518.5,3.034.218,1.333.438,2.665c.16.974.321,1.947.478,2.921.164,1.021.321,2.044.486,3.065.183,1.135.374,2.268.558,3.4q.263,1.616.518,3.234c.022.14.085.207.224.2.023.057,0,.132.064.173v.173c-.119.06-.24.116-.356.181q-11.64,6.49-23.279,12.983a5.54,5.54,0,0,1-1.795.674A.134.134,0,0,0,2139.807,3265.943Z" transform="translate(-2112.895 -3194.015)"/><path class="c" d="M2115.067,3471.994c.109-.028.137-.127.18-.21.309-.6.615-1.194.926-1.79q1.044-2,2.09-4.005c.4-.757.794-1.512,1.19-2.268q1.021-1.951,2.039-3.9l1.268-2.422q.981-1.874,1.962-3.749c.378-.722.76-1.442,1.138-2.165.5-.961,1-1.927,1.5-2.884.414-.779.818-1.564,1.231-2.344q1.009-1.909,2-3.827c.4-.768.8-1.529,1.2-2.294q1.014-1.939,2.026-3.878.607-1.16,1.217-2.319c.161-.305.324-.609.485-.916a.834.834,0,0,0,.108-.265l.171-.2c.059.075.074.183.172.229a.85.85,0,0,0,.124.32c.331.627.67,1.249.994,1.879.376.733.764,1.459,1.15,2.187.687,1.295,1.361,2.6,2.038,3.9.306.586.591,1.184.916,1.758.255.451.468.922.726,1.371a2.652,2.652,0,0,1,.4.886c-.078.084-.154.171-.235.252q-5.86,5.87-11.722,11.738-7.679,7.695-15.356,15.393a.119.119,0,0,1-.032-.15C2115.008,3472.209,2115.037,3472.1,2115.067,3471.994Z" transform="translate(-2114.713 -3414.643)"/><path class="b" d="M2115.558,3376.232q7.678-7.7,15.356-15.393,5.859-5.871,11.721-11.738c.081-.081.157-.168.234-.253a1.678,1.678,0,0,0,.132-.11c2.1-2.1,4.208-4.2,6.287-6.323.014-.014.026-.029.041-.041a.209.209,0,0,0,.047-.3c-.2-.352-.382-.708-.573-1.063-.1-.249-.245-.478-.37-.715q-1.22-2.318-2.436-4.638-1.083-2.065-2.161-4.132c-.316-.6-.639-1.2-.956-1.806a1.83,1.83,0,0,0-.559-.646,1.467,1.467,0,0,0-1.816.038,1.855,1.855,0,0,0-.45.626c-.667,1.286-1.33,2.575-2,3.861-.332.639-.676,1.271-.982,1.922-.216.326-.367.687-.551,1.031-.1-.046-.113-.154-.171-.229l-.053-.1c.12-.035.141-.15.188-.24,1.145-2.175,2.3-4.346,3.425-6.53a1.762,1.762,0,0,1,2.613-.593,1.915,1.915,0,0,1,.533.67q.987,1.889,1.978,3.776l4.464,8.522c.036.067.077.131.12.2a.621.621,0,0,0,.268-.214q4.022-4.024,8.041-8.052c.082-.082.161-.165.246-.243a1.62,1.62,0,0,1,2.674.759,11.437,11.437,0,0,1,.219,1.247q.483,2.94.958,5.881.445,2.742.889,5.484.472,2.913.945,5.825l.844,5.2q.473,2.912.947,5.824.42,2.586.839,5.171.475,2.926.95,5.853c.072.445.167.886.2,1.337-.139,0-.2-.064-.224-.2q-.254-1.618-.518-3.234c-.184-1.135-.375-2.268-.558-3.4-.165-1.021-.322-2.044-.486-3.065q-.235-1.461-.478-2.921-.219-1.333-.438-2.665-.249-1.517-.5-3.034c-.144-.889-.283-1.778-.426-2.667-.1-.625-.2-1.248-.3-1.872q-.223-1.376-.445-2.751c-.184-1.125-.372-2.249-.554-3.375-.167-1.031-.325-2.062-.49-3.093-.1-.6-.2-1.191-.3-1.786-.131-.8-.257-1.607-.389-2.411-.122-.747-.25-1.493-.371-2.24-.13-.8-.252-1.608-.383-2.412a2.711,2.711,0,0,0-.292-.957,1.349,1.349,0,0,0-2.137-.337c-.122.108-.232.229-.348.345-6.167,6.166-12.311,12.354-18.505,18.493-7.913,7.842-15.758,15.75-23.653,23.61a1.319,1.319,0,0,1-.193.171C2115.6,3376.329,2115.572,3376.284,2115.558,3376.232Z" transform="translate(-2115.265 -3318.41)"/><path class="d" d="M2136.378,3214.614q-.784-1.473-1.562-2.949l-1.548-2.925q-.814-1.539-1.627-3.078c-.511-.967-1.026-1.931-1.534-2.9-.539-1.028-1.069-2.062-1.608-3.09-.214-.408-.416-.825-.666-1.209a1.48,1.48,0,0,0-1.931-.5,1.521,1.521,0,0,0-.819,1.155c-.177.99-.324,1.985-.479,2.979-.147.946-.287,1.894-.435,2.84-.142.908-.289,1.814-.434,2.722q-.166,1.035-.332,2.069-.122.765-.241,1.532c-.108.7-.212,1.4-.321,2.1-.082.53-.173,1.058-.255,1.587-.109.7-.212,1.4-.321,2.1-.083.53-.174,1.058-.255,1.588-.108.709-.205,1.421-.315,2.131-.162,1.051-.331,2.1-.5,3.151q-.195,1.235-.389,2.469c-.1.615-.2,1.229-.295,1.845-.146.947-.284,1.895-.43,2.841-.163,1.051-.334,2.1-.5,3.15-.125.795-.242,1.591-.367,2.386-.142.9-.293,1.8-.434,2.7-.146.937-.281,1.875-.426,2.813-.166,1.07-.338,2.138-.506,3.208-.139.89-.275,1.78-.415,2.669q-.194,1.235-.392,2.469c-.129.813-.26,1.626-.386,2.441-.1.653-.2,1.307-.293,1.96.109-.028.137-.126.18-.21.309-.6.615-1.194.926-1.79q1.044-2,2.091-4.005c.4-.757.794-1.512,1.19-2.268q1.021-1.951,2.039-3.9.634-1.212,1.268-2.422.981-1.874,1.962-3.749c.378-.723.76-1.443,1.138-2.166.5-.961,1-1.927,1.5-2.884.414-.779.819-1.564,1.231-2.344q1.009-1.908,2-3.827c.4-.768.8-1.529,1.2-2.294q1.014-1.939,2.026-3.877.607-1.161,1.217-2.319c.161-.306.324-.61.485-.916a.836.836,0,0,0,.108-.266C2136.748,3215.285,2136.558,3214.952,2136.378,3214.614Z" transform="translate(-2116.014 -3197.51)"/><path class="d" d="M2407.663,3345.367c-.195-.352-.382-.708-.572-1.063-.1-.249-.245-.477-.37-.715q-1.22-2.318-2.436-4.638-1.082-2.065-2.161-4.132c-.316-.6-.638-1.2-.956-1.806a1.827,1.827,0,0,0-.559-.646,1.466,1.466,0,0,0-1.815.038,1.854,1.854,0,0,0-.45.626c-.667,1.286-1.329,2.575-2,3.861-.331.639-.676,1.271-.982,1.922-.216.326-.367.687-.551,1.031a.854.854,0,0,0,.124.32c.331.627.67,1.249.994,1.879.377.733.764,1.459,1.15,2.187.686,1.295,1.36,2.6,2.038,3.9.306.586.591,1.184.916,1.758.255.451.468.922.726,1.371a2.642,2.642,0,0,1,.4.886c.044-.037.091-.07.132-.11,2.1-2.1,4.208-4.2,6.287-6.323a.529.529,0,0,1,.041-.041A.209.209,0,0,0,2407.663,3345.367Z" transform="translate(-2373.552 -3321.705)"/></g></g></g></svg>