<?xml version="1.0" encoding="utf-8"?>
<!-- Generator: Adobe Illustrator 23.0.4, SVG Export Plug-In . SVG Version: 6.00 Build 0)  -->
<svg version="1.1" width="50.421" height="45.584" xmlns="http://www.w3.org/2000/svg" xmlns:xlink="http://www.w3.org/1999/xlink" x="0px" y="0px"
	 viewBox="0 0 49.3 53.8" style="enable-background:new 0 0 49.3 53.8;" xml:space="preserve">
<style type="text/css">
	.st0{fill:#FE9801;}
	.st1{fill:#14406D;}
</style>
<path class="st0" d="M26.9,29.1c0,1.2-1,2.2-2.3,2.2c-1.2,0-2.2-1-2.2-2.3c0-1.2,1-2.2,2.3-2.2c0,0,0,0,0,0
	C25.9,26.9,26.9,27.9,26.9,29.1z"/>
<g>
	<path class="st0" d="M15,53.1c-1.7-0.1-3.5,0.1-5.2-0.2c-2.8-0.3-5.4-1.3-7.2-3.8C2.8,49.1,2.8,49,2.8,49c4.4,0.6,6.2-0.4,7.6-4.6
		c0.6-1.7,0.9-3.5,1.2-5.3c0.5-3.2,2.2-5.5,5.3-6.7c3.2-1.2,6.1-0.5,8.6,2c2.3,2.4,2.9,5.3,1.7,8.4c-1.5,3.9-3.9,7-7.8,8.7
		c-0.1,0-0.2,0.2-0.2,0.3C17.8,52.4,16.4,52.8,15,53.1z M12.8,43.4c-0.7,1.7-1.1,3.4-2.1,4.6c-0.9,1.2-2.4,2-3.6,2.8
		c4.3,2.4,13.6,0.3,15.2-3.6c-0.8,0-1.7,0-2.6,0.1c0.2-2.8,2.6-5,1.9-8.1c-0.7,0.6-1.3,1.1-1.8,1.5c-1.3,1.2-2.4,2.3-3.7,3.5
		c-0.7,0.6-1.4,0.8-1.6-0.4c-0.1-0.7-0.6-1-1.2-0.5C13.2,43.4,12.8,43.4,12.8,43.4z"/>
	<path class="st1" d="M24.1,26.4c-1.4-2.8-0.7-5.3,0.9-7.2c5-6,10.1-11.8,15.2-17.6c0.3-0.4,1.5-0.5,2-0.3c0.9,0.3,0.9,1.2,0.6,2.1
		C41,9.3,39,15.1,37,21c-0.7,1.9-1.5,3.7-2.6,5.4c-1.1,1.9-2.7,3-5,3.1c0,0.1,0,0.2,0.1,0.3c0.5,0.6,1.6,1.4,1.4,1.8
		c-0.4,1.2-1.2,2.2-2,3.3c-0.2,0.2-0.9,0-1.3-0.2c-2.4-1.5-4.8-2.9-7.2-4.4c-0.9-0.5-1-1.2-0.4-2c0.2-0.4,0.4-0.7,0.6-1.1
		C21.9,25.4,22,25.3,24.1,26.4z"/>
</g>
</svg>
