<svg xmlns="http://www.w3.org/2000/svg" xmlns:xlink="http://www.w3.org/1999/xlink" width="761" height="547.144" viewBox="0 0 761 547.144"><defs><style>.a,.b,.s,.t{fill:#fe9801;}.a,.h,.r{opacity:0.1;}.c{fill:#444053;}.d,.e{fill:none;stroke:#444053;stroke-miterlimit:10;}.e{stroke-width:0.75px;}.f,.g{fill:#d2d4de;}.f{opacity:0.4;}.i{fill:#30374e;}.j{fill:#dfe3ef;}.k{fill:#fff;}.l{fill:url(#a);}.m{fill:#65617d;}.n{fill:#fbbebe;}.o{fill:#e7effd;}.p{fill:#3f3d56;}.q{fill:#e3a79f;}.s{opacity:0.2;}.t{opacity:0.5;}.u{fill:url(#b);}.v{fill:#2d293d;}.w{fill:#575988;}.x,.y{opacity:0.05;}.z{fill:#ffcdd3;}.aa{fill:#dce6f2;}.ab{fill:#656691;}.ac{fill:#fff5e5;}.ad{fill:#c3c3c3;}.ae{fill:#b7b7b7;}.af{fill:#b8b8b8;}.ag{fill:#c7c4c1;}.ah{fill:#c5c5c5;}.ai{fill:#cecece;}.aj{fill:#757575;}.ak{fill:#c9c9c9;}.al{fill:#a1a1a1;}.am{fill:#c8c8c8;}.an{fill:#777;}.ao{fill:#cac4c0;}.ap{fill:#171717;}.aq{fill:#1e1e1e;}</style><linearGradient id="a" x1="-5.452" y1="1" x2="-5.452" y2="-0.001" gradientUnits="objectBoundingBox"><stop offset="0" stop-color="gray" stop-opacity="0.251"/><stop offset="0.54" stop-color="gray" stop-opacity="0.122"/><stop offset="1" stop-color="gray" stop-opacity="0.102"/></linearGradient><linearGradient id="b" x1="-8.359" y1="0.872" x2="-8.359" y2="-0.14" xlink:href="#a"/></defs><g transform="translate(0.013 0.03)"><path class="a" d="M423.832,123.427c-47.844,8.367-95.762-36.139-141.891-42.372s-92.15,55.807-140.1,57.352c-30.824,1-65.112,7.349-86.441,26.82-20.518,18.741-23.453,44.354-23.259,67.51.147,17.428,1.709,35.475,12.973,49.478,7.82,9.728,19.774,16.783,28.814,25.774,31.494,31.291,22.562,79.765,2.62,120.82-9.381,19.253-20.846,38.163-27.139,57.9s-6.915,41.027,4.945,57.4c11.753,16.2,34.235,25.543,57.628,30.54,47.5,10.157,100.225,4.913,151.219-2.373,112.863-16.235,224.5-42.494,335.734-68.675,41.19-9.693,82.562-19.436,122.191-33.692,22.006-7.9,44.393-17.849,58.485-33.572,17.885-19.969,18.045-47.533.375-64.26-29.611-28.013-95.95-22.777-118.981-54.686-12.691-17.548-7.525-41.139,2.171-61.887,20.773-44.5,61.481-88.2,55.617-132.914-4.021-30.716-32.419-56.427-70.145-63.537-39.535-7.454-90.066,4.991-112.427,35.524C513.169,126.011,466.075,116.043,423.832,123.427Z" transform="translate(-32.15 -56.979)"/><path class="b" d="M988.915,170.956s-9.428-3.833-39.408,9.924-33.726,12.008-41.492,9.9-12.062-2.6-20.411-14.072c0,0-5.863-31.816-11.546-36.741s-29.819,2.808-29.819,2.808-28.941,6.634-34.456-32.044c0,0,3.913-29.149-1.414-38.094,0,0,10.721,4.637,28.506-2.855s31.957,8.041,31.957,8.041,4.476,11.586,4.02,18.494,2.366,9.509,10.835,6.172c0,0,4.155-5.917-1.729-15.7s-10.091-17.06-8.45-24.653,6.366-18.092,21.557-23.393,35.81-6.279,45.713-10.4,12.3-6.808,12.3-6.808-6.091,6.1,8.255,31.983,5.207,37.109,5.207,37.109-7.639,18.193-41.344,16.719c0,0-32.479,1.186-14.775,14.956,0,0,11.345-2.305,28.3-7.7s29.2,16.859,32.231,32.338S988.915,170.956,988.915,170.956Z" transform="translate(-288.898 -21.57)"/><path class="c" d="M999.061,50.837l.181-.047c1.3,4.939-13.214,24.793-25.624,40.554l-.147-.114C990.979,68.976,1000.066,54.63,999.061,50.837Z" transform="translate(-342.707 -31.22)"/><path class="c" d="M956.444,110.66l.074.2c-9.911,12.6-22.381,27.641-32.359,38.778-.951,1.059-1.9,2.178-2.8,3.31l-.288-.228c.911-1.139,1.863-2.258,2.814-3.35C933.862,138.261,946.533,123.251,956.444,110.66Z" transform="translate(-325.42 -50.972)"/><path class="c" d="M910.078,173l.2.342c-18.159,22.669-19.359,57.869-19.433,58.17l-3.826-4.423C887.087,226.768,891.8,195.816,910.078,173Z" transform="translate(-314.186 -71.538)"/><path class="d" d="M975.818,189.589s-21.443-11.13-38.1-7.136-54.277-14.119-54.277-14.119-15.948-6.48-19.158-13.864c0,0-10.943-11.572-11.566-17.563s-11.278-21.034-18.226-21.617" transform="translate(-296.856 -52.499)"/><path class="d" d="M1036.029,234.414s-10.782-7.264-9.529-15.734" transform="translate(-360.169 -86.609)"/><path class="d" d="M1007.727,242.6S992.315,237,990.76,215.05" transform="translate(-348.411 -85.411)"/><path class="d" d="M973.663,248.1s-14.742-12.222-9.843-33.585" transform="translate(-339.194 -85.236)"/><path class="d" d="M932.016,238.994S922.2,218.4,930.937,205" transform="translate(-327.48 -82.096)"/><path class="d" d="M1041.292,205.92s-11.15,3.538-8.758,9.381" transform="translate(-362.082 -82.399)"/><path class="d" d="M1018.171,175.71s-14.916,4.738-15.271,25.845" transform="translate(-352.416 -72.433)"/><path class="d" d="M988.408,168.44s-13.583,16.752-12.584,32" transform="translate(-343.466 -70.034)"/><path class="d" d="M953.269,178.26s-13.5,12.892-11.773,20.062" transform="translate(-332.108 -73.274)"/><path class="d" d="M939.9,170.533s-12.651,2.265-14.42-1.883" transform="translate(-326.875 -70.103)"/><path class="d" d="M922.46,148.67s6.393,8.463,8.041,6.567" transform="translate(-325.878 -63.512)"/><path class="d" d="M997.75,137.087s-31.883,2.312-39.1-7.3" transform="translate(-337.818 -57.283)"/><path class="d" d="M912.45,85s14.963,32.117,25.832,36.185" transform="translate(-322.576 -42.506)"/><path class="d" d="M935.88,62.19s9.187,29.537,20.572,38.758" transform="translate(-330.306 -34.981)"/><path class="e" d="M1017.891,104.231s-24.25,10.413-38.811-.121" transform="translate(-344.558 -48.811)"/><path class="e" d="M968.11,52.79s5.542,21.718,13.006,26.944" transform="translate(-340.939 -31.88)"/><path class="e" d="M1022.366,68s-13.63,5.16-18.716,1.206" transform="translate(-352.664 -36.898)"/><path class="d" d="M902.51,159.26s-.04,18.93-5.16,20.27" transform="translate(-317.594 -67.005)"/><path class="d" d="M842.17,191.522s20.464,1.749,29.906-8.812" transform="translate(-299.389 -74.742)"/><path class="d" d="M888,125.88s-4.952,19.2-18.608,24.371" transform="translate(-308.37 -55.993)"/><path class="d" d="M823.85,161.843s14.487,5.032,26.944-7.793" transform="translate(-293.346 -65.287)"/><path class="d" d="M868.082,101.25s-1.34,16.31-10.232,23.936" transform="translate(-304.563 -47.867)"/><path class="d" d="M824.67,126.71s12.021.08,14.842-3.84" transform="translate(-293.616 -55)"/><ellipse class="f" cx="104.883" cy="11.278" rx="104.883" ry="11.278" transform="translate(498.985 524.559)"/><ellipse class="f" cx="72.883" cy="11.278" rx="72.883" ry="11.278" transform="translate(46.987 524.559)"/><ellipse class="f" cx="58.883" cy="11.278" rx="58.883" ry="11.278" transform="translate(193.987 524.559)"/><path class="g" d="M624.445,759.8v5.24H469.48V760.78a50.927,50.927,0,0,0,3.5-94.06H623.393a50.985,50.985,0,0,0,1.052,93.082Z" transform="translate(-176.435 -234.423)"/><path class="h" d="M625.125,666.72a51.014,51.014,0,0,0-28.144,33.772H502.874A51.014,51.014,0,0,0,474.73,666.72Z" transform="translate(-178.167 -234.423)"/><path class="g" d="M204.68,626.89V656.3c0,16.25,11.887,29.417,26.556,29.417H687.15c14.668,0,26.556-13.167,26.556-29.417V626.89Z" transform="translate(-89.074 -221.282)"/><path class="h" d="M624.445,802.978v5.24H469.48v-4.262a50.753,50.753,0,0,0,11.954-6.366H614.943a51,51,0,0,0,9.5,5.387Z" transform="translate(-176.435 -277.598)"/><rect class="g" width="257.374" height="15.526" rx="7.763" transform="translate(241.837 521.627)"/><path class="i" d="M713.706,132.786A26.556,26.556,0,0,0,687.15,106.23H231.236a26.556,26.556,0,0,0-26.556,26.556V460.834H713.706Z" transform="translate(-89.074 -49.51)"/><path class="j" d="M706.661,157.094V438.979a13.073,13.073,0,0,1-13.073,13.074h-455.1a13.067,13.067,0,0,1-13.073-13.073V157.094A13.073,13.073,0,0,1,238.483,144h455.1a13.08,13.08,0,0,1,13.073,13.094Z" transform="translate(-95.913 -61.971)"/><circle class="k" cx="6.131" cy="6.131" r="6.131" transform="translate(363.988 63.253)"/><circle class="k" cx="15.117" cy="15.117" r="15.117" transform="translate(355.002 421.127)"/><path class="k" d="M706.654,157.094H225.41A13.067,13.067,0,0,1,238.483,144h455.1a13.067,13.067,0,0,1,13.073,13.094Z" transform="translate(-95.913 -61.971)"/><circle class="j" cx="3.27" cy="3.27" r="3.27" transform="translate(139.3 85.312)"/><circle class="j" cx="3.27" cy="3.27" r="3.27" transform="translate(149.104 85.312)"/><circle class="j" cx="3.27" cy="3.27" r="3.27" transform="translate(158.907 85.312)"/><rect class="k" width="388.396" height="226.972" transform="translate(174.808 131.327)"/><path class="l" d="M999.489,652.237c.141-.382-.925-2.526-.925-2.633s-1.092-1.3-1.092-1.963-1.454-2.111-1.454-2.111a3.642,3.642,0,0,1-2.151-2.56c-.208-1.756-2.332-1.789-2.339-1.789h0v-.4a5.678,5.678,0,0,0-.255-2.057,2.091,2.091,0,0,0-1.206-1.019,4.53,4.53,0,0,0-.67-1.789,2.01,2.01,0,0,1-.5-1.9c.214-.67-.282-2.352-1.34-2.6s-2.191-.63-2.191-.63l-.281.047-.141-.047a6.945,6.945,0,0,1-.744.094.938.938,0,0,1-.6-.2,12.323,12.323,0,0,0-3.746-1.119,8.883,8.883,0,0,1-2.051-.67l-1.521-1.159a9.931,9.931,0,0,1-1.34-1.836h0a7.479,7.479,0,0,1-.322-.925h0a8.352,8.352,0,0,0,1.34-1.809l.1-.208a.843.843,0,0,0,.228,0l.094-.04a1.488,1.488,0,0,0,.751-.9h0a1.437,1.437,0,0,0,.067-.228v-.08a1.263,1.263,0,0,0,0-.161.385.385,0,0,0,0-.087,1.263,1.263,0,0,0,0-.161v-.288h0c.034-.248.06-.5.114-.744h0a14.118,14.118,0,0,1,1.193-2.64h0a3.169,3.169,0,0,0,.161-.382c.054-.141.1-.288.141-.429a.963.963,0,0,0,0-.134,1.934,1.934,0,0,1,.074-.315.3.3,0,0,0,0-.141c0-.147.04-.295.054-.442a5.36,5.36,0,0,0-.362-2.466c-.261-.67-.67-1.253-.925-1.91-.409-1-.516-2.131-1.012-3.082a3.679,3.679,0,0,0-4.4-1.8c-.77.288-1.434.844-2.218,1.092a7.372,7.372,0,0,1-3.243-.067,4.033,4.033,0,0,0-3.143.543c-1.005.811-1.28,2.339-2.218,3.237-.4.375-.884.61-1.3.958a2.112,2.112,0,0,0-.67.891v.074a.649.649,0,0,0,0,.094.6.6,0,0,0,0,.107v.074a1.72,1.72,0,0,0,0,.188h0a1.591,1.591,0,0,0,.033.174v.047a.962.962,0,0,0,.047.147h0l.06.161.04.08a.2.2,0,0,0,0,.067,4.333,4.333,0,0,1,.328.818.918.918,0,0,1,0,.536,1.561,1.561,0,0,1-.4.516,7.414,7.414,0,0,0-1.595,2.553c-.04.107-.074.221-.114.328h.047a1.691,1.691,0,0,0,.308.067h.181a2.85,2.85,0,0,0,.717-.054l.181-.04a4.223,4.223,0,0,0,.717-.268v.342a8.342,8.342,0,0,0,4.637,7.465v.228a1.719,1.719,0,0,1,0,.188l-.094-.087s-.67-.315-1.24.6a4.02,4.02,0,0,1-1.735,1.34s-6.433,1.019-6.7,1.863l-3,.174s-1.059.141-1.166,2.352-.67,2.419-.67,2.419-1.24,2.178-1.132,3.3a1.829,1.829,0,0,1-.958,1.682l-.141,2.01a1.34,1.34,0,0,0-1.481,1.193,4.83,4.83,0,0,1-.885,2.01s-1.943,1.615-2.051,2.982l-1.206.737s-2.787-.63-3.424-1.756l-.2-.181h0a9.543,9.543,0,0,0-1.166-1.032.865.865,0,0,1,.054.563l-.208-.228-.342-.7s-4.154-4.771-6.8-5.106h0a1.669,1.669,0,0,0-1.193,1.153c-.335,1.139-.67,3.029.188,3.96l4.188,4.463.107.08.911,1.166c-.154.369-.288.724-.4,1.052h0a.752.752,0,0,1-.067.208v.067l-.06.194a.144.144,0,0,1-.034.114v.067c-.1.355-.161.623-.194.777l-.235-.074.228.1h0a.3.3,0,0,0,0,.074l.215.094c1.24.543,7.418,3.25,7.739,3.665a4.47,4.47,0,0,0,4.8.67,5.065,5.065,0,0,0,2.58-2.841,29.962,29.962,0,0,0,2.091-3.183c.067-.415,1.662-.911,1.662-.911s.141,4.691-.67,6.426-2.332,9.328-2.332,9.328a1.142,1.142,0,0,1,.3,0l-.087.442a1.055,1.055,0,0,1,.375,0c-.114.871-.764,4.892-.764,4.892a10.306,10.306,0,0,1-.563,2.459,17.66,17.66,0,0,0-.4,3.927l-.563,2.392s.074.161.214.409h0a6.033,6.033,0,0,0,1.628,2.1,4.134,4.134,0,0,1-.288,1.092,3.869,3.869,0,0,0-.281,1.689,21.188,21.188,0,0,0-.529,3.478,13.082,13.082,0,0,1-.389,2.68l-.67,6.111a57.892,57.892,0,0,0-.214,6.7,12.784,12.784,0,0,1-.141,3.4s.422,4.181.322,4.637-.67,2.426-.322,3.511a17.162,17.162,0,0,1,.141,4.074s.214,3.933.462,5.193a8.884,8.884,0,0,1-.074,2.881,23.262,23.262,0,0,1-.355,2.68c-.1,0-1.025,1.863.851,3.692s.71,1.541.71,1.541-1.488-.737-1.34.771.4,1.066.422,1.025l-.348,1.153.248.033c-.067.08-.134.168-.208.248a5.458,5.458,0,0,1-.71.737,1.541,1.541,0,0,0-.462,1.018,27.647,27.647,0,0,1-5.052,4.282,15.016,15.016,0,0,0-2.875,1.93c-.436.476-.362.865.543,1.159a13.7,13.7,0,0,0,7.666.141,8.945,8.945,0,0,0,3.753-2.419,5.408,5.408,0,0,1,3-.5c1.488.281,4.456-1.648,4.456-1.648l-.054-.5-.161-1.434a1.138,1.138,0,0,1-.248-.878,4.694,4.694,0,0,0-.12-1.26,2.03,2.03,0,0,0-.081-.409l.275-.053s-.355-1.789.281-2.138.456-4.952.456-4.952a5.625,5.625,0,0,0-1.233-1.226c-.422-.181-.04-2.359,0-2.633s.67-5.729.67-5.729a7.37,7.37,0,0,1,.074-2.452c.281-.737-.355-3.578-.355-3.578a.67.67,0,0,1,.174-.777c.389-.422.248-4.175.248-4.175s-.034-1.9-.034-2.392a8.67,8.67,0,0,1,.811-2.875,5.609,5.609,0,0,0,.147-2.459h0v-.529a27.361,27.361,0,0,1,.67-3.042c.462-1.474.992-4.074.992-4.074l3.29-8.57v-.1a13.438,13.438,0,0,1,1.521,5.408,30.891,30.891,0,0,1,.281,3.967,46.677,46.677,0,0,0,.322,4.8s.456,5.689.456,5.937a34.7,34.7,0,0,0,.925,5.3c.355.67-.355,2.68-.57,2.915a44.076,44.076,0,0,0,.067,5.361s-.529,4.074-.637,4.919-.529,4.074-.174,5.361.214,1.434.214,1.434,1.273,1.3.529,1.407a1.943,1.943,0,0,0-1.414,2.56,33.358,33.358,0,0,0,1.555,3.759l.589-.121v.416l.04,2.091a12.385,12.385,0,0,1,.107,2.459c-.1.335-.248,1.91-.315,2.727a2.83,2.83,0,0,1-.04.5s0,1.863,3.927,1.3,4.63-2.1,4.63-2.1v-.194c.06-.355.188-1.112.288-1.528.141-.563-1.126-3.089-1.126-3.089a6.471,6.471,0,0,0-.57-2.111,1.808,1.808,0,0,1-.281-.737,2.445,2.445,0,0,0-.087-.429l.261.047s-.208-1.233.6-1.615a1.166,1.166,0,0,0,.5-1.548,11.81,11.81,0,0,1,.315-2.318,1.153,1.153,0,0,1,.282-1.119c.5-.5.885-3.933.885-3.933l.074-13.275a12.765,12.765,0,0,0-.033-3.3c-.288-.951-.57-2.774-.181-3.27s.04-2.767.04-2.767,0-4.811.529-6.031.355-8.745.355-8.745l.141-4.952s1.153-1.086.878-6.788a9.7,9.7,0,0,1,2.834.047c.389.315,2.895,1.937,4.382.918a21.31,21.31,0,0,0,1.763-1.374l-.623-10.527c.389.59.63.978.63.978,0-1.474,4.168-6.252,4.168-6.252a67.019,67.019,0,0,1,4.738-5.615c.851-.6,2.513-3.752,2.513-3.752a15.078,15.078,0,0,1,.845-1.756C1000.615,654.308,999.342,652.626,999.489,652.237Zm-9.127,3.685c-1.059.107-3.283,2.533-3.35,3.056a2.119,2.119,0,0,1-.469.945,3.359,3.359,0,0,0-.047-.67,72.321,72.321,0,0,1-.4-7.244,21.062,21.062,0,0,0,.141-3.478h0l.04-.054a17.788,17.788,0,0,0,2.928,4.8s.389,1.126.844,1.159S990.362,655.923,990.362,655.923Z" transform="translate(-327.884 -214.505)"/><path class="m" d="M936.21,675.795s1.293-6.761,5.441-6.795l3.029,6.232-2.01,1.394S938.267,676.766,936.21,675.795Z" transform="translate(-330.414 -235.175)"/><path class="h" d="M944.687,675.245l-2.01,1.394a23.771,23.771,0,0,1-5.294-.442,6.629,6.629,0,0,1-1.152-.389v-.114a14.667,14.667,0,0,1,.784-2.486c.127-.3.268-.616.429-.925a6.245,6.245,0,0,1,2.627-2.881,3.477,3.477,0,0,1,1.38-.362h.188l.06.134,1.025,2.111Z" transform="translate(-330.421 -235.188)"/><path class="m" d="M998.653,710.676s4.356-.415,4.738-.1,2.861,1.917,4.322.9.489-4.53.489-4.691-.141-5.119-.141-5.119l-2.613-3.518-3.277-6.172-6.7-.67.174,9.79v5.012Z" transform="translate(-349.965 -242.535)"/><path class="h" d="M998.653,710.676s4.356-.415,4.738-.1,2.861,1.917,4.322.9.489-4.53.489-4.691-.141-5.119-.141-5.119l-2.613-3.518-3.277-6.172-6.7-.67.174,9.79v5.012Z" transform="translate(-349.965 -242.535)"/><path class="n" d="M938.112,665.581s-.342,4.249-3,4.316c0,0-.751-.449-1.756-1.206-2.332-1.742-6.031-5.086-5-8.2,1.461-4.456,8.571,3.766,8.571,3.766l.549.61Z" transform="translate(-327.767 -231.93)"/><path class="h" d="M940.549,668.387s-.342,4.248-3,4.315c0,0-.75-.449-1.756-1.206l-.228-.288a3.451,3.451,0,0,0,1.447.389,1.943,1.943,0,0,0,1.9-1.193,14.449,14.449,0,0,0,.737-1.689,5.415,5.415,0,0,0,.268-1.045Z" transform="translate(-330.203 -234.736)"/><path class="o" d="M939.522,675.915l-.6-.771-2.01-2.58-1.025-1.34a3.526,3.526,0,0,0,1.454.4,1.957,1.957,0,0,0,1.89-1.2,14.957,14.957,0,0,0,.737-1.682c.328-.945.322-1.427.208-1.588a9.9,9.9,0,0,1,1.146,1.039h0l.194.181.067.141,1.012,2.01v.087C942.712,671.271,943.053,675.339,939.522,675.915Z" transform="translate(-330.309 -234.564)"/><path class="m" d="M962.909,811.325s-2.928,1.917-4.4,1.635a5.24,5.24,0,0,0-2.962.489,8.806,8.806,0,0,1-3.692,2.406,13.572,13.572,0,0,1-7.559-.141c-.891-.295-.965-.67-.536-1.153a14.86,14.86,0,0,1,2.834-1.916,27.271,27.271,0,0,0,4.985-4.248,1.521,1.521,0,0,1,.449-1.012,5.362,5.362,0,0,0,.67-.73c.375-.442.724-.9.724-.9l8.611.275s.147.623.261,1.26a4.63,4.63,0,0,1,.12,1.253,1.132,1.132,0,0,0,.242.871l.154,1.421Z" transform="translate(-332.823 -280.29)"/><path class="m" d="M995.048,814.057c-.107.422-.228,1.166-.288,1.521v.187s-.67,1.534-4.563,2.091-3.866-1.287-3.866-1.287a4.081,4.081,0,0,1,.04-.5,25.541,25.541,0,0,1,.308-2.68,12.68,12.68,0,0,0-.107-2.439l-.04-2.077V807.43l6.406-.67a13.174,13.174,0,0,0,.208,1.427,1.921,1.921,0,0,0,.281.73,6.422,6.422,0,0,1,.556,2.091S995.189,813.5,995.048,814.057Z" transform="translate(-346.95 -280.624)"/><path class="h" d="M966.585,806.025s.148.623.261,1.26c-.931.168-4.992.871-6.031.382a15.667,15.667,0,0,0-3.625-.871l.04-.141c.375-.442.724-.9.724-.9Z" transform="translate(-337.336 -280.29)"/><path class="h" d="M993.177,808.157c-1.622-.282-5.186.389-6.587.67V807.38l6.406-.67a13.178,13.178,0,0,0,.181,1.447Z" transform="translate(-347.035 -280.607)"/><path class="p" d="M986.858,719.618l-.134,4.912s.174,7.492-.348,8.711-.523,5.957-.523,5.957.349,2.265-.04,2.754-.1,2.3.174,3.237a12.611,12.611,0,0,1,.034,3.277l-.067,13.174s-.382,3.411-.871,3.9a1.126,1.126,0,0,0-.275,1.112,11.589,11.589,0,0,0-.315,2.305,1.153,1.153,0,0,1-.489,1.528c-.8.389-.6,1.608-.6,1.608-1.91-.456-7.371.764-7.371.764a32.013,32.013,0,0,1-1.535-3.732,1.923,1.923,0,0,1,1.394-2.54c.73-.107-.523-1.394-.523-1.394s.141-.174-.214-1.427.074-4.463.174-5.3l.63-4.872a44.09,44.09,0,0,1-.067-5.361c.214-.234.9-2.231.556-2.888a34.615,34.615,0,0,1-.9-5.267c0-.248-.456-5.89-.456-5.89s-.415-3.933-.315-4.771a30.61,30.61,0,0,0-.275-3.933,13.4,13.4,0,0,0-1.5-5.361l-.033.1-3.243,8.5s-.523,2.58-.972,4.021a26.777,26.777,0,0,0-.67,3.029v.523h0a5.572,5.572,0,0,1-.134,2.439,8.49,8.49,0,0,0-.8,2.855c0,.489.033,2.372.033,2.372s.141,3.726-.241,4.141a.67.67,0,0,0-.174.771s.623,2.821.349,3.552a7.32,7.32,0,0,0-.074,2.439s-.556,5.4-.623,5.682-.456,2.439-.033,2.613a5.6,5.6,0,0,1,1.213,1.22s.181,4.563-.449,4.912-.281,2.124-.281,2.124-5.052.978-6.2.415a16.05,16.05,0,0,0-3.625-.871l.349-1.146c0,.04-.255.416-.416-1.012s1.287-.771,1.287-.771,1.152.281-.67-1.528-.938-3.659-.837-3.659a23,23,0,0,0,.348-2.68,8.985,8.985,0,0,0,.074-2.861c-.248-1.253-.456-5.16-.456-5.16a18.716,18.716,0,0,0-.141-4.02,8.546,8.546,0,0,1,.315-3.484c.107-.456-.315-4.6-.315-4.6a12.918,12.918,0,0,0,.141-3.35,57.941,57.941,0,0,1,.208-6.7l.63-6.031a13.028,13.028,0,0,0,.382-2.68,21.805,21.805,0,0,1,.523-3.444,3.876,3.876,0,0,1,.275-1.675,12.509,12.509,0,0,0,.489-3l3.35-7.666,1.635-6.761,22.113-.208s.08.59.214,1.655.322,2.64.529,4.583c.194,1.769.409,3.853.61,6.165C988.252,718.318,986.858,719.618,986.858,719.618Z" transform="translate(-337.092 -244.917)"/><path class="n" d="M992.97,636.2l-5.16,5.508s-6.62-2.68-5.923-3.552a5.164,5.164,0,0,0,.074-2.68c-.248-1.93-.771-4.148-.771-4.148s11.566-1.883,10.594.067a3.2,3.2,0,0,0-.074,2.312A8.492,8.492,0,0,0,992.97,636.2Z" transform="translate(-345.254 -222.477)"/><path class="h" d="M991.784,631.385c-.355.71-.529.784-.308,1.548-1.508,1.622-3.431,3.4-5.823,3.4a8.209,8.209,0,0,1-3.692-.864c-.248-1.93-.771-4.148-.771-4.148S992.756,629.435,991.784,631.385Z" transform="translate(-345.254 -222.473)"/><path class="n" d="M992.053,622.51a8.3,8.3,0,1,1-16.585,0V622.4a8.3,8.3,0,0,1,16.585.114Z" transform="translate(-343.365 -217.157)"/><path class="h" d="M990.521,705.9c-1.092,0-4.751.04-8.839.1h-1.441c-4.845.074-9.623-.871-11.539-.67-4.074.382,1.461-3.766,1.461-3.766a34.027,34.027,0,0,0,9.288.938l1.173-.06a50.161,50.161,0,0,0,9.381-1.139C990.133,702.386,990.32,703.947,990.521,705.9Z" transform="translate(-340.641 -245.831)"/><path class="q" d="M990.521,705.58c-1.092,0-4.751.04-8.839.107h-1.441c-4.845.08-9.623-.864-11.539-.67-4.074.382,1.461-3.766,1.461-3.766a34.013,34.013,0,0,0,9.288.938l1.173-.06a50.136,50.136,0,0,0,9.381-1.139C990.133,702.069,990.32,703.637,990.521,705.58Z" transform="translate(-340.641 -245.729)"/><path class="h" d="M978.928,641.816l-6.379,3-4.979,38.262s2.928-1.34,4.6-.489,6.828.074,6.828.074,3.766-.215,4.322.208,7.11-1.742,7.11-1.742,1.179-2.68.275-3.069.281-4.53.281-4.53l-.556-27.594-1.119-3.551-3-1.809L983.27,643l-1.468.214Z" transform="translate(-340.761 -225.795)"/><path class="o" d="M978.945,641.183l-6.379,3L967.62,682.44s2.928-1.34,4.6-.489,6.828.067,6.828.067,3.766-.208,4.322.208,7.11-1.742,7.11-1.742,1.179-2.68.275-3.062.281-4.53.281-4.53l-.556-27.594-1.119-3.558-3-1.809-3.076,2.439-1.468.208Z" transform="translate(-340.777 -225.584)"/><path class="h" d="M981.909,644.19s1.849,2.2,1.816,2.68-.107,1.528-.107,1.528l-1.394,2.828s-.764,3.518-.764,4.248-1.22,7.07-1.22,7.07l-1.468,9.756-1.843,12.792,1.876,3.237,2.231-1.883L984,663.662l.63-4.5s.67-8.081.67-8.919a27.982,27.982,0,0,0-.389-3.029,3.576,3.576,0,0,1,2.338-2.58c1.883-.489-.141-.107-.141-.107l-1.079-.871-.945.382S982.465,643.218,981.909,644.19Z" transform="translate(-343.849 -226.815)"/><path class="p" d="M981.6,643.883s1.849,2.2,1.809,2.68-.1,1.534-.1,1.534l-1.394,2.821s-.771,3.525-.771,4.255-1.22,7.069-1.22,7.069L978.46,672l-1.85,12.785,1.883,3.243,2.231-1.883,2.962-22.783.63-4.5s.67-8.081.67-8.919a28.61,28.61,0,0,0-.382-3.036,3.561,3.561,0,0,1,2.339-2.573c1.883-.482-.141-.107-.141-.107l-1.079-.871-.945.382S982.152,642.911,981.6,643.883Z" transform="translate(-343.743 -226.716)"/><path class="h" d="M981.544,638.68s-.281.214-.348,1.608a27.717,27.717,0,0,1-1.045,4.523s3.625-2.506,5.434-2.225Z" transform="translate(-344.911 -225.172)"/><path class="o" d="M981.544,638.06s-.281.208-.349,1.6a27.651,27.651,0,0,1-1.045,4.53s3.625-2.506,5.434-2.231Z" transform="translate(-344.911 -224.967)"/><path class="h" d="M994.186,637l-5.716,5.019a57.385,57.385,0,0,1,5.434,3.552c.623.7,1.253-6.828,1.253-6.828Z" transform="translate(-347.656 -224.618)"/><path class="o" d="M994.5,636.4l-5.716,5.012a57.613,57.613,0,0,1,5.434,3.558c.623.7,1.26-6.828,1.26-6.828Z" transform="translate(-347.758 -224.42)"/><path class="h" d="M974.352,638.655s-.623-.308-1.22.6a3.912,3.912,0,0,1-1.709,1.34s-6.339,1.012-6.58,1.85l-2.962.174s-1.045.141-1.152,2.332-.67,2.406-.67,2.406-1.22,2.158-1.112,3.277a1.816,1.816,0,0,1-.938,1.669l4.356,11.324s.134,4.691-.67,6.379-2.3,9.267-2.3,9.267.623-.141.59.275-.764,4.985-.764,4.985a10.136,10.136,0,0,1-.563,2.439,17.708,17.708,0,0,0-.382,3.9l-.556,2.372s1.34,2.962,3.351,2.546,5.682-8.329,5.682-8.329l2.332-8.537,1.809-8.43.523-5.716.838-12.651,1.22-8.363S974.841,639.252,974.352,638.655Z" transform="translate(-337.511 -225.147)"/><path class="m" d="M974.038,638.034s-.63-.315-1.22.59a3.893,3.893,0,0,1-1.709,1.34s-6.339,1.012-6.58,1.843l-2.962.174s-1.045.141-1.153,2.339-.67,2.406-.67,2.406-1.22,2.158-1.112,3.27a1.836,1.836,0,0,1-.945,1.675l4.356,11.324s.141,4.691-.67,6.372-2.305,9.274-2.305,9.274.63-.141.6.275-.771,4.985-.771,4.985a10.05,10.05,0,0,1-.556,2.439,17.671,17.671,0,0,0-.382,3.9l-.556,2.372s1.34,2.962,3.351,2.54,5.682-8.329,5.682-8.329l2.332-8.53,1.809-8.437.523-5.716.838-12.645,1.22-8.363S974.554,638.624,974.038,638.034Z" transform="translate(-337.406 -224.941)"/><path class="h" d="M944.588,675.133l-2.01,1.394a23.772,23.772,0,0,1-5.294-.442l-1.126-.5-.228-.094.234.074a4.6,4.6,0,0,0,2.788.094c2.861-.958,2.546-5.682,2.432-6.748V668.7h0a1.518,1.518,0,0,0,.127.181l.128.134h0l1.012,2.01v.087Z" transform="translate(-330.322 -235.076)"/><path class="m" d="M951.7,658l-.979.281-.134,2.01a1.34,1.34,0,0,0-1.468,1.186,4.821,4.821,0,0,1-.871,2.01s-1.916,1.6-2.01,2.955l-1.186.737s-2.754-.63-3.35-1.742c0,0,1.253,8.986-5.441,6.795,0,0,7.492,3.27,7.84,3.726a4.389,4.389,0,0,0,4.738.67,5.059,5.059,0,0,0,2.546-2.821,31.36,31.36,0,0,0,2.091-3.243c.08-.416,1.635-.9,1.635-.9l3-7.25Z" transform="translate(-330.431 -231.546)"/><path class="h" d="M995.46,641l1.012-4.6a5.489,5.489,0,0,0,.9,1.843l1.5,1.153a8.667,8.667,0,0,0,2.01.67,11.934,11.934,0,0,1,3.692,1.112c.342.382,1.742.107,1.742.107s1.152.382,2.164.623,1.494,1.917,1.286,2.58a2.011,2.011,0,0,0,.489,1.883,4.521,4.521,0,0,1,.63,1.776,2.01,2.01,0,0,1,1.179,1.012,7.057,7.057,0,0,1,.248,2.439l-5.186,7.317a21.386,21.386,0,0,1-.141,3.444c-.208.63.73,11.291.73,11.291l1.085,18.327a20.456,20.456,0,0,1-1.742,1.34c-.315.141-.63-6.48-.63-6.7s-8.041-12.062-8.041-12.062a10.847,10.847,0,0,1-1.079-2.124c0-.382-1.012-3.9-1.012-3.9l-1.534-6.795Z" transform="translate(-349.734 -224.42)"/><path class="m" d="M1012.966,651.206v.4l-5.2,7.291h0a21.223,21.223,0,0,1-.134,3.444,71.815,71.815,0,0,0,.389,7.2c.174,2.225.342,4.094.342,4.094l.456,7.773.623,10.554a19.445,19.445,0,0,1-1.742,1.34c-.315.141-.63-6.48-.63-6.7s-8.041-12.062-8.041-12.062a10.842,10.842,0,0,1-1.079-2.124c0-.382-1.012-3.9-1.012-3.9l-1.528-6.795.67-20.773.59-4.6a10.042,10.042,0,0,0,1.34,1.843l1.494,1.152a8.7,8.7,0,0,0,2.01.67,11.936,11.936,0,0,1,3.692,1.112c.342.382,1.742.107,1.742.107s1.146.382,2.158.623,1.5,1.916,1.293,2.58a2.01,2.01,0,0,0,.482,1.883,4.412,4.412,0,0,1,.63,1.776,2.011,2.011,0,0,1,1.186,1.012A5.711,5.711,0,0,1,1012.966,651.206Z" transform="translate(-349.945 -224.403)"/><path class="h" d="M958.05,797.06c.174,0,7.492.281,7.371,1.468S958.05,797.06,958.05,797.06Z" transform="translate(-337.62 -277.423)"/><path class="h" d="M960.5,800s4.912.8,3.619,1.535S960.5,800,960.5,800Z" transform="translate(-338.428 -278.393)"/><path class="h" d="M987.74,795.92s8.155.67,6.935,1.6-4.114,1.045-4.248,1.079A37.509,37.509,0,0,1,987.74,795.92Z" transform="translate(-347.415 -277.047)"/><path class="h" d="M986.29,801.28s4.53.764,4.691,1.635S986.29,801.28,986.29,801.28Z" transform="translate(-346.936 -278.816)"/><path class="h" d="M990,770s4.148.978,4.389,1.642Z" transform="translate(-348.16 -268.496)"/><path class="h" d="M965.678,774.45s-2.158.623-.067,1.876S965.678,774.45,965.678,774.45Z" transform="translate(-339.813 -269.964)"/><path class="h" d="M980.46,724.074c.248,0,4.021-1.253,5.361-.67a8.875,8.875,0,0,0,2.962.556Z" transform="translate(-345.013 -253.072)"/><path class="h" d="M978.769,729.45l-.034.348-3.243,8.5s-.522,2.58-.971,4.021a26.746,26.746,0,0,0-.67,3.029l2.875-17.831Z" transform="translate(-342.833 -254.481)"/><path class="p" d="M987.668,706.242h-1.387l-.791-3.511,1.173-.06Z" transform="translate(-346.673 -246.283)"/><path class="n" d="M1006.363,700l-.864.717-2.895,2.386s-7.84,4.181-10,.208c-1.9-3.5,6.989-6.031,9.127-6.54l.456-.114Z" transform="translate(-348.931 -244.3)"/><path class="h" d="M963.3,650.54s1.534.67,1.883,1.668S963.3,650.54,963.3,650.54Z" transform="translate(-339.352 -229.085)"/><path class="h" d="M955.467,666.14s-2.231,2.714-1.34,3.759S955.467,666.14,955.467,666.14Z" transform="translate(-336.256 -234.231)"/><path class="h" d="M1014.655,652.83s-2.091.208-2.164,2.01Z" transform="translate(-355.58 -229.84)"/><path class="h" d="M986.81,692.142c.208-.208,5.012-7.317,6.131-6.7Z" transform="translate(-347.108 -240.587)"/><path class="h" d="M992.055,622.507a8.307,8.307,0,0,1-.978,3.92h-.06c-.529-.114-.8-.724-1.206-1.106a1.621,1.621,0,0,0-1.876-.261,1.89,1.89,0,0,0-.925,1.782c-.268-1.112-.181-2.3-.442-3.417s-1.039-2.251-2.111-2.272c-.456,0-.992.174-1.34-.174-.2-.208-.241-.536-.4-.784-.757-1.24-3.083-.61-4.021,0a24.676,24.676,0,0,1-3.23,2.191,8.3,8.3,0,0,1,16.585.114Z" transform="translate(-343.367 -217.154)"/><path class="p" d="M981.7,617.665c.154.255.194.583.4.791.335.342.871.168,1.34.174,1.065,0,1.843,1.153,2.1,2.272s.174,2.305.442,3.417a1.9,1.9,0,0,1,.925-1.789,1.628,1.628,0,0,1,1.876.268c.4.382.67.992,1.206,1.106s1.032-.4,1.22-.951a16.165,16.165,0,0,0,.3-1.736,21.444,21.444,0,0,1,1.34-3.009,5.488,5.488,0,0,0-.04-3.893c-.262-.67-.67-1.24-.911-1.9-.4-.992-.509-2.111-1-3.056a3.6,3.6,0,0,0-4.335-1.782c-.757.281-1.414.831-2.185,1.079a7.161,7.161,0,0,1-3.2-.067,3.947,3.947,0,0,0-3.1.543c-.985.8-1.253,2.318-2.185,3.21-.389.369-.871.61-1.28.952a1.742,1.742,0,0,0-.717,1.414c.06.724.764,1.38.5,2.044a1.584,1.584,0,0,1-.382.509,7.283,7.283,0,0,0-1.689,2.875c1.863.583,3.88-1.474,5.361-2.446C978.616,617.055,980.941,616.432,981.7,617.665Z" transform="translate(-342.331 -214.852)"/><path class="h" d="M1010.921,700l-.864.717a25.5,25.5,0,0,0-3.907-3.82l.134-.127.456-.114Z" transform="translate(-353.489 -244.3)"/><path class="o" d="M1011.868,698.166s-.308.771-.636,1.447-.67,1.28-.67.784c-.04-.978-4.081-4.255-4.081-4.255l.549-.536.67-.617Z" transform="translate(-353.598 -243.749)"/><path class="h" d="M1012.018,689.991l.456,7.773c-1.079-1.682-4.021-6.031-5.964-5.857l4.637-5.327a6.92,6.92,0,0,0,.53-.67C1011.851,688.142,1012.018,689.991,1012.018,689.991Z" transform="translate(-353.607 -240.754)"/><path class="h" d="M1012.132,698.16s-.308.771-.636,1.447c-1.213-1.668-2.882-3.638-4.215-4.02l.67-.617Z" transform="translate(-353.862 -243.743)"/><path class="m" d="M1015.451,657.66l1.253.978s2.091,0,2.3,1.776a3.55,3.55,0,0,0,2.131,2.546s1.427,1.427,1.427,2.091,1.079,1.843,1.079,1.95,1.045,2.225.9,2.613,1.112,2.05.73,2.68a16.008,16.008,0,0,0-.838,1.742s-1.635,3.136-2.473,3.726a67.086,67.086,0,0,0-4.691,5.575s-4.114,4.738-4.114,6.2c0,0-4.021-6.7-6.379-6.513l4.637-5.361s.8-.871.838-1.394,2.231-2.928,3.277-3.029c0,0,.174-1.434-.281-1.467s-.838-1.146-.838-1.146-3.062-3.625-3.1-5.924S1015.451,657.66,1015.451,657.66Z" transform="translate(-353.696 -231.434)"/><path class="h" d="M1021.3,662.6s-2.928,2.164-2.305,2.861S1021.3,662.6,1021.3,662.6Z" transform="translate(-357.698 -233.063)"/><path class="h" d="M1022.68,675.529s5.434-1.742,6.031,0Z" transform="translate(-358.942 -237.073)"/><path class="h" d="M962.909,813.826s-2.928,1.916-4.4,1.635a5.24,5.24,0,0,0-2.962.489,8.805,8.805,0,0,1-3.692,2.406,13.571,13.571,0,0,1-7.559-.141c-.891-.295-.965-.67-.536-1.152,2.051.409,6.621,1.22,7.853.63a33.044,33.044,0,0,0,3.9-2.439s3-.422,3.417-.422a36.679,36.679,0,0,0,3.913-1.5Z" transform="translate(-332.823 -282.791)"/><path class="h" d="M994.76,819.92v.188s-.67,1.535-4.563,2.091-3.866-1.287-3.866-1.287a4.069,4.069,0,0,1,.04-.5C987.563,820.878,990.237,821.394,994.76,819.92Z" transform="translate(-346.95 -284.965)"/><path class="h" d="M965.038,662s0,7.941-.67,8.711S965.038,662,965.038,662Z" transform="translate(-339.642 -232.866)"/><path class="h" d="M1012.34,665.8l1.005,2.841S1013.747,665.854,1012.34,665.8Z" transform="translate(-355.531 -234.119)"/><g class="r" transform="translate(629.992 399.215)"><path d="M975.268,619.36c.255-.67-.415-1.293-.5-2.01a1.338,1.338,0,0,0-.107.63c.04.529.435,1.019.536,1.508A.923.923,0,0,0,975.268,619.36Z" transform="translate(-973.09 -617.35)"/><path d="M986.063,627.961c-.255-1.1-.181-2.265-.429-3.35s-1.045-2.245-2.111-2.265c-.462,0-1,.168-1.34-.174-.2-.208-.241-.536-.4-.791-.764-1.233-3.082-.61-4.02,0-1.427.952-3.384,2.935-5.213,2.486a6.669,6.669,0,0,0-.235.67c1.863.583,3.88-1.474,5.361-2.446.952-.67,3.277-1.26,4.021,0,.154.255.194.583.4.791.335.342.871.167,1.34.174,1.065,0,1.843,1.153,2.1,2.272s.174,2.305.442,3.417a1.837,1.837,0,0,1,.08-.784Z" transform="translate(-972.32 -618.446)"/><path d="M998.073,629.3c-.194.549-.67,1.059-1.226.945s-.8-.724-1.2-1.106a1.642,1.642,0,0,0-1.883-.261,1.91,1.91,0,0,0-.925,1.689,1.856,1.856,0,0,1,.824-1.012,1.628,1.628,0,0,1,1.876.268c.4.382.67.992,1.206,1.106s1.032-.4,1.219-.952a4.961,4.961,0,0,0,.194-1C998.133,629.087,998.107,629.194,998.073,629.3Z" transform="translate(-979.089 -621.093)"/><path d="M1002.378,622.134a23.6,23.6,0,0,0-1.34,3.015,5.524,5.524,0,0,0-.107.67,22.17,22.17,0,0,1,1.34-3,5.357,5.357,0,0,0,.322-1.447,5.6,5.6,0,0,1-.214.764Z" transform="translate(-981.759 -618.676)"/></g><rect class="j" width="49.587" height="51.409" transform="translate(211.308 152.777)"/><rect class="j" width="49.587" height="51.409" transform="translate(274.966 152.777)"/><rect class="s" width="49.587" height="51.409" transform="translate(338.625 152.777)"/><rect class="s" width="49.587" height="51.409" transform="translate(402.283 152.777)"/><rect class="s" width="49.587" height="51.409" transform="translate(465.941 152.777)"/><rect class="a" width="49.587" height="51.409" transform="matrix(0.797, -0.603, 0.603, 0.797, 471.899, 163.562)"/><path class="k" d="M380.422,257.54a8.282,8.282,0,1,0,8.282,8.276A8.282,8.282,0,0,0,380.422,257.54Zm5.7,10.507c-.322-.107-.938-.141-1.173-.415-.114-.141-.04-.67-.04-.67a2.472,2.472,0,0,0,1.233-.241c.154-.094.087-.107,0-.241a4.9,4.9,0,0,1-.261-2.453,2.01,2.01,0,0,0-.8-1.769,2.519,2.519,0,0,0-1.246-.275,2.775,2.775,0,0,0-1.005.161c-1.689.67-.67,2.915-1.273,4.195-.1.221-.241.295,0,.422a3.111,3.111,0,0,0,1.153.248v.556c-.047.194-.469.328-.63.375a4.9,4.9,0,0,0-.67.228.161.161,0,0,0,0,.3,2.916,2.916,0,0,1,.462.114,4.355,4.355,0,0,1,1.829.992,2.727,2.727,0,0,1,.8,1.776.5.5,0,0,1-.221.462l-.228.141a.107.107,0,0,1-.168-.094,2.68,2.68,0,0,0-1.823-2.593c-.543-.188-1.119-.2-1.655-.389-.168-.054-.489-.127-.556-.308a2.01,2.01,0,0,1-.074-.59v-.456c0-.147.255-.308.308-.4a3.049,3.049,0,0,0,.275-1.246c.349.094.389-.543.449-.744s.2-.831-.1-.938a1.623,1.623,0,0,0,.168-.583,3.538,3.538,0,0,0-.047-1.568,2.473,2.473,0,0,0-2.359-1.648,2.526,2.526,0,0,0-2.526,1.508,3.3,3.3,0,0,0-.114,1.575,1.93,1.93,0,0,0,.188.717c-.255.114-.181.67-.134.851s.121.931.482.831a5.9,5.9,0,0,0,.154.965,1.38,1.38,0,0,0,.328.556c.067.08.107.087.1.188a4.084,4.084,0,0,1-.074.952c-.08.3-.744.429-1.012.482a5.775,5.775,0,0,0-1.648.462,7.165,7.165,0,1,1,12.752-.838,1.843,1.843,0,0,0-.891-.6Z" transform="translate(-144.321 -99.429)"/><path class="t" d="M382.288,308.282v-9.16l4.222,4.222,1.052-1.092-6.031-6.031-6.031,6.031,1.059,1.052,4.222-4.181v9.16Z" transform="translate(-145.43 -112.19)"/><path class="t" d="M477.288,308.282v-9.16l4.221,4.222,1.052-1.092-6.031-6.031-6.031,6.031,1.052,1.052,4.228-4.181v9.16Z" transform="translate(-176.771 -112.19)"/><path class="k" d="M477.995,267.094a.181.181,0,0,0-.288,0l-3.438,4.563a.174.174,0,0,0,.121.288l6.031.523a.174.174,0,0,0,.168-.261L478,267.114Zm3.92,2.426a.181.181,0,0,0-.288,0l-.925.938a.161.161,0,0,0,0,.2l.952,1.849a.174.174,0,0,0,.134.087l1.682.141a.174.174,0,0,0,.168-.261l-1.7-2.935Zm.409-1.481a.885.885,0,1,0-.84-.578A.891.891,0,0,0,482.324,268.039Z" transform="translate(-178.001 -102.309)"/><path class="k" d="M482.822,261.817l-2.459-.214-.228-2.506a1.019,1.019,0,0,0-1.106-.918l-11.1,1.005a1.012,1.012,0,0,0-.918,1.1l1,11.083a1.012,1.012,0,0,0,1.106.911l.583-.047-.054.623a1.005,1.005,0,0,0,.925,1.092l11.11.972a1.019,1.019,0,0,0,1.1-.925l.978-11.083a1.005,1.005,0,0,0-.925-1.092Zm-13.743,6.406a.261.261,0,0,1-.275-.228l-.67-7.478a.248.248,0,0,1,.228-.275l10.433-.938a.261.261,0,0,1,.275.228l.181,1.977-7.538-.67a1.012,1.012,0,0,0-1.1.918l-.556,6.366-.978.094Zm13.542-5.073-.67,7.478a.255.255,0,0,1-.275.228l-.67-.06-9.743-.844a.255.255,0,0,1-.235-.275l.141-1.642.516-5.83a.248.248,0,0,1,.268-.235l7.4.67,1.106.1,1.93.168A.248.248,0,0,1,482.621,263.15Z" transform="translate(-175.618 -99.638)"/><rect class="j" width="113.245" height="84.431" transform="translate(211.308 254.717)"/><path class="b" d="M422.642,436.559a39.77,39.77,0,0,0-52.749,37.579,2.821,2.821,0,1,1-5.642,0A45.419,45.419,0,0,1,424.3,431.158" transform="translate(-141.718 -155.909)"/><path class="k" d="M453.045,432.35A45.479,45.479,0,0,1,483.8,475.33a2.821,2.821,0,0,1-5.642,0,39.83,39.83,0,0,0-26.763-37.579" transform="translate(-170.467 -157.101)"/><path class="b" d="M431.721,466.53h-.047a4.939,4.939,0,0,0-4.135,2.265,4.939,4.939,0,0,0-4.134-2.265h-.047a4.919,4.919,0,0,0-4.878,4.918,10.581,10.581,0,0,0,2.084,5.783,36.013,36.013,0,0,0,6.976,6.7,36.728,36.728,0,0,0,6.976-6.7,10.58,10.58,0,0,0,2.084-5.783,4.919,4.919,0,0,0-4.878-4.918Z" transform="translate(-159.609 -168.377)"/><rect class="j" width="171.804" height="127.766" transform="translate(355.786 219.424)"/><rect class="k" width="7.036" height="23.58" transform="translate(373.469 315.568)"/><rect class="k" width="7.036" height="52.769" transform="translate(386.871 286.379)"/><rect class="j" width="7.036" height="79.07" transform="translate(400.273 260.078)"/><rect class="k" width="7.036" height="97.833" transform="translate(413.675 241.316)"/><rect class="b" width="7.036" height="97.833" transform="translate(400.273 241.316)"/><rect class="b" width="7.036" height="53.775" transform="translate(427.076 285.374)"/><rect class="k" width="7.036" height="67.679" transform="translate(440.478 271.47)"/><rect class="k" width="7.036" height="88.787" transform="translate(453.88 250.362)"/><rect class="s" width="7.036" height="39.535" transform="translate(467.282 299.613)"/><rect class="s" width="7.036" height="57.795" transform="translate(480.683 281.353)"/><rect class="s" width="7.036" height="79.07" transform="translate(494.085 260.078)"/><rect class="s" width="7.036" height="79.07" transform="translate(507.487 260.078)"/><path class="m" d="M816.01,307.143l6.889-3.873,3.23,1.937L890.685,615.94l-3.866.737-8.068-7Z" transform="translate(-269.216 -100.062)"/><path class="h" d="M826.29,303.27l63.92,313.407,3.866-.737L829.52,305.207Z" transform="translate(-272.607 -100.062)"/><path class="m" d="M755.38,328.62l49.131,4.7v3.8l-48.87-4.255Z" transform="translate(-249.213 -108.426)"/><path class="m" d="M762.82,397.7h52.1v5.562H762.15Z" transform="translate(-251.447 -131.216)"/><path class="m" d="M770.28,469.1l52.6-2.091,6.58,2.091v3.565l-46.732,2.459H770.709Z" transform="translate(-254.129 -154.082)"/><path class="h" d="M789.52,473.025l46.062-2.895v3.565l-46.732,2.459Z" transform="translate(-260.255 -155.111)"/><path class="h" d="M770.28,470.13l13.114,2.895-.67,3.129H770.709Z" transform="translate(-254.129 -155.111)"/><path class="m" d="M777.39,546.088l58.07-5.387,6.4,1.669v3.719l-51.872,5.448-12.6,1.119Z" transform="translate(-256.474 -178.393)"/><path class="h" d="M795.86,549.228l46.323-4.657,5.769-1.38v3.719l-51.872,5.448Z" transform="translate(-262.568 -179.215)"/><path class="h" d="M776.23,552.884l13.154-.684.221,3.129-12.6,1.119Z" transform="translate(-256.092 -182.187)"/><path class="m" d="M781.51,622.638,847,613.94l5.615,2.231v4.248l-56.488,8.5H782.85Z" transform="translate(-257.834 -202.556)"/><path class="h" d="M803.32,627.328l56.488-10.058v4.248l-56.488,8.5Z" transform="translate(-265.029 -203.655)"/><path class="h" d="M782.68,632.354l13.831-.074v2.687H783.236Z" transform="translate(-258.22 -208.607)"/><path class="m" d="M787.28,700.825l71.833-13.4,6.359,3.739v2.955l-63.029,15.292-12.993.985Z" transform="translate(-259.737 -226.801)"/><path class="h" d="M809.91,708.214l63.029-15.2v2.955L809.91,711.257Z" transform="translate(-267.203 -228.642)"/><path class="h" d="M789.39,716.39l13.75-.69v3.042l-12.993.985Z" transform="translate(-260.433 -236.128)"/><path class="m" d="M759.35,297.49l-5.81,1.293,20.987,334.133,6.131,2.258H785.5Z" transform="translate(-248.606 -98.155)"/><path class="h" d="M757.98,298.12l24.143,337.054h4.845L760.814,297.49Z" transform="translate(-250.071 -98.155)"/><rect class="k" width="49.587" height="51.409" transform="matrix(0.797, -0.603, 0.603, 0.797, 477.965, 161.462)"/><rect class="j" width="49.587" height="51.409" transform="matrix(0.797, -0.603, 0.603, 0.797, 477.965, 161.462)"/><path class="t" d="M811.026,287.4l-5.521-7.317,5.91.818.181-1.508-8.443-1.173L802,286.683l1.474.208.844-5.883,5.528,7.3Z" transform="translate(-286.137 -106.252)"/><path class="k" d="M789.869,261.3a7.766,7.766,0,0,1-12.363-7.371.624.624,0,1,1,1.233.194,6.43,6.43,0,1,0,3-4.51l1.467,1.937a.63.63,0,0,1-1,.757l-1.863-2.459a.63.63,0,0,1,.121-.878,7.773,7.773,0,0,1,9.381,12.39Z" transform="translate(-278.026 -96.122)"/><path class="k" d="M781.863,257.231l4.758-.114a1.173,1.173,0,1,1,.06,2.339,1.133,1.133,0,0,1-.375-.054L781.756,258a.389.389,0,0,1-.255-.489.4.4,0,0,1,.362-.275Z" transform="translate(-279.368 -99.288)"/><path class="u" d="M832.482,417.981c-.5-1.8-.818-3.351-.818-3.351a7.063,7.063,0,0,0-.918-3.424v-.5h0l-.141-3.645a12.449,12.449,0,0,1,.851-1.943c.61-1.173-.208-5.361-.208-5.361s-2.68-5.83-2.211-9.609-5.642-16.484-5.642-16.484a16.249,16.249,0,0,1,.382-3.712,2.856,2.856,0,0,0,.04-.777.43.43,0,0,0,0-.094h0c-.181-2.473-2.318-7.043-2.318-7.043l-.074-8.859a26.07,26.07,0,0,0-1.26-12.189c-.811-2.419-1.34-4.356-1.688-5.857-.04-.168-.074-.335-.107-.489,4.168-.8,7.371-1.461,7.371-1.461s-2.828-10.092-4.543-11.807-3.243-7.27-3.243-7.27-1.132-7.163.167-9.321,1.34-5.79,1.34-5.79,3.069-2.412,3.424-3.444a16.85,16.85,0,0,0,.878-4.563c-.047-1.206-.482-2.278-.375-2.915s-1.039-3.022-.556-4.188a3.013,3.013,0,0,0,.167-1.112v-.033h0a15.612,15.612,0,0,0-.389-2.975,8.517,8.517,0,0,0-3.19-1.555l-.08-.268-.208-.71a2.891,2.891,0,0,0-.315-.168v-.261l-.067-1.032.409-2.345c.811-4.081-4.6-4.476-4.6-4.476a2.848,2.848,0,0,0-1.628-1.287c-1.1-.342.054,6.084.576,6.48a24.493,24.493,0,0,1,2.258,3.25h0l.094.161a2.311,2.311,0,0,0-.234.268l.261,1.394.04.215a5.594,5.594,0,0,0-.8,1.5,3.15,3.15,0,0,1,.878,2.258,7.235,7.235,0,0,0,.429,2.788c-.06-.06-.784-.791-1.467-.576s-2.6.864-2.6.864-1.441.308-1.293.623-.918,1.755-.918,1.755l-4.021-3.531c-.04-.114-.087-.221-.127-.335a9.261,9.261,0,0,1-.4-1.595,9.28,9.28,0,0,0,1.226-.449,2.681,2.681,0,0,0,1.052-.73,4.19,4.19,0,0,0,.556-1.7,24.993,24.993,0,0,1,1.34-3.277,10.493,10.493,0,0,0,.556-5.81,3.859,3.859,0,0,0-.67-1.668c-.67-.844-1.836-1.159-2.68-1.823s-1.441-1.709-2.439-2.191a4.651,4.651,0,0,0-2.962-.141,15.94,15.94,0,0,0-5.475,2.265,2.814,2.814,0,0,1-1.816.67,2.479,2.479,0,0,1-1.34-.925v-.054l-.04-.054a6.789,6.789,0,0,0-.5,2.935,2.728,2.728,0,0,0,.04.462,1.284,1.284,0,0,0,0,.161.984.984,0,0,1,0,.141h0a1.147,1.147,0,0,1,0,.208,1.51,1.51,0,0,1-.348.536,3.351,3.351,0,0,0-.295.442,1.414,1.414,0,0,1,.047-.161,2.332,2.332,0,0,0-.362,1.246,1.266,1.266,0,0,0,.328.864,4.246,4.246,0,0,0,.67.483,7.005,7.005,0,0,0-.067,1.3,7.518,7.518,0,0,0,3.907,6.279c.054.107.1.214.147.328a9.33,9.33,0,0,1,.871,4.208.849.849,0,0,1-.04.315l-.134.168h0s-6.413.308-7.981-1.005-3.685,3.491-3.685,3.491-2.285.536-2.761.107-3.163.06-3.163.06a5.809,5.809,0,0,0-4.067-1.34,11.9,11.9,0,0,0-3.009-1.521h-.08a3.351,3.351,0,0,0-1.454-.127,29.616,29.616,0,0,1-4.235-3.853c-.978-1.367-5.555-6.393-5.582-6.413v-.248l-.08-.757a2.3,2.3,0,0,1-.4.047l-.094-.255a13.885,13.885,0,0,0-1.019-2.1s0-.958.234-1.206-.261-3.739-.261-3.739-3.1-6.54-5.455-1.474c0,0-4.69,3.4-.509,6.982,0,0,1.642.717,1.9,1.34.167.4.757,1.5,1.153,2.231l.181.328-.047.04.087.623v.241c-.744.462-1.24.911-1.106,1.233a7.06,7.06,0,0,1,.529,1.7s5.863,6.788,6.7,9.756c0,0,15.338,8.336,20.3,8.785l-.67,4.483s-.161,2.68-.06,3.639-.389,5.307-.389,5.307-.61,6.4-1.3,7.317-.409,4.738-.409,4.738a32.136,32.136,0,0,1-.777,5.448,13.852,13.852,0,0,0,0,5.421s-2.278,5.823,3.558,1.709c0,0,2.935-.295,6.312-.543V339.4c.08,3.283.234,7.806.516,11.224.5,6.031,2.8,17.938,2.8,17.938l.228,6.031a8.712,8.712,0,0,0-.107,1.729,11.184,11.184,0,0,0,1.85,5.957l.616,4.021a15.611,15.611,0,0,1,1.266,4.175,2.305,2.305,0,0,1-.033.389,2.48,2.48,0,0,0,0,.616,33.846,33.846,0,0,0,1.273,6.138s.235,4.389.9,4.617-.67,2.56-1.025,3.237v-.121l-.074.134a3.227,3.227,0,0,0-.168,1.119,1.609,1.609,0,0,0,.791,1.514c1.28.717,1.977,1.34.925,1.622a11.391,11.391,0,0,0-1.146.288c0-.047-.047-.1-.06-.141a.67.67,0,0,0-.409.784,3.351,3.351,0,0,0,.449,1.474,16.016,16.016,0,0,0,1.91,3.176l.5-.074a2.519,2.519,0,0,1-.275.556,2.07,2.07,0,0,1-.717.67,2.426,2.426,0,0,1-.885.348,2.513,2.513,0,0,0-1.829.978,1.937,1.937,0,0,0,.342,3.009l4.771,1.441s8.088.657,7.619-1.132-.824-3.35-.824-3.35a7.27,7.27,0,0,0-.777-3.2,4.283,4.283,0,0,0-.308-.462l.288-.04s.436-4.021,1.193-4.831c.181-.181.214-.322.167-.422.074-.221-.141-.342-.409-.4a.856.856,0,0,1-.047.161,4.03,4.03,0,0,0-.791-.06s-.342-2.091.482-2.888a.8.8,0,0,0,.141-.63,3.4,3.4,0,0,0-.121-.851.168.168,0,0,0,0,.047,31.166,31.166,0,0,0-2.084-4.858,6.029,6.029,0,0,1,.362-2.68c.5-.771-.469-10.373-.469-10.373a32.2,32.2,0,0,0-.67-6.8,7.67,7.67,0,0,1,.543-4.737v-.134h0s-.04-.288-.107-.73v.047c-.181-1.226-.516-3.444-.744-4.47-.315-1.454-.255-8.47-.255-8.47l1.065-3.035,2.305,5.073,2.5,6.788a5.878,5.878,0,0,1,1.246,2.881v.214a3.565,3.565,0,0,0,0,.462,4.12,4.12,0,0,0,.777,2.426s.717,3.223,1.668,4.021a3.679,3.679,0,0,1,1.012,2.385,39.971,39.971,0,0,0,1.856,5.475,8.153,8.153,0,0,1,.59,3.183h0v.174s.214,1.675.268,3.1v.462a5.246,5.246,0,0,1-.148,1.065.246.246,0,0,0,0,.067v-.241a11.943,11.943,0,0,0-.221,2.948c.033,1.7.369,3.692,1.441,4.831,1.856,1.97,2.962,1.669,2.962,1.669s-.757,2.58-1.789,3.129a.411.411,0,0,0-.107.08c0-.049,0-.1,0-.147a1.219,1.219,0,0,0-.275.958,6.8,6.8,0,0,0,1.448,3.726,2.1,2.1,0,0,0,.911.482l-.161.107a2.684,2.684,0,0,1-.355.188,1.908,1.908,0,0,1-.536.161,2.526,2.526,0,0,0-1.829.978,1.942,1.942,0,0,0,.349,3.009l4.764,1.441S832.985,419.777,832.482,417.981Z" transform="translate(-269.592 -101.877)"/><path class="v" d="M823.534,495.129l-4.617-1.447a1.975,1.975,0,0,1-.335-3.009,2.432,2.432,0,0,1,1.769-.978,2.116,2.116,0,0,0,.858-.342,2.01,2.01,0,0,0,.67-.67,3.35,3.35,0,0,0,.449-1.782s4.945-1.655,6.366-.241a3.5,3.5,0,0,1,.67.864,7.369,7.369,0,0,1,.757,3.19s.322,1.581.8,3.351S823.534,495.129,823.534,495.129Z" transform="translate(-291.428 -174.83)"/><path class="v" d="M856.664,490.539l-4.617-1.447a1.981,1.981,0,0,1-.342-3.009,2.392,2.392,0,0,1,1.769-.978,1.529,1.529,0,0,0,.516-.161,2.851,2.851,0,0,0,.342-.181,2.9,2.9,0,0,0,1.153-2.473s4.939-1.655,6.366-.241a3.514,3.514,0,0,1,.5.63,7.29,7.29,0,0,1,.9,3.431s.315,1.581.8,3.35S856.664,490.539,856.664,490.539Z" transform="translate(-302.358 -173.309)"/><path class="h" d="M830.658,486.639a3.493,3.493,0,0,1,.67.865h0l-7.458,1.159a3.35,3.35,0,0,0,.449-1.782S829.224,485.225,830.658,486.639Z" transform="translate(-293.352 -174.823)"/><path class="h" d="M863.743,482.639l.054,1.4c-1.092,1.97-6.741,1.762-8.416.864a2.844,2.844,0,0,0,.342-.181,2.9,2.9,0,0,0,1.153-2.473s4.939-1.655,6.366-.241a3.514,3.514,0,0,1,.5.63Z" transform="translate(-303.748 -173.296)"/><path class="w" d="M848.808,437.715a12.733,12.733,0,0,0-.818,1.943l.194,5.026c-1.193,2.151-7.84,1.709-8.778.6s-2.01-4.067-1.005-4.617,1.729-3.129,1.729-3.129-1.072.3-2.868-1.675-1.461-6.507-1.186-7.605a22.541,22.541,0,0,0-.181-4.691s-.033-2.546-.576-3.35a41.373,41.373,0,0,1-1.8-5.475,3.751,3.751,0,0,0-.985-2.385c-.925-.791-1.622-4.021-1.622-4.021a4.207,4.207,0,0,1-.744-2.68,5.524,5.524,0,0,0-1.206-3.27l-2.432-6.795-2.231-5.079-1.032,3.035s-.054,7.016.261,8.47.844,5.327.844,5.327a7.837,7.837,0,0,0-.523,4.738,33.127,33.127,0,0,1,.67,6.795s.945,9.6.462,10.373a6.14,6.14,0,0,0-.342,2.68s2.828,5.5,2.01,6.3-.462,2.888-.462,2.888,1.782-.074,1.045.724-1.153,4.825-1.153,4.825l-7.666,1.186a16.3,16.3,0,0,1-1.849-3.176c-1.106-2.318.114-2.111,1.126-2.406s.342-.9-.9-1.622-.6-2.466-.6-2.466,1.729-3.19,1.079-3.418-.878-4.624-.878-4.624-1.474-5.166-1.206-6.58-1.206-4.738-1.206-4.738l-.6-4.02a11.03,11.03,0,0,1-1.7-7.518l-.235-6.178s-2.245-11.9-2.734-17.938c-.308-3.866-.469-9.153-.543-12.457-.04-1.849-.054-3.076-.054-3.076l27.393-3.94a22.6,22.6,0,0,0,.67,4.067c.335,1.5.851,3.438,1.635,5.857a26.834,26.834,0,0,1,1.233,12.2l.087,8.859s2.68,5.83,2.218,7.88a17.15,17.15,0,0,0-.369,3.712s5.91,12.732,5.481,16.5,2.151,9.609,2.151,9.609S849.4,436.542,848.808,437.715Z" transform="translate(-288.156 -134.449)"/><path class="x" d="M843.47,424.854l8.329-1.434S847.243,428.439,843.47,424.854Z" transform="translate(-299.819 -154.155)"/><path class="h" d="M852.96,411.28s.4,2.948-1.34,4.134C851.593,415.415,854.816,414.778,852.96,411.28Z" transform="translate(-302.507 -150.15)"/><path class="h" d="M847.543,397.25s-6.781,6.031-9.341,5.649S847.543,397.25,847.543,397.25Z" transform="translate(-297.962 -145.521)"/><path class="h" d="M825.5,430.2s-5.267,1.414-5.361,3.551S825.5,430.2,825.5,430.2Z" transform="translate(-292.121 -156.392)"/><path class="x" d="M828.612,469.75s-7.458,1.689-5.287,2.56a36.391,36.391,0,0,0,5.7,1.5S831.446,473.844,828.612,469.75Z" transform="translate(-293.042 -169.44)"/><g class="y" transform="translate(519.95 232.933)"><path d="M820.865,475.4a1.481,1.481,0,0,1-.73-1.065l-.074.141s-.63,1.742.61,2.459l.4.248c.221-.054.462-.094.67-.161C822.775,476.722,822.1,476.119,820.865,475.4Z" transform="translate(-811.993 -403.884)"/><path d="M835.57,473.94c.2-.194.174-.67,0-1.34a3.593,3.593,0,0,0-.355,1.856,1.515,1.515,0,0,1,.355-.516Z" transform="translate(-817.042 -403.313)"/><path d="M832,427.4a8.721,8.721,0,0,0-.422,2.365,9.458,9.458,0,0,1,.523-1.635S832.063,427.849,832,427.4Z" transform="translate(-815.846 -388.401)"/><path d="M857.624,421.084a3.228,3.228,0,0,0,.047-.7c-.08.482-.127.925-.161,1.34C857.543,421.466,857.584,421.291,857.624,421.084Z" transform="translate(-824.401 -386.085)"/><path d="M833.157,460.491a4.253,4.253,0,0,0,.134-1.421,4.885,4.885,0,0,0-.3,1.8A1.772,1.772,0,0,1,833.157,460.491Z" transform="translate(-816.311 -398.849)"/><path d="M830.926,479a24.852,24.852,0,0,0-.724,3.947l-7.666,1.186a16.271,16.271,0,0,1-1.849-3.176c-.1-.208-.174-.389-.241-.556-.449.228-.616.717.047,2.091a15.812,15.812,0,0,0,1.85,3.183L830,484.481s.422-4.021,1.153-4.825C831.515,479.275,831.268,479.094,830.926,479Z" transform="translate(-812.043 -405.424)"/><path d="M816.369,431.746s.235,4.389.885,4.617h0c.295-.744.483-1.441.194-1.541-.67-.235-.878-4.624-.878-4.624s-1.474-5.166-1.213-6.58-1.2-4.738-1.2-4.738l-.6-4.021a11.017,11.017,0,0,1-1.689-7.525l-.241-6.172s-2.245-11.9-2.727-17.938c-.315-3.866-.469-9.153-.543-12.457,0-.6,0-1.126-.033-1.568H808.1s0,1.226.054,3.082c.074,3.3.234,8.584.543,12.45.489,6.031,2.734,17.938,2.734,17.938l.235,6.178a11.03,11.03,0,0,0,1.729,7.579l.6,4.021s1.468,3.35,1.206,4.738S816.369,431.746,816.369,431.746Z" transform="translate(-808.1 -369.2)"/><path d="M854.307,481.432a7.5,7.5,0,0,1-1.34-2.982c-.764.744.248,3.464,1.139,4.516s7.579,1.561,8.771-.59l-.047-1.213C861.183,482.933,855.192,482.484,854.307,481.432Z" transform="translate(-822.813 -405.243)"/><path d="M868.728,471.584a11.946,11.946,0,0,0-.818,1.943l.034.891a14.025,14.025,0,0,1,.59-1.3,3.913,3.913,0,0,0,.215-1.588Z" transform="translate(-827.832 -402.96)"/><path d="M853.425,469.087a12.438,12.438,0,0,0,.57-1.541s-1.072.3-2.875-1.675c-1.307-1.434-1.481-4.228-1.34-6.031-.281,1.092-.617,5.635,1.179,7.606A4.482,4.482,0,0,0,853.425,469.087Z" transform="translate(-821.777 -399.103)"/><path d="M843.437,435.737a33.848,33.848,0,0,1,.275,3.766,2.389,2.389,0,0,1,.107-.6,22.1,22.1,0,0,0-.181-4.691s-.04-2.546-.576-3.35a42.6,42.6,0,0,1-1.809-5.475,3.746,3.746,0,0,0-.985-2.386c-.918-.791-1.615-4.021-1.615-4.021a4.132,4.132,0,0,1-.744-2.68,5.56,5.56,0,0,0-1.213-3.27l-2.426-6.795-2.238-5.079L831,404.142v.972l.838-2.466,2.238,5.079,2.426,6.788a5.561,5.561,0,0,1,1.213,3.27,4.16,4.16,0,0,0,.737,2.68s.67,3.223,1.621,4.021a3.732,3.732,0,0,1,.985,2.379,41.756,41.756,0,0,0,1.8,5.481C843.4,433.137,843.437,435.737,843.437,435.737Z" transform="translate(-815.655 -379.744)"/></g><path class="z" d="M847.642,274.816l-.389,2.339.067,1.039.054.757-2.647.375-.322-.536h0a23.6,23.6,0,0,0-2.184-3.257c-.509-.4-1.635-6.822-.569-6.48a2.794,2.794,0,0,1,1.534,1.28S848.44,270.735,847.642,274.816Z" transform="translate(-299.072 -103.223)"/><path class="h" d="M848.948,283.323l-2.647.375-.322-.536h0a2.339,2.339,0,0,1,2.915-.6Z" transform="translate(-300.646 -107.596)"/><path class="aa" d="M849.6,284.691l-3.471.952-.094-.523-.255-1.394a2.419,2.419,0,0,1,3.35-.6l.2.71Z" transform="translate(-300.581 -107.73)"/><path class="z" d="M762.241,275.868l-3.659,2.151-.369-.67c-.382-.73-.958-1.836-1.119-2.231-.248-.61-1.836-1.34-1.836-1.34-4.061-3.592.482-6.982.482-6.982,2.278-5.059,5.287,1.481,5.287,1.481s.516,3.491.255,3.739-.228,1.206-.228,1.206a13.944,13.944,0,0,1,.985,2.1C762.174,275.68,762.241,275.868,762.241,275.868Z" transform="translate(-270.16 -101.849)"/><path class="h" d="M764.527,281.019l-3.659,2.151-.369-.67c.509-.462,2.325-2.051,2.942-2.01a5.025,5.025,0,0,0,.885,0C764.46,280.831,764.527,281.019,764.527,281.019Z" transform="translate(-272.446 -107)"/><path class="aa" d="M765.015,282.261l-4.114,2.2-.114-.9-.087-.617s2.359-2.184,3.076-2.131a3.684,3.684,0,0,0,1.1-.047l.08.757Z" transform="translate(-272.512 -107.09)"/><path class="z" d="M828.977,294.357s-18.24,2.774-14.863,1.528a4.517,4.517,0,0,0,3.35-4.108,9.629,9.629,0,0,0-.844-4.215,17.984,17.984,0,0,0-1.762-3.243s13.71-8.242,11.177-1.132a11.287,11.287,0,0,0-.67,3.35,9.428,9.428,0,0,0,.489,3.35,10.053,10.053,0,0,0,3.123,4.47Z" transform="translate(-289.996 -106.937)"/><path class="h" d="M826.647,283.187a11.293,11.293,0,0,0-.67,3.35c-1.273,1.159-2.727,1.139-4.583,1.213-1.427.054-3,.462-4.161-.188a18,18,0,0,0-1.762-3.243S829.18,276.077,826.647,283.187Z" transform="translate(-290.581 -106.937)"/><circle class="z" cx="7.579" cy="7.579" r="7.579" transform="translate(522.718 166.152)"/><path class="h" d="M828.977,298.737s-18.24,2.774-14.863,1.528a4.517,4.517,0,0,0,3.35-4.108,10.19,10.19,0,0,1,3.846-2.231,5.5,5.5,0,0,1,3.317-.181,4.693,4.693,0,0,1,1.226.516A10.053,10.053,0,0,0,828.977,298.737Z" transform="translate(-289.996 -111.316)"/><path class="h" d="M849.725,285.2l-3.471.952-.094-.523a3.1,3.1,0,0,1,3.35-1.28Z" transform="translate(-300.706 -108.242)"/><path class="h" d="M765.058,282.647l-4.114,2.2-.114-.9A31.117,31.117,0,0,1,765,281.93Z" transform="translate(-272.555 -107.476)"/><path class="h" d="M836.19,367.758c-7.056,1.394-17.094,3.243-18.716,2.814-1.34-.355-5.588-.147-9.281.121-.04-1.849-.054-3.076-.054-3.076l27.38-3.927A22.591,22.591,0,0,0,836.19,367.758Z" transform="translate(-288.163 -134.449)"/><path class="ab" d="M827.048,338.956s-23.212,4.912-25.751,4.242-15.412.67-15.412.67c-5.642,4.108-3.444-1.715-3.444-1.715a14.165,14.165,0,0,1,0-5.421,33.017,33.017,0,0,0,.764-5.461s-.275-3.813.389-4.731,1.246-7.317,1.246-7.317.469-4.356.375-5.307.047-3.639.047-3.639l.67-4.483c-4.8-.456-19.654-8.812-19.654-8.812-.818-2.962-6.5-9.756-6.5-9.756a7.176,7.176,0,0,0-.509-1.7c-.422-1.005,5.227-3.263,5.227-3.263s4.469,5.059,5.414,6.426a28.871,28.871,0,0,0,4.1,3.853,3.055,3.055,0,0,1,1.407.134.3.3,0,0,1,.074,0h0a11.331,11.331,0,0,1,2.915,1.528,5.522,5.522,0,0,1,3.933,1.34s2.6-.483,3.062-.054,2.68-.1,2.68-.1,2.044-4.8,3.565-3.484,7.726,1.012,7.726,1.012c.784-1.132,2.767-2.01,4.021-2.459a5.508,5.508,0,0,1,3.317-.181,4.292,4.292,0,0,1,1.34.583l3.907,3.545s1.032-1.441.891-1.756,1.253-.616,1.253-.616,1.823-.67,2.513-.864,1.34.516,1.427.576a7.377,7.377,0,0,1-.429-2.781,3.184,3.184,0,0,0-.851-2.265c2.01-5.562,7.224-1.173,7.224-1.173s.67,2.975.221,4.141.67,3.545.543,4.181a27.992,27.992,0,0,0,.368,2.922,17.367,17.367,0,0,1-.844,4.557c-.342,1.039-3.31,3.444-3.31,3.444s-.047,3.639-1.34,5.79-.154,9.314-.154,9.314,1.494,5.555,3.149,7.277S827.048,338.956,827.048,338.956Z" transform="translate(-272.032 -107.585)"/><path class="h" d="M805.573,304.443s-.784-2.071-1.427-2.238a15.023,15.023,0,0,1-1.876-.757l.382-.8s2.412.563,2.821,1.246A5.51,5.51,0,0,1,805.573,304.443Z" transform="translate(-286.226 -113.652)"/><path class="h" d="M785.009,299.348c-.107.67-5.749,1.434-5.749,1.434l2.754-2.982h.074a11.333,11.333,0,0,1,2.922,1.548Z" transform="translate(-278.635 -112.711)"/><circle class="w" cx="0.509" cy="0.509" r="0.509" transform="translate(489.133 178.019)"/><circle class="w" cx="0.509" cy="0.509" r="0.509" transform="translate(489.823 179.011)"/><circle class="w" cx="0.509" cy="0.509" r="0.509" transform="translate(490.5 179.929)"/><circle class="w" cx="0.509" cy="0.509" r="0.509" transform="translate(491.204 180.921)"/><circle class="w" cx="0.415" cy="0.415" r="0.415" transform="translate(551.304 178.649)"/><circle class="w" cx="0.415" cy="0.415" r="0.415" transform="translate(551.404 179.587)"/><circle class="w" cx="0.415" cy="0.415" r="0.415" transform="translate(551.498 180.519)"/><path class="h" d="M808.24,332.06c-.067-.074,14.983,17.5,25.725,6.594C833.965,338.654,816.449,341.723,808.24,332.06Z" transform="translate(-288.196 -124.014)"/><path class="h" d="M796.47,346.59s8.6-.094,9.6,2.339l.094,2.573a1.628,1.628,0,0,1-1.595.06c-.885-.436-6.178-2.875-7.961-1.535Z" transform="translate(-284.313 -128.808)"/><path class="ab" d="M796.71,346.58s8.222-.094,9.173,2.231l.094,2.452a1.575,1.575,0,0,1-1.528.054c-.844-.409-5.91-2.734-7.612-1.461Z" transform="translate(-284.392 -128.804)"/><path class="h" d="M802.4,318.49a27.568,27.568,0,0,0,3.551,5.589,22.4,22.4,0,0,0,5.408,4.831S802.588,319.669,802.4,318.49Z" transform="translate(-286.269 -119.537)"/><path class="h" d="M797.63,303.76s1.675,6.131,5.448,8.088Z" transform="translate(-284.695 -114.678)"/><path class="h" d="M794.345,304.819c-.04-.114-1.085,4.939,5.053,7.478C799.4,312.311,796.8,311.527,794.345,304.819Z" transform="translate(-283.581 -115.027)"/><path class="h" d="M850.109,296.475c-.094,0,3.055,1.843,3.92,2.68C854.056,299.189,851.918,296.274,850.109,296.475Z" transform="translate(-302.008 -112.271)"/><path class="v" d="M817.576,282.7a1.2,1.2,0,0,0,1.354,1.132,15.31,15.31,0,0,0,6.822-.911,2.594,2.594,0,0,0,1.018-.73,4.273,4.273,0,0,0,.543-1.7,23.824,23.824,0,0,1,1.273-3.277,10.843,10.843,0,0,0,.529-5.8,3.969,3.969,0,0,0-.67-1.669c-.67-.851-1.776-1.166-2.613-1.829s-1.4-1.709-2.365-2.2a4.417,4.417,0,0,0-2.868-.141,15.112,15.112,0,0,0-5.26,2.2,2.64,2.64,0,0,1-1.755.67,2.452,2.452,0,0,1-1.34-.952,7,7,0,0,0-.436,3.317,1.576,1.576,0,0,1,0,.5,1.508,1.508,0,0,1-.335.536,1.927,1.927,0,0,0-.268,2.392c.255.281.67.429.891.71.442.516.328,1.287.348,1.97a.992.992,0,0,0,.188.67.972.972,0,0,0,.945.188,2.682,2.682,0,0,1,.992-.134,1.689,1.689,0,0,1,.891.637A11.772,11.772,0,0,1,817.576,282.7Z" transform="translate(-289.069 -102.025)"/><g class="r" transform="translate(521.858 165.448)"><path d="M827.017,284.922a2.586,2.586,0,0,1-1.012.73c-2.1.972-4.51.958-6.828.9a1.541,1.541,0,0,1-.717-.134,1.575,1.575,0,0,1-.63-1,11.873,11.873,0,0,0-2.1-4.409,1.642,1.642,0,0,0-.891-.63,2.54,2.54,0,0,0-.992.134,1,1,0,0,1-.945-.188,1.032,1.032,0,0,1-.194-.67,2.931,2.931,0,0,0-.348-1.97c-.248-.288-.63-.429-.891-.717a1.488,1.488,0,0,1-.2-1.514,1.749,1.749,0,0,0,0,2.01c.261.281.67.422.891.71.449.516.335,1.287.348,1.97a1.031,1.031,0,0,0,.194.67.965.965,0,0,0,.945.188,2.681,2.681,0,0,1,.992-.134,1.688,1.688,0,0,1,.891.637,11.792,11.792,0,0,1,2.1,4.4,1.608,1.608,0,0,0,.63,1.005,1.626,1.626,0,0,0,.717.134,15.4,15.4,0,0,0,6.828-.911,2.525,2.525,0,0,0,1.012-.73,2.01,2.01,0,0,0,.308-.623Z" transform="translate(-810.946 -270.789)"/><path d="M812.27,272.182a1.036,1.036,0,0,0,.214-.4,1.341,1.341,0,0,0,0-.5,7.086,7.086,0,0,1,.248-2.754l-.04-.047a7,7,0,0,0-.442,3.317A1.755,1.755,0,0,1,812.27,272.182Z" transform="translate(-811.362 -268.49)"/></g><path class="h" d="M819.12,297.87s9.515.891,10.306-.57" transform="translate(-291.785 -112.546)"/><path class="h" d="M846.35,291.247s5.26-.2,6.493,1.729" transform="translate(-300.769 -110.548)"/><g transform="translate(-102.311 318.649)"><path class="i" d="M780.429,192.478h-1.116V161.907a17.694,17.694,0,0,0-17.694-17.694H696.851a17.693,17.693,0,0,0-17.694,17.694V329.622a17.694,17.694,0,0,0,17.694,17.694H761.62a17.694,17.694,0,0,0,17.694-17.694V214.239h1.116Z" transform="translate(-504.859 -127.539)"/><path class="b" d="M762.471,149.86h-8.455a6.278,6.278,0,0,1-5.812,8.649H711.1a6.278,6.278,0,0,1-5.812-8.649h-7.9a13.214,13.214,0,0,0-13.214,13.214V330.543a13.214,13.214,0,0,0,13.214,13.213h65.081a13.213,13.213,0,0,0,13.213-13.213V163.074a13.213,13.213,0,0,0-13.213-13.213Z" transform="translate(-505.414 -128.164)"/><path class="i" d="M650.932,154.754l13.9,24.083,13.9,24.083H623.122l13.9-24.083Z" transform="translate(-426.622 -51.345)"/><path class="k" d="M652.749,174.36l6.308,10.925,6.307,10.925h-25.23l6.308-10.925Z" transform="translate(-428.505 -53.515)"/><path class="ac" d="M652.749,134.413l6.308,10.925,6.307,10.924h-25.23l6.308-10.924Z" transform="translate(-428.505 -49.094)"/></g><g transform="translate(-893.542 3097.094) rotate(-90)"><g transform="translate(2555.181 1086.043)"><path class="b" d="M2635.026,1486.832c-3.859,3.8-3.933,8.883-4.677,13.739-.168,1.1-.338,2.206-.423,3.315-.258,3.348-.858,3.952-4.15,4.693a62.865,62.865,0,0,1-28.189,0c-3.289-.752-3.732-1.26-4.146-4.7-.45-3.733-.984-7.461-1.665-11.157-.443-2.4-2.074-4.2-3.746-5.895a2.114,2.114,0,0,1,1.906-.564,14.006,14.006,0,0,0,3.3.374q18.687-.02,37.374-.007a10.179,10.179,0,0,0,2.9-.283A1.672,1.672,0,0,1,2635.026,1486.832Z" transform="translate(-2580.095 -1389.579)"/><path class="b" d="M2589.795,1109.188c3.76-3.84,3.831-8.911,4.586-13.753.161-1.031.32-2.064.41-3.1.312-3.583.748-4.1,4.23-4.825a67.252,67.252,0,0,1,29.2.281c2.056.476,2.781,1.781,3.013,3.706.44,3.658,1.09,7.294,1.457,10.958.267,2.665,2.31,4.375,3.191,6.685a1.33,1.33,0,0,1-1.6.267,6.884,6.884,0,0,1-.628-.347,3.443,3.443,0,0,0-1.239-.14c-12.652.021-25.3,0-37.955.011a4.805,4.805,0,0,0-1.85.214,4.473,4.473,0,0,1-.677.35A2,2,0,0,1,2589.795,1109.188Z" transform="translate(-2581.435 -1086.043)"/><path class="ad" d="M2563.542,1181.058l2.074-.069a1.424,1.424,0,0,1,.768-.185q20.409.091,40.819,0a1.458,1.458,0,0,1,.769.18l1.657.028c2.214,1.256,4.6,2.241,6.174,4.428a14.572,14.572,0,0,1,2.6,9.64c-.055,1.039-.006,2.084,0,3.126a14.706,14.706,0,0,0-1.513,6.839c.117,2.541.148,4.955,3.238,5.743-1.478.3-1.855,1.224-1.761,2.668.148,2.286.091,4.586.121,6.88a174.384,174.384,0,0,0,0,18.958,53.6,53.6,0,0,1-.272,6.029c-.743,4.831-3.91,7.786-8.1,9.845l-1.342-.028c-13.622.023-27.245-.005-40.867.029a11.862,11.862,0,0,0-3.083-.044l-1.7.036c-4.017-2.244-6.908-5.361-7.707-10.059a16.208,16.208,0,0,1-.2-2.694c-.012-15.961.021-31.922-.024-47.884-.017-5.9,2.291-10.331,7.683-12.989A5.274,5.274,0,0,0,2563.542,1181.058Z" transform="translate(-2555.181 -1157.912)"/><path class="ae" d="M2811.842,1265.435c-2.091.318-3.391-.543-3.622-2.657a19.2,19.2,0,0,1,.231-7.636,3.391,3.391,0,0,1,1.666-2.289c2.836.106,3.346.631,3.351,3.471,0,2.283-.011,4.566,0,6.848C2813.481,1264.341,2813.115,1265.207,2811.842,1265.435Z" transform="translate(-2746.899 -1212.563)"/><path class="af" d="M2814.374,1363.43c-1.083-.2-.907-1.055-.908-1.8q-.009-7.683,0-15.366c0-.742-.171-1.592.91-1.8,1.068-.039,1.2.624,1.2,1.49q-.026,7.99,0,15.979C2815.58,1362.81,2815.441,1363.471,2814.374,1363.43Z" transform="translate(-2751.073 -1282.052)"/><path class="ag" d="M2595.086,1487.186c.564-.6,1.3-.385,1.97-.385q20.008-.016,40.016,0c.67,0,1.408-.211,1.964.4a5.566,5.566,0,0,1-2.86.4q-19,.007-38.009.01A8.883,8.883,0,0,1,2595.086,1487.186Z" transform="translate(-2585.448 -1389.977)"/><path class="b" d="M2598.531,1178.726c.336-.459.831-.443,1.321-.443q20.151,0,40.3,0a1.9,1.9,0,0,1,.6.087c.049.016.036.22.051.338a4.7,4.7,0,0,1-2.644.407q-18.487.008-36.974,0A5.033,5.033,0,0,1,2598.531,1178.726Z" transform="translate(-2588.061 -1156.004)"/><path class="ah" d="M2598.419,1180.066l42.269-.017c.012.122.029.243.05.363l-.483.093a3.006,3.006,0,0,1-1.44.156q-19.255.006-38.51,0a3.108,3.108,0,0,1-1.441-.152l-.481-.09A2.627,2.627,0,0,0,2598.419,1180.066Z" transform="translate(-2587.948 -1157.343)"/><path class="i" d="M2624.667,1254.911a8.362,8.362,0,0,1-7.155,7.2,1.616,1.616,0,0,1-.778.155q-20.419-.127-40.838,0a1.545,1.545,0,0,1-.774-.167c-3.991-.785-6.233-3.3-7.116-7.173a1.472,1.472,0,0,1-.239-1.154c.207-3.765.086-7.532.084-11.3,0-13.465.06-26.93-.031-40.395a1.486,1.486,0,0,1,.162-.781c1.185-5.187,4.129-7.549,9.458-7.551q19.121-.01,38.241,0c4.812.006,7.845,2.439,8.959,7.1a1.551,1.551,0,0,1,.168.78c-.1,16.793-.013,33.585-.043,50.378,0,.836.034,1.672-.042,2.507Q2624.7,1254.711,2624.667,1254.911Z" transform="translate(-2564.703 -1167.721)"/><path class="ai" d="M2803.387,1223.418c.634.443.466,1.116.466,1.721q.011,25.6,0,51.2a9.22,9.22,0,0,1-.081,1.016c0,.04-.1.094-.152.1a.562.562,0,0,1-.2-.063,3.564,3.564,0,0,1-.4-2.419q-.016-24.446-.006-48.892A5.6,5.6,0,0,1,2803.387,1223.418Z" transform="translate(-2743.146 -1190.237)"/><path class="aj" d="M2802.726,1223.24q.019,26.987.038,53.974a1.3,1.3,0,0,1-.316.035l-.1.023-.1-.038a19.319,19.319,0,0,1-.087-3.339q-.013-23.96,0-47.919a8.078,8.078,0,0,1,.111-2.288l.151-.5A1.647,1.647,0,0,0,2802.726,1223.24Z" transform="translate(-2742.485 -1190.059)"/><path class="ak" d="M2565.965,1278.546c-.609-.459-.445-1.128-.445-1.735q-.01-25.385,0-50.771a10,10,0,0,1,.075-1.02c0-.042.092-.1.146-.107a.558.558,0,0,1,.2.052,4.673,4.673,0,0,1,.41,2.644q.007,23.927.006,47.854A8.478,8.478,0,0,1,2565.965,1278.546Z" transform="translate(-2563.008 -1191.371)"/><path class="al" d="M2567.339,1278.629q-.014-26.79-.027-53.581c.116-.011.232-.02.349-.026l.145.458a3.848,3.848,0,0,1,.124,1.45q0,24.7,0,49.4a3.618,3.618,0,0,1-.131,1.448l-.113.869C2567.57,1278.638,2567.455,1278.631,2567.339,1278.629Z" transform="translate(-2564.382 -1191.454)"/><path class="ad" d="M2640.8,1476.865c-.072.814-.7.414-1.048.414q-19.739.034-39.477.014c-.6,0-1.277.166-1.725-.458a5.416,5.416,0,0,1,2.657-.372q18.475,0,36.949,0A4.767,4.767,0,0,1,2640.8,1476.865Z" transform="translate(-2588.075 -1382.158)"/><ellipse class="am" cx="29.16" cy="0.112" rx="29.16" ry="0.112" transform="translate(2.492 25.322)"/><path class="an" d="M2640.625,1476.136l-42.25-.03a2.481,2.481,0,0,0-.056-.308l.5-.153a22.884,22.884,0,0,1,4.169-.109q17.461-.023,34.923,0a7.423,7.423,0,0,1,2.285.12l.509.16A2.872,2.872,0,0,1,2640.625,1476.136Z" transform="translate(-2587.9 -1381.429)"/><path class="ao" d="M2600.375,1181.942l41.391-.005c-.576.581-1.313.364-1.985.365q-18.71.018-37.42,0C2601.689,1182.3,2600.953,1182.518,2600.375,1181.942Z" transform="translate(-2589.459 -1158.775)"/><path class="ap" d="M2801.576,1225.269c.03,10.18.082,20.36.082,30.54,0,7.669-.067,15.338-.1,23.007a2.991,2.991,0,0,1-.3-2.019q-.013-24.762,0-49.524C2801.254,1226.6,2801.049,1225.868,2801.576,1225.269Z" transform="translate(-2741.789 -1191.641)"/><path class="aq" d="M2569.11,1279.218q-.036-24.584-.068-49.168c0-1.044.049-2.089.075-3.133.531.6.332,1.327.332,2q.015,24.15,0,48.3C2569.449,1277.895,2569.65,1278.626,2569.11,1279.218Z" transform="translate(-2565.694 -1192.891)"/><path class="ap" d="M2641.781,1475.021l-41.376-.008c.528-.49,1.183-.325,1.793-.326q18.9-.012,37.795,0C2640.6,1474.688,2641.258,1474.522,2641.781,1475.021Z" transform="translate(-2589.482 -1380.796)"/><g transform="translate(199 -455.587) rotate(90)"><path class="k" d="M804.606,277.617a16.957,16.957,0,0,1-26.994-16.094,1.363,1.363,0,1,1,2.692.424,14.038,14.038,0,1,0,6.554-9.846l3.2,4.228a1.375,1.375,0,0,1-2.18,1.653l-4.068-5.369a1.376,1.376,0,0,1,.263-1.917,16.971,16.971,0,0,1,20.483,27.052Z" transform="translate(-278.026 -96.122)"/><path class="k" d="M782.313,257.372l10.388-.249a2.56,2.56,0,1,1,.132,5.106,2.473,2.473,0,0,1-.82-.117l-9.934-3.072a.849.849,0,0,1-.556-1.068.864.864,0,0,1,.79-.6Z" transform="translate(-276.143 -91.679)"/></g></g></g></g></svg>