<svg xmlns="http://www.w3.org/2000/svg" xmlns:xlink="http://www.w3.org/1999/xlink" width="72" height="72" viewBox="0 0 72 72"><defs><style>.a{fill:none;}.b{fill:url(#a);}</style><linearGradient id="a" x1="0.5" x2="0.5" y2="1" gradientUnits="objectBoundingBox"><stop offset="0" stop-color="#0056aa"/><stop offset="1" stop-color="#283654"/></linearGradient></defs><g transform="translate(-1050.726 -3776.726)"><circle class="a" cx="36" cy="36" r="36" transform="translate(1050.726 3776.726)"/><g transform="translate(-810.548 1495.452)"><g transform="translate(1862 2282)"><path class="b" d="M1904.577,2352.548c-1.564-1.568-2.091-3.676-2.863-5.638-2.1-5.331-4.132-10.686-6.171-16.04-.191-.5-.347-.51-.836-.317-2.714,1.073-5.452,2.083-8.184,3.111-1.984.746-3.973,1.479-5.955,2.23a2.428,2.428,0,0,1-3.131-1.231,20.965,20.965,0,0,1-1.346-3.821q-6.368-20.1-12.7-40.2-.69-2.184-1.387-4.366v-1.929a3.368,3.368,0,0,1,2.568-.844,5.86,5.86,0,0,0,.616-.052c2.791-.343,5.583-.671,8.371-1.041a6.046,6.046,0,0,0,2.224-.4h2.756a4.519,4.519,0,0,1,1.335,2.111q7,17.087,13.988,34.178c.886,2.164,1.795,4.318,2.664,6.489.189.473.377.548.865.371,2.744-.994,5.505-1.942,8.26-2.909q3.547-1.245,7.093-2.5c1.57-.55,3.137-1.109,4.718-1.625.508-.166.572-.352.341-.826q-3.356-6.891-6.674-13.8c-.655-1.361-.287-2.008,1.194-2.335,1.9-.418,3.776-.909,5.663-1.367q2-.484,3.993-.963a1.446,1.446,0,0,1,1.661.662c.827,1.214,1.488,2.524,2.2,3.807q3.292,5.956,6.573,11.918a.623.623,0,0,0,.141.131v.827a4.215,4.215,0,0,1-1.018.652c-2.927,1.143-5.845,2.313-8.791,3.406-.59.219-.5.419-.289.821q3.576,6.971,7.137,13.95c.478.938.946,1.884,1.368,2.847a1.222,1.222,0,0,1-.529,1.822c-.76.5-1.572.916-2.376,1.34q-5.956,3.141-11.922,6.264c-2.443,1.278-4.9,2.536-7.344,3.8q-1.415.732-2.828,1.469Zm-27.809-67.565c-1.6.189-3.037.35-4.47.53-2.023.253-4.042.536-6.067.775-.932.11-1.024.213-.724,1.119q7.148,21.581,14.283,43.166c.166.5.428.6.857.451q2.265-.775,4.523-1.569c2.388-.838,4.767-1.7,7.164-2.514,1.569-.531,1.581-.5.985-2q-7.757-19.567-15.5-39.139C1877.572,2285.18,1877.338,2284.765,1876.768,2284.982Zm50.556,51.266a4.206,4.206,0,0,0-.161-.425q-3.569-7.172-7.138-14.344a.541.541,0,0,0-.78-.307c-1.4.543-2.8,1.1-4.2,1.636q-3.733,1.433-7.472,2.852-4.316,1.633-8.639,3.249c-.487.182-.606.406-.387.945,1.846,4.57,3.649,9.157,5.476,13.734.416,1.042.864,2.072,1.328,3.094a.653.653,0,0,0,1.039.356c3.456-1.753,6.928-3.475,10.4-5.2q5.051-2.508,10.111-5A.657.657,0,0,0,1927.324,2336.248Zm1.8-22.716c-.069-.136-.147-.3-.233-.461q-1.56-2.908-3.121-5.814c-.887-1.656-1.764-3.318-2.662-4.968-.176-.323-.323-.764-.841-.631-.552.141-1.093.327-1.644.474-1.723.458-3.449.9-5.172,1.359s-1.718.258-.943,1.818c1.855,3.737,3.726,7.466,5.574,11.206.208.422.4.6.885.381.62-.279,1.276-.478,1.919-.706,1.889-.672,3.78-1.336,5.666-2.017C1928.829,2314.073,1929.121,2313.944,1929.129,2313.532Z" transform="translate(-1862 -2282)"/></g></g></g></svg>