<svg xmlns="http://www.w3.org/2000/svg" viewBox="0 0 400 400" width="400" height="400"
    preserveAspectRatio="xMidYMid meet">
    <defs>
        <clipPath id="__lottie_element_2">
            <rect width="400" height="400" x="0" y="0"></rect>
        </clipPath>
        <radialGradient id="__lottie_element_9" spreadMethod="pad" gradientUnits="userSpaceOnUse" cx="0" cy="0"
            r="13.778646877401856" fx="0" fy="0">
            <stop offset="0%" stop-color="rgb(255,255,255)" stop-opacity="1"></stop>
            <stop offset="50%" stop-color="rgb(255,255,255)" stop-opacity="0.5"></stop>
            <stop offset="100%" stop-color="rgb(255,255,255)" stop-opacity="0"></stop>
        </radialGradient>
    </defs>
    <g clip-path="url(#__lottie_element_2)">
        <g transform="matrix(2.1875925064086914,0,0,5,134.37222290039062,61.449981689453125)" opacity="1"
            style="display: block;">
            <g opacity="1" transform="matrix(1,0,0,1,20.655000686645508,30.35300064086914)">
                <path fill="rgb(253,151,1)" fill-opacity="1"
                    d=" M-3.4839999675750732,10.711000442504883 C-3.4839999675750732,10.711000442504883 -3.4839999675750732,-29.499000549316406 -3.4839999675750732,-29.499000549316406 C-3.4839999675750732,-29.499000549316406 -6.855000019073486,-28.229999542236328 -6.855000019073486,-28.229999542236328 C-6.855000019073486,-28.229999542236328 -11.003000259399414,-26.676000595092773 -11.003000259399414,-26.676000595092773 C-11.003000259399414,-26.676000595092773 -11.003000259399414,18.264999389648438 -11.003000259399414,18.264999389648438 C-10.857000350952148,22.878000259399414 -7.869999885559082,26.917999267578125 -3.503000020980835,28.40999984741211 C-3.503000020980835,28.40999984741211 -3.503000020980835,28.393999099731445 -3.503000020980835,28.393999099731445 C1.2200000286102295,29.499000549316406 6.15500020980835,28.554000854492188 11.003000259399414,28.26099967956543 C4.290999889373779,27.58099937438965 -3.4839999675750732,26.545000076293945 -3.4839999675750732,10.711000442504883z">
                </path>
            </g>
            <g opacity="1" transform="matrix(1,0,0,1,34.994998931884766,28.48699951171875)">
                <path fill="rgb(19,64,108)" fill-opacity="1"
                    d=" M3.1110000610351562,-24.288000106811523 C3.1110000610351562,-24.288000106811523 -15.35200023651123,-27.756999969482422 -15.35200023651123,-27.756999969482422 C-15.35200023651123,-27.756999969482422 -15.35200023651123,13.99899959564209 -15.35200023651123,13.99899959564209 C-15.35099983215332,21.597000122070312 -9.192000389099121,27.756999969482422 -1.593999981880188,27.756999969482422 C-0.7250000238418579,27.756999969482422 0.1420000046491623,27.67300033569336 0.9950000047683716,27.510000228881836 C0.9950000047683716,27.510000228881836 15.352999687194824,24.7450008392334 15.352999687194824,24.7450008392334 C15.352999687194824,24.7450008392334 15.352999687194824,-9.545000076293945 15.352999687194824,-9.545000076293945 C15.347999572753906,-16.763999938964844 10.204999923706055,-22.95599937438965 3.1110000610351562,-24.288000106811523z M10.755000114440918,3.4170000553131104 C10.125,6.835000038146973 8.345000267028809,9.630000114440918 6.01200008392334,10.845999717712402 C4.170000076293945,11.814000129699707 1.9470000267028809,11.708999633789062 0.20600000023841858,10.567999839782715 C-1.1230000257492065,9.668999671936035 -2.183000087738037,8.428000450134277 -2.86299991607666,6.974999904632568 C-3.9749999046325684,4.71999979019165 -4.269000053405762,2.1480000019073486 -3.693000078201294,-0.29899999499320984 C-3.5220000743865967,-1.034000039100647 -3.2339999675750732,-1.7350000143051147 -2.8410000801086426,-2.378000020980835 C-2.4739999771118164,-3.0239999294281006 -1.9199999570846558,-3.5429999828338623 -1.2510000467300415,-3.865999937057495 C-1.1089999675750732,-3.927000045776367 -0.9539999961853027,-3.9489998817443848 -0.8009999990463257,-3.930000066757202 C-0.4399999976158142,-3.816999912261963 -0.2290000021457672,-3.443000078201294 -0.32199999690055847,-3.0759999752044678 C-0.48399999737739563,-2.5989999771118164 -0.718999981880188,-2.1470000743865967 -1.0140000581741333,-1.7380000352859497 C-1.284999966621399,-1.2050000429153442 -1.4390000104904175,-0.6179999709129333 -1.468999981880188,-0.020999999716877937 C-1.6160000562667847,1.3339999914169312 -1.3849999904632568,2.7019999027252197 -0.8009999990463257,3.931999921798706 C-0.18700000643730164,5.208000183105469 0.9610000252723694,6.1479997634887695 2.3329999446868896,6.500999927520752 C3.7139999866485596,6.747000217437744 5.125,6.2789998054504395 6.085000038146973,5.256999969482422 C7.025000095367432,4.2129998207092285 7.616000175476074,2.8989999294281006 7.775000095367432,1.503000020980835 C8.170999526977539,-1.343000054359436 7.39900016784668,-4.229000091552734 5.635000228881836,-6.497000217437744 C4.0920000076293945,-8.460000038146973 1.6610000133514404,-9.836999893188477 -0.6890000104904175,-9.456000328063965 C-2.611999988555908,-9.04800033569336 -4.234000205993652,-7.767000198364258 -5.077000141143799,-5.991000175476074 C-5.9029998779296875,-4.209000110626221 -6.307000160217285,-2.260999917984009 -6.257999897003174,-0.296999990940094 C-6.168000221252441,2.9509999752044678 -5.633999824523926,6.171000003814697 -4.669000148773193,9.27299976348877 C-4.355000019073486,10.371000289916992 -3.984999895095825,11.45199966430664 -3.562000036239624,12.51200008392334 C-3.26200008392334,13.324999809265137 -2.3570001125335693,14.96500015258789 -2.874000072479248,15.753000259399414 C-3.315999984741211,16.424999237060547 -4.236999988555908,15.276000022888184 -4.564000129699707,14.845999717712402 C-8.064000129699707,10.246000289916992 -10.35200023651123,2.203000068664551 -9.583000183105469,-3.615000009536743 C-8.791999816894531,-9.626999855041504 -5.5320000648498535,-13.609000205993652 -0.9909999966621399,-14.039999961853027 C1.7079999446868896,-14.267000198364258 4.372000217437744,-13.3100004196167 6.309000015258789,-11.416999816894531 C6.408999919891357,-11.324999809265137 6.510000228881836,-11.229000091552734 6.599999904632568,-11.138999938964844 C7.456999778747559,-10.258999824523926 8.190999984741211,-9.267000198364258 8.78600025177002,-8.190999984741211 C10.732999801635742,-4.6539998054504395 11.427000045776367,-0.5619999766349792 10.755999565124512,3.4189999103546143 C10.755999565124512,3.4189999103546143 10.755000114440918,3.4170000553131104 10.755000114440918,3.4170000553131104z">
                </path>
            </g>
        </g>
        <g transform="matrix(4.701655864715576,0,0,4.701655864715576,338.64471435546875,753.8043212890625)"
            opacity="0.3151932000000013" style="mix-blend-mode: screen; display: block;">
            <g opacity="1" transform="matrix(1,0,0,1,-36.14500045776367,-103.1449966430664)">
                <path fill="url(#__lottie_element_9)" fill-opacity="1"
                    d=" M0,-13.855500221252441 C7.6468505859375,-13.855500221252441 13.855500221252441,-7.6468505859375 13.855500221252441,0 C13.855500221252441,7.6468505859375 7.6468505859375,13.855500221252441 0,13.855500221252441 C-7.6468505859375,13.855500221252441 -13.855500221252441,7.6468505859375 -13.855500221252441,0 C-13.855500221252441,-7.6468505859375 -7.6468505859375,-13.855500221252441 0,-13.855500221252441z">
                </path>
            </g>
        </g>
    </g>
</svg>