<svg id="logo" xmlns="http://www.w3.org/2000/svg" width="332" height="64" viewBox="0 0 332 64">
  <ellipse id="Ellipse_527" data-name="Ellipse 527" cx="166" cy="32" rx="166" ry="32" fill="none"/>
  <g id="Layer_2" data-name="Layer 2" transform="translate(-255.227 -394.951)">
    <path id="Path_16020" data-name="Path 16020" d="M9.512,0H2.46V-27.347H16.154a9.292,9.292,0,0,1,6.97,2.6,8.931,8.931,0,0,1,2.542,6.5,8.88,8.88,0,0,1-2.542,6.457,9.292,9.292,0,0,1-6.97,2.6H9.512Zm5.7-15.334a3.528,3.528,0,0,0,2.358-.779,2.643,2.643,0,0,0,.923-2.132,2.689,2.689,0,0,0-.923-2.173,3.528,3.528,0,0,0-2.358-.779h-5.7v5.863ZM53.341,0H45.264L40.672-9.184H37.064V0H30.012V-27.347H43.706a9.334,9.334,0,0,1,6.97,2.583,8.913,8.913,0,0,1,2.542,6.519,8.43,8.43,0,0,1-1.62,5.35,8.367,8.367,0,0,1-3.833,2.849ZM42.64-15.334a3.776,3.776,0,0,0,2.419-.779,2.615,2.615,0,0,0,.984-2.173,2.572,2.572,0,0,0-.984-2.132A3.776,3.776,0,0,0,42.64-21.2H37.064v5.863ZM82-3.485A14.486,14.486,0,0,1,71.545.492,14.557,14.557,0,0,1,61.069-3.485a13.449,13.449,0,0,1-4.162-10.168,13.449,13.449,0,0,1,4.162-10.168A14.557,14.557,0,0,1,71.545-27.8,14.486,14.486,0,0,1,82-23.821a13.483,13.483,0,0,1,4.141,10.168A13.483,13.483,0,0,1,82-3.485ZM71.545-5.74a6.916,6.916,0,0,0,5.371-2.255,8.093,8.093,0,0,0,2.05-5.658,8.093,8.093,0,0,0-2.05-5.658,6.916,6.916,0,0,0-5.371-2.255,6.964,6.964,0,0,0-5.412,2.255,8.093,8.093,0,0,0-2.05,5.658,8.093,8.093,0,0,0,2.05,5.658A6.964,6.964,0,0,0,71.545-5.74Z" transform="translate(309.5 433.8)" fill="#14406d"/>
    <path id="Path_16019" data-name="Path 16019" d="M20.5,0H2.46V-27.347H9.512v21.2H20.5ZM51.906,0H43.911L42.558-3.936H31.775L30.422,0h-8L32.718-27.347h8.856ZM40.631-10.086,37.146-20.377,33.661-10.086ZM80.524,0H73.718L62.156-15.826V0H55.1V-27.347h7.257L73.431-12.3V-27.347h7.093ZM100.04.492A14.87,14.87,0,0,1,89.462-3.464a13.335,13.335,0,0,1-4.223-10.188,13.35,13.35,0,0,1,4.2-10.209,14.9,14.9,0,0,1,10.6-3.936,12.44,12.44,0,0,1,11.931,7.339l-6.068,2.87a6.486,6.486,0,0,0-2.317-2.829,6,6,0,0,0-3.547-1.148,7.207,7.207,0,0,0-5.473,2.276,7.888,7.888,0,0,0-2.153,5.638,7.888,7.888,0,0,0,2.153,5.637A7.207,7.207,0,0,0,100.04-5.74a6,6,0,0,0,3.547-1.148A6.486,6.486,0,0,0,105.9-9.717l6.068,2.87a14.206,14.206,0,0,1-4.49,5.227A12.416,12.416,0,0,1,100.04.492ZM136.243,0H116.194V-27.347h20.049v6.15h-13v4.264h12.71v6.15h-12.71V-6.15h13Z" transform="translate(398.402 433.8)" fill="#fe9801"/>
    <path id="Path_16021" data-name="Path 16021" d="M9.512,0H2.46V-27.347H9.512Zm19.27,0H21.73V-21.2H14.063v-6.15H36.408v6.15H28.782Z" transform="translate(549.353 433.8)" fill="#8d929d"/>
    <path id="Path_16022" data-name="Path 16022" d="M1.771,0H.858V-7.337H3.806A2.23,2.23,0,0,1,5.489-6.7a2.177,2.177,0,0,1,.616,1.573,2.167,2.167,0,0,1-.622,1.573,2.234,2.234,0,0,1-1.678.638H1.771ZM3.7-3.729A1.462,1.462,0,0,0,4.752-4.12a1.333,1.333,0,0,0,.407-1.006,1.333,1.333,0,0,0-.407-1.007A1.462,1.462,0,0,0,3.7-6.523H1.771v2.794ZM13.1,0H12.023l-1.87-2.915H8.69V0H7.777V-7.337h2.948a2.315,2.315,0,0,1,1.661.605,2.11,2.11,0,0,1,.638,1.606,2.06,2.06,0,0,1-.55,1.507,2.071,2.071,0,0,1-1.353.627ZM10.615-3.718a1.45,1.45,0,0,0,1.056-.4,1.351,1.351,0,0,0,.407-1.012,1.333,1.333,0,0,0-.407-1.007,1.462,1.462,0,0,0-1.056-.39H8.69v2.8ZM18.271.132A3.441,3.441,0,0,1,15.642-.946,3.814,3.814,0,0,1,14.63-3.663,3.814,3.814,0,0,1,15.642-6.38a3.441,3.441,0,0,1,2.629-1.078A3.446,3.446,0,0,1,20.895-6.38a3.8,3.8,0,0,1,1.017,2.717A3.8,3.8,0,0,1,20.895-.946,3.446,3.446,0,0,1,18.271.132Zm0-.814a2.478,2.478,0,0,0,1.952-.842,3.114,3.114,0,0,0,.743-2.14,3.11,3.11,0,0,0-.743-2.145,2.486,2.486,0,0,0-1.952-.836,2.482,2.482,0,0,0-1.958.836,3.124,3.124,0,0,0-.737,2.145,3.129,3.129,0,0,0,.737,2.14A2.474,2.474,0,0,0,18.271-.682ZM24.717,0H23.8V-7.337h4.807v.814H24.717v2.365h3.817v.814H24.717ZM35.123,0H30.316V-7.337h4.807v.814H31.229v2.365h3.817v.814H31.229v2.53h3.894Zm4.29.132A3.572,3.572,0,0,1,36.6-1.034l.539-.693a2.977,2.977,0,0,0,2.31,1.045,1.905,1.905,0,0,0,1.309-.38,1.163,1.163,0,0,0,.418-.885.925.925,0,0,0-.242-.649,1.635,1.635,0,0,0-.621-.412,7.462,7.462,0,0,0-.847-.27Q39-3.4,38.533-3.547a4.76,4.76,0,0,1-.841-.358A1.69,1.69,0,0,1,37.07-4.5a1.68,1.68,0,0,1-.242-.913,1.788,1.788,0,0,1,.715-1.469,2.815,2.815,0,0,1,1.8-.566,3.419,3.419,0,0,1,2.607,1.023l-.55.671a2.736,2.736,0,0,0-2.123-.88,1.731,1.731,0,0,0-1.083.325,1.013,1.013,0,0,0-.424.841.777.777,0,0,0,.324.638,2.143,2.143,0,0,0,.8.374q.479.121,1.045.3t1.045.385a1.891,1.891,0,0,1,.8.655,1.815,1.815,0,0,1,.324,1.089A2.021,2.021,0,0,1,41.453-.5,2.887,2.887,0,0,1,39.413.132Zm6.908,0a3.572,3.572,0,0,1-2.816-1.166l.539-.693a2.977,2.977,0,0,0,2.31,1.045,1.905,1.905,0,0,0,1.309-.38,1.163,1.163,0,0,0,.418-.885.925.925,0,0,0-.242-.649,1.635,1.635,0,0,0-.621-.412,7.462,7.462,0,0,0-.847-.27q-.467-.121-.93-.269A4.76,4.76,0,0,1,44.6-3.9a1.69,1.69,0,0,1-.622-.594,1.68,1.68,0,0,1-.242-.913,1.788,1.788,0,0,1,.715-1.469,2.815,2.815,0,0,1,1.8-.566,3.419,3.419,0,0,1,2.607,1.023l-.55.671a2.736,2.736,0,0,0-2.123-.88,1.731,1.731,0,0,0-1.083.325,1.013,1.013,0,0,0-.424.841.777.777,0,0,0,.324.638,2.143,2.143,0,0,0,.8.374q.479.121,1.045.3t1.045.385a1.891,1.891,0,0,1,.8.655,1.815,1.815,0,0,1,.324,1.089A2.021,2.021,0,0,1,48.362-.5,2.887,2.887,0,0,1,46.321.132ZM51.766,0h-.913V-7.337h.913Zm5.522.132A3.441,3.441,0,0,1,54.659-.946a3.814,3.814,0,0,1-1.012-2.717A3.814,3.814,0,0,1,54.659-6.38a3.441,3.441,0,0,1,2.629-1.078A3.446,3.446,0,0,1,59.911-6.38a3.8,3.8,0,0,1,1.017,2.717A3.8,3.8,0,0,1,59.911-.946,3.446,3.446,0,0,1,57.288.132Zm0-.814a2.478,2.478,0,0,0,1.952-.842,3.114,3.114,0,0,0,.743-2.14,3.11,3.11,0,0,0-.743-2.145,2.486,2.486,0,0,0-1.952-.836,2.482,2.482,0,0,0-1.958.836,3.124,3.124,0,0,0-.737,2.145,3.129,3.129,0,0,0,.737,2.14A2.474,2.474,0,0,0,57.288-.682ZM68.893,0h-.88L63.734-5.852V0h-.913V-7.337h.935L67.98-1.606V-7.337h.913Zm8.459,0H76.307l-.649-1.628H72.006L71.357,0H70.312L73.26-7.337h1.133ZM75.383-2.442,73.832-6.391,72.27-2.442ZM83.094,0H78.771V-7.337h.913V-.814h3.41Zm4.125.132A3.572,3.572,0,0,1,84.4-1.034l.539-.693a2.977,2.977,0,0,0,2.31,1.045,1.905,1.905,0,0,0,1.309-.38,1.163,1.163,0,0,0,.418-.885.925.925,0,0,0-.242-.649,1.635,1.635,0,0,0-.621-.412,7.462,7.462,0,0,0-.847-.27q-.468-.121-.929-.269A4.76,4.76,0,0,1,85.5-3.9a1.69,1.69,0,0,1-.621-.594,1.68,1.68,0,0,1-.242-.913,1.788,1.788,0,0,1,.715-1.469,2.815,2.815,0,0,1,1.8-.566A3.419,3.419,0,0,1,89.76-6.424l-.55.671a2.736,2.736,0,0,0-2.123-.88A1.731,1.731,0,0,0,86-6.308a1.013,1.013,0,0,0-.424.841.777.777,0,0,0,.325.638,2.143,2.143,0,0,0,.8.374q.479.121,1.045.3t1.045.385a1.891,1.891,0,0,1,.8.655,1.815,1.815,0,0,1,.325,1.089A2.021,2.021,0,0,1,89.259-.5,2.887,2.887,0,0,1,87.219.132ZM95.964,0h-.913V-7.337h4.807v.814H95.964v2.365h3.817v.814H95.964Zm8.943.132a3.441,3.441,0,0,1-2.629-1.078,3.814,3.814,0,0,1-1.012-2.717,3.814,3.814,0,0,1,1.012-2.717,3.441,3.441,0,0,1,2.629-1.078,3.446,3.446,0,0,1,2.623,1.078,3.8,3.8,0,0,1,1.018,2.717,3.8,3.8,0,0,1-1.018,2.717A3.446,3.446,0,0,1,104.907.132Zm0-.814a2.478,2.478,0,0,0,1.952-.842,3.114,3.114,0,0,0,.743-2.14,3.11,3.11,0,0,0-.743-2.145,2.486,2.486,0,0,0-1.952-.836,2.482,2.482,0,0,0-1.958.836,3.124,3.124,0,0,0-.737,2.145,3.129,3.129,0,0,0,.737,2.14A2.474,2.474,0,0,0,104.907-.682ZM115.764,0h-1.078l-1.87-2.915h-1.463V0h-.913V-7.337h2.948a2.315,2.315,0,0,1,1.661.605,2.11,2.11,0,0,1,.638,1.606,2.059,2.059,0,0,1-.55,1.507,2.071,2.071,0,0,1-1.353.627Zm-2.486-3.718a1.45,1.45,0,0,0,1.056-.4,1.351,1.351,0,0,0,.407-1.012,1.333,1.333,0,0,0-.407-1.007,1.462,1.462,0,0,0-1.056-.39h-1.925v2.8ZM123.937,0h-.913V-3.1l-2.893-4.235H121.2l2.277,3.41,2.277-3.41h1.067L123.937-3.1Zm7.205.132a3.441,3.441,0,0,1-2.629-1.078A3.814,3.814,0,0,1,127.5-3.663a3.814,3.814,0,0,1,1.012-2.717,3.441,3.441,0,0,1,2.629-1.078,3.446,3.446,0,0,1,2.624,1.078,3.8,3.8,0,0,1,1.018,2.717,3.8,3.8,0,0,1-1.018,2.717A3.446,3.446,0,0,1,131.142.132Zm0-.814a2.478,2.478,0,0,0,1.952-.842,3.114,3.114,0,0,0,.743-2.14,3.11,3.11,0,0,0-.743-2.145,2.486,2.486,0,0,0-1.952-.836,2.482,2.482,0,0,0-1.958.836,3.124,3.124,0,0,0-.737,2.145,3.129,3.129,0,0,0,.737,2.14A2.474,2.474,0,0,0,131.142-.682Zm10.747.022a2.937,2.937,0,0,1-2.222.792,2.944,2.944,0,0,1-2.228-.8,3.024,3.024,0,0,1-.764-2.183V-7.337h.913v4.466a2.275,2.275,0,0,0,.539,1.606,1.993,1.993,0,0,0,1.54.583,1.993,1.993,0,0,0,1.54-.583,2.275,2.275,0,0,0,.539-1.606V-7.337h.913V-2.86A3.047,3.047,0,0,1,141.889-.66Zm8.272.66h-1.078l-1.87-2.915H145.75V0h-.913V-7.337h2.948a2.315,2.315,0,0,1,1.661.605,2.11,2.11,0,0,1,.638,1.606,2.059,2.059,0,0,1-.55,1.507,2.071,2.071,0,0,1-1.353.627Zm-2.486-3.718a1.45,1.45,0,0,0,1.056-.4,1.351,1.351,0,0,0,.407-1.012,1.333,1.333,0,0,0-.407-1.007,1.462,1.462,0,0,0-1.056-.39H145.75v2.8ZM156.2,0h-.913V-7.337h.913Zm8.25,0h-.88l-4.279-5.852V0h-.913V-7.337h.935l4.224,5.731V-7.337h.913Zm8.25,0h-.88l-4.279-5.852V0h-.913V-7.337h.935l4.224,5.731V-7.337h.913Zm5.522.132a3.441,3.441,0,0,1-2.629-1.078,3.814,3.814,0,0,1-1.012-2.717,3.814,3.814,0,0,1,1.012-2.717,3.441,3.441,0,0,1,2.629-1.078,3.446,3.446,0,0,1,2.624,1.078,3.8,3.8,0,0,1,1.018,2.717,3.8,3.8,0,0,1-1.018,2.717A3.446,3.446,0,0,1,178.222.132Zm0-.814a2.478,2.478,0,0,0,1.952-.842,3.114,3.114,0,0,0,.743-2.14,3.11,3.11,0,0,0-.743-2.145,2.486,2.486,0,0,0-1.952-.836,2.482,2.482,0,0,0-1.958.836,3.124,3.124,0,0,0-.737,2.145,3.129,3.129,0,0,0,.737,2.14A2.474,2.474,0,0,0,178.222-.682ZM186.857,0h-1.133l-2.948-7.337h1.045L186.3-1l2.475-6.336h1.045Zm10.065,0h-1.045l-.649-1.628h-3.652L190.927,0h-1.045l2.948-7.337h1.133Zm-1.969-2.442L193.4-6.391,191.84-2.442ZM200.332,0h-.913V-6.523H197.1v-.814h5.566v.814h-2.332Zm4.917,0h-.913V-7.337h.913Zm5.522.132a3.441,3.441,0,0,1-2.629-1.078,3.814,3.814,0,0,1-1.012-2.717,3.814,3.814,0,0,1,1.012-2.717,3.441,3.441,0,0,1,2.629-1.078,3.446,3.446,0,0,1,2.624,1.078,3.8,3.8,0,0,1,1.018,2.717,3.8,3.8,0,0,1-1.018,2.717A3.446,3.446,0,0,1,210.771.132Zm0-.814a2.478,2.478,0,0,0,1.952-.842,3.114,3.114,0,0,0,.743-2.14,3.11,3.11,0,0,0-.743-2.145,2.486,2.486,0,0,0-1.952-.836,2.482,2.482,0,0,0-1.958.836,3.124,3.124,0,0,0-.737,2.145,3.129,3.129,0,0,0,.737,2.14A2.474,2.474,0,0,0,210.771-.682Zm11.6.682h-.88l-4.279-5.852V0H216.3V-7.337h.935l4.224,5.731V-7.337h.913Z" transform="translate(312.159 449.898)" fill="#8d929d"/>
    <g id="icon">
      <path id="Path_15347" data-name="Path 15347" d="M263.619,450.06V409.85h0l-3.371,1.269-4.148,1.554v44.941a11.092,11.092,0,0,0,7.5,10.146h0v-.017h0c4.723,1.106,9.659.16,14.507-.133C271.395,466.931,263.619,465.894,263.619,450.06Z" transform="translate(0 -10.165)" fill="#fe9801"/>
      <path id="Path_15348" data-name="Path 15348" d="M310.694,412.868,292.23,409.4v41.756a13.758,13.758,0,0,0,16.348,13.511l14.357-2.765V427.612A15.013,15.013,0,0,0,310.694,412.868Zm7.643,27.705c-.63,3.418-2.409,6.214-4.742,7.43a5.732,5.732,0,0,1-5.807-.277,8.886,8.886,0,0,1-3.069-3.595,10.832,10.832,0,0,1-.83-7.273,7.029,7.029,0,0,1,.852-2.079,3.653,3.653,0,0,1,1.59-1.488.871.871,0,0,1,.451-.064.712.712,0,0,1,.478.854,5.084,5.084,0,0,1-.691,1.338,4.251,4.251,0,0,0-.456,1.717,7.365,7.365,0,0,0,.669,3.952,4.8,4.8,0,0,0,3.133,2.569,4.148,4.148,0,0,0,3.753-1.244,6.743,6.743,0,0,0,1.69-3.753,10.644,10.644,0,0,0-2.14-8c-1.543-1.963-3.974-3.34-6.324-2.959a6.307,6.307,0,0,0-4.389,3.465,12.769,12.769,0,0,0-1.181,5.694,35.569,35.569,0,0,0,1.59,9.571,33.7,33.7,0,0,0,1.106,3.238c.3.813,1.206,2.453.689,3.241-.442.672-1.363-.476-1.69-.907-3.5-4.6-5.788-12.643-5.019-18.461.791-6.012,4.051-9.994,8.592-10.425a9.326,9.326,0,0,1,7.3,2.624c.1.091.2.188.29.277a13.763,13.763,0,0,1,2.187,2.948,17.905,17.905,0,0,1,1.969,11.609Z" transform="translate(-26.139 -9.839)" fill="#14406d"/>
    </g>
  </g>
</svg>
