<?xml version="1.0" encoding="utf-8"?>
<!-- Generator: Adobe Illustrator 22.1.0, SVG Export Plug-In . SVG Version: 6.00 Build 0)  -->
<svg version="1.1" id="Layer_1" xmlns="http://www.w3.org/2000/svg" xmlns:xlink="http://www.w3.org/1999/xlink" x="0px" y="0px"
	 viewBox="0 0 329.6 58.7" style="enable-background:new 0 0 329.6 58.7;" xml:space="preserve">
<style type="text/css">
	.st0{fill:#FFFFFF;}
	.st1{fill:#FE9801;}
	.st2{fill:#8D929D;}
	.st3{enable-background:new    ;}
	.st4{fill:#AAAAAA;}
</style>
<path id="Path_16016" class="st0" d="M63.3,33.2h-7.2v-28h14c2.6-0.1,5.2,0.8,7.1,2.7c1.7,1.8,2.7,4.2,2.6,6.7
	c0.1,2.5-0.9,4.9-2.6,6.6c-1.9,1.8-4.5,2.8-7.1,2.7h-6.8L63.3,33.2z M69.1,17.5c0.9,0,1.7-0.2,2.4-0.8c0.6-0.5,1-1.3,0.9-2.2
	c0-0.8-0.3-1.7-0.9-2.2c-0.7-0.6-1.5-0.8-2.4-0.8h-5.8v6L69.1,17.5z M108.2,33.2h-8.3l-4.7-9.4h-3.7v9.4h-7.2v-28h14
	c2.6-0.1,5.2,0.8,7.1,2.6c1.7,1.8,2.7,4.2,2.6,6.7c0.1,2-0.5,3.9-1.7,5.5c-1,1.3-2.4,2.3-3.9,2.9L108.2,33.2z M97.2,17.5
	c0.9,0,1.8-0.3,2.5-0.8c0.7-0.5,1-1.4,1-2.2c0-0.8-0.3-1.7-1-2.2c-0.7-0.5-1.6-0.8-2.5-0.8h-5.7v6L97.2,17.5z M137.6,29.6
	c-2.9,2.7-6.7,4.2-10.7,4.1c-4,0.1-7.8-1.3-10.7-4.1c-2.8-2.7-4.4-6.5-4.3-10.4c-0.1-3.9,1.4-7.7,4.3-10.4c2.9-2.7,6.8-4.2,10.7-4.1
	c4-0.1,7.8,1.3,10.7,4.1c2.8,2.7,4.4,6.5,4.2,10.4C141.9,23.1,140.4,26.9,137.6,29.6z M126.9,27.3c2.1,0.1,4.1-0.8,5.5-2.3
	c1.4-1.6,2.2-3.7,2.1-5.8c0.1-2.1-0.7-4.2-2.1-5.8c-1.4-1.5-3.4-2.4-5.5-2.3c-2.1-0.1-4.1,0.8-5.5,2.3c-1.4,1.6-2.2,3.7-2.1,5.8
	c-0.1,2.1,0.7,4.2,2.1,5.8C122.7,26.6,124.8,27.4,126.9,27.3z"/>
<path id="Path_16017" class="st1" d="M166.3,33.2h-18.5v-28h7.2v21.7h11.3V33.2z M198.5,33.2h-8.2l-1.4-4h-11.1l-1.4,4h-8.2l10.5-28
	h9.1L198.5,33.2z M187,22.9l-3.6-10.5l-3.6,10.5H187z M227.8,33.2h-7L209,17v16.2h-7.2v-28h7.4l11.3,15.4V5.2h7.3V33.2z M247.8,33.7
	c-4,0.1-7.9-1.3-10.8-4c-2.9-2.7-4.5-6.5-4.3-10.4c-0.1-3.9,1.4-7.8,4.3-10.5c2.9-2.7,6.8-4.2,10.9-4c5.2-0.2,10.1,2.7,12.2,7.5
	l-6.2,2.9c-0.5-1.2-1.3-2.2-2.4-2.9c-1.1-0.8-2.3-1.2-3.6-1.2c-2.1-0.1-4.2,0.8-5.6,2.3c-1.5,1.6-2.3,3.6-2.2,5.8
	c-0.1,2.1,0.7,4.2,2.2,5.8c1.4,1.5,3.5,2.4,5.6,2.3c1.3,0,2.6-0.4,3.6-1.2c1.1-0.7,1.9-1.7,2.4-2.9l6.2,2.9c-1.1,2.1-2.7,4-4.6,5.4
	C253.2,33.1,250.5,33.8,247.8,33.7z M284.9,33.2h-20.5v-28h20.5v6.3h-13.3v4.4h13v6.3h-13v4.7h13.3V33.2z"/>
<path id="Path_16018" class="st2" d="M302.7,34.2h-7.1V6.9h7.1V34.2z M322,34.2h-7.1V13h-7.7V6.9h22.3V13H322V34.2z"/>
<g class="st3">
	<path class="st4" d="M57,50.5h-0.9v-7.3H59c0.7,0,1.3,0.2,1.7,0.6c0.4,0.4,0.6,1,0.6,1.6s-0.2,1.1-0.6,1.6c-0.4,0.4-1,0.6-1.7,0.6
		h-2V50.5z M58.9,46.7c0.4,0,0.8-0.1,1.1-0.4c0.3-0.3,0.4-0.6,0.4-1c0-0.4-0.1-0.7-0.4-1c-0.3-0.3-0.6-0.4-1.1-0.4H57v2.8H58.9z"/>
	<path class="st4" d="M68.5,50.5h-1.1l-1.9-2.9h-1.5v2.9h-0.9v-7.3h2.9c0.7,0,1.2,0.2,1.7,0.6c0.4,0.4,0.6,0.9,0.6,1.6
		c0,0.6-0.2,1.1-0.5,1.5c-0.4,0.4-0.8,0.6-1.4,0.6L68.5,50.5z M66,46.7c0.4,0,0.8-0.1,1.1-0.4c0.3-0.3,0.4-0.6,0.4-1
		c0-0.4-0.1-0.7-0.4-1c-0.3-0.3-0.6-0.4-1.1-0.4h-1.9v2.8H66z"/>
	<path class="st4" d="M73.9,50.6c-1.1,0-2-0.4-2.6-1.1c-0.7-0.7-1-1.6-1-2.7s0.3-2,1-2.7c0.7-0.7,1.6-1.1,2.6-1.1
		c1.1,0,1.9,0.4,2.6,1.1c0.7,0.7,1,1.6,1,2.7s-0.3,2-1,2.7C75.8,50.2,74.9,50.6,73.9,50.6z M73.9,49.8c0.8,0,1.5-0.3,2-0.8
		c0.5-0.6,0.7-1.3,0.7-2.1c0-0.9-0.2-1.6-0.7-2.1c-0.5-0.6-1.1-0.8-2-0.8c-0.8,0-1.5,0.3-2,0.8c-0.5,0.6-0.7,1.3-0.7,2.1
		c0,0.9,0.2,1.6,0.7,2.1C72.4,49.5,73.1,49.8,73.9,49.8z"/>
	<path class="st4" d="M80.5,50.5h-0.9v-7.3h4.8v0.8h-3.9v2.4h3.8v0.8h-3.8V50.5z"/>
	<path class="st4" d="M91.1,50.5h-4.8v-7.3h4.8v0.8h-3.9v2.4H91v0.8h-3.8v2.5h3.9V50.5z"/>
	<path class="st4" d="M95.6,50.6c-1.2,0-2.1-0.4-2.8-1.2l0.5-0.7c0.6,0.7,1.4,1,2.3,1c0.6,0,1-0.1,1.3-0.4c0.3-0.3,0.4-0.5,0.4-0.9
		c0-0.3-0.1-0.5-0.2-0.6c-0.2-0.2-0.4-0.3-0.6-0.4c-0.3-0.1-0.5-0.2-0.8-0.3c-0.3-0.1-0.6-0.2-0.9-0.3c-0.3-0.1-0.6-0.2-0.8-0.4
		c-0.3-0.1-0.5-0.3-0.6-0.6C93.1,45.7,93,45.4,93,45c0-0.6,0.2-1.1,0.7-1.5c0.5-0.4,1.1-0.6,1.8-0.6c1.1,0,2,0.3,2.6,1l-0.5,0.7
		c-0.5-0.6-1.2-0.9-2.1-0.9c-0.4,0-0.8,0.1-1.1,0.3c-0.3,0.2-0.4,0.5-0.4,0.8c0,0.3,0.1,0.5,0.3,0.6s0.5,0.3,0.8,0.4
		c0.3,0.1,0.7,0.2,1,0.3c0.4,0.1,0.7,0.2,1,0.4s0.6,0.4,0.8,0.7c0.2,0.3,0.3,0.7,0.3,1.1c0,0.6-0.2,1.1-0.7,1.5S96.5,50.6,95.6,50.6
		z"/>
	<path class="st4" d="M102.7,50.6c-1.2,0-2.1-0.4-2.8-1.2l0.5-0.7c0.6,0.7,1.4,1,2.3,1c0.6,0,1-0.1,1.3-0.4c0.3-0.3,0.4-0.5,0.4-0.9
		c0-0.3-0.1-0.5-0.2-0.6c-0.2-0.2-0.4-0.3-0.6-0.4c-0.3-0.1-0.5-0.2-0.8-0.3c-0.3-0.1-0.6-0.2-0.9-0.3c-0.3-0.1-0.6-0.2-0.8-0.4
		c-0.3-0.1-0.5-0.3-0.6-0.6c-0.2-0.3-0.2-0.6-0.2-0.9c0-0.6,0.2-1.1,0.7-1.5c0.5-0.4,1.1-0.6,1.8-0.6c1.1,0,2,0.3,2.6,1l-0.5,0.7
		c-0.5-0.6-1.2-0.9-2.1-0.9c-0.4,0-0.8,0.1-1.1,0.3c-0.3,0.2-0.4,0.5-0.4,0.8c0,0.3,0.1,0.5,0.3,0.6s0.5,0.3,0.8,0.4
		c0.3,0.1,0.7,0.2,1,0.3c0.4,0.1,0.7,0.2,1,0.4s0.6,0.4,0.8,0.7c0.2,0.3,0.3,0.7,0.3,1.1c0,0.6-0.2,1.1-0.7,1.5
		S103.6,50.6,102.7,50.6z"/>
	<path class="st4" d="M108.3,50.5h-0.9v-7.3h0.9V50.5z"/>
	<path class="st4" d="M114,50.6c-1.1,0-2-0.4-2.6-1.1c-0.7-0.7-1-1.6-1-2.7s0.3-2,1-2.7c0.7-0.7,1.6-1.1,2.6-1.1
		c1.1,0,1.9,0.4,2.6,1.1c0.7,0.7,1,1.6,1,2.7s-0.3,2-1,2.7C116,50.2,115.1,50.6,114,50.6z M114,49.8c0.8,0,1.5-0.3,2-0.8
		c0.5-0.6,0.7-1.3,0.7-2.1c0-0.9-0.2-1.6-0.7-2.1c-0.5-0.6-1.1-0.8-2-0.8c-0.8,0-1.5,0.3-2,0.8c-0.5,0.6-0.7,1.3-0.7,2.1
		c0,0.9,0.2,1.6,0.7,2.1C112.5,49.5,113.2,49.8,114,49.8z"/>
	<path class="st4" d="M125.8,50.5h-0.9l-4.3-5.9v5.9h-0.9v-7.3h0.9l4.2,5.7v-5.7h0.9V50.5z"/>
	<path class="st4" d="M134.4,50.5h-1l-0.6-1.6h-3.7l-0.6,1.6h-1l2.9-7.3h1.1L134.4,50.5z M132.5,48l-1.6-3.9l-1.6,3.9H132.5z"/>
	<path class="st4" d="M140.4,50.5h-4.3v-7.3h0.9v6.5h3.4V50.5z"/>
	<path class="st4" d="M144.7,50.6c-1.2,0-2.1-0.4-2.8-1.2l0.5-0.7c0.6,0.7,1.4,1,2.3,1c0.6,0,1-0.1,1.3-0.4c0.3-0.3,0.4-0.5,0.4-0.9
		c0-0.3-0.1-0.5-0.2-0.6c-0.2-0.2-0.4-0.3-0.6-0.4c-0.3-0.1-0.5-0.2-0.8-0.3c-0.3-0.1-0.6-0.2-0.9-0.3c-0.3-0.1-0.6-0.2-0.8-0.4
		c-0.3-0.1-0.5-0.3-0.6-0.6c-0.2-0.3-0.2-0.6-0.2-0.9c0-0.6,0.2-1.1,0.7-1.5c0.5-0.4,1.1-0.6,1.8-0.6c1.1,0,2,0.3,2.6,1l-0.5,0.7
		c-0.5-0.6-1.2-0.9-2.1-0.9c-0.4,0-0.8,0.1-1.1,0.3c-0.3,0.2-0.4,0.5-0.4,0.8c0,0.3,0.1,0.5,0.3,0.6s0.5,0.3,0.8,0.4
		c0.3,0.1,0.7,0.2,1,0.3c0.4,0.1,0.7,0.2,1,0.4s0.6,0.4,0.8,0.7c0.2,0.3,0.3,0.7,0.3,1.1c0,0.6-0.2,1.1-0.7,1.5
		S145.6,50.6,144.7,50.6z"/>
	<path class="st4" d="M153.8,50.5h-0.9v-7.3h4.8v0.8h-3.9v2.4h3.8v0.8h-3.8V50.5z"/>
	<path class="st4" d="M162.9,50.6c-1.1,0-2-0.4-2.6-1.1c-0.7-0.7-1-1.6-1-2.7s0.3-2,1-2.7c0.7-0.7,1.6-1.1,2.6-1.1
		c1.1,0,1.9,0.4,2.6,1.1c0.7,0.7,1,1.6,1,2.7s-0.3,2-1,2.7C164.9,50.2,164,50.6,162.9,50.6z M162.9,49.8c0.8,0,1.5-0.3,2-0.8
		c0.5-0.6,0.7-1.3,0.7-2.1c0-0.9-0.2-1.6-0.7-2.1c-0.5-0.6-1.1-0.8-2-0.8c-0.8,0-1.5,0.3-2,0.8c-0.5,0.6-0.7,1.3-0.7,2.1
		c0,0.9,0.2,1.6,0.7,2.1C161.5,49.5,162.1,49.8,162.9,49.8z"/>
	<path class="st4" d="M174,50.5h-1.1l-1.9-2.9h-1.5v2.9h-0.9v-7.3h2.9c0.7,0,1.2,0.2,1.7,0.6c0.4,0.4,0.6,0.9,0.6,1.6
		c0,0.6-0.2,1.1-0.5,1.5c-0.4,0.4-0.8,0.6-1.4,0.6L174,50.5z M171.5,46.7c0.4,0,0.8-0.1,1.1-0.4c0.3-0.3,0.4-0.6,0.4-1
		c0-0.4-0.1-0.7-0.4-1c-0.3-0.3-0.6-0.4-1.1-0.4h-1.9v2.8H171.5z"/>
	<path class="st4" d="M182.5,50.5h-0.9v-3.1l-2.9-4.2h1.1l2.3,3.4l2.3-3.4h1.1l-2.9,4.2V50.5z"/>
	<path class="st4" d="M189.9,50.6c-1.1,0-2-0.4-2.6-1.1c-0.7-0.7-1-1.6-1-2.7s0.3-2,1-2.7c0.7-0.7,1.6-1.1,2.6-1.1
		c1.1,0,1.9,0.4,2.6,1.1s1,1.6,1,2.7s-0.3,2-1,2.7S191,50.6,189.9,50.6z M189.9,49.8c0.8,0,1.5-0.3,2-0.8c0.5-0.6,0.7-1.3,0.7-2.1
		c0-0.9-0.2-1.6-0.7-2.1c-0.5-0.6-1.1-0.8-2-0.8c-0.8,0-1.5,0.3-2,0.8c-0.5,0.6-0.7,1.3-0.7,2.1c0,0.9,0.2,1.6,0.7,2.1
		C188.5,49.5,189.1,49.8,189.9,49.8z"/>
	<path class="st4" d="M200.9,49.8c-0.5,0.5-1.3,0.8-2.2,0.8c-1,0-1.7-0.3-2.2-0.8c-0.5-0.5-0.8-1.3-0.8-2.2v-4.5h0.9v4.5
		c0,0.7,0.2,1.2,0.5,1.6s0.9,0.6,1.5,0.6c0.7,0,1.2-0.2,1.5-0.6c0.4-0.4,0.5-0.9,0.5-1.6v-4.5h0.9v4.5
		C201.6,48.5,201.4,49.3,200.9,49.8z"/>
	<path class="st4" d="M209.3,50.5h-1.1l-1.9-2.9h-1.5v2.9H204v-7.3h2.9c0.7,0,1.2,0.2,1.7,0.6c0.4,0.4,0.6,0.9,0.6,1.6
		c0,0.6-0.2,1.1-0.5,1.5c-0.4,0.4-0.8,0.6-1.4,0.6L209.3,50.5z M206.8,46.7c0.4,0,0.8-0.1,1.1-0.4c0.3-0.3,0.4-0.6,0.4-1
		c0-0.4-0.1-0.7-0.4-1c-0.3-0.3-0.6-0.4-1.1-0.4h-1.9v2.8H206.8z"/>
	<path class="st4" d="M215.7,50.5h-0.9v-7.3h0.9V50.5z"/>
	<path class="st4" d="M224.2,50.5h-0.9l-4.3-5.9v5.9h-0.9v-7.3h0.9l4.2,5.7v-5.7h0.9V50.5z"/>
	<path class="st4" d="M232.6,50.5h-0.9l-4.3-5.9v5.9h-0.9v-7.3h0.9l4.2,5.7v-5.7h0.9V50.5z"/>
	<path class="st4" d="M238.3,50.6c-1.1,0-2-0.4-2.6-1.1s-1-1.6-1-2.7s0.3-2,1-2.7s1.6-1.1,2.6-1.1c1.1,0,1.9,0.4,2.6,1.1
		c0.7,0.7,1,1.6,1,2.7s-0.3,2-1,2.7C240.3,50.2,239.4,50.6,238.3,50.6z M238.3,49.8c0.8,0,1.5-0.3,2-0.8c0.5-0.6,0.7-1.3,0.7-2.1
		c0-0.9-0.2-1.6-0.7-2.1c-0.5-0.6-1.1-0.8-2-0.8c-0.8,0-1.5,0.3-2,0.8c-0.5,0.6-0.7,1.3-0.7,2.1c0,0.9,0.2,1.6,0.7,2.1
		C236.8,49.5,237.5,49.8,238.3,49.8z"/>
	<path class="st4" d="M247.1,50.5H246l-2.9-7.3h1l2.5,6.3l2.5-6.3h1L247.1,50.5z"/>
	<path class="st4" d="M257.4,50.5h-1l-0.6-1.6H252l-0.6,1.6h-1l2.9-7.3h1.1L257.4,50.5z M255.4,48l-1.6-3.9l-1.6,3.9H255.4z"/>
	<path class="st4" d="M261,50.5h-0.9v-6.5h-2.3v-0.8h5.6v0.8H261V50.5z"/>
	<path class="st4" d="M266.1,50.5h-0.9v-7.3h0.9V50.5z"/>
	<path class="st4" d="M271.8,50.6c-1.1,0-2-0.4-2.6-1.1s-1-1.6-1-2.7s0.3-2,1-2.7s1.6-1.1,2.6-1.1c1.1,0,1.9,0.4,2.6,1.1
		c0.7,0.7,1,1.6,1,2.7s-0.3,2-1,2.7C273.7,50.2,272.9,50.6,271.8,50.6z M271.8,49.8c0.8,0,1.5-0.3,2-0.8c0.5-0.6,0.7-1.3,0.7-2.1
		c0-0.9-0.2-1.6-0.7-2.1c-0.5-0.6-1.1-0.8-2-0.8c-0.8,0-1.5,0.3-2,0.8c-0.5,0.6-0.7,1.3-0.7,2.1c0,0.9,0.2,1.6,0.7,2.1
		C270.3,49.5,271,49.8,271.8,49.8z"/>
	<path class="st4" d="M283.6,50.5h-0.9l-4.3-5.9v5.9h-0.9v-7.3h0.9l4.2,5.7v-5.7h0.9V50.5z"/>
</g>
<path id="Path_15347" class="st1" d="M7.5,40.5V0.1l0,0L4.2,1.4L0,3V48c0.1,4.6,3.1,8.7,7.5,10.2l0,0v0l0,0
	c4.7,1.1,9.7,0.2,14.5-0.1C15.3,57.4,7.5,56.3,7.5,40.5z"/>
<path id="Path_15348" class="st0" d="M28.5,3.5L10,0v41.9c0,7.6,6.2,13.8,13.8,13.8c0.9,0,1.7-0.1,2.6-0.2l14.4-2.8V18.3
	C40.8,11,35.7,4.8,28.5,3.5z M36.2,31.3c-0.6,3.4-2.4,6.2-4.8,7.5c-1.8,1-4.1,0.9-5.8-0.3c-1.3-0.9-2.4-2.1-3.1-3.6
	c-1.1-2.3-1.4-4.8-0.8-7.3c0.2-0.7,0.5-1.4,0.9-2.1c0.4-0.6,0.9-1.2,1.6-1.5c0.1-0.1,0.3-0.1,0.5-0.1c0.4,0.1,0.6,0.5,0.5,0.9
	c-0.2,0.5-0.4,0.9-0.7,1.3c-0.3,0.5-0.4,1.1-0.5,1.7c-0.1,1.4,0.1,2.7,0.7,4c0.6,1.3,1.8,2.2,3.1,2.6c1.4,0.2,2.8-0.2,3.8-1.2
	c0.9-1,1.5-2.4,1.7-3.8c0.4-2.9-0.4-5.8-2.1-8c-1.5-2-4-3.4-6.3-3c-1.9,0.4-3.6,1.7-4.4,3.5c-0.8,1.8-1.2,3.7-1.2,5.7
	c0.1,3.3,0.6,6.5,1.6,9.6c0.3,1.1,0.7,2.2,1.1,3.2c0.3,0.8,1.2,2.5,0.7,3.3c-0.4,0.7-1.4-0.5-1.7-0.9c-3.5-4.6-5.8-12.7-5-18.5
	c0.8-6,4.1-10,8.6-10.5c2.7-0.2,5.4,0.7,7.3,2.6c0.1,0.1,0.2,0.2,0.3,0.3c0.9,0.9,1.6,1.9,2.2,3C36.2,23.2,36.9,27.3,36.2,31.3
	L36.2,31.3z"/>
</svg>
