<svg xmlns="http://www.w3.org/2000/svg" xmlns:xlink="http://www.w3.org/1999/xlink" width="72" height="72" viewBox="0 0 72 72"><defs><style>.a{fill:none;}.b{fill:#fe9801;}.c{fill:url(#a);}.d{fill:#3ca646;}.e{fill:#208c38;}</style><linearGradient id="a" x1="0.5" x2="0.5" y2="1" gradientUnits="objectBoundingBox"><stop offset="0" stop-color="#0056aa"/><stop offset="1" stop-color="#283654"/></linearGradient></defs><g transform="translate(-1518.363 -3612.769)"><circle class="a" cx="36" cy="36" r="36" transform="translate(1518.363 3612.769)"/><g transform="translate(-3666.032 2245.828)"><g transform="translate(5203.501 1367.172)"><g transform="translate(0 0)"><path class="b" d="M5308.707,1411.041a45.956,45.956,0,0,1-.854,4.707,35.968,35.968,0,0,1-5.485,11.849,29.152,29.152,0,0,1-7.448,7.637,3.069,3.069,0,0,1-1.878-2.363,18.44,18.44,0,0,1-.809-6.23c.143-4.3.207-8.6.354-12.9.072-2.136.117-4.274.059-6.411-.183-6.769.028-13.541-.158-20.316-.148-5.36-.187-10.723-.445-16.081a25.418,25.418,0,0,0,4.511,6.335,44.669,44.669,0,0,1,11.858,23.158,47.5,47.5,0,0,1,.42,5.474C5308.886,1408.453,5308.72,1410.94,5308.707,1411.041Z" transform="translate(-5275.056 -1370.215)"/><path class="c" d="M5221.486,1429.827a16.636,16.636,0,0,1-.81-6.23c.379-5.234.208-8.6.355-12.9.073-2.136.117-4.274.059-6.411-.183-6.769.028-13.542-.158-20.316-.148-5.359-.187-10.721-.445-16.077a.269.269,0,0,1-.071-.355c-.075-.13-.147-.369-.226-.371-.224,0-.15.233-.163.364a4.379,4.379,0,0,1-1.71,3,37.884,37.884,0,0,0-9.553,11.76,33.57,33.57,0,0,0-3.064,7.484,47.027,47.027,0,0,0-2.2,13.509,39.809,39.809,0,0,0,.264,4.317,35.109,35.109,0,0,0,6.187,15.844,39.845,39.845,0,0,0,9.154,9.525c.6,2.235,2.751,3.321,3.071,1.419a3.247,3.247,0,0,1,1.188-2.2A3.069,3.069,0,0,1,5221.486,1429.827Z" transform="translate(-5203.501 -1367.172)"/><path class="d" d="M5292.043,1370.937v0l.008.009Z" transform="translate(-5275.056 -1370.215)"/><path class="e" d="M5291.581,1369.468a.274.274,0,0,1-.079-.363Z" transform="translate(-5274.586 -1368.734)"/></g></g><path class="c" d="M5288.07,1715.766h-2.686L5285,1710h3.453Z" transform="translate(-65.863 -277.056)"/></g></g></svg>