<svg xmlns="http://www.w3.org/2000/svg" xmlns:xlink="http://www.w3.org/1999/xlink" width="72" height="72" viewBox="0 0 72 72"><defs><style>.a{fill:none;}.b{fill:#fe9801;}.c{fill:url(#a);}.d{fill:#fefdfd;}</style><linearGradient id="a" x1="0.5" x2="0.5" y2="1" gradientUnits="objectBoundingBox"><stop offset="0" stop-color="#0056aa"/><stop offset="1" stop-color="#283654"/></linearGradient></defs><g transform="translate(-4.786 14.633)"><circle class="a" cx="36" cy="36" r="36" transform="translate(4.786 -14.633)"/><g transform="translate(-5581.34 -2786.829)"><g transform="translate(5591.658 2772.677)"><path class="b" d="M5611.807,2800.072a60.22,60.22,0,0,1,10.406.336,77.22,77.22,0,0,1,9.527,1.329c8.3,1.747,16.266,4.307,23,9.754a26.879,26.879,0,0,1,6.983,8.175c.689,1.284.474,1.583-.977,1.605a112.427,112.427,0,0,0-43.751,9.813,104.627,104.627,0,0,0-9.959,5.032c-.226.13-.45.369-.884.156.078-.776.743-1.186,1.193-1.708,4.418-5.117,8.349-10.536,9.8-17.3,1.341-6.253-.02-11.825-4.692-16.4C5612.293,2800.7,5612.169,2800.518,5611.807,2800.072Zm31.8,19.841a97.889,97.889,0,0,1,13.107-1.047c1.328-.03.54-.8.232-1.2a31.157,31.157,0,0,0-8.861-7.729c-.531-.321-.88-.421-1.2.249-1.357,2.833-2.765,5.643-4.108,8.482C5642.348,2819.576,5642.882,2819.905,5643.607,2819.913Zm-18.367-13.664a20.1,20.1,0,0,1-.018,2.224c-.093.84.169,1.3,1.03,1.406a27.07,27.07,0,0,1,5.771,1.547c1.208.43,1.87-.034,2.011-1.258.169-1.473.256-2.957.444-4.427.138-1.083-.272-1.535-1.353-1.677-1.41-.184-2.791-.581-4.2-.808C5625.346,2802.676,5625.344,2802.693,5625.24,2806.249Zm20.08,2.415a1.121,1.121,0,0,0-1.677-.495c-2.195,1.109-4.407,2.188-6.566,3.362a1.365,1.365,0,0,0-.155,2.458c1.115.894,2.278,1.736,3.323,2.706.668.622.938.558,1.313-.241,1.118-2.382,2.3-4.736,3.45-7.1C5645.107,2809.146,5645.2,2808.937,5645.32,2808.664Zm-21.735,16.667c2.508-.862,4.827-1.642,7.128-2.469.366-.131,1.124-.028.72-.934a6.613,6.613,0,0,0-5.22-3.41,1.69,1.69,0,0,0-1.873,1.575C5624.116,2821.782,5623.855,2823.467,5623.585,2825.331Zm-3.214-15.13c.215-.673.547-.948,1.131-.825,1.085.229,1.394-.279,1.364-1.3-.043-1.485.01-2.975.065-4.462.024-.671-.108-1.124-.891-1.122-1.9.005-3.807,0-5.892,0A21.418,21.418,0,0,1,5620.371,2810.2Zm1.37,11.333c-1.977.956-5.213,4.865-6.5,7.856C5620.527,2827.625,5621.786,2826.1,5621.741,2821.533Zm12.615.247,5.3-1.2a16.89,16.89,0,0,0-3.929-4.044Zm-4.387-8.42a20.666,20.666,0,0,0-4.143-1.24c-.458-.13-.754-.066-.786.518-.065,1.233-.179,2.464-.274,3.717.25,0,.387.043.466-.006C5626.733,2815.411,5628.226,2814.463,5629.969,2813.36Zm11.8-6.578c-.791-.321-1.29-.568-1.816-.73-3.973-1.227-2.9-1.609-3.216,2.37,0,.057-.005.115-.01.171-.058.748.307.742.825.462Zm-13.243,9.762c.868.37,1.406.565,1.913.822,2.033,1.031,2.03,1.037,2.513-1.322.034-.168.074-.334.11-.5.25-1.152-.416-1.372-1.231-.99A36.871,36.871,0,0,0,5628.527,2816.544Zm-7.592.817c.958-.03,1.516-.341,1.506-1.4-.01-1.082.115-2.167.208-3.249.06-.695-.128-1.029-.922-1.038-.847-.009-.94.388-.841,1.055A21.993,21.993,0,0,1,5620.935,2817.362Z" transform="translate(-5601.161 -2790.564)"/><path class="c" d="M5632.027,2880.139a109.723,109.723,0,0,1-3.875,27.542c-.6,2.224-.991,2.425-3.089,2.247-3.07-.261-6.161-.326-9.219-.682-6.9-.8-13.687-2.063-19.565-6.147-4.477-3.11-5.847-8-3.469-12.065,1.322-2.262,3.579-3.316,5.682-4.541,5.686-3.312,11.442-6.49,17.736-8.552a103.171,103.171,0,0,1,11.4-3.047,6.862,6.862,0,0,0,2.238-.741c1.434-.848,2.13-.438,2.151,1.171S5632.027,2878.534,5632.027,2880.139Zm-14.773,23.977c1.944-.5,3.2-2.1,4.85-3.065.439-.259,1.246-.562,1.119-1.122-.153-.678-1-.54-1.595-.662-.666-.137-1.327-.306-1.978-.5-.494-.147-.886-.187-1.051.441-.432,1.638-1.3,3.156-1.355,4.9l-.133.154Zm-11-1.365a83.047,83.047,0,0,0,7.71-5.6c-1.875-.871-3.476-1.6-5.067-2.361-.521-.248-.829-.254-.956.429-.467,2.522-1.5,4.914-1.726,7.493l-.14.174Zm9.629-4.485c-3.24,2.068-6.219,4.478-9.6,7.009a34.041,34.041,0,0,0,6.261,1.264c.592.025,1.2.038,1.395-.68.673-2.528,1.8-4.942,1.926-7.607l.088-.123Zm2.4-12.064c-3.22,1.4-5.862,3.713-8.79,5.574-.828.527-.256.936.322,1.191,1.829.806,3.658,1.615,5.5,2.384,1,.419,1.516-.094,1.694-1.051a45.583,45.583,0,0,0,1.284-8.084l.132-.153Zm-24.134,8.813a11.387,11.387,0,0,0,.122,1.533c.429,2.018,1.007,2.259,2.675,1.132,2.126-1.438,4.239-2.9,6.364-4.335.857-.58,1.138-1.1.019-1.727a10.714,10.714,0,0,1-1.783-1.323c-1.916-1.688-1.983-1.75-4.04-.187C5595.859,2891.352,5593.688,2892.3,5594.141,2895.015Zm34.844-6.573c-3.327,2.451-6.279,4.58-9.17,6.791-.637.487-.98,1.337.224,1.627,1.768.426,3.562.776,5.363,1.025a2.034,2.034,0,0,0,2.453-1.418A41.323,41.323,0,0,0,5628.985,2888.442Zm-22.936,5.6c-3.089,2.048-5.787,3.851-8.5,5.629-.672.44-.653.847-.1,1.346a17.445,17.445,0,0,0,4.4,2.621c.69.326,1.074-.066,1.328-.661A54.878,54.878,0,0,0,5606.05,2894.039Zm17.181,13.487c1.666.533,2.32-.624,2.7-2.183.309-1.271.672-2.53.966-3.8.081-.351.464-.793.014-1.094-.434-.29-.857-.022-1.253.249q-4.024,2.756-8.062,5.494c-.269.183-.666.329-.483.762.133.315.484.233.756.25C5619.572,2907.308,5621.277,2907.408,5623.231,2907.526Zm6.413-25.765c0-.688-.021-1.377,0-2.063.034-.883-.258-1.23-1.084-.684-2.2,1.448-4.391,2.9-6.564,4.378-.794.541-.611.87.249,1.236a33.1,33.1,0,0,0,5.785,1.512c.758.172,1.115-.25,1.345-.968A14.792,14.792,0,0,0,5629.644,2881.761Zm-20.558,7.632c2-1.36,3.7-2.51,5.391-3.656,2.4-1.625,2.35-1.556.179-3.333-1.375-1.126-2.516-.4-3.817.009-1.18.368-1.155,1.181-1.219,2.127C5609.517,2886.06,5609.293,2887.572,5609.086,2889.393Zm-8.766-.937a5.886,5.886,0,0,1,3.387,1.219c.666.433,1.4.768,2.1,1.137.567.3.975.254,1.091-.5a25.413,25.413,0,0,0,.376-4.926c-.031-.8-.378-1.087-1.073-.677A36.959,36.959,0,0,0,5600.32,2888.456Zm26.01-.451c-1.906-.629-3.461-1.136-5.012-1.657-.563-.189-.883-.031-.934.579-.124,1.469-.257,2.938-.367,4.407-.089,1.211.417,1.074,1.157.514C5622.795,2890.62,5624.435,2889.415,5626.33,2888.005Zm-.338-10.067-.179-.377c-1.47.366-2.933.761-4.411,1.086-.689.152-.764.606-.712,1.137.046.477-.276,1.124.284,1.387.477.224.747-.388,1.108-.624C5623.392,2879.69,5624.69,2878.81,5625.992,2877.938Zm-6.711,2.607c-.046-.541.077-1.275-.566-1.084a6.231,6.231,0,0,0-3.028,1.305c-.2.217,2.107,2.032,2.632,1.913C5619.61,2882.386,5618.637,2881.057,5619.281,2880.545Z" transform="translate(-5591.658 -2838.939)"/><path class="c" d="M5640.856,2779.469c-2.443-.634-4.733-1.26-7.042-1.81-.923-.22-.923.285-.609.974a6.327,6.327,0,0,1,.932,2.36c-1.387-.458-1.775-1.621-2.236-2.641-.448-.992-.961-1.33-1.956-.7a14.078,14.078,0,0,0-2.652,1.555,1.64,1.64,0,0,1-1.412.476c-.487-.058-1.186.259-1.414-.262-.246-.566.28-1.029.731-1.4a18.182,18.182,0,0,1,5.145-3.043,42.469,42.469,0,0,1,8.24-2.257,1.81,1.81,0,0,1,1.8.535,38.571,38.571,0,0,1,6.138,7.99c.164.278.373.729.26.93-.228.406-.707.243-1.075.091-.462-.191-1.116-.128-1.334-.673-.694-1.734-1.827-1.58-3.283-1.013a3.954,3.954,0,0,1-2.716.356C5638.926,2780.093,5640.153,2780.608,5640.856,2779.469Zm-6.714-3.343a50.418,50.418,0,0,0,8.266,2.791C5640.505,2774.829,5639.9,2774.615,5634.142,2776.126Z" transform="translate(-5613.133 -2772.677)"/><path class="d" d="M5661.989,2944.761l.074-.138-.088.123Z" transform="translate(-5637.77 -2885.434)"/><path class="d" d="M5668.981,2909.711l.145-.139-.131.153Z" transform="translate(-5642.364 -2862.448)"/><path class="d" d="M5633.7,2957.979l-.178.135.14-.174Z" transform="translate(-5619.115 -2894.166)"/><path class="d" d="M5665.742,2962l-.143.143.132-.154Z" transform="translate(-5640.146 -2896.821)"/></g></g></g></svg>