<svg xmlns="http://www.w3.org/2000/svg" xmlns:xlink="http://www.w3.org/1999/xlink" width="72" height="72" viewBox="0 0 72 72"><defs><style>.a{fill:none;}.b{fill:url(#a);}</style><linearGradient id="a" x1="0.5" x2="0.5" y2="1" gradientUnits="objectBoundingBox"><stop offset="0" stop-color="#0056aa"/><stop offset="1" stop-color="#283654"/></linearGradient></defs><g transform="translate(-1206.971 -3613.259)"><circle class="a" cx="36" cy="36" r="36" transform="translate(1206.971 3613.259)"/><g transform="translate(-4656 852)"><g transform="translate(5863 2762)"><path class="b" d="M5868.755,2762c3.011,1.129,6.017,2.261,8.438,4.505a1.366,1.366,0,0,0,.877.287c6.727-.13,11.987,3.236,16.931,7.218,6.053,4.876,10.895,10.708,13.734,18.064,1.569,4.063,3.64,7.9,5.5,11.835a4.355,4.355,0,0,0,2.475,2.292,38.933,38.933,0,0,1,15.391,10.749c.824.968.635,1.3-.5,1.612-2.771.758-5.692.74-8.423,1.682-.3.1-.6.183-.959.292a7.1,7.1,0,0,0,3.571,3.13c3.569,1.813,5.986,4.882,8.629,7.709a4.333,4.333,0,0,1,.526.973c-.321.338-.543.1-.792-.117a33.141,33.141,0,0,0-7.956-4.946,17.693,17.693,0,0,1-6.677-5.065c-2.071-2.676-1.956-3.045,1.1-4.135a23.388,23.388,0,0,1,8.739-1.115c-.056-.872-.728-1.167-1.252-1.536-4.127-2.908-8.219-5.888-13.288-7.013-1.83-.406-2.691-1.851-3.4-3.343q-3.027-6.405-5.916-12.875a41.055,41.055,0,0,0-22.546-22.065c-1.809-.741-3.776-.557-5.672-.74a3.71,3.71,0,0,1-2.288-.928,20.561,20.561,0,0,0-7-3.694,2.048,2.048,0,0,0-2.375.324,1.937,1.937,0,0,0,.024,2.387,11.93,11.93,0,0,0,1.39,2.131,26.8,26.8,0,0,1,5.6,10.62,16.7,16.7,0,0,0,4.22,7.917c1.263,1.228.6,2.742.056,4.041a21.449,21.449,0,0,0-1.434,10.475,17.573,17.573,0,0,0,1.881,6.376,3.381,3.381,0,0,0,1.1,1.346c.717.477,1.112.436,1.19-.581.1-1.321.36-2.63.525-3.948a9.927,9.927,0,0,1,3.187-5.9,69.587,69.587,0,0,0,3.359,7.572,71.39,71.39,0,0,0,4.708,7.579c.273.38.916.666.546,1.331h.03a21.434,21.434,0,0,1-8.464-10.616,16.153,16.153,0,0,0-.959,4.507c-.245,1.394-.672,2.593-2.185,3.026s-2.6-.33-3.519-1.348c-2.6-2.877-3.345-6.446-3.652-10.159-.314-3.794.712-7.384,1.715-10.97.165-.586.446-1.089-.062-1.61a19.548,19.548,0,0,1-4.454-8.544,26.163,26.163,0,0,0-5.353-10.016,25.529,25.529,0,0,1-2.071-3.279v-2.558a5.792,5.792,0,0,1,3.2-2.878Z" transform="translate(-5863 -2762)"/><path class="b" d="M5912.478,2802.873a2.168,2.168,0,0,1-.386,1.235c-.383.594-.74.77-1.059-.061a8.638,8.638,0,0,0-1.884-2.917c-.511-.531-.293-.781.348-.933A2.736,2.736,0,0,1,5912.478,2802.873Z" transform="translate(-5894.199 -2787.952)"/><path class="b" d="M5953.609,2932.257l.413.173c-.045-.025-.09-.053-.137-.075-.079-.037-.159-.069-.242-.1A.155.155,0,0,1,5953.609,2932.257Z" transform="translate(-5924.635 -2877.813)"/></g></g></g></svg>