<svg xmlns="http://www.w3.org/2000/svg" xmlns:xlink="http://www.w3.org/1999/xlink" width="72" height="72" viewBox="0 0 72 72"><defs><style>.a{fill:none;}.b{fill:url(#a);}.c{fill:#fe9801;}</style><linearGradient id="a" y1="0.501" x2="1" y2="0.501" gradientUnits="objectBoundingBox"><stop offset="0" stop-color="#0b58a8"/><stop offset="1" stop-color="#283654"/></linearGradient></defs><g transform="translate(-1209.31 -3611.323)"><circle class="a" cx="36" cy="36" r="36" transform="translate(1209.31 3611.323)"/><g transform="translate(1213.423 3611.818)"><path class="a" d="M-224,136" transform="translate(224 -136)"/><g transform="translate(2.354 1.714)"><path class="b" d="M-186.49,210.246a5.235,5.235,0,0,1-2.666-.727l-8.482-5.02c-1.281-.692-.658-.969-.242-1.108a17.642,17.642,0,0,0,3.843-1.731.665.665,0,0,1,.623.035l6.509,3.878a.815.815,0,0,0,.8,0l25.378-14.645a.8.8,0,0,0,.381-.692v-29.29a.8.8,0,0,0-.381-.692l-25.378-14.645a.815.815,0,0,0-.8,0l-25.343,14.645a.831.831,0,0,0-.415.692v29.29a.762.762,0,0,0,.415.692l6.959,4.016c3.774,1.87,6.094-.346,6.094-2.562v-28.91a.731.731,0,0,1,.727-.727h3.22a.71.71,0,0,1,.727.727v28.91c0,5.02-2.735,7.928-7.513,7.928-1.454,0-2.631,0-5.851-1.593l-6.647-3.843a5.394,5.394,0,0,1-2.666-4.639v-29.29a5.363,5.363,0,0,1,2.666-4.639l25.378-14.68a5.6,5.6,0,0,1,5.332,0l25.378,14.68a5.394,5.394,0,0,1,2.666,4.639v29.29a5.437,5.437,0,0,1-2.666,4.639l-25.378,14.645A5.144,5.144,0,0,1-186.49,210.246Z" transform="translate(217.2 -140.95)"/><path class="c" d="M-131.267,229.748c-11.114,0-13.433-5.089-13.433-9.383a.71.71,0,0,1,.727-.727h3.289a.744.744,0,0,1,.727.623c.485,3.324,1.973,5.02,8.69,5.02,5.332,0,7.617-1.212,7.617-4.051,0-1.627-.658-2.839-8.967-3.67-6.959-.692-11.252-2.216-11.252-7.79,0-5.124,4.328-8.171,11.564-8.171,8.136,0,12.152,2.8,12.672,8.863a.661.661,0,0,1-.208.554.817.817,0,0,1-.554.242h-3.289a.741.741,0,0,1-.727-.589c-.8-3.531-2.7-4.639-7.929-4.639-5.851,0-6.509,2.043-6.509,3.566,0,1.835.8,2.389,8.69,3.428,7.79,1.039,11.495,2.493,11.495,7.963C-118.595,226.563-123.234,229.748-131.267,229.748Z" transform="translate(169.801 -180.602)"/></g></g></g></svg>