<svg xmlns="http://www.w3.org/2000/svg" xmlns:xlink="http://www.w3.org/1999/xlink" width="72" height="72" viewBox="0 0 72 72"><defs><style>.a{fill:none;}.b{fill:url(#a);}.c{fill:#fdfefe;}</style><linearGradient id="a" x1="0.5" x2="0.5" y2="1" gradientUnits="objectBoundingBox"><stop offset="0" stop-color="#0056aa"/><stop offset="1" stop-color="#283654"/></linearGradient></defs><g transform="translate(-1358.82 -3781.118)"><circle class="a" cx="36" cy="36" r="36" transform="translate(1358.82 3781.118)"/><g transform="translate(989.912 -1397.331)"><g transform="translate(369 5194.999)"><path class="b" d="M402.524,5195h4.769c.022.06.075.043.119.045.817.028,1.633.08,2.449.134a60.569,60.569,0,0,1,6.9.863,52.066,52.066,0,0,1,7.712,2,36.975,36.975,0,0,1,7.967,3.784,21.422,21.422,0,0,1,5.83,5.292,12.907,12.907,0,0,1,2.389,5.44,7.4,7.4,0,0,0,.159,1v1.823a1.978,1.978,0,0,0-.1.606,12.583,12.583,0,0,1-2.109,5.309,20.257,20.257,0,0,1-5.448,5.29,37.479,37.479,0,0,1-10.281,4.78,55.7,55.7,0,0,1-9.344,1.983q-3.049.39-6.119.5c-.056,0-.127-.032-.165.045h-4.722c-.022-.059-.075-.044-.118-.045-1.2-.044-2.394-.124-3.589-.227a60.31,60.31,0,0,1-6.261-.869,50.465,50.465,0,0,1-8.825-2.506,34.906,34.906,0,0,1-6.853-3.517,20.931,20.931,0,0,1-5.366-5.012,12.755,12.755,0,0,1-2.348-5.381c-.062-.365-.109-.732-.163-1.1v-1.73c.074-.038.045-.109.051-.166a12.063,12.063,0,0,1,1.379-4.451,17.649,17.649,0,0,1,4.6-5.377,31.445,31.445,0,0,1,7.766-4.5,48.591,48.591,0,0,1,8.751-2.674,61.165,61.165,0,0,1,7.245-1.075q1.781-.158,3.567-.226C402.414,5195.042,402.486,5195.075,402.524,5195Zm-21.6,28.427h.226c1.168,0,2.337-.006,3.505.006.193,0,.246-.064.275-.236.231-1.35.474-2.7.7-4.047.028-.164.076-.218.246-.215.779.01,1.558.005,2.337,0a17.3,17.3,0,0,0,3.92-.376,6.009,6.009,0,0,0,3.359-1.844,7.486,7.486,0,0,0,1.812-5.443,4.2,4.2,0,0,0-2.6-3.75,5.976,5.976,0,0,0-2.536-.548c-2.672-.013-5.344,0-8.016-.012-.161,0-.21.054-.237.2q-.49,2.7-.989,5.394-.733,3.981-1.467,7.963C381.287,5221.482,381.109,5222.444,380.928,5223.426Zm31.421,0c1.254,0,2.477,0,3.7.005.2,0,.276-.051.31-.251.228-1.35.472-2.7.7-4.047.027-.16.084-.2.237-.2.787.007,1.573,0,2.36,0a17.238,17.238,0,0,0,3.919-.378,6.005,6.005,0,0,0,3.339-1.835,7.6,7.6,0,0,0,1.822-5.442,4.124,4.124,0,0,0-1.482-3.042,5.446,5.446,0,0,0-3.606-1.26c-2.695-.03-5.39-.009-8.085-.017-.156,0-.2.062-.22.191q-.352,1.94-.71,3.878-.735,3.993-1.472,7.985Zm-14.921-4.489h3.49c.441,0,.437,0,.53-.438q.874-4.156,1.75-8.311c.028-.133.04-.235.235-.233,1.083.014,2.166,0,3.249.014a3.366,3.366,0,0,1,1.3.237,1.009,1.009,0,0,1,.623.787,3.555,3.555,0,0,1-.076,1.436q-.677,3.148-1.367,6.293c-.037.17-.012.224.179.222,1.169-.009,2.337-.012,3.506,0,.218,0,.284-.067.327-.269.425-1.992.86-3.983,1.293-5.974a10.019,10.019,0,0,0,.339-2.444,2.872,2.872,0,0,0-2.206-2.911,10.192,10.192,0,0,0-2.978-.375q-1.753-.012-3.506,0c-.205,0-.26-.028-.213-.25.394-1.849.772-3.7,1.163-5.549.035-.166,0-.193-.156-.192q-1.776.008-3.553,0c-.15,0-.2.054-.223.188-.093.473-.194.944-.293,1.417l-2.552,12.219C398,5216.172,397.719,5217.542,397.428,5218.938Z" transform="translate(-369 -5194.999)"/><path class="c" d="M624.1,5467.37c.182-.982.36-1.945.537-2.906q.734-3.981,1.467-7.963.5-2.7.989-5.394c.027-.146.076-.2.237-.2,2.672.007,5.344,0,8.016.012a5.977,5.977,0,0,1,2.536.549,4.2,4.2,0,0,1,2.6,3.75,7.489,7.489,0,0,1-1.812,5.444,6.014,6.014,0,0,1-3.359,1.843,17.3,17.3,0,0,1-3.92.376c-.779,0-1.558.006-2.337,0-.17,0-.219.052-.246.216-.228,1.35-.471,2.7-.7,4.046-.03.173-.082.239-.275.237-1.168-.012-2.337-.006-3.505-.006Zm7.067-7.481a14.048,14.048,0,0,0,2.679-.141,2.943,2.943,0,0,0,2.134-1.4,4.607,4.607,0,0,0,.591-2.673,1.614,1.614,0,0,0-.84-1.327,3.037,3.037,0,0,0-1.307-.4c-1.244-.1-2.492-.024-3.738-.051-.137,0-.165.061-.186.175q-.527,2.81-1.063,5.619c-.029.152,0,.2.166.2C630.126,5459.882,630.649,5459.889,631.171,5459.889Z" transform="translate(-612.176 -5438.942)"/><path class="c" d="M1296.141,5467.362c.274-1.486.543-2.946.812-4.407q.736-3.993,1.472-7.986.357-1.938.71-3.878c.024-.13.064-.192.22-.191,2.7.007,5.391-.014,8.085.017a5.446,5.446,0,0,1,3.606,1.26,4.124,4.124,0,0,1,1.482,3.042,7.6,7.6,0,0,1-1.822,5.442,6.005,6.005,0,0,1-3.339,1.834,17.183,17.183,0,0,1-3.919.378c-.787,0-1.573,0-2.36,0-.153,0-.21.039-.237.2-.228,1.35-.472,2.7-.7,4.047-.034.2-.111.252-.31.251C1298.618,5467.357,1297.4,5467.362,1296.141,5467.362Zm8.407-13.466c-.667,0-1.22,0-1.774,0-.15,0-.213.033-.241.2-.141.8-.3,1.59-.449,2.385-.2,1.07-.4,2.141-.608,3.21-.028.146-.01.206.161.2.4-.013.795,0,1.192,0a16.974,16.974,0,0,0,3.053-.139,2.949,2.949,0,0,0,2.291-1.685,4.912,4.912,0,0,0,.452-2.2,1.729,1.729,0,0,0-1.143-1.663,3.4,3.4,0,0,0-.715-.208A14.038,14.038,0,0,0,1304.548,5453.9Z" transform="translate(-1252.792 -5438.935)"/><path class="c" d="M977.013,5340.872c.291-1.4.577-2.766.863-4.135l2.552-12.219c.1-.472.2-.943.293-1.417.026-.133.073-.188.223-.187q1.776.01,3.553,0c.156,0,.191.026.156.192-.392,1.849-.769,3.7-1.163,5.549-.047.222.008.252.213.25q1.753-.012,3.506,0a10.174,10.174,0,0,1,2.978.374,2.872,2.872,0,0,1,2.206,2.911,10.02,10.02,0,0,1-.339,2.444c-.432,1.991-.868,3.981-1.293,5.974-.043.2-.109.271-.327.269-1.168-.013-2.337-.011-3.506,0-.192,0-.217-.051-.179-.222q.689-3.146,1.367-6.293a3.555,3.555,0,0,0,.076-1.436,1.008,1.008,0,0,0-.623-.787,3.375,3.375,0,0,0-1.3-.237c-1.083-.013-2.166,0-3.249-.013-.195,0-.207.1-.235.233q-.874,4.155-1.75,8.31c-.092.438-.088.439-.53.439Z" transform="translate(-948.585 -5316.933)"/><path class="b" d="M739.748,5520.854c-.522,0-1.044-.007-1.566,0-.163,0-.195-.044-.165-.2q.537-2.808,1.063-5.618c.022-.114.049-.178.186-.175,1.246.026,2.493-.052,3.738.05a3.052,3.052,0,0,1,1.307.4,1.613,1.613,0,0,1,.84,1.326,4.609,4.609,0,0,1-.591,2.674,2.938,2.938,0,0,1-2.134,1.4A14.049,14.049,0,0,1,739.748,5520.854Z" transform="translate(-720.754 -5499.908)"/><path class="b" d="M1413.089,5514.936a13.98,13.98,0,0,1,2.218.091,3.425,3.425,0,0,1,.715.208,1.729,1.729,0,0,1,1.143,1.662,4.911,4.911,0,0,1-.452,2.2,2.946,2.946,0,0,1-2.291,1.685,17.019,17.019,0,0,1-3.053.14c-.4,0-.8-.008-1.192,0-.171.005-.189-.055-.161-.2.206-1.069.405-2.14.608-3.21.151-.795.309-1.588.449-2.385.028-.162.092-.2.241-.2C1411.869,5514.941,1412.422,5514.936,1413.089,5514.936Z" transform="translate(-1361.334 -5499.975)"/></g></g></g></svg>