<svg xmlns="http://www.w3.org/2000/svg" xmlns:xlink="http://www.w3.org/1999/xlink" width="72" height="72" viewBox="0 0 72 72"><defs><style>.a{fill:none;}.b{fill:#336791;}.c{fill:url(#a);}.d{fill:#fe9801;}.e{fill:#fefefe;}</style><linearGradient id="a" x1="0.5" x2="0.5" y2="1" gradientUnits="objectBoundingBox"><stop offset="0" stop-color="#0056aa"/><stop offset="1" stop-color="#283654"/></linearGradient></defs><g transform="translate(-1368.096 -3611.432)"><circle class="a" cx="36" cy="36" r="36" transform="translate(1368.096 3611.432)"/><g transform="translate(-2102.002 2712.084)"><g transform="translate(3471 900.916)"><path class="b" d="M3471,1198c.091.037.063.118.063.185,0,.481,0,.963,0,1.444,0,.066.029.148-.066.182Z" transform="translate(-3471 -1183.42)"/><path class="c" d="M3864.915,1018.313a25.631,25.631,0,0,1,1.193-3.472c.538-1.372,1.219-2.685,1.67-4.094a19.673,19.673,0,0,0,.812-7.24,35.945,35.945,0,0,0-.838-5.795,5.616,5.616,0,0,0-2.194-3.515,5.749,5.749,0,0,0-3.191-1.018,12.931,12.931,0,0,0-5.676,1.235c-.5.218-.992.465-1.537.721.061-.545.108-1.056.177-1.565a26.933,26.933,0,0,1,1.868-7.088,15.367,15.367,0,0,1,3.912-5.605,11.914,11.914,0,0,1,6.6-2.919,20.365,20.365,0,0,1,12,2.16,22,22,0,0,1,7.778,6.884,24.114,24.114,0,0,1,2.9,5.287c.042.106.074.217.122.32.1.21.068.294-.192.269a17.184,17.184,0,0,0-2.027-.074,9.213,9.213,0,0,0-3.7.745,5.157,5.157,0,0,0-3.092,4.46,13.174,13.174,0,0,0,.846,5.536,44.521,44.521,0,0,0,3.332,7.27c.652,1.194,1.336,2.37,1.9,3.613a15,15,0,0,0,2.149,3.241c.151.185.292.378.455.591-.214.078-.406.146-.6.219a3.915,3.915,0,0,0-2.532,3.283c-.149.9-.064,1.8-.173,2.7-.211,1.744-.384,3.493-.6,5.236q-.373,3.033-.793,6.06c-.193,1.4-.393,2.8-.716,4.176a6.649,6.649,0,0,1-4.834,5.167,12.962,12.962,0,0,1-4.249.729,5.115,5.115,0,0,1-4.484-2.8,9.768,9.768,0,0,1-1.2-3.93,119.055,119.055,0,0,1-.436-13.094c.007-1.072.072-2.143.057-3.214a4.5,4.5,0,0,0-1.919-3.768,3.592,3.592,0,0,0-2.744-.67A.583.583,0,0,0,3864.915,1018.313Z" transform="translate(-3831.165 -976.974)"/><path class="d" d="M3562.961,982.258a19.916,19.916,0,0,0-1.674,1.952,22.241,22.241,0,0,0-3.432,7.561,31.87,31.87,0,0,0-1.052,8.05c0,1.434.153,2.867.172,4.3a52.767,52.767,0,0,1-.4,6.348,11.018,11.018,0,0,0,1.39,6.7,10.773,10.773,0,0,0,2.238,2.783c.147.131.114.195,0,.313-2.021,2.157-3.957,4.389-5.861,6.65a4.791,4.791,0,0,1-1.333,1.117,2.146,2.146,0,0,1-2.173.023,6.839,6.839,0,0,1-2.213-2.075,26.748,26.748,0,0,1-3.076-5.69,83.022,83.022,0,0,1-3.809-11.722,100.186,100.186,0,0,1-2.1-10.031,22.98,22.98,0,0,1,.551-10.133,10.4,10.4,0,0,1,4.194-5.9,12.233,12.233,0,0,1,5.078-1.864,27.57,27.57,0,0,1,10.571.778C3561,981.649,3561.96,981.924,3562.961,982.258Z" transform="translate(-3535.06 -979.421)"/><path class="d" d="M4256.534,1004.007c-.382-.4-.381-.4-.133-.849a11.93,11.93,0,0,0,1.436-5.022,23.781,23.781,0,0,0-.29-5.037,22.316,22.316,0,0,1,.124-7.233,22.529,22.529,0,0,0,.35-4.378,6.375,6.375,0,0,0-.6-2.311,25.331,25.331,0,0,0-12.907-14.007c-.019-.008-.035-.021-.079-.048a3.475,3.475,0,0,1,.9-.2,27.39,27.39,0,0,1,6.028-.38,18.727,18.727,0,0,1,11.253,4.1,17.019,17.019,0,0,1,2.754,2.839,4.9,4.9,0,0,1,.828,2.42,19.632,19.632,0,0,1-.162,5.627,65.075,65.075,0,0,1-8.583,23.01c-.273.467-.566.921-.851,1.381C4256.587,1003.945,4256.565,1003.967,4256.534,1004.007Z" transform="translate(-4196.138 -964.51)"/><path class="c" d="M3860.844,1268.5a16.536,16.536,0,0,1-1.8,7.372,32.942,32.942,0,0,0-1.826,4.932c-.064.225-.175.236-.358.226a7.694,7.694,0,0,1-6.061-3.459,8.928,8.928,0,0,1-1.559-6.543,44.193,44.193,0,0,0,.292-8.377c-.027-.467-.039-.936-.082-1.4a.477.477,0,0,1,.254-.483,13.78,13.78,0,0,1,3.818-1.8,9,9,0,0,1,3.347-.447,3.165,3.165,0,0,1,3.066,2.556A30.34,30.34,0,0,1,3860.844,1268.5Zm-4.254-8.793a2.337,2.337,0,0,0-1.034.168.731.731,0,0,0-.409,1.091,2.416,2.416,0,0,0,1.16,1.13,2.07,2.07,0,0,0,2.5-.589.766.766,0,0,0-.149-1.231,2.249,2.249,0,0,0-.46-.257A3.816,3.816,0,0,0,3856.591,1259.7Z" transform="translate(-3825.539 -1240.136)"/><path class="c" d="M4317.091,1271.65a.338.338,0,0,1-.17-.213c-.768-1.743-1.778-3.36-2.658-5.045a37.144,37.144,0,0,1-2.852-6.63,11.134,11.134,0,0,1-.534-3.654,3.193,3.193,0,0,1,2.33-3.122,6.075,6.075,0,0,1,1.152-.267,14.587,14.587,0,0,1,3.518.023c.2.023.255.087.246.285a23.522,23.522,0,0,1-.35,2.972,22.8,22.8,0,0,0-.12,7.083,25.766,25.766,0,0,1,.334,4.725A9.752,9.752,0,0,1,4317.091,1271.65Zm-2.34-18a3.708,3.708,0,0,0-1.852.47c-.527.322-.571.7-.138,1.142a1.977,1.977,0,0,0,3.277-.626.543.543,0,0,0-.34-.822A2.439,2.439,0,0,0,4314.751,1253.645Z" transform="translate(-4258.425 -1234.632)"/><path class="c" d="M3871.052,1666.3a13.829,13.829,0,0,1,2.412-.646,17.386,17.386,0,0,0,2.184-.627,5.332,5.332,0,0,0,2.3-1.658c.464-.574.934-1.145,1.4-1.715.093-.112.192-.219.293-.324.583-.6.985-.7,1.83-.073a2.217,2.217,0,0,1,.878,1.88,1.225,1.225,0,0,1-.238.728,7.778,7.778,0,0,1-6.117,3.423,10.994,10.994,0,0,1-4.026-.521A3.117,3.117,0,0,1,3871.052,1666.3Z" transform="translate(-3846.072 -1617.348)"/><path class="c" d="M4410.743,1657.968a7.105,7.105,0,0,1-1.1.879,12.275,12.275,0,0,1-5.777,2.062,13.434,13.434,0,0,1-3.73.048c-1.54-.257-1.411-.155-1.273-1.588a1.832,1.832,0,0,1,1.475-1.782.919.919,0,0,0,.178-.057.973.973,0,0,1,1.027.125,6.627,6.627,0,0,0,3.306.876,22.987,22.987,0,0,0,5.667-.531C4410.574,1657.989,4410.634,1657.984,4410.743,1657.968Z" transform="translate(-4340.851 -1614.166)"/><path class="b" d="M4011.538,1626.579l-.04.028c0-.023,0-.046,0-.069C4011.509,1626.55,4011.524,1626.564,4011.538,1626.579Z" transform="translate(-3977.744 -1585.198)"/><path class="e" d="M3945,1277.84a3.812,3.812,0,0,1,1.607.311,2.263,2.263,0,0,1,.459.257.766.766,0,0,1,.149,1.231,2.07,2.07,0,0,1-2.5.589,2.417,2.417,0,0,1-1.16-1.13.731.731,0,0,1,.409-1.091A2.337,2.337,0,0,1,3945,1277.84Z" transform="translate(-3913.95 -1258.271)"/><path class="e" d="M4338.735,1268.99a2.438,2.438,0,0,1,.946.164.544.544,0,0,1,.341.822,1.978,1.978,0,0,1-3.277.626c-.433-.438-.389-.82.138-1.142A3.708,3.708,0,0,1,4338.735,1268.99Z" transform="translate(-4282.409 -1249.977)"/></g></g></g></svg>