<svg xmlns="http://www.w3.org/2000/svg" width="556" height="573" viewBox="0 0 556 573"><defs><style>.a{fill:#f5f5f5;}.b{fill:#e6e6e6;}.c{fill:#37474f;}.d{fill:#455a64;}.ah,.e,.v{fill:#fe9801;}.f,.q,.r,.v{opacity:0.6;}.g,.n,.o{opacity:0.5;}.ae,.h{opacity:0.4;}.i{opacity:0.15;}.j,.p{fill:#263238;}.k{fill:#e0e0e0;}.l{fill:#ebebeb;}.ag,.m,.n,.q,.s{fill:#fff;}.p,.u{opacity:0.9;}.s,.t{opacity:0.8;}.w{fill:#14406d;}.x{opacity:0.7;}.ai,.y{opacity:0.3;}.z{fill:#00aa07;}.aa{opacity:0.25;}.ab,.ah{opacity:0.1;}.ac{fill:#ffa8a7;}.ad{fill:#fafafa;}.af{fill:#f28f8f;}.ag{opacity:0.75;}.aj{opacity:0.2;}</style></defs><g transform="translate(-25.63 -24.878)"><g transform="translate(25.63 289.676)"><ellipse class="a" cx="278" cy="154.101" rx="278" ry="154.101"/></g><g transform="translate(100.75 287.932)"><path class="b" d="M526.317,368.805,371.161,458.423a4.58,4.58,0,0,1-4.171,0l-223.7-129.09a1.241,1.241,0,0,1,0-2.408l155.156-89.618a4.58,4.58,0,0,1,4.171,0l223.7,129.09a1.241,1.241,0,0,1,0,2.408Z" transform="translate(-73.241 -236.805)"/><ellipse class="b" cx="93.193" cy="53.808" rx="93.193" ry="53.808" transform="translate(0 164.136)"/><ellipse class="b" cx="73.358" cy="42.351" rx="73.358" ry="42.351" transform="translate(133.029 113.208)"/><ellipse class="b" cx="46.05" cy="26.588" rx="46.05" ry="26.588" transform="translate(323.117 185.746)"/></g><g transform="translate(186.553 39.896)"><g transform="translate(0 112.376)"><path class="c" d="M331.649,286.552V424.33a3.078,3.078,0,0,1-1.39,2.408l-2.954,1.7a3.053,3.053,0,0,1-2.78,0l-2.954-1.7a3.078,3.078,0,0,1-1.39-2.408V286.552c0-.881.621-1.241,1.39-.794l2.954,1.7a3.053,3.053,0,0,0,2.78,0l2.954-1.7C331.029,285.311,331.649,285.67,331.649,286.552Z" transform="translate(-116.144 -89.382)"/><path class="d" d="M324.524,428.377l-2.954-1.7a3.078,3.078,0,0,1-1.39-2.408V286.552c0-.881.621-1.241,1.39-.794l2.954,1.7a3.078,3.078,0,0,1,1.39,2.371V427.607C325.915,428.464,325.294,428.848,324.524,428.377Z" transform="translate(-116.144 -89.382)"/><path class="c" d="M433.159,227.913v137.7a3.041,3.041,0,0,1-1.39,2.408l-2.954,1.738a3.128,3.128,0,0,1-2.78,0l-2.954-1.713a3.078,3.078,0,0,1-1.39-2.408V227.913c0-.881.633-1.241,1.39-.807l2.954,1.713a3.053,3.053,0,0,0,2.78,0l2.954-1.713C432.539,226.672,433.159,227.019,433.159,227.913Z" transform="translate(-91.655 -103.53)"/><path class="d" d="M426.034,369.762l-2.954-1.713a3.078,3.078,0,0,1-1.39-2.408V227.913c0-.881.633-1.241,1.39-.807l2.954,1.713a3.066,3.066,0,0,1,1.39,2.408v137.7A.873.873,0,0,1,426.034,369.762Z" transform="translate(-91.655 -103.53)"/><path class="c" d="M194.939,207.662V345.44a3.078,3.078,0,0,1-1.39,2.408l-2.954,1.7a3.053,3.053,0,0,1-2.78,0l-2.954-1.7a3.078,3.078,0,0,1-1.39-2.408V207.662c0-.881.621-1.241,1.39-.794l2.991,1.7a3.053,3.053,0,0,0,2.78,0l2.954-1.7C194.319,206.421,194.939,206.78,194.939,207.662Z" transform="translate(-149.125 -108.414)"/><path class="d" d="M187.844,349.5l-2.954-1.7a3.078,3.078,0,0,1-1.39-2.408V207.612c0-.881.621-1.241,1.39-.794l2.954,1.763a3.078,3.078,0,0,1,1.39,2.408v137.7C189.2,349.586,188.577,349.946,187.844,349.5Z" transform="translate(-149.117 -108.426)"/><path class="e" d="M524.7,261.688v-1.005a5.573,5.573,0,0,0-2.482-4.382L300.033,128.118a5.6,5.6,0,0,0-5.064,0L158.283,207.061a5.573,5.573,0,0,0-2.483,4.382v1.08a5.573,5.573,0,0,0,2.482,4.382L380.466,345.075a5.685,5.685,0,0,0,5.064,0L522.216,266.07a5.573,5.573,0,0,0,2.483-4.382Z" transform="translate(-155.8 -127.512)"/><path class="f" d="M524.7,261.688v-1.005a5.573,5.573,0,0,0-2.482-4.382L300.033,128.118a5.6,5.6,0,0,0-5.064,0L158.283,207.061a5.573,5.573,0,0,0-2.483,4.382v1.08a5.573,5.573,0,0,0,2.482,4.382L380.466,345.075a5.685,5.685,0,0,0,5.064,0L522.216,266.07a5.573,5.573,0,0,0,2.483-4.382Z" transform="translate(-155.8 -127.512)"/><path class="e" d="M338.82,313.686v6.852a5.263,5.263,0,0,0,2.482-.608l136.761-78.943a5.6,5.6,0,0,0,2.483-4.382v-1.018a5.623,5.623,0,0,0-2.061-4.046c.906.782.757,1.862-.472,2.594L341.327,313.078A5.126,5.126,0,0,1,338.82,313.686Z" transform="translate(-111.647 -102.416)"/><path class="g" d="M338.82,313.686v6.852a5.263,5.263,0,0,0,2.482-.608l136.761-78.943a5.6,5.6,0,0,0,2.483-4.382v-1.018a5.623,5.623,0,0,0-2.061-4.046c.906.782.757,1.862-.472,2.594L341.327,313.078A5.126,5.126,0,0,1,338.82,313.686Z" transform="translate(-111.647 -102.416)"/><path class="e" d="M521.945,259.218,385.234,338.174a5.6,5.6,0,0,1-5.064,0L157.974,210.04a1.539,1.539,0,0,1,0-2.917L294.66,128.118a5.6,5.6,0,0,1,5.064,0L521.945,256.3a1.539,1.539,0,0,1,0,2.917Z" transform="translate(-155.528 -127.512)"/><path class="h" d="M521.945,259.218,385.234,338.174a5.6,5.6,0,0,1-5.064,0L157.974,210.04a1.539,1.539,0,0,1,0-2.917L294.66,128.118a5.6,5.6,0,0,1,5.064,0L521.945,256.3a1.539,1.539,0,0,1,0,2.917Z" transform="translate(-155.528 -127.512)"/></g><g transform="translate(77.925 181.483)"><path class="i" d="M351.034,243.454,318.65,262.2a4.034,4.034,0,0,1-3.637,0l-95.675-55.161a1.1,1.1,0,0,1,0-2.1l32.384-18.755a4.047,4.047,0,0,1,3.624,0l95.688,55.173a1.1,1.1,0,0,1,0,2.1Z" transform="translate(-218.579 -182.568)"/><g transform="translate(2.718)"><path class="j" d="M220.77,202.231a1.241,1.241,0,0,1,.757-1.043l30.423-17.564a3.972,3.972,0,0,1,3.624,0l92.845,53.684a1.241,1.241,0,0,1,.745,1.055v3.19a1.241,1.241,0,0,1-.745,1.043L318.009,260.16a4,4,0,0,1-3.637,0l-92.845-53.622a1.241,1.241,0,0,1-.757-1.043Z" transform="translate(-220.769 -183.188)"/><path class="c" d="M318.009,256.9l30.411-17.489a1.1,1.1,0,0,0,0-2.1l-92.845-53.684a3.972,3.972,0,0,0-3.624,0l-30.423,17.564a1.1,1.1,0,0,0,0,2.1l92.845,53.6a4.034,4.034,0,0,0,3.637.012Z" transform="translate(-220.769 -183.188)"/><path class="j" d="M297.74,246.6v3.264a3.625,3.625,0,0,0,1.7-.422l30.4-17.551a1.241,1.241,0,0,0,.757-1.055v-3.2a1.241,1.241,0,0,1-.757,1.055l-30.4,17.489A3.724,3.724,0,0,1,297.74,246.6Z" transform="translate(-202.2 -172.466)"/><path class="e" d="M225.315,201.8h0l3-1.738,4.084,2.358-3.029,1.8-4.084-2.358Zm4.717-2.718,3.016-1.738,3.215,1.849-3.029,1.713-3.2-1.849Zm.993,6.02,3.016-1.738,3.2,1.849-3.029,1.8-3.2-1.849Zm3.724-8.689h0l3.016-1.738,5.176,3-3.029,1.787-5.176-2.991Zm.112,5.511h0l3-1.75,2.557,1.477-3.016,1.738-2.545-1.5Zm.993,6.008h0l3-1.738,3.215,1.849-3.041,1.8-3.2-1.849Zm3.178-3.6,3-1.738,2.483,1.477-3.029,1.8-2.482-1.477Zm.422-10.65h0l3.016-1.738,4.084,2.358-3,1.713-4.084-2.358Zm1.241,17.042h0l3-1.738,23.186,13.381-3.029,1.8L240.669,210.79Zm.869-10.389h0l3-1.738,2.483,1.477-3.029,1.787-2.545-1.465Zm1.651,6.4,3-1.738,2.545,1.477-3.029,1.8-2.545-1.477Zm.956-15.764h0l3-1.738,2.557,1.477-3.029,1.787-2.52-1.527Zm.993,6.02h0l3-1.738,2.557,1.465-3,1.7-2.557-1.465Zm.559,5.759h0l3-1.738,2.545,1.477-3.029,1.787-2.545-1.465Zm1.651,6.4,3-1.738,2.483,1.477-3.029,1.8-2.482-1.477Zm.968-15.776h0l3-1.738,2.557,1.477-3.029,1.787-2.482-1.465Zm.993,6.02h0l3-1.738,2.557,1.465-3.029,1.8-2.545-1.465Zm.559,5.759h0l3-1.738,2.482,1.477-3.029,1.787-2.483-1.465Zm0-17.489h0l3-1.738,3.215,1.849-3.041,1.8-3.2-1.849Zm1.651,23.894,3-1.738,2.545,1.477-3.029,1.8-2.545-1.477Zm.968-15.776h0l3-1.738,2.557,1.477-3,1.651-2.545-1.465Zm.993,6.02h0l3-1.738,2.557,1.465-3.029,1.8-2.557-1.564Zm.559,5.759h0l3-1.738,2.545,1.477-3.029,1.787-2.545-1.465Zm1.651,6.4,3-1.738,2.483,1.477-3.029,1.8-2.482-1.477Zm.819-22.467h0l3.016-1.738,2.545,1.465-3.029,1.8-2.545-1.465Zm.149,6.69h0l3-1.738,2.557,1.477-3.016,1.725-2.483-1.465Zm.993,6.02h0l3-1.738,2.557,1.465-3.029,1.8-2.545-1.465Zm.559,5.759h0l3-1.738,2.482,1.477-3.029,1.787-2.483-1.465Zm1.651,6.4h0l3.029-1.825,2.482,1.477-3.029,1.8-2.545-1.477Zm.819-22.467h0l3-1.738,2.557,1.465-3.029,1.8-2.482-1.465Zm.149,6.69h0l3-1.738,2.557,1.477-3,1.688-2.482-1.465Zm.993,6.02h0l3-1.738,2.557,1.465-3.029,1.8-2.545-1.465Zm.559,5.759h0l3.016-1.738,2.545,1.477-3.029,1.787-2.545-1.465Zm1.651,6.4h0l3-1.75,2.545,1.477-3.029,1.8-2.545-1.477Zm.819-22.467h0l3.016-1.738,2.545,1.465-3.029,1.8-2.545-1.465Zm.149,6.69h0l3.016-1.738,2.545,1.477-3.041,1.787-2.482-1.465Zm.459,22.045,3.016-1.738,3.2,1.849-3.029,1.8-3.2-1.849Zm.534-16.025h0l3-1.738,2.557,1.465-3.029,1.8L266,209.1Zm.559,5.759h0l3.016-1.738,2.507,1.378-3.029,1.787-2.545-1.465Zm1.651,6.4,3-1.738,2.557,1.477-3.041,1.8-2.545-1.477Zm.819-22.467h0L272.06,197l2.52,1.427-3.029,1.8-2.545-1.465Zm.149,6.69h0l3.016-1.738,2.545,1.477-3.029,1.787-2.545-1.465Zm.993,6.02h0l3.016-1.738,2.482,1.465-3.029,1.8-2.482-1.465Zm.124,16.4h0l3.016-1.738,3.2,1.849-3.029,1.8-3.2-1.849Zm.434-10.637h0l3-1.738,2.483,1.477-2.892,1.688-2.483-1.465Zm1.651,6.4,3-1.738,2.557,1.477-3.041,1.8-2.545-1.477Zm.968-15.776h0l3.016-1.738,2.482,1.477-3.029,1.787-2.495-1.564Zm.993,6.02h0l3.016-1.738,2.545,1.465-3.029,1.8-2.545-1.465Zm.559,5.759h0l3-1.738,2.545,1.477-3.029,1.787-2.52-1.614Zm.124-17.377h0l3.016-1.738,2.545,1.477-3.029,1.8-2.532-1.626Zm.1,28.437,3.016-1.738,3.2,1.849L278.3,232.45l-3.2-1.849Zm1.427-4.617h0l3-1.75,2.557,1.477-3.041,1.8-2.482-1.477Zm.968-15.776,3-1.738,2.557,1.477-3.029,1.787-2.545-1.465Zm.993,6.02h0l3.016-1.738,2.545,1.465-3.029,1.8-2.545-1.465Zm.559,5.759h0l3-1.738,2.557,1.477-3.041,1.787-2.52-1.576Zm.124-17.377h0l3.016-1.738,2.545,1.477-3.029,1.8-2.482-1.477Zm.77,28.822,3.016-1.75,4.084,2.358-3.029,1.8-4.084-2.358Zm.757-4.965h0l3-1.75,8.043,4.642-3.029,1.8-7.969-4.853Zm.968-15.776h0l3.016-1.738,2.545,1.477-3.029,1.787-2.545-1.465Zm.993,6.02h0l3.016-1.738,2.52,1.241-3.029,1.8-2.545-1.465Zm.559,5.759h0l3-1.738,2.557,1.477-3.066,1.576-2.483-1.465Zm.124-17.377h0l3.016-1.738,2.545,1.477-3.029,1.8-2.545-1.477Zm2.483,8.043h0l3.016-1.738,2.545,1.477-3.029,1.787-2.545-1.465Zm.683,22.169h0l3-1.738,2.557,1.465-3.041,1.8-2.482-1.465Zm.31-16.136h0l3.016-1.738,2.483,1.465-2.88,1.539-2.482-1.465Zm.559,5.759h0l3-1.738,2.334,1.341a1.49,1.49,0,0,0,.732.161,1.651,1.651,0,0,0,.77-.161l3.96-2.284,2.979,1.725-7.733,4.518-6.07-3.5Zm.124-17.377h0l3.016-1.738,2.545,1.477-3,1.477-2.545-1.477Zm2.482,8.043h0l3-1.738,2.557,1.477-3.029,1.787-2.483-1.465Zm.683,22.169h0l3-1.738,2.557,1.465-3.041,1.8-2.482-1.465Zm.31-16.136h0l3.016-1.738,2.545,1.465-3.029,1.8L291,223.761Zm2.483-10.613h0l3-1.738,2.557,1.465-3.041,1.8-2.545-1.465Zm.683,7h0l3-1.738,2.557,1.477-3.029,1.787-2.545-1.465Zm.683,22.169h0l3.016-1.738,2.545,1.465-3.041,1.8-2.482-1.465Zm.546-5.126,3-1.738,2.557,1.477-3.041,1.8-2.482-1.763Zm2.259-21.635h0l3-1.738,2.545,1.465-3.029,1.8-2.545-1.465Zm.683,7h0l3.016-1.738,4.518,2.607-3.029,1.8-4.518-2.607Zm1.564,22.678h0l3-1.738,6.728,3.873-3.041,1.8-6.715-3.873Zm.745-15.9h0l3.016-1.738,2.545,1.477-3.029,1.787-2.545-1.465Zm1.179-11.37h0l3-1.738,2.545,1.465-3.016,1.49-2.483-1.465Zm2.793,24.552h0l3.016-1.738,2.545,1.477-3.029,1.8-2.545-1.477Zm.2-10.774h0l3.016-1.738,2.482,1.477-3.029,1.787-2.482-1.465Zm.546-5.126h0l3.016-1.738,2.482,1.465-3.029,1.8-2.483-1.465Zm.633-6.206h0l3-1.738,2.482,1.465-3.029,1.8-2.483-1.465Zm2.247,29.678h0l3-1.738,2.557,1.465-3.041,1.8-2.482-1.465Zm.546-5.126h0l3.016-1.738,2.483,1.477-3.029,1.8-2.482-1.477Zm.2-10.774h0l3.016-1.738,2.545,1.477-3.029,1.787-2.545-1.465Zm.348,5.635,3.016-1.738,2.482,1.477-3.029,1.787-2.482-1.465Zm.2-10.762h0l3.016-1.738,2.545,1.465-3.029,1.8-2.545-1.465Zm1.552-5.71h0l3-1.738,2.557,1.465-2.967,1.477-2.545-1.465Zm1.328,29.145h0l7.721-4.469,2.545,1.477-7.733,4.518L312.4,252.5Zm.546-5.126h0l3.016-1.738,2.545,1.477-2.991,1.44-2.483-1.477Zm.546-5.139,3.016-1.738,2.545,1.477L316.05,243.7l-2.495-1.825Zm.2-10.762h0l3.016-1.738,2.545,1.465-3.029,1.8-2.545-1.465Zm.335,5.635h0l3.016-1.738,2.545,1.465-3.029,1.8-2.545-1.465Zm1.241-11.345h0l3-1.738,2.557,1.465-3.029,1.8-2.545-1.465Zm2.42,18.879,3.016-1.738,2.545,1.477-3.029,1.8-2.52-1.763Zm.534-5.126h0l3.016-1.738,2.545,1.465-2.991,1.452-2.545-1.465Zm.546-5.126h0l3-1.738,2.557,1.465-3.041,1.8-2.482-1.465Zm.67-6.206h0l3-1.738,2.557,1.465-3.029,1.8-2.545-1.465ZM321.884,247h0l7.733-4.456,2.545,1.465-7.745,4.531-2.545-1.477Zm.534-5.126h0l3.016-1.738,2.545,1.465-3.029,1.8-2.545-1.465Zm.546-5.126h0l3-1.738,2.557,1.465-3.053,1.44-2.482-1.465Zm2.768-6.417h0l1.241-.757,2.557,1.477-1.316.807-2.483-1.465Zm1.4,8.825h0l3-1.738,2.557,1.465-3.041,1.8-2.483-1.465Zm2.768-6.417h0l1.241-.757,2.557,1.477-1.316.807L329.9,232.8Zm1.4,8.825h0l3-1.738,2.557,1.465-3.041,1.8-2.482-1.465Zm2.768-6.417h0l1.241-.757,2.557,1.477-1.316.807-2.483-1.465Zm4.158,2.408h0l1.241-.757,2.557,1.477-1.316.807-2.482-1.465Z" transform="translate(-219.679 -182.524)"/></g></g><g transform="translate(142.768 23.065)"><path class="i" d="M413.266,254.352l28.487-16.447L299.307,155.66,270.82,172.107Z" transform="translate(-270.82 -31.411)"/><g transform="translate(4.788)"><path class="b" d="M325.154,224.956l-20.332-11.767c-2.1-1.241-3.153-2.793-3.153-4.382v-2.83l19.14-10.861a4.493,4.493,0,0,0,2.023-3.513V166.53l35.525,20.53v25.073a4.493,4.493,0,0,1-2.023,3.513l-15.987,9.309A16.806,16.806,0,0,1,325.154,224.956Z" transform="translate(-268.165 -28.788)"/><path class="k" d="M340.47,213.342v2.818l6.5-3.724A4.469,4.469,0,0,0,349,208.923V183.85l-6.765-3.91c-.137,1.725-.3,3.5-.434,5.226l4.742,2.756v19.587a4.431,4.431,0,0,1-2.023,3.513Z" transform="translate(-258.805 -25.553)"/><path class="a" d="M355.9,209.927a4.469,4.469,0,0,1-2.023,3.513l-13.53,7.894a16.807,16.807,0,0,1-15.193,0l-20.344-11.767c-4.2-2.408-4.2-6.343,0-8.763l13.542-7.894a4.468,4.468,0,0,0,2.023-3.5v-19.6L355.9,190.34Z" transform="translate(-268.166 -27.997)"/><path class="l" d="M311.79,195.293h0l4.121-2.383a4.468,4.468,0,0,0,2.023-3.5v-19.6l35.525,20.53v19.587a4.468,4.468,0,0,1-2.023,3.513l-4.046,2.346Z" transform="translate(-265.724 -27.997)"/><path class="l" d="M301.67,198.31v2.83c0,1.589,1.055,3.165,3.14,4.382l20.344,11.755a15.292,15.292,0,0,0,7.249,1.8v-2.818a15.293,15.293,0,0,1-7.249-1.8L304.81,202.692C302.725,201.488,301.67,199.9,301.67,198.31Z" transform="translate(-268.165 -21.121)"/><path class="d" d="M419.46,264.549a5.424,5.424,0,0,1-4.9-.087L277.163,185.2a5.573,5.573,0,0,1-2.482-4.382V60.5a4.754,4.754,0,0,1,7.286-4.208l137.381,79.328A5.573,5.573,0,0,1,421.831,140V260.254a5.412,5.412,0,0,1-2.371,4.295Z" transform="translate(-274.677 -55.56)"/><path class="c" d="M414.556,263.842,277.163,184.588a5.573,5.573,0,0,1-2.483-4.382V59.88c0-1.614,1.13-2.259,2.483-1.452l137.394,79.316a5.61,5.61,0,0,1,2.483,4.382V262.389C417.088,264.028,415.946,264.648,414.556,263.842Z" transform="translate(-274.676 -54.952)"/><path class="k" d="M387.67,227.744a4.729,4.729,0,0,0,6.9-4.394V209.82l-4.742,2.706v13.53C389.83,227.57,388.9,228.228,387.67,227.744Z" transform="translate(-247.418 -18.345)"/><path class="m" d="M417.088,227.978v13.53c0,1.614-1.142,2.271-2.482,1.465L277.163,163.681a5.573,5.573,0,0,1-2.483-4.382V145.77Z" transform="translate(-274.676 -33.797)"/><path class="e" d="M411.42,237.367V142.188a3.376,3.376,0,0,0-1.514-2.631l-129.921-75c-.832-.484-1.514-.1-1.514.869v95.179a3.339,3.339,0,0,0,1.514,2.631l129.921,75.009C410.7,238.732,411.42,238.335,411.42,237.367Z" transform="translate(-273.762 -53.439)"/><path class="n" d="M411.42,237.367V142.188a3.376,3.376,0,0,0-1.514-2.631l-129.921-75c-.832-.484-1.514-.1-1.514.869v95.179a3.339,3.339,0,0,0,1.514,2.631l129.921,75.009C410.7,238.732,411.42,238.335,411.42,237.367Z" transform="translate(-273.762 -53.439)"/><path class="d" d="M332.463,183.131a5.263,5.263,0,0,1,2.371,4.109c0,1.514-1.067,2.135-2.371,1.378a5.263,5.263,0,0,1-2.383-4.121C330.117,183.044,331.222,182.374,332.463,183.131Z" transform="translate(-261.311 -24.859)"/><path class="j" d="M388.81,124.308a5.461,5.461,0,0,1,.745,2.482v107.02l4.742-2.743v-107a5.213,5.213,0,0,0-.745-2.482Z" transform="translate(-247.143 -39.63)"/></g></g><g transform="translate(169.976)"><path class="d" d="M292.752,39.792a1.4,1.4,0,0,1,0-.223h0a1.046,1.046,0,0,1,0-.211.992.992,0,0,1,.136-.31.41.41,0,0,1,.075-.124l.074-.087a.992.992,0,0,1,.161-.161h0a1.243,1.243,0,0,1,.211-.124,1.775,1.775,0,0,1,1.626.211l160.344,92.523a5.4,5.4,0,0,1,2.42,4.208V251.537h0v.534a1.651,1.651,0,0,1-.869,1.452l-.112.074-.124.074h-.211a1.242,1.242,0,0,1-.31,0,1.6,1.6,0,0,1-.794-.236h-.062l-2.135-1.3L295.16,160.926a5.362,5.362,0,0,1-2.42-4.2V40.053C292.74,39.991,292.752,39.892,292.752,39.792Z" transform="translate(-292.74 -36.624)"/><path class="e" d="M293.38,38.843a1.775,1.775,0,0,1,1.626.211L455.35,131.576a5.4,5.4,0,0,1,2.42,4.208v7.969l3.091-1.812v-7.857a5.362,5.362,0,0,0-2.42-4.2L298.1,37.3a1.688,1.688,0,0,0-1.75-.149C295.912,37.428,293.9,38.569,293.38,38.843Z" transform="translate(-292.586 -36.977)"/><path class="e" d="M292.74,40.092c0-1.527,1.092-2.147,2.42-1.378L455.5,131.249a5.325,5.325,0,0,1,2.42,4.2v7.969L292.74,48.048Z" transform="translate(-292.74 -36.638)"/><g class="o" transform="translate(0.807 0)"><path class="m" d="M295,39.053l160.344,92.535a4.965,4.965,0,0,1,1.7,1.787l3.078-1.775a4.853,4.853,0,0,0-1.688-1.775L298.107,37.3a1.713,1.713,0,0,0-1.763-.149c-.434.273-2.483,1.415-2.954,1.688a1.713,1.713,0,0,1,1.614.211Z" transform="translate(-293.39 -36.978)"/></g><path class="i" d="M429.063,123.512v-7.87a4.964,4.964,0,0,0-.732-2.483l-3.091,1.775a4.766,4.766,0,0,1,.732,2.408v8.031Z" transform="translate(-260.775 -18.598)"/><path class="d" d="M421.686,114.568a3.612,3.612,0,0,1,1.365,2.9c0,1.154-.608,1.75-1.365,1.316a3.612,3.612,0,0,1-1.365-2.9C420.32,114.729,420.928,114.133,421.686,114.568Z" transform="translate(-261.962 -18.293)"/><path class="d" d="M417.716,112.278a3.587,3.587,0,0,1,1.365,2.892c0,1.167-.608,1.75-1.365,1.316a3.587,3.587,0,0,1-1.365-2.892C416.35,112.427,416.958,111.843,417.716,112.278Z" transform="translate(-262.92 -18.846)"/><path class="d" d="M413.746,110.034a3.612,3.612,0,0,1,1.365,2.9c0,1.154-.608,1.75-1.365,1.316a3.625,3.625,0,0,1-1.365-2.9C412.38,110.121,412.988,109.538,413.746,110.034Z" transform="translate(-263.877 -19.395)"/><path class="p" d="M425.122,233.451l.124-.074L427.8,231.9a2.557,2.557,0,0,0,1.241-1.874,3.3,3.3,0,0,0,0-.348V121.49l-3.1,1.825V231.986a1.6,1.6,0,0,1-.757,1.378h-.074Z" transform="translate(-260.806 -16.589)"/><g transform="translate(3.935 20.542)"><path class="e" d="M332.476,79.464l33.8,19.475a1.837,1.837,0,0,1,.869,1.427c0,.521-.385.72-.869.434l-33.8-19.475a1.85,1.85,0,0,1-.856-1.427C331.62,79.377,332,79.191,332.476,79.464Z" transform="translate(-287.295 -47.299)"/><path class="b" d="M342.889,109.5l12.76,7.373a1.837,1.837,0,0,1,.856,1.427c0,.509-.385.708-.856.434l-12.76-7.348a1.812,1.812,0,0,1-.869-1.427C342,109.429,342.4,109.231,342.889,109.5Z" transform="translate(-284.786 -40.052)"/><path class="b" d="M342.889,115.514l12.76,7.361a1.874,1.874,0,0,1,.856,1.44c0,.509-.385.708-.856.434l-12.76-7.361a1.837,1.837,0,0,1-.869-1.427C342,115.427,342.4,115.241,342.889,115.514Z" transform="translate(-284.786 -38.602)"/><path class="e" d="M362.4,96.7l67.685,38.975a1.874,1.874,0,0,1,.857,1.44c0,.509-.385.708-.857.434L362.4,98.578a1.874,1.874,0,0,1-.856-1.44C361.54,96.629,361.925,96.431,362.4,96.7Z" transform="translate(-280.077 -43.14)"/><path class="e" d="M343.106,151.634l20.6,11.928a1.812,1.812,0,0,1,.869,1.427c0,.509-.385.708-.869.434l-20.6-11.928a1.837,1.837,0,0,1-.856-1.427C342.25,151.559,342.635,151.361,343.106,151.634Z" transform="translate(-284.731 -29.888)"/><path class="e" d="M362.4,162.794l67.685,39.025a1.849,1.849,0,0,1,.856,1.427c0,.521-.385.708-.856.434L362.4,164.656a1.849,1.849,0,0,1-.857-1.427C361.54,162.707,361.925,162.521,362.4,162.794Z" transform="translate(-280.077 -27.196)"/><path class="e" d="M332.476,85.484l16.993,9.781a1.849,1.849,0,0,1,.856,1.427c0,.521-.385.72-.856.434L332.476,87.4a1.837,1.837,0,0,1-.856-1.427C331.62,85.409,332,85.211,332.476,85.484Z" transform="translate(-287.295 -45.846)"/><path class="q" d="M332.476,85.484l16.993,9.781a1.849,1.849,0,0,1,.856,1.427c0,.521-.385.72-.856.434L332.476,87.4a1.837,1.837,0,0,1-.856-1.427C331.62,85.409,332,85.211,332.476,85.484Z" transform="translate(-287.295 -45.846)"/><path class="e" d="M332.476,91.484l7.969,4.593A1.85,1.85,0,0,1,341.3,97.5c0,.509-.385.708-.856.434L332.476,93.4a1.85,1.85,0,0,1-.856-1.427C331.62,91.4,332,91.211,332.476,91.484Z" transform="translate(-287.295 -44.399)"/><path class="q" d="M332.476,91.484l7.969,4.593A1.85,1.85,0,0,1,341.3,97.5c0,.509-.385.708-.856.434L332.476,93.4a1.85,1.85,0,0,1-.856-1.427C331.62,91.4,332,91.211,332.476,91.484Z" transform="translate(-287.295 -44.399)"/><path class="e" d="M332.476,103.494l7.969,4.593a1.875,1.875,0,0,1,.856,1.44c0,.509-.385.708-.856.434l-7.969-4.593a1.874,1.874,0,0,1-.856-1.44C331.62,103.419,332,103.221,332.476,103.494Z" transform="translate(-287.295 -41.502)"/><path class="q" d="M332.476,103.494l7.969,4.593a1.875,1.875,0,0,1,.856,1.44c0,.509-.385.708-.856.434l-7.969-4.593a1.874,1.874,0,0,1-.856-1.44C331.62,103.419,332,103.221,332.476,103.494Z" transform="translate(-287.295 -41.502)"/><path class="e" d="M332.476,109.5l7.969,4.593a1.849,1.849,0,0,1,.856,1.427c0,.521-.385.72-.856.434l-7.969-4.593a1.837,1.837,0,0,1-.856-1.427C331.62,109.429,332,109.231,332.476,109.5Z" transform="translate(-287.295 -40.052)"/><path class="q" d="M332.476,109.5l7.969,4.593a1.849,1.849,0,0,1,.856,1.427c0,.521-.385.72-.856.434l-7.969-4.593a1.837,1.837,0,0,1-.856-1.427C331.62,109.429,332,109.231,332.476,109.5Z" transform="translate(-287.295 -40.052)"/><path class="e" d="M348.889,94.914l10.2,5.921a1.837,1.837,0,0,1,.869,1.427c0,.521-.385.708-.869.434l-10.2-5.908a1.862,1.862,0,0,1-.869-1.44C348,94.839,348.4,94.641,348.889,94.914Z" transform="translate(-283.339 -43.572)"/><path class="q" d="M348.889,94.914l10.2,5.921a1.837,1.837,0,0,1,.869,1.427c0,.521-.385.708-.869.434l-10.2-5.908a1.862,1.862,0,0,1-.869-1.44C348,94.839,348.4,94.641,348.889,94.914Z" transform="translate(-283.339 -43.572)"/><path class="m" d="M361.609,138.354l68.666,39.534a1.837,1.837,0,0,1,.856,1.427c0,.509-.385.708-.856.434l-68.666-39.534a1.837,1.837,0,0,1-.869-1.427C360.74,138.267,361.125,138.081,361.609,138.354Z" transform="translate(-280.27 -33.092)"/><path class="m" d="M408.7,159.425l10.215,5.908a1.85,1.85,0,0,1,.856,1.427c0,.521-.385.708-.856.434L408.7,161.287a1.849,1.849,0,0,1-.857-1.427C407.84,159.339,408.225,159.14,408.7,159.425Z" transform="translate(-268.907 -28.01)"/><path class="m" d="M350.686,126.025l68.666,39.534a1.874,1.874,0,0,1,.856,1.44c0,.509-.385.708-.856.434l-68.666-39.546a1.862,1.862,0,0,1-.856-1.44C349.83,125.939,350.215,125.74,350.686,126.025Z" transform="translate(-282.902 -36.068)"/><path class="e" d="M342.889,97.5l17.017,9.781a1.812,1.812,0,0,1,.869,1.427c0,.509-.385.708-.869.434l-17.017-9.744a1.837,1.837,0,0,1-.869-1.427C342,97.408,342.4,97.21,342.889,97.5Z" transform="translate(-284.786 -42.951)"/><path class="q" d="M342.889,97.5l17.017,9.781a1.812,1.812,0,0,1,.869,1.427c0,.509-.385.708-.869.434l-17.017-9.744a1.837,1.837,0,0,1-.869-1.427C342,97.408,342.4,97.21,342.889,97.5Z" transform="translate(-284.786 -42.951)"/><path class="e" d="M359.286,106.924l71.037,41.085a1.874,1.874,0,0,1,.856,1.44c0,.509-.385.708-.856.434l-71.037-41.1a1.849,1.849,0,0,1-.857-1.427C358.43,106.837,358.815,106.651,359.286,106.924Z" transform="translate(-280.827 -40.675)"/><path class="q" d="M359.286,106.924l71.037,41.085a1.874,1.874,0,0,1,.856,1.44c0,.509-.385.708-.856.434l-71.037-41.1a1.849,1.849,0,0,1-.857-1.427C358.43,106.837,358.815,106.651,359.286,106.924Z" transform="translate(-280.827 -40.675)"/><path class="b" d="M342.894,133.664l91.852,52.989a1.85,1.85,0,0,1,.856,1.427c0,.521-.385.72-.856.447l-91.852-53a1.837,1.837,0,0,1-.894-1.415C342,133.577,342.41,133.391,342.894,133.664Z" transform="translate(-284.791 -34.224)"/><path class="e" d="M332.476,127.654l7.969,4.593a1.849,1.849,0,0,1,.856,1.427c0,.521-.385.708-.856.434l-7.969-4.593a1.837,1.837,0,0,1-.856-1.427C331.62,127.579,332,127.381,332.476,127.654Z" transform="translate(-287.295 -35.673)"/><path class="q" d="M332.476,127.654l7.969,4.593a1.849,1.849,0,0,1,.856,1.427c0,.521-.385.708-.856.434l-7.969-4.593a1.837,1.837,0,0,1-.856-1.427C331.62,127.579,332,127.381,332.476,127.654Z" transform="translate(-287.295 -35.673)"/><path class="b" d="M342.894,139.664l91.852,53a1.85,1.85,0,0,1,.856,1.427c0,.521-.385.708-.856.434l-91.852-53a1.812,1.812,0,0,1-.894-1.415C342,139.589,342.41,139.391,342.894,139.664Z" transform="translate(-284.791 -32.776)"/><path class="e" d="M332.476,133.664l7.969,4.593a1.837,1.837,0,0,1,.856,1.427c0,.509-.385.708-.856.434l-7.969-4.593a1.85,1.85,0,0,1-.856-1.427C331.62,133.577,332,133.391,332.476,133.664Z" transform="translate(-287.295 -34.224)"/><path class="q" d="M332.476,133.664l7.969,4.593a1.837,1.837,0,0,1,.856,1.427c0,.509-.385.708-.856.434l-7.969-4.593a1.85,1.85,0,0,1-.856-1.427C331.62,133.577,332,133.391,332.476,133.664Z" transform="translate(-287.295 -34.224)"/><path class="b" d="M342.894,145.674l91.852,53a1.837,1.837,0,0,1,.856,1.427c0,.509-.385.708-.856.434l-91.852-53a1.837,1.837,0,0,1-.894-1.427C342,145.587,342.41,145.4,342.894,145.674Z" transform="translate(-284.791 -31.326)"/><path class="e" d="M332.476,139.664l7.969,4.593a1.849,1.849,0,0,1,.856,1.427c0,.521-.385.72-.856.447l-7.969-4.605a1.837,1.837,0,0,1-.856-1.427C331.62,139.589,332,139.391,332.476,139.664Z" transform="translate(-287.295 -32.776)"/><path class="q" d="M332.476,139.664l7.969,4.593a1.849,1.849,0,0,1,.856,1.427c0,.521-.385.72-.856.447l-7.969-4.605a1.837,1.837,0,0,1-.856-1.427C331.62,139.589,332,139.391,332.476,139.664Z" transform="translate(-287.295 -32.776)"/><g class="r" transform="translate(31.912 24.569)"><path class="m" d="M322.476,73.432l4.68,2.706A1.874,1.874,0,0,1,328,77.615V79.34c0,.534-.372.757-.844.484l-4.68-2.706a1.862,1.862,0,0,1-.856-1.465V73.928C321.62,73.382,322,73.171,322.476,73.432Z" transform="translate(-321.62 -73.32)"/><path class="m" d="M322.476,79.5l4.68,2.706A1.874,1.874,0,0,1,328,83.673V85.4c0,.546-.372.757-.844.5l-4.68-2.706a1.887,1.887,0,0,1-.856-1.477V79.987C321.62,79.453,322,79.23,322.476,79.5Z" transform="translate(-321.62 -71.857)"/><path class="m" d="M322.476,85.562l4.68,2.706A1.874,1.874,0,0,1,328,89.745V91.47c0,.534-.372.757-.844.484l-4.68-2.706a1.887,1.887,0,0,1-.856-1.465V86.058C321.62,85.512,322,85.3,322.476,85.562Z" transform="translate(-321.62 -70.394)"/><path class="m" d="M322.476,91.633l4.68,2.706A1.874,1.874,0,0,1,328,95.8v1.725c0,.546-.372.757-.844.5l-4.68-2.706a1.887,1.887,0,0,1-.856-1.477V92.117C321.62,91.583,322,91.36,322.476,91.633Z" transform="translate(-321.62 -68.931)"/><path class="m" d="M322.476,97.693l4.68,2.706a1.874,1.874,0,0,1,.844,1.477v1.713c0,.546-.372.77-.844.5l-4.68-2.706a1.887,1.887,0,0,1-.856-1.465V98.189C321.62,97.643,322,97.42,322.476,97.693Z" transform="translate(-321.62 -67.469)"/><path class="m" d="M322.476,103.763l4.68,2.706a1.85,1.85,0,0,1,.844,1.465v1.725c0,.546-.372.757-.844.5l-4.68-2.706a1.887,1.887,0,0,1-.856-1.477v-1.725C321.62,103.713,322,103.49,322.476,103.763Z" transform="translate(-321.62 -66.005)"/><path class="m" d="M322.476,109.823l4.68,2.706a1.874,1.874,0,0,1,.844,1.477v1.713c0,.546-.372.77-.844.5l-4.68-2.706a1.887,1.887,0,0,1-.856-1.465v-1.725C321.62,109.773,322,109.55,322.476,109.823Z" transform="translate(-321.62 -64.543)"/><path class="m" d="M322.476,115.893l4.68,2.706a1.85,1.85,0,0,1,.844,1.465v1.725c0,.546-.372.757-.844.484l-4.68-2.694a1.887,1.887,0,0,1-.856-1.477v-1.725C321.62,115.843,322,115.62,322.476,115.893Z" transform="translate(-321.62 -63.078)"/><path class="m" d="M322.476,121.953l4.68,2.706a1.874,1.874,0,0,1,.844,1.477v1.713c0,.546-.372.77-.844.5l-4.68-2.706a1.887,1.887,0,0,1-.856-1.477v-1.713C321.62,121.9,322,121.68,322.476,121.953Z" transform="translate(-321.62 -61.616)"/><path class="m" d="M322.476,128.021l4.68,2.706a1.837,1.837,0,0,1,.844,1.465v1.725c0,.546-.372.757-.844.484l-4.68-2.656a1.887,1.887,0,0,1-.856-1.477v-1.725C321.62,128.021,322,127.748,322.476,128.021Z" transform="translate(-321.62 -60.15)"/><path class="m" d="M322.476,134.084l4.68,2.706a1.874,1.874,0,0,1,.844,1.477v1.713c0,.546-.372.77-.844.5l-4.68-2.743a1.887,1.887,0,0,1-.856-1.477v-1.713C321.62,134.009,322,133.811,322.476,134.084Z" transform="translate(-321.62 -58.691)"/><path class="m" d="M322.476,140.153l4.68,2.694a1.874,1.874,0,0,1,.844,1.477v1.725c0,.546-.372.757-.844.484l-4.68-2.694a1.887,1.887,0,0,1-.856-1.477v-1.725C321.62,140.1,322,139.88,322.476,140.153Z" transform="translate(-321.62 -57.226)"/></g><path class="c" d="M297.611,53.754l25.321,14.622a3.724,3.724,0,0,1,1.7,2.942v29.244c0,1.08-.757,1.527-1.7.981L297.611,86.92a3.724,3.724,0,0,1-1.7-2.942V54.747C295.91,53.655,296.667,53.221,297.611,53.754Z" transform="translate(-295.91 -53.527)"/><path class="e" d="M299.336,77.084l2.334,1.353a1.874,1.874,0,0,1,.869,1.427c0,.521-.4.708-.869.434l-2.334-1.353a1.837,1.837,0,0,1-.856-1.427C298.48,77.009,298.865,76.811,299.336,77.084Z" transform="translate(-295.29 -47.873)"/><path class="q" d="M299.336,77.084l2.334,1.353a1.874,1.874,0,0,1,.869,1.427c0,.521-.4.708-.869.434l-2.334-1.353a1.837,1.837,0,0,1-.856-1.427C298.48,77.009,298.865,76.811,299.336,77.084Z" transform="translate(-295.29 -47.873)"/><path class="e" d="M299.336,57.794l2.334,1.353a1.874,1.874,0,0,1,.869,1.427c0,.521-.4.708-.869.434l-2.334-1.341a1.874,1.874,0,0,1-.856-1.44C298.48,57.719,298.865,57.521,299.336,57.794Z" transform="translate(-295.29 -52.527)"/><path class="q" d="M299.336,57.794l2.334,1.353a1.874,1.874,0,0,1,.869,1.427c0,.521-.4.708-.869.434l-2.334-1.341a1.874,1.874,0,0,1-.856-1.44C298.48,57.719,298.865,57.521,299.336,57.794Z" transform="translate(-295.29 -52.527)"/><path class="e" d="M301.976,63.174l2.334,1.341a1.85,1.85,0,0,1,.856,1.427c0,.521-.385.72-.856.434l-2.334-1.341a1.85,1.85,0,0,1-.856-1.427C301.12,63.087,301.5,62.9,301.976,63.174Z" transform="translate(-294.653 -51.229)"/><path class="q" d="M301.976,63.174l2.334,1.341a1.85,1.85,0,0,1,.856,1.427c0,.521-.385.72-.856.434l-2.334-1.341a1.85,1.85,0,0,1-.856-1.427C301.12,63.087,301.5,62.9,301.976,63.174Z" transform="translate(-294.653 -51.229)"/><path class="e" d="M301.976,67.025l2.334,1.353a1.85,1.85,0,0,1,.856,1.427c0,.521-.385.708-.856.434L301.976,68.9a1.85,1.85,0,0,1-.856-1.427C301.12,66.938,301.5,66.74,301.976,67.025Z" transform="translate(-294.653 -50.302)"/><path class="q" d="M301.976,67.025l2.334,1.353a1.85,1.85,0,0,1,.856,1.427c0,.521-.385.708-.856.434L301.976,68.9a1.85,1.85,0,0,1-.856-1.427C301.12,66.938,301.5,66.74,301.976,67.025Z" transform="translate(-294.653 -50.302)"/><path class="e" d="M299.336,69.364l2.334,1.353a1.874,1.874,0,0,1,.869,1.427c0,.521-.4.708-.869.434l-2.334-1.341a1.862,1.862,0,0,1-.857-1.44C298.48,69.289,298.865,69.091,299.336,69.364Z" transform="translate(-295.29 -49.736)"/><path class="q" d="M299.336,69.364l2.334,1.353a1.874,1.874,0,0,1,.869,1.427c0,.521-.4.708-.869.434l-2.334-1.341a1.862,1.862,0,0,1-.857-1.44C298.48,69.289,298.865,69.091,299.336,69.364Z" transform="translate(-295.29 -49.736)"/><path class="e" d="M301.976,74.744,304.31,76.1a1.837,1.837,0,0,1,.856,1.427c0,.509-.385.708-.856.434l-2.334-1.353a1.837,1.837,0,0,1-.856-1.427C301.12,74.669,301.5,74.471,301.976,74.744Z" transform="translate(-294.653 -48.438)"/><path class="q" d="M301.976,74.744,304.31,76.1a1.837,1.837,0,0,1,.856,1.427c0,.509-.385.708-.856.434l-2.334-1.353a1.837,1.837,0,0,1-.856-1.427C301.12,74.669,301.5,74.471,301.976,74.744Z" transform="translate(-294.653 -48.438)"/><path class="e" d="M304.489,60.764l14.225,8.229a1.812,1.812,0,0,1,.869,1.427c0,.509-.385.708-.869.434l-14.225-8.217a1.837,1.837,0,0,1-.869-1.44C303.62,60.689,304,60.491,304.489,60.764Z" transform="translate(-294.05 -51.81)"/><path class="s" d="M304.489,60.764l14.225,8.229a1.812,1.812,0,0,1,.869,1.427c0,.509-.385.708-.869.434l-14.225-8.217a1.837,1.837,0,0,1-.869-1.44C303.62,60.689,304,60.491,304.489,60.764Z" transform="translate(-294.05 -51.81)"/><path class="e" d="M304.489,80.018l14.225,8.229a1.812,1.812,0,0,1,.869,1.427c0,.509-.385.708-.869.434l-14.225-8.217a1.862,1.862,0,0,1-.869-1.44C303.62,80.018,304,79.782,304.489,80.018Z" transform="translate(-294.05 -47.158)"/><path class="s" d="M304.489,80.018l14.225,8.229a1.812,1.812,0,0,1,.869,1.427c0,.509-.385.708-.869.434l-14.225-8.217a1.862,1.862,0,0,1-.869-1.44C303.62,80.018,304,79.782,304.489,80.018Z" transform="translate(-294.05 -47.158)"/><path class="e" d="M307.17,66.144l10.948,6.33a1.837,1.837,0,0,1,.869,1.44c0,.509-.385.707-.869.434L307.17,68.006a1.837,1.837,0,0,1-.869-1.427C306.251,66.057,306.636,65.871,307.17,66.144Z" transform="translate(-293.404 -50.513)"/><path class="s" d="M307.17,66.144l10.948,6.33a1.837,1.837,0,0,1,.869,1.44c0,.509-.385.707-.869.434L307.17,68.006a1.837,1.837,0,0,1-.869-1.427C306.251,66.057,306.636,65.871,307.17,66.144Z" transform="translate(-293.404 -50.513)"/><path class="e" d="M307.17,70.029l10.948,6.343a1.837,1.837,0,0,1,.869,1.427c0,.521-.385.708-.869.434L307.17,71.866a1.837,1.837,0,0,1-.869-1.427C306.251,69.917,306.636,69.718,307.17,70.029Z" transform="translate(-293.404 -49.581)"/><path class="s" d="M307.17,70.029l10.948,6.343a1.837,1.837,0,0,1,.869,1.427c0,.521-.385.708-.869.434L307.17,71.866a1.837,1.837,0,0,1-.869-1.427C306.251,69.917,306.636,69.718,307.17,70.029Z" transform="translate(-293.404 -49.581)"/><path class="e" d="M304.489,72.344l14.225,8.217a1.837,1.837,0,0,1,.869,1.427c0,.521-.385.708-.869.434l-14.225-8.217a1.837,1.837,0,0,1-.869-1.427C303.62,72.257,304,72.071,304.489,72.344Z" transform="translate(-294.05 -49.017)"/><path class="s" d="M304.489,72.344l14.225,8.217a1.837,1.837,0,0,1,.869,1.427c0,.521-.385.708-.869.434l-14.225-8.217a1.837,1.837,0,0,1-.869-1.427C303.62,72.257,304,72.071,304.489,72.344Z" transform="translate(-294.05 -49.017)"/><path class="e" d="M307.17,77.714l10.948,6.343a1.812,1.812,0,0,1,.869,1.427c0,.509-.385.708-.869.434L307.17,79.576a1.812,1.812,0,0,1-.869-1.427C306.251,77.639,306.636,77.441,307.17,77.714Z" transform="translate(-293.404 -47.721)"/><path class="s" d="M307.17,77.714l10.948,6.343a1.812,1.812,0,0,1,.869,1.427c0,.509-.385.708-.869.434L307.17,79.576a1.812,1.812,0,0,1-.869-1.427C306.251,77.639,306.636,77.441,307.17,77.714Z" transform="translate(-293.404 -47.721)"/><path class="c" d="M297.611,84.916l25.321,14.609a3.724,3.724,0,0,1,1.7,2.929v57.768c0,1.092-.757,1.527-1.7.981l-25.321-14.622a3.724,3.724,0,0,1-1.7-2.942V85.9C295.91,84.8,296.667,84.37,297.611,84.916Z" transform="translate(-295.91 -46.011)"/><path class="e" d="M299.336,88.944l2.333,1.341a1.874,1.874,0,0,1,.869,1.427c0,.521-.4.708-.869.434l-2.334-1.341a1.849,1.849,0,0,1-.856-1.427C298.48,88.869,298.865,88.671,299.336,88.944Z" transform="translate(-295.29 -45.012)"/><path class="q" d="M299.336,88.944l2.333,1.341a1.874,1.874,0,0,1,.869,1.427c0,.521-.4.708-.869.434l-2.334-1.341a1.849,1.849,0,0,1-.856-1.427C298.48,88.869,298.865,88.671,299.336,88.944Z" transform="translate(-295.29 -45.012)"/><path class="e" d="M301.976,94.324l2.334,1.341a1.862,1.862,0,0,1,.857,1.44c0,.509-.385.707-.857.434l-2.334-1.353a1.85,1.85,0,0,1-.856-1.427C301.12,94.237,301.5,94.051,301.976,94.324Z" transform="translate(-294.653 -43.714)"/><path class="q" d="M301.976,94.324l2.334,1.341a1.862,1.862,0,0,1,.857,1.44c0,.509-.385.707-.857.434l-2.334-1.353a1.85,1.85,0,0,1-.856-1.427C301.12,94.237,301.5,94.051,301.976,94.324Z" transform="translate(-294.653 -43.714)"/><path class="e" d="M301.976,98.175l2.334,1.341a1.849,1.849,0,0,1,.856,1.427c0,.521-.385.708-.856.434l-2.334-1.341a1.849,1.849,0,0,1-.856-1.427C301.12,98.089,301.5,97.89,301.976,98.175Z" transform="translate(-294.653 -42.787)"/><path class="q" d="M301.976,98.175l2.334,1.341a1.849,1.849,0,0,1,.856,1.427c0,.521-.385.708-.856.434l-2.334-1.341a1.849,1.849,0,0,1-.856-1.427C301.12,98.089,301.5,97.89,301.976,98.175Z" transform="translate(-294.653 -42.787)"/><path class="e" d="M299.336,100.525l2.334,1.341a1.874,1.874,0,0,1,.869,1.427c0,.521-.4.708-.869.434l-2.334-1.341a1.849,1.849,0,0,1-.857-1.427C298.48,100.439,298.865,100.24,299.336,100.525Z" transform="translate(-295.29 -42.22)"/><path class="q" d="M299.336,100.525l2.334,1.341a1.874,1.874,0,0,1,.869,1.427c0,.521-.4.708-.869.434l-2.334-1.341a1.849,1.849,0,0,1-.857-1.427C298.48,100.439,298.865,100.24,299.336,100.525Z" transform="translate(-295.29 -42.22)"/><path class="e" d="M304.489,91.925l14.225,8.217a1.812,1.812,0,0,1,.869,1.427c0,.509-.385.708-.869.434l-14.225-8.217a1.837,1.837,0,0,1-.869-1.427C303.62,91.839,304,91.64,304.489,91.925Z" transform="translate(-294.05 -44.295)"/><path class="s" d="M304.489,91.925l14.225,8.217a1.812,1.812,0,0,1,.869,1.427c0,.509-.385.708-.869.434l-14.225-8.217a1.837,1.837,0,0,1-.869-1.427C303.62,91.839,304,91.64,304.489,91.925Z" transform="translate(-294.05 -44.295)"/><path class="e" d="M307.17,97.294l10.948,6.343a1.812,1.812,0,0,1,.869,1.427c0,.509-.385.708-.869.434L307.17,99.156a1.837,1.837,0,0,1-.869-1.427C306.251,97.207,306.636,97.021,307.17,97.294Z" transform="translate(-293.404 -42.998)"/><path class="s" d="M307.17,97.294l10.948,6.343a1.812,1.812,0,0,1,.869,1.427c0,.509-.385.708-.869.434L307.17,99.156a1.837,1.837,0,0,1-.869-1.427C306.251,97.207,306.636,97.021,307.17,97.294Z" transform="translate(-293.404 -42.998)"/><path class="e" d="M307.17,101.155l10.948,6.33a1.837,1.837,0,0,1,.869,1.427c0,.521-.385.72-.869.447l-10.948-6.343a1.837,1.837,0,0,1-.869-1.427C306.251,101.069,306.636,100.87,307.17,101.155Z" transform="translate(-293.404 -42.068)"/><path class="s" d="M307.17,101.155l10.948,6.33a1.837,1.837,0,0,1,.869,1.427c0,.521-.385.72-.869.447l-10.948-6.343a1.837,1.837,0,0,1-.869-1.427C306.251,101.069,306.636,100.87,307.17,101.155Z" transform="translate(-293.404 -42.068)"/><path class="e" d="M304.489,103.494l14.225,8.217a1.837,1.837,0,0,1,.869,1.427c0,.521-.385.708-.869.434l-14.225-8.18a1.837,1.837,0,0,1-.869-1.427C303.62,103.407,304,103.221,304.489,103.494Z" transform="translate(-294.05 -41.502)"/><path class="s" d="M304.489,103.494l14.225,8.217a1.837,1.837,0,0,1,.869,1.427c0,.521-.385.708-.869.434l-14.225-8.18a1.837,1.837,0,0,1-.869-1.427C303.62,103.407,304,103.221,304.489,103.494Z" transform="translate(-294.05 -41.502)"/><path class="e" d="M301.976,105.914l2.334,1.353a1.849,1.849,0,0,1,.856,1.427c0,.521-.385.708-.856.434l-2.334-1.341a1.849,1.849,0,0,1-.856-1.427C301.12,105.839,301.5,105.641,301.976,105.914Z" transform="translate(-294.653 -40.918)"/><path class="q" d="M301.976,105.914l2.334,1.353a1.849,1.849,0,0,1,.856,1.427c0,.521-.385.708-.856.434l-2.334-1.341a1.849,1.849,0,0,1-.856-1.427C301.12,105.839,301.5,105.641,301.976,105.914Z" transform="translate(-294.653 -40.918)"/><path class="e" d="M301.976,109.764l2.334,1.353a1.849,1.849,0,0,1,.856,1.427c0,.509-.385.708-.856.434l-2.334-1.353a1.837,1.837,0,0,1-.856-1.427C301.12,109.689,301.5,109.491,301.976,109.764Z" transform="translate(-294.653 -39.989)"/><path class="q" d="M301.976,109.764l2.334,1.353a1.849,1.849,0,0,1,.856,1.427c0,.509-.385.708-.856.434l-2.334-1.353a1.837,1.837,0,0,1-.856-1.427C301.12,109.689,301.5,109.491,301.976,109.764Z" transform="translate(-294.653 -39.989)"/><path class="e" d="M307.17,108.884l10.948,6.343a1.837,1.837,0,0,1,.869,1.427c0,.521-.385.72-.869.434l-10.948-6.33a1.837,1.837,0,0,1-.869-1.427C306.251,108.809,306.636,108.611,307.17,108.884Z" transform="translate(-293.404 -40.201)"/><path class="s" d="M307.17,108.884l10.948,6.343a1.837,1.837,0,0,1,.869,1.427c0,.521-.385.72-.869.434l-10.948-6.33a1.837,1.837,0,0,1-.869-1.427C306.251,108.809,306.636,108.611,307.17,108.884Z" transform="translate(-293.404 -40.201)"/><path class="e" d="M307.17,112.744l10.948,6.343a1.837,1.837,0,0,1,.869,1.427c0,.521-.385.708-.869.434l-10.948-6.343a1.812,1.812,0,0,1-.869-1.427C306.251,112.669,306.636,112.471,307.17,112.744Z" transform="translate(-293.404 -39.27)"/><path class="s" d="M307.17,112.744l10.948,6.343a1.837,1.837,0,0,1,.869,1.427c0,.521-.385.708-.869.434l-10.948-6.343a1.812,1.812,0,0,1-.869-1.427C306.251,112.669,306.636,112.471,307.17,112.744Z" transform="translate(-293.404 -39.27)"/><path class="e" d="M299.336,119.854l2.334,1.353a1.85,1.85,0,0,1,.869,1.427c0,.509-.4.708-.869.434l-2.334-1.353a1.837,1.837,0,0,1-.856-1.427C298.48,119.779,298.865,119.581,299.336,119.854Z" transform="translate(-295.29 -37.555)"/><path class="q" d="M299.336,119.854l2.334,1.353a1.85,1.85,0,0,1,.869,1.427c0,.509-.4.708-.869.434l-2.334-1.353a1.837,1.837,0,0,1-.856-1.427C298.48,119.779,298.865,119.581,299.336,119.854Z" transform="translate(-295.29 -37.555)"/><path class="e" d="M304.489,122.824l14.225,8.229a1.812,1.812,0,0,1,.869,1.427c0,.509-.385.708-.869.434L304.489,124.7a1.837,1.837,0,0,1-.869-1.427C303.62,122.749,304,122.551,304.489,122.824Z" transform="translate(-294.05 -36.838)"/><path class="s" d="M304.489,122.824l14.225,8.229a1.812,1.812,0,0,1,.869,1.427c0,.509-.385.708-.869.434L304.489,124.7a1.837,1.837,0,0,1-.869-1.427C303.62,122.749,304,122.551,304.489,122.824Z" transform="translate(-294.05 -36.838)"/><path class="e" d="M301.976,125.255l2.334,1.353a1.837,1.837,0,0,1,.856,1.427c0,.509-.385.708-.856.434l-2.334-1.353a1.837,1.837,0,0,1-.856-1.427C301.12,125.18,301.5,124.969,301.976,125.255Z" transform="translate(-294.653 -36.253)"/><path class="q" d="M301.976,125.255l2.334,1.353a1.837,1.837,0,0,1,.856,1.427c0,.509-.385.708-.856.434l-2.334-1.353a1.837,1.837,0,0,1-.856-1.427C301.12,125.18,301.5,124.969,301.976,125.255Z" transform="translate(-294.653 -36.253)"/><path class="e" d="M301.976,129.1l2.334,1.341a1.874,1.874,0,0,1,.857,1.44c0,.509-.385.708-.857.434l-2.334-1.353a1.85,1.85,0,0,1-.856-1.427C301.12,129.006,301.5,128.832,301.976,129.1Z" transform="translate(-294.653 -35.324)"/><path class="q" d="M301.976,129.1l2.334,1.341a1.874,1.874,0,0,1,.857,1.44c0,.509-.385.708-.857.434l-2.334-1.353a1.85,1.85,0,0,1-.856-1.427C301.12,129.006,301.5,128.832,301.976,129.1Z" transform="translate(-294.653 -35.324)"/><path class="e" d="M307.17,128.222l10.948,6.343a1.812,1.812,0,0,1,.869,1.427c0,.509-.385.708-.869.434l-10.948-6.343a1.812,1.812,0,0,1-.869-1.427C306.251,128.147,306.636,127.973,307.17,128.222Z" transform="translate(-293.404 -35.534)"/><path class="s" d="M307.17,128.222l10.948,6.343a1.812,1.812,0,0,1,.869,1.427c0,.509-.385.708-.869.434l-10.948-6.343a1.812,1.812,0,0,1-.869-1.427C306.251,128.147,306.636,127.973,307.17,128.222Z" transform="translate(-293.404 -35.534)"/><path class="e" d="M307.17,132.084l10.948,6.343a1.812,1.812,0,0,1,.869,1.427c0,.509-.385.707-.869.434l-10.948-6.343a1.837,1.837,0,0,1-.869-1.427C306.251,132.009,306.636,131.811,307.17,132.084Z" transform="translate(-293.404 -34.604)"/><path class="s" d="M307.17,132.084l10.948,6.343a1.812,1.812,0,0,1,.869,1.427c0,.509-.385.707-.869.434l-10.948-6.343a1.837,1.837,0,0,1-.869-1.427C306.251,132.009,306.636,131.811,307.17,132.084Z" transform="translate(-293.404 -34.604)"/><path class="e" d="M301.976,113.594l2.334,1.353a1.837,1.837,0,0,1,.856,1.427c0,.509-.385.708-.856.434l-2.334-1.353a1.837,1.837,0,0,1-.856-1.427C301.12,113.519,301.5,113.321,301.976,113.594Z" transform="translate(-294.653 -39.065)"/><path class="q" d="M301.976,113.594l2.334,1.353a1.837,1.837,0,0,1,.856,1.427c0,.509-.385.708-.856.434l-2.334-1.353a1.837,1.837,0,0,1-.856-1.427C301.12,113.519,301.5,113.321,301.976,113.594Z" transform="translate(-294.653 -39.065)"/><path class="e" d="M299.336,115.944l2.334,1.353a1.849,1.849,0,0,1,.869,1.427c0,.509-.4.708-.869.434l-2.334-1.353a1.837,1.837,0,0,1-.856-1.427C298.48,115.869,298.865,115.671,299.336,115.944Z" transform="translate(-295.29 -38.498)"/><path class="q" d="M299.336,115.944l2.334,1.353a1.849,1.849,0,0,1,.869,1.427c0,.509-.4.708-.869.434l-2.334-1.353a1.837,1.837,0,0,1-.856-1.427C298.48,115.869,298.865,115.671,299.336,115.944Z" transform="translate(-295.29 -38.498)"/><path class="e" d="M307.17,116.574l10.948,6.343a1.812,1.812,0,0,1,.869,1.427c0,.509-.385.708-.869.434l-10.948-6.343a1.812,1.812,0,0,1-.869-1.427C306.251,116.5,306.636,116.3,307.17,116.574Z" transform="translate(-293.404 -38.346)"/><path class="s" d="M307.17,116.574l10.948,6.343a1.812,1.812,0,0,1,.869,1.427c0,.509-.385.708-.869.434l-10.948-6.343a1.812,1.812,0,0,1-.869-1.427C306.251,116.5,306.636,116.3,307.17,116.574Z" transform="translate(-293.404 -38.346)"/><path class="e" d="M304.489,118.914l14.225,8.229a1.812,1.812,0,0,1,.869,1.427c0,.509-.385.708-.869.434l-14.225-8.217a1.862,1.862,0,0,1-.869-1.44C303.62,118.839,304,118.641,304.489,118.914Z" transform="translate(-294.05 -37.782)"/><path class="s" d="M304.489,118.914l14.225,8.229a1.812,1.812,0,0,1,.869,1.427c0,.509-.385.708-.869.434l-14.225-8.217a1.862,1.862,0,0,1-.869-1.44C303.62,118.839,304,118.641,304.489,118.914Z" transform="translate(-294.05 -37.782)"/><path class="e" d="M299.336,131.5l2.334,1.353a1.849,1.849,0,0,1,.869,1.427c0,.509-.4.708-.869.434l-2.334-1.328a1.837,1.837,0,0,1-.856-1.427C298.48,131.429,298.865,131.231,299.336,131.5Z" transform="translate(-295.29 -34.744)"/><path class="q" d="M299.336,131.5l2.334,1.353a1.849,1.849,0,0,1,.869,1.427c0,.509-.4.708-.869.434l-2.334-1.328a1.837,1.837,0,0,1-.856-1.427C298.48,131.429,298.865,131.231,299.336,131.5Z" transform="translate(-295.29 -34.744)"/><path class="e" d="M304.489,134.485l14.225,8.217a1.812,1.812,0,0,1,.869,1.427c0,.509-.385.708-.869.434L304.489,136.4a1.837,1.837,0,0,1-.869-1.427C303.62,134.4,304,134.2,304.489,134.485Z" transform="translate(-294.05 -34.027)"/><path class="s" d="M304.489,134.485l14.225,8.217a1.812,1.812,0,0,1,.869,1.427c0,.509-.385.708-.869.434L304.489,136.4a1.837,1.837,0,0,1-.869-1.427C303.62,134.4,304,134.2,304.489,134.485Z" transform="translate(-294.05 -34.027)"/></g></g><g transform="translate(316.493 137.539)"><g class="t" transform="translate(0 1.854)"><path class="d" d="M410.78,150.534v94.806a4.357,4.357,0,0,0,1.974,3.413l54.466,31.428a1.365,1.365,0,0,0,.658.186h.521l.112-.074.112-.1a1.514,1.514,0,0,0,.36-.521,2.333,2.333,0,0,0,.211-.993V184.346a4.344,4.344,0,0,0-1.974-3.413l-54.466-31.391a1.44,1.44,0,0,0-1.328-.174l-.161.1h0l-.137.124a.259.259,0,0,0,0,.074.322.322,0,0,0-.062.112.67.67,0,0,0-.124.248.717.717,0,0,0,0,.174h0v.186C410.792,150.373,410.78,150.46,410.78,150.534Z" transform="translate(-410.78 -149.278)"/></g><path class="e" d="M411.3,149.591a1.44,1.44,0,0,1,1.328.174l54.466,31.391a4.344,4.344,0,0,1,1.974,3.413V191l3.14-1.812v-6.38a4.32,4.32,0,0,0-1.974-3.4l-54.466-31.354a1.378,1.378,0,0,0-1.427-.124C413.981,148.052,411.722,149.38,411.3,149.591Z" transform="translate(-410.655 -147.785)"/><path class="e" d="M410.79,150.549c0-1.241.881-1.738,1.961-1.117l54.466,31.391a4.357,4.357,0,0,1,1.974,3.413v6.43l-58.339-33.65Z" transform="translate(-410.778 -147.452)"/><g class="o" transform="translate(0.658)"><path class="m" d="M412.626,149.765l54.466,31.391a4.059,4.059,0,0,1,1.39,1.465l3.128-1.8a4.009,4.009,0,0,0-1.378-1.427l-54.466-31.342a1.378,1.378,0,0,0-1.427-.124c-.347.223-2.619,1.489-3.029,1.713a1.378,1.378,0,0,1,1.316.124Z" transform="translate(-411.31 -147.785)"/></g><path class="i" d="M461.1,182.776v-6.392a4.17,4.17,0,0,0-.6-1.974l-3.14,1.787a3.922,3.922,0,0,1,.6,1.961v6.43Z" transform="translate(-399.543 -141.361)"/><path class="d" d="M455.747,176.822a2.942,2.942,0,0,1,1.117,2.358c0,.943-.5,1.427-1.117,1.067a2.929,2.929,0,0,1-1.117-2.346C454.63,176.946,455.089,176.475,455.747,176.822Z" transform="translate(-400.201 -140.807)"/><path class="d" d="M452.515,174.964a2.892,2.892,0,0,1,1.117,2.346c0,.956-.5,1.427-1.117,1.08a2.967,2.967,0,0,1-1.1-2.358C451.41,175.039,451.907,174.6,452.515,174.964Z" transform="translate(-400.978 -141.258)"/><path class="d" d="M449.29,173.092a2.967,2.967,0,0,1,1.142,2.4c0,.943-.5,1.427-1.1,1.067a2.917,2.917,0,0,1-1.117-2.358C448.173,173.216,448.67,172.745,449.29,173.092Z" transform="translate(-401.751 -141.707)"/><g class="u" transform="translate(57.693 41.402)"><path class="c" d="M457.26,272.5l.236-.137.608-.348h0a2.163,2.163,0,0,1,.323-.186h0l.521-.3,1.055-.6.248-.137a1.116,1.116,0,0,0,.335-.261,1.367,1.367,0,0,0,.261-.41,2.345,2.345,0,0,0,.236-1.043V181.14l-3.14,1.812v87.893a2.868,2.868,0,0,1-.211.993,1.516,1.516,0,0,1-.36.521.3.3,0,0,1-.112.1Z" transform="translate(-457.26 -181.14)"/></g><path class="e" d="M414.43,164.539a.31.31,0,0,1,.1-.248l1.415-1.241h.062a.211.211,0,0,1,.112.137.36.36,0,0,1,0,.2v.981a1.352,1.352,0,0,1,0,.273,1.028,1.028,0,0,1-.1.149l-.757.683.757,1.552c0,.1.075.186.1.273a1.779,1.779,0,0,1,0,.3v1.13a.087.087,0,0,1-.112,0h0l-.062-.087-1.415-2.942a.833.833,0,0,1-.1-.36Z" transform="translate(-409.9 -144.102)"/><path class="e" d="M419.08,163.181a.372.372,0,0,1,.112-.161h.211l.521.31a.211.211,0,0,1,.112.137.36.36,0,0,1,0,.2.249.249,0,0,1,0,.087l-2.482,7.547a.323.323,0,0,1-.1.161h-.211l-.509-.3a.248.248,0,0,1-.112-.137.4.4,0,0,1,0-.2v-.087Z" transform="translate(-409.374 -144.109)"/><path class="e" d="M421.964,169.811a.323.323,0,0,1-.1.261l-1.415,1.241a.087.087,0,0,1-.074,0h0a.248.248,0,0,1-.112-.137.4.4,0,0,1,0-.2V170a1.245,1.245,0,0,1,0-.273.435.435,0,0,1,.1-.161l.745-.683-.745-1.539a2.628,2.628,0,0,1-.1-.273,1.779,1.779,0,0,1,0-.3v-.993a.149.149,0,0,1,0-.137h.112a.273.273,0,0,1,.074.087l1.415,2.929a.833.833,0,0,1,.1.372Z" transform="translate(-408.496 -143.477)"/><path class="e" d="M424.96,172.178a.36.36,0,0,1,.137.161.6.6,0,0,1,0,.248v1.08a.224.224,0,0,1,0,.174.1.1,0,0,1-.136,0l-.67-.385a.36.36,0,0,1-.137-.161.609.609,0,0,1,0-.248v-1.005a.26.26,0,0,1,0-.186.1.1,0,0,1,.137,0Z" transform="translate(-407.558 -141.984)"/><path class="e" d="M426.769,173.228a.36.36,0,0,1,.137.161.6.6,0,0,1,0,.248v1.08a.223.223,0,0,1,0,.174.112.112,0,0,1-.137,0l-.67-.385a.447.447,0,0,1-.137-.161.659.659,0,0,1-.062-.248v-1.055a.26.26,0,0,1,.062-.186.1.1,0,0,1,.137,0Z" transform="translate(-407.132 -141.743)"/><path class="e" d="M428.569,174.274a.311.311,0,0,1,.137.161.6.6,0,0,1,0,.248v1.08a.249.249,0,0,1,0,.174.112.112,0,0,1-.137,0l-.67-.385a.409.409,0,0,1-.136-.174.56.56,0,0,1-.062-.236v-1.1a.248.248,0,0,1,.062-.174.112.112,0,0,1,.136,0Z" transform="translate(-406.698 -141.498)"/><path class="e" d="M415.045,171.188l32.719,18.892a1.49,1.49,0,0,1,.708,1.167c0,.422-.31.571-.708.348L415.045,172.7a1.5,1.5,0,0,1-.7-1.154C414.35,171.126,414.66,170.977,415.045,171.188Z" transform="translate(-409.919 -142.161)"/><path class="b" d="M423.505,190.73l32.719,18.892a1.477,1.477,0,0,1,.708,1.154c0,.422-.31.583-.708.36l-32.719-18.892a1.5,1.5,0,0,1-.7-1.167C422.81,190.656,423.12,190.507,423.505,190.73Z" transform="translate(-407.878 -137.449)"/><path class="b" d="M423.5,200.49l15.677,9.049a1.5,1.5,0,0,1,.7,1.167c0,.422-.31.571-.7.348L423.515,202a1.477,1.477,0,0,1-.7-1.154C422.808,200.427,423.118,200.266,423.5,200.49Z" transform="translate(-407.875 -135.094)"/><path class="e" d="M443.6,187.67l13.033,7.447a1.477,1.477,0,0,1,.708,1.154c0,.422-.323.583-.708.36L443.6,189.184a1.477,1.477,0,0,1-.7-1.154C442.9,187.607,443.21,187.446,443.6,187.67Z" transform="translate(-403.031 -138.187)"/><path class="e" d="M415.045,224.91,447.764,243.8a1.477,1.477,0,0,1,.708,1.154c0,.422-.31.583-.708.36l-32.719-18.892a1.5,1.5,0,0,1-.7-1.167C414.35,224.836,414.66,224.687,415.045,224.91Z" transform="translate(-409.919 -129.203)"/><path class="e" d="M443.6,241.39l13.033,7.447a1.514,1.514,0,0,1,.708,1.167c0,.41-.323.571-.708.348L443.6,242.9a1.5,1.5,0,0,1-.7-1.167C442.9,241.328,443.21,241.166,443.6,241.39Z" transform="translate(-403.031 -125.227)"/><path class="e" d="M443.6,226.76l13.033,7.448a1.489,1.489,0,0,1,.708,1.154c0,.422-.323.583-.708.36L443.6,228.274a1.5,1.5,0,0,1-.7-1.167C442.9,226.7,443.21,226.536,443.6,226.76Z" transform="translate(-403.031 -128.756)"/><path class="e" d="M443.6,231.65l13.033,7.447a1.514,1.514,0,0,1,.708,1.154c0,.422-.323.583-.708.36L443.6,233.164a1.5,1.5,0,0,1-.7-1.167C442.9,231.576,443.21,231.427,443.6,231.65Z" transform="translate(-403.031 -127.577)"/><path class="e" d="M434.635,221.58l7.323,4.233a1.465,1.465,0,0,1,.707,1.154c0,.422-.31.583-.707.36l-7.323-4.233a1.5,1.5,0,0,1-.7-1.167C433.94,221.518,434.25,221.356,434.635,221.58Z" transform="translate(-405.193 -130.006)"/><path class="e" d="M415.045,176.091l19.09,11.01a1.5,1.5,0,0,1,.7,1.154c0,.422-.31.583-.7.36l-19.09-11.01a1.5,1.5,0,0,1-.7-1.167C414.35,176,414.66,175.867,415.045,176.091Z" transform="translate(-409.919 -140.981)"/><path class="q" d="M415.045,176.091l19.09,11.01a1.5,1.5,0,0,1,.7,1.154c0,.422-.31.583-.7.36l-19.09-11.01a1.5,1.5,0,0,1-.7-1.167C414.35,176,414.66,175.867,415.045,176.091Z" transform="translate(-409.919 -140.981)"/><path class="e" d="M415.045,180.96l6.479,3.724a1.5,1.5,0,0,1,.7,1.154c0,.422-.31.583-.7.36l-6.479-3.724a1.5,1.5,0,0,1-.7-1.154C414.35,180.9,414.66,180.736,415.045,180.96Z" transform="translate(-409.919 -139.805)"/><path class="q" d="M415.045,180.96l6.479,3.724a1.5,1.5,0,0,1,.7,1.154c0,.422-.31.583-.7.36l-6.479-3.724a1.5,1.5,0,0,1-.7-1.154C414.35,180.9,414.66,180.736,415.045,180.96Z" transform="translate(-409.919 -139.805)"/><path class="e" d="M415.045,185.84l6.479,3.724a1.5,1.5,0,0,1,.7,1.167c0,.41-.31.571-.7.348l-6.479-3.724a1.465,1.465,0,0,1-.7-1.154C414.35,185.777,414.66,185.616,415.045,185.84Z" transform="translate(-409.919 -138.628)"/><path class="q" d="M415.045,185.84l6.479,3.724a1.5,1.5,0,0,1,.7,1.167c0,.41-.31.571-.7.348l-6.479-3.724a1.465,1.465,0,0,1-.7-1.154C414.35,185.777,414.66,185.616,415.045,185.84Z" transform="translate(-409.919 -138.628)"/><path class="e" d="M415.045,190.73l6.479,3.724a1.477,1.477,0,0,1,.7,1.154c0,.422-.31.583-.7.36l-6.479-3.724a1.5,1.5,0,0,1-.7-1.167C414.35,190.656,414.66,190.507,415.045,190.73Z" transform="translate(-409.919 -137.449)"/><path class="q" d="M415.045,190.73l6.479,3.724a1.5,1.5,0,0,1,.7,1.167c0,.422-.31.571-.7.348l-6.479-3.724a1.5,1.5,0,0,1-.7-1.167C414.35,190.656,414.66,190.507,415.045,190.73Z" transform="translate(-409.919 -137.449)"/><path class="v" d="M423.505,195.61l19.09,11.01a1.5,1.5,0,0,1,.7,1.167c0,.41-.31.571-.7.348l-19.09-11.01a1.5,1.5,0,0,1-.7-1.167C422.81,195.548,423.12,195.386,423.505,195.61Z" transform="translate(-407.878 -136.271)"/><path class="v" d="M441.065,205.74l8.3,4.816a1.464,1.464,0,0,1,.7,1.154c0,.422-.31.583-.7.36l-8.3-4.816a1.5,1.5,0,0,1-.7-1.154C440.37,205.677,440.68,205.516,441.065,205.74Z" transform="translate(-403.641 -133.827)"/><path class="q" d="M423.505,195.61l19.09,11.01a1.5,1.5,0,0,1,.7,1.167c0,.41-.31.571-.7.348l-19.09-11.01a1.5,1.5,0,0,1-.7-1.167C422.81,195.548,423.12,195.386,423.505,195.61Z" transform="translate(-407.878 -136.271)"/><path class="q" d="M441.065,205.74l8.3,4.816a1.464,1.464,0,0,1,.7,1.154c0,.422-.31.583-.7.36l-8.3-4.816a1.5,1.5,0,0,1-.7-1.154C440.37,205.677,440.68,205.516,441.065,205.74Z" transform="translate(-403.641 -133.827)"/><path class="e" d="M415.045,195.61l6.479,3.724a1.5,1.5,0,0,1,.7,1.154c0,.422-.31.583-.7.36l-6.479-3.724a1.5,1.5,0,0,1-.7-1.154C414.35,195.547,414.66,195.386,415.045,195.61Z" transform="translate(-409.919 -136.271)"/><path class="q" d="M415.045,195.61l6.479,3.724a1.5,1.5,0,0,1,.7,1.154c0,.422-.31.583-.7.36l-6.479-3.724a1.5,1.5,0,0,1-.7-1.154C414.35,195.547,414.66,195.386,415.045,195.61Z" transform="translate(-409.919 -136.271)"/><path class="e" d="M432.605,186.222l8.3,4.8a1.5,1.5,0,0,1,.7,1.167c0,.41-.31.571-.7.348l-8.3-4.8a1.5,1.5,0,0,1-.7-1.167C431.91,186.16,432.22,185.974,432.605,186.222Z" transform="translate(-405.682 -138.539)"/><path class="q" d="M432.605,186.222l8.3,4.8a1.5,1.5,0,0,1,.7,1.167c0,.41-.31.571-.7.348l-8.3-4.8a1.5,1.5,0,0,1-.7-1.167C431.91,186.16,432.22,185.974,432.605,186.222Z" transform="translate(-405.682 -138.539)"/><path class="m" d="M429.845,209.016l19.09,11.01a1.514,1.514,0,0,1,.708,1.167c0,.422-.323.571-.708.36l-19.09-11.022a1.5,1.5,0,0,1-.7-1.154C429.15,209.016,429.46,208.805,429.845,209.016Z" transform="translate(-406.348 -133.033)"/><path class="m" d="M438.72,219.013l19.128,11.06a1.514,1.514,0,0,1,.708,1.167c0,.41-.323.571-.708.348l-19.078-11.01a1.489,1.489,0,0,1-.708-1.167C437.988,219.013,438.323,218.839,438.72,219.013Z" transform="translate(-404.201 -130.617)"/><path class="m" d="M447.409,219.167l8.341,4.779a1.514,1.514,0,0,1,.708,1.154c0,.422-.323.583-.708.36l-8.292-4.8a1.49,1.49,0,0,1-.708-1.167C446.7,219.093,447.061,218.981,447.409,219.167Z" transform="translate(-402.103 -130.585)"/><path class="b" d="M447.418,238.51l8.292,4.8a1.514,1.514,0,0,1,.708,1.167c0,.41-.323.571-.708.348l-8.292-4.8a1.49,1.49,0,0,1-.707-1.167C446.71,238.448,447.07,238.286,447.418,238.51Z" transform="translate(-402.112 -125.922)"/><path class="e" d="M423.505,185.84l19.09,11.022a1.477,1.477,0,0,1,.7,1.154c0,.422-.31.583-.7.36L423.505,187.3a1.465,1.465,0,0,1-.7-1.154C422.81,185.778,423.12,185.616,423.505,185.84Z" transform="translate(-407.878 -138.628)"/><path class="q" d="M423.505,185.84l19.09,11.022a1.477,1.477,0,0,1,.7,1.154c0,.422-.31.583-.7.36L423.505,187.3a1.465,1.465,0,0,1-.7-1.154C422.81,185.778,423.12,185.616,423.505,185.84Z" transform="translate(-407.878 -138.628)"/><path class="e" d="M441.065,196.026l8.3,4.8a1.5,1.5,0,0,1,.7,1.167c0,.41-.31.571-.7.348l-8.3-4.8a1.5,1.5,0,0,1-.7-1.167C440.37,195.9,440.68,195.753,441.065,196.026Z" transform="translate(-403.642 -136.179)"/><path class="q" d="M441.065,196.026l8.3,4.8a1.5,1.5,0,0,1,.7,1.167c0,.41-.31.571-.7.348l-8.3-4.8a1.5,1.5,0,0,1-.7-1.167C440.37,195.9,440.68,195.753,441.065,196.026Z" transform="translate(-403.642 -136.179)"/></g><g transform="translate(221.11 244.892)"><path class="i" d="M336.647,256.1l11.693,6.752a12.884,12.884,0,0,0,12.909-.683l19.3-14.088c3.438-2.482,3.24-6.206-.447-8.4l-5.859-3.4a15.925,15.925,0,0,0-13.567-.41l-23.82,12.9C333.047,250.687,332.948,253.964,336.647,256.1Z" transform="translate(-333.935 -234.206)"/><path class="c" d="M380.488,242.015l-13.331,10.439-9.855,7.708a8.689,8.689,0,0,1-3.14.757,8.54,8.54,0,0,1-4.68-.981l-10.464-6.045h-.062a7.447,7.447,0,0,1-2.122-10.588l.31-.434a13.952,13.952,0,0,1,8.428-5.337l5.3-1.055c8.589-1.75,15.627-2.594,16.447-2.036l13.12,7.6Z" transform="translate(-333.563 -234.272)"/><path class="e" d="M369.7,247.56l.757-.6-11.779-6.79,10.3-3.19-1.043-.608-10.3,3.19-7.025-4.046-1.328.248Z" transform="translate(-330.233 -233.971)"/><path class="j" d="M354.849,258.032h0l9.384-6.777,12.648-9.136V240.63a.124.124,0,0,0-.062-.112h-.074c-.943-.323-6.43,1.328-13.058,3.96l-4.394,1.75a13.914,13.914,0,0,0-8.813,13v.223a8.689,8.689,0,0,0,3.14-.757Z" transform="translate(-329.944 -232.775)"/></g></g><g transform="translate(433.848 347.097)"><path class="w" d="M375.482,420.656c-12.884-13.294-20.443-67.387-7.882-77.926h63.924c12.561,10.538,4.965,64.619-7.87,77.913l-.36.372c-.137.149-.286.3-.434.434-.372.36-.757.708-1.167,1.043l-.31.248c-.31.248-.621.5-.968.745a18.934,18.934,0,0,1-1.663,1.08c-10.6,6.206-27.779,6.206-38.379,0h0c-.559-.323-1.117-.7-1.676-1.092-.323-.223-.608-.459-.906-.7l-.372-.3a15.074,15.074,0,0,1-1.13-1.005c-.174-.161-.348-.335-.509-.509a3.517,3.517,0,0,1-.3-.31Z" transform="translate(-353.55 -270.416)"/><path class="e" d="M425.773,340.55c14.585,8.515,14.585,22.342,0,30.845s-38.243,8.515-52.828,0-14.585-22.342,0-30.845S411.189,332.035,425.773,340.55Z" transform="translate(-353.348 -272.481)"/><g class="x" transform="translate(8.66 61.688)"><path class="m" d="M425.773,340.55c14.585,8.515,14.585,22.342,0,30.845s-38.243,8.515-52.828,0-14.585-22.342,0-30.845S411.189,332.035,425.773,340.55Z" transform="translate(-362.008 -334.169)"/></g><path class="e" d="M416.833,343.522c10.712,6.206,10.712,16.4,0,22.653s-28.089,6.206-38.8,0-10.712-16.4,0-22.653S406.121,337.266,416.833,343.522Z" transform="translate(-351.42 -271.357)"/><g class="y" transform="translate(18.578 67.473)"><path d="M416.833,343.522c10.712,6.206,10.712,16.4,0,22.653s-28.089,6.206-38.8,0-10.712-16.4,0-22.653S406.121,337.266,416.833,343.522Z" transform="translate(-369.997 -338.83)"/></g><path class="a" d="M377.717,352.175c10.712-6.206,28.089-6.206,38.8,0a17.823,17.823,0,0,1,6.4,5.946,17.849,17.849,0,0,1-6.4,5.958c-10.712,6.206-28.089,6.206-38.8,0a18,18,0,0,1-6.417-5.958,17.972,17.972,0,0,1,6.417-5.946Z" transform="translate(-351.106 -269.26)"/><path class="z" d="M388.24,340.09a17.913,17.913,0,0,1-1.626-4.667c-.72-3.9.248-8.354,3.4-10.762,1.241-.943,2.892-1.651,3.426-3.14a5.139,5.139,0,0,0,0-2.569c-.583-3.327-1.7-6.752-.782-9.992a11.171,11.171,0,0,1,6.206-6.653,33.513,33.513,0,0,1,9.024-2.358,14.61,14.61,0,0,0,4.779-1.365c1.787-1.005,2.346-2.768,3.451-4.32a30.16,30.16,0,0,1,4.394-4.679c3.252-2.9,7.323-5.3,11.829-5.1,9.409.41,9.136,8.5,6.43,14.634s-3.426,8.13,2.482,14.523,5.883,14.274-1.13,18.619-11.568,4.965-8.788,13.48c2.482,7.584,4.009,14.051-2.991,22.156-4.531,5.238-10.724,8.974-18.47,8.689A31.181,31.181,0,0,1,400.8,374.5c-2.135-1.055-.7-2.706-1.415-4.816l-4.642-13.554a100.637,100.637,0,0,0-3.724-10.7C390.164,343.566,389.121,341.865,388.24,340.09Z" transform="translate(-347.466 -284.471)"/><g class="aa" transform="translate(38.922)"><path d="M388.24,340.09a17.913,17.913,0,0,1-1.626-4.667c-.72-3.9.248-8.354,3.4-10.762,1.241-.943,2.892-1.651,3.426-3.14a5.139,5.139,0,0,0,0-2.569c-.583-3.327-1.7-6.752-.782-9.992a11.171,11.171,0,0,1,6.206-6.653,33.513,33.513,0,0,1,9.024-2.358,14.61,14.61,0,0,0,4.779-1.365c1.787-1.005,2.346-2.768,3.451-4.32a30.16,30.16,0,0,1,4.394-4.679c3.252-2.9,7.323-5.3,11.829-5.1,9.409.41,9.136,8.5,6.43,14.634s-3.426,8.13,2.482,14.523,5.883,14.274-1.13,18.619-11.568,4.965-8.788,13.48c2.482,7.584,4.009,14.051-2.991,22.156-4.531,5.238-10.724,8.974-18.47,8.689A31.181,31.181,0,0,1,400.8,374.5c-2.135-1.055-.7-2.706-1.415-4.816l-4.642-13.554a100.637,100.637,0,0,0-3.724-10.7C390.164,343.566,389.121,341.865,388.24,340.09Z" transform="translate(-386.388 -284.471)"/></g><path class="m" d="M398.355,371.835a.658.658,0,0,0,.459-.658c-.4-46.448,25.21-74.177,25.47-74.475a.72.72,0,0,0,0-.993.7.7,0,0,0-.981,0c-.261.273-26.24,28.387-25.843,75.418a.683.683,0,0,0,.7.7Z" transform="translate(-344.796 -281.808)"/><path class="m" d="M404.358,324.237l.149-.062c8.329-5.25,23.186-9.16,23.335-9.2a.708.708,0,0,0,.5-.856.683.683,0,0,0-.844-.5c-.621.161-15.218,4-23.72,9.359a.7.7,0,0,0,.583,1.254Z" transform="translate(-343.352 -277.443)"/><path class="m" d="M407.915,319.738h0a.708.708,0,0,0,.385-.918,54.031,54.031,0,0,0-7.683-12.921.683.683,0,0,0-.981-.074.707.707,0,0,0-.074.981,53.236,53.236,0,0,1,7.447,12.549.683.683,0,0,0,.906.385Z" transform="translate(-344.327 -279.361)"/><path class="z" d="M402.061,374.3a39.037,39.037,0,0,1-20.394.745c-11.693-2.482-18.855-13.455-18.855-13.455s12.661-5.064,20.034-5.561a65.314,65.314,0,0,0-22.156.472s-6.777-2.482-5.5-13.952c0,0,6.38-4.7,21.1-2.855,0,0-7.348-5.25-20.245-6.8-1.018,0,.36-14.895,1.589-21.536s3.724-5.61,8.937-5.039,20.865,4.121,22.839,7.944.062,13.579.062,13.579a22.343,22.343,0,0,0,4.295-12.76s5.871,2.147,9.011,4.965a20.877,20.877,0,0,1,5.61,7.025c-.732,5.226-3.19,13.207-6.641,17.663,0,0,7.77-5.027,9.545-14.262a32.273,32.273,0,0,1,6.206,18.184C417.328,360.331,412.09,369.008,402.061,374.3Z" transform="translate(-355.031 -279.304)"/><path class="ab" d="M402.061,374.3a39.037,39.037,0,0,1-20.394.745c-11.693-2.482-18.855-13.455-18.855-13.455s12.661-5.064,20.034-5.561a65.314,65.314,0,0,0-22.156.472s-6.777-2.482-5.5-13.952c0,0,6.38-4.7,21.1-2.855,0,0-7.348-5.25-20.245-6.8-1.018,0,.36-14.895,1.589-21.536s3.724-5.61,8.937-5.039,20.865,4.121,22.839,7.944.062,13.579.062,13.579a22.343,22.343,0,0,0,4.295-12.76s5.871,2.147,9.011,4.965a20.877,20.877,0,0,1,5.61,7.025c-.732,5.226-3.19,13.207-6.641,17.663,0,0,7.77-5.027,9.545-14.262a32.273,32.273,0,0,1,6.206,18.184C417.328,360.331,412.09,369.008,402.061,374.3Z" transform="translate(-355.031 -279.304)"/><path class="m" d="M401.607,372.93a.645.645,0,0,1-.422-.571c-1.775-22.169-26.575-56.787-37.535-63.738a.7.7,0,0,1-.211-.931.683.683,0,0,1,.919-.211c11.171,7.063,36.356,42.2,38.144,64.768a.658.658,0,0,1-.608.72.558.558,0,0,1-.285-.037Z" transform="translate(-353.026 -278.943)"/></g><g transform="translate(96.64 138.973)"><path class="ac" d="M214.264,352.754c0-.248-3.984-14.647-3.984-14.647s1.3,1.328,9.62-.869a47.167,47.167,0,0,0,9.049-3.8l2.371,10.526c2.222,4.046,9.57,2.185,17.613,1.241,1.353-.161,2.743-.385,4.133-.621h.087c4.344-.236,8.689,2.371,4.2,6.082s-11.978,5.1-18.842,6.343C230.239,358.563,215.741,360.983,214.264,352.754Z" transform="translate(-52.094 -64.533)"/><path class="j" d="M271.42,348a8.428,8.428,0,0,1,.6,4.419c-.149,1.6-4.121,7.038-11.171,10.377s-15.665,3.55-19.711,4.717-7.77,3.488-12.549,4.655-9.508,1.787-14.3-1.378c-.881-1.353-1.849-4.493-1.576-4.8C213.578,365.166,271.42,348,271.42,348Z" transform="translate(-51.519 -61.02)"/><path class="e" d="M232.241,343.5c3.078,2.123,9.458.645,16.347-.137,6.5-.745,13.815-3.029,18.234-1.49s8.105,6.728,2.135,13.393c-1.725,1.924-5.375,5.313-8.3,6.368-7.447,2.656-14.076,2.867-18.842,4.046-6.206,1.527-9.607,4.282-15.342,4.965-7.447.869-12.139-1.043-13.43-3.029s-2.482-17.986.708-17.651c0,0,1.341,5.176,13.492.149C232.539,347.891,232.452,344.639,232.241,343.5Z" transform="translate(-51.749 -62.625)"/><path class="h" d="M232.241,343.5c3.078,2.123,9.458.645,16.347-.137,6.5-.745,13.815-3.029,18.234-1.49s8.105,6.728,2.135,13.393c-1.725,1.924-5.375,5.313-8.3,6.368-7.447,2.656-14.076,2.867-18.842,4.046-6.206,1.527-9.607,4.282-15.342,4.965-7.447.869-12.139-1.043-13.43-3.029s-2.482-17.986.708-17.651c0,0,1.341,5.176,13.492.149C232.539,347.891,232.452,344.639,232.241,343.5Z" transform="translate(-51.749 -62.625)"/><path class="ad" d="M246.49,351.706s-.7-6.752-5.685-8.54a2.619,2.619,0,0,0-2.756.36s4.63.67,6.206,8.6c0,0,.236.521,1.241.335C245.8,352.389,246.54,352.252,246.49,351.706Z" transform="translate(-45.394 -62.244)"/><path class="ad" d="M234.62,343.915s0-.223,1.167-.434a2.085,2.085,0,0,1,1.378.149s3.724,1.614,4.419,8.689c0,0,0,.844-1.154,1.08a1.018,1.018,0,0,1-1.328-.7S238.331,345.268,234.62,343.915Z" transform="translate(-46.222 -62.124)"/><path class="ad" d="M231.4,344.022s.211-.422,1.08-.422c1.1,0,1.365.434,1.365.434s2.656,2.718,2.681,8.627c0,0,.112.993-1.241,1.092s-1.241-1.018-1.241-1.018S233.572,345.214,231.4,344.022Z" transform="translate(-46.998 -62.082)"/><path class="c" d="M214.563,270.2c6.082,18.284,22.218,81.24,22.218,81.24s-10.5,9.433-21.9,5.139l-27.146-78.4Z" transform="translate(-57.531 -79.789)"/><path class="ac" d="M248.288,369.188c-1.241-1.849-5.908-14.647-5.908-14.647s4.866,2.78,13.244.794c4.258-1.018,8.242-5.635,8.242-5.635l3.575,12.3c2.11,4.109,8.949,2.756,17.018,2.036,1.353-.124,2.743-.323,4.146-.521h.087c4.344-.124,8.689,2.582,4.034,6.206s-12.09,4.816-18.991,5.883C265.492,376.858,252.943,376.139,248.288,369.188Z" transform="translate(-44.35 -60.61)"/><path class="j" d="M309.9,365.09a9.073,9.073,0,0,1,.534,4.766c-.211,1.713-4.617,7.447-12.214,10.836s-16.918,3.4-21.3,4.543-8.428,3.55-13.592,4.68-10.253,1.651-15.3-1.849c-.919-1.49-1.887-4.891-1.564-5.213C247.294,382,309.9,365.09,309.9,365.09Z" transform="translate(-43.38 -56.897)"/><path class="e" d="M268.059,359.136a12.951,12.951,0,0,0,1.527.943,4.556,4.556,0,0,0,1.688.348,23.463,23.463,0,0,0,4.071.1c3.4-.161,6.79-.683,10.191-.981,6.988-.621,14.895-2.88,19.6-1.117s9,7.447,2.408,14.411a32.271,32.271,0,0,1-8.813,6.69c-7.807,3.264-15.913,2.656-21.1,3.8-6.7,1.477-10.426,4.344-16.608,4.9-8.006.732-13-1.44-14.324-3.612-.745-1.241.074-7.447-.919-12.35-.869-4.2-.645-7.05.869-6.864a7.446,7.446,0,0,0,1.167,1.49,5.6,5.6,0,0,0,1.775,1.4,14.01,14.01,0,0,0,3,1.005,17.74,17.74,0,0,0,5.573.769,2.706,2.706,0,0,0,1.514-.484,3.19,3.19,0,0,0,.881-1.887c.124-.621.261-1.241.385-1.862a2.607,2.607,0,0,1,.348-.956,2.483,2.483,0,0,1,.943-.757,8.143,8.143,0,0,0,3.053-2.321,7.175,7.175,0,0,0,.894-2.88.707.707,0,0,1,.2-.472c.223-.174.559,0,.807.137Z" transform="translate(-43.652 -58.663)"/><path class="h" d="M268.059,359.136a12.951,12.951,0,0,0,1.527.943,4.556,4.556,0,0,0,1.688.348,23.463,23.463,0,0,0,4.071.1c3.4-.161,6.79-.683,10.191-.981,6.988-.621,14.895-2.88,19.6-1.117s9,7.447,2.408,14.411a32.271,32.271,0,0,1-8.813,6.69c-7.807,3.264-15.913,2.656-21.1,3.8-6.7,1.477-10.426,4.344-16.608,4.9-8.006.732-13-1.44-14.324-3.612-.745-1.241.074-7.447-.919-12.35-.869-4.2-.645-7.05.869-6.864a7.446,7.446,0,0,0,1.167,1.49,5.6,5.6,0,0,0,1.775,1.4,14.01,14.01,0,0,0,3,1.005,17.74,17.74,0,0,0,5.573.769,2.706,2.706,0,0,0,1.514-.484,3.19,3.19,0,0,0,.881-1.887c.124-.621.261-1.241.385-1.862a2.607,2.607,0,0,1,.348-.956,2.483,2.483,0,0,1,.943-.757,8.143,8.143,0,0,0,3.053-2.321,7.175,7.175,0,0,0,.894-2.88.707.707,0,0,1,.2-.472c.223-.174.559,0,.807.137Z" transform="translate(-43.652 -58.663)"/><path class="ad" d="M282.92,368.7s-.571-7.274-5.883-9.322a2.83,2.83,0,0,0-2.967.31s4.965.844,6.38,9.4c0,0,.248.571,1.341.4C282.151,369.429,282.957,369.3,282.92,368.7Z" transform="translate(-36.704 -58.344)"/><path class="ad" d="M270.38,360.036s0-.248,1.241-.447a2.209,2.209,0,0,1,1.465.2s3.96,1.825,4.518,9.434c0,0,0,.906-1.241,1.13a1.1,1.1,0,0,1-1.415-.782S274.34,361.575,270.38,360.036Z" transform="translate(-37.595 -58.236)"/><path class="ad" d="M266.92,360.082s.236-.447,1.179-.422c1.179,0,1.44.5,1.44.5s2.78,2.991,2.656,9.322c0,0,.1,1.08-1.4,1.154s-1.241-1.13-1.241-1.13S269.229,361.385,266.92,360.082Z" transform="translate(-38.429 -58.207)"/><path class="d" d="M249.96,287.976c4.791,14.734,17.03,56.675,22.616,78.2,0,0-10.042,9.036-22.963,8.242L218.47,293.661l12.412-7.671Z" transform="translate(-50.118 -75.98)"/><path class="d" d="M161.623,476.011a2.023,2.023,0,0,0,2.023-2.023V344.2a2.023,2.023,0,0,0-4.046,0V474.025a2.023,2.023,0,0,0,2.023,1.986Z" transform="translate(-64.32 -62.424)"/><path class="d" d="M96.914,432.392a2.011,2.011,0,0,0,1.874-1.241L138.6,330.386a2.011,2.011,0,1,0-3.724-1.477L95.027,429.574a2.023,2.023,0,0,0,1.13,2.619,2,2,0,0,0,.757.2Z" transform="translate(-79.932 -65.972)"/><path class="d" d="M100.762,418.533a2,2,0,0,0,1.465-.633L176.3,339.515l73.941,78.05a2.023,2.023,0,0,0,2.929-2.78l-75.406-79.6a2.036,2.036,0,0,0-1.465-.633h0a2.023,2.023,0,0,0-1.465.633L99.3,415.119a2.023,2.023,0,0,0,1.465,3.413Z" transform="translate(-79.001 -64.265)"/><path class="d" d="M234.088,432.421a2,2,0,0,0,.745-.149,2.023,2.023,0,0,0,1.13-2.619L196.156,328.9a2.023,2.023,0,1,0-3.724,1.477l39.819,100.764a2.011,2.011,0,0,0,1.837,1.278Z" transform="translate(-56.464 -66.002)"/><path class="e" d="M258.36,316.964c1.452-8.143-5.176-14.5-17.663-22.926a295.978,295.978,0,0,0-36.158-20.319c-10.451-4.791-21.1-4.344-34.494,2.482-18.619,9.545-74.475,43.444-74.475,43.444S179.131,366.813,195.2,364.7s56.253-28.251,59.443-37.448S258.36,316.964,258.36,316.964Z" transform="translate(-79.767 -79.709)"/><g class="ae" transform="translate(15.803 190.825)"><path d="M258.36,316.964c1.452-8.143-5.176-14.5-17.663-22.926a295.978,295.978,0,0,0-36.158-20.319c-10.451-4.791-21.1-4.344-34.494,2.482-18.619,9.545-74.475,43.444-74.475,43.444S179.131,366.813,195.2,364.7s56.253-28.251,59.443-37.448S258.36,316.964,258.36,316.964Z" transform="translate(-95.57 -270.534)"/></g><path class="e" d="M169.35,345.786c11.99,10.861,24.527,1.514,44.362-11.357,22.454-14.56,26.848-26.488,26.848-26.488s0,8.937-1.676,13.12-5.3,8.937-21.486,20.1-27.916,16.744-38.8,18.817l-8.589-1.179" transform="translate(-61.968 -70.685)"/><path class="g" d="M213.712,334.428c22.454-14.56,26.848-26.488,26.848-26.488s0,8.937-1.676,13.12-5.3,8.937-21.486,20.1-27.916,16.744-38.8,18.817l-8.589-1.179-.658-13.008C181.328,356.647,193.877,347.3,213.712,334.428Z" transform="translate(-61.968 -70.685)"/><path class="e" d="M100.222,399.22,94.015,413.4a1.974,1.974,0,0,0-.074.372,1.663,1.663,0,0,0,0,.261,1.75,1.75,0,0,0,.782.943,3.724,3.724,0,0,0,3.327.161,1.465,1.465,0,0,0,.683-.658h0v-.186L104.442,401Z" transform="translate(-80.161 -48.663)"/><path class="e" d="M224.548,399.7l5.3,13.89a1.674,1.674,0,0,1,0,.36v.248a1.626,1.626,0,0,1-.794.869,3.476,3.476,0,0,1-3.2,0,1.427,1.427,0,0,1-.633-.646h0v-.2L220.34,401.2Z" transform="translate(-49.667 -48.548)"/><path class="e" d="M159.35,440.413v11.494a1.241,1.241,0,0,0,.683.943,3.6,3.6,0,0,0,3.3,0,1.154,1.154,0,0,0,.67-.943V440.413A4.965,4.965,0,0,0,159.35,440.413Z" transform="translate(-64.38 -38.866)"/><path class="c" d="M122.54,270.991c4.754,5.548,48.061-6.914,59.58-8.478,18.495-2.483,33.514-4.357,39.844-2.383s8.949,5.176,10.873,12.7c2.271,8.863,3.438,13.393,3.438,13.393s-30.733,11.792-54.987,14.634S122.54,270.991,122.54,270.991Z" transform="translate(-73.261 -82.418)"/><path class="d" d="M116.972,276.49c-4.8,18.3-9.111,39.571,2,51.214,7.447,7.845,45.07,28.226,69.324,20.2,23.882-7.907,73.358-44.685,78.323-48.322s9.471-6.206,9-7.8c-6.665-22.144-16.422-23.882-34.494-19.86-22.119,4.866-70.652,24.664-70.652,24.664Z" transform="translate(-75.81 -79.787)"/><path class="ac" d="M213,184.4l-16.682,18.855L169.38,190.474l18.83-26.054Z" transform="translate(-61.961 -105.308)"/><path class="af" d="M221.19,151.66s6.827,9.856,6.095,10.861-5.561,2-5.561,2Z" transform="translate(-49.462 -108.387)"/><path class="j" d="M222.737,160.085a8.167,8.167,0,1,1,8.167-8.167A8.167,8.167,0,0,1,222.737,160.085Zm0-14.833a6.641,6.641,0,1,1,0,.05Z" transform="translate(-51.059 -110.295)"/><path class="ac" d="M213.825,129.884c13.418,2.482,17.377,8.292,19.152,29.48,1.812,22.131-.285,29.157-3.128,32.2-1.924,2.06-12.835,2.681-18.383,1.241-6.939-1.75-22.653-6.914-30.2-17.9-8.887-12.921-11.556-30.646-2.482-38.144C191.445,126.247,208.363,128.866,213.825,129.884Z" transform="translate(-61.05 -113.893)"/><path class="af" d="M204.8,181.543c5.772,1.241,14.56.509,17.166-.981a19.86,19.86,0,0,1-9.719-.36,31.788,31.788,0,0,1-8.9-3.922Z" transform="translate(-53.765 -102.447)"/><path class="j" d="M237.669,141.464h0c-3.724,2.582-8.316,3.649-12.81,4.357.348,3.587-.782,7.137-1.9,10.575-.77,2.371-3.562,9.831-6.6,5.735-2.2-2.954-4.183-5.648-8.391-4.965-6.926,1.241-7.658,10.067-3.153,15.354s8.54,3.128,8.54,3.128.633,9.545-4.406,16.3c0,0-7.51,4.617-18.06,1.142-6.653-2.2-16.26-10.588-19.8-17.142-9.744-18.023-9.793-35.3,2.023-40.614,1.092-8.689,7.783-12.661,15.466-14.609,10.662-2.706,21.734,3.984,32.037-.434,2.172-.931,4.171-2.247,6.392-3.053a4.419,4.419,0,0,1,3.835,0,4.667,4.667,0,0,1,1.638,2.929,8.217,8.217,0,0,1-.41,6.206,18.618,18.618,0,0,1,4.853-1.787,6.082,6.082,0,0,1,4.891,1.1,6.293,6.293,0,0,1,1.961,4.27C244.16,134.513,241.392,138.87,237.669,141.464Z" transform="translate(-63.259 -116.797)"/><path class="j" d="M172.763,135.5l-8.093-4.531a4.642,4.642,0,1,1,8.093,4.531Z" transform="translate(-63.097 -113.997)"/><rect class="j" width="26.389" height="1.278" transform="matrix(0.983, -0.183, 0.183, 0.983, 152.939, 44.746)"/><path class="ac" d="M259.758,190.676c-.7-1.167-2.247-1.4-3.538-1.849-2.383-.832-4.245-2.731-6.541-3.724a12.909,12.909,0,0,0-8.267-.559,20.955,20.955,0,0,0-2.756.881,34.678,34.678,0,0,0-4.965,2.482c-6.579,3.885-11.519,12.686-17.986,16.72-2.408,1.5-4.655,2.867-6.877,4.233l15.478,13.716a92.435,92.435,0,0,1,7.621-5.8c3.8-2.259,7.634-2.309,11.9-2.929a59.062,59.062,0,0,0,8.689-2.172A3.835,3.835,0,0,0,255.091,210a2.582,2.582,0,0,0-1.663-3.178,22.342,22.342,0,0,0-4.506-.621c-1.117-.174-4.1.484-4.754-.633-.348-.6.087-1.316.509-1.849,2.681-3.339,6.07-6.914,10.352-7.919a8.987,8.987,0,0,0,3.724-1.5,2.967,2.967,0,0,0,1.005-3.624Z" transform="translate(-52.443 -100.558)"/><path class="e" d="M185.54,177.852c-16.4-8.949-31.329-3.2-36.7,8.3-4.878,10.414-15.106,50.7-15.106,50.7C138.645,246.12,185.54,177.852,185.54,177.852Z" transform="translate(-70.561 -103.125)"/><path class="e" d="M187.335,180.8l2.482-3.24c-18.519-8.788-35.09,2.756-49.65,25.47-15.739,24.477-23.993,59.58-24.068,96.706,0,0,3.14,16.67,24.192,25,22.342,8.85,53.51,5.1,63.229-18.06,0,0,.2-23.124,7.224-34.519,4.555-7.373,15.168-23.745,23.062-35.5,6.876-10.228,12.226-33.514-2.135-42.016a121.954,121.954,0,0,0-11.68-5.958C206.86,193,185.647,185.991,187.335,180.8Z" transform="translate(-74.814 -102.849)"/><path class="ag" d="M187.39,180.89l2.408-3.327c-18.519-8.788-35.09,2.756-49.65,25.47-15.739,24.477-23.993,59.58-24.068,96.706,0,0,3.14,16.67,24.192,25,22.342,8.85,53.51,5.1,63.229-18.06,0,0,.2-23.124,7.224-34.519,4.555-7.373,15.168-23.745,23.062-35.5,6.876-10.228,12.226-33.514-2.135-42.016a121.952,121.952,0,0,0-11.68-5.958C206.865,193,185.7,186.078,187.39,180.89Z" transform="translate(-74.819 -102.849)"/><path class="ah" d="M239.721,215.27a37.486,37.486,0,0,0,.571-13.48h0a71.993,71.993,0,0,1-13.976,21.362c-7.534,7.932-16.831,14.113-23.82,22.529-7.447,8.912-12.723,19.7-18.929,29.43-2.482,3.91-5.884,11.444-10.5,11.755-5.635.36-11.022-6.5-14.088-11.246-4.965-7.547-9.111-16.993-15.205-23.584-5.325-5.8-13.567-13.219-20.816-9.855h0c-.546,1.924-1.055,3.873-1.539,5.834s-.931,4-1.353,6v.236c-.41,2.011-.794,4.034-1.154,6.057a2.481,2.481,0,0,1,0,.323q-.521,3.016-.931,6.032a195.67,195.67,0,0,0-1.849,26.575s3.14,16.67,24.192,25c22.342,8.85,53.51,5.1,63.229-18.06,0,0,.2-23.124,7.224-34.519.708-1.142,1.576-2.483,2.482-4.059h0l.161-.261c.807-1.241,1.676-2.644,2.619-4.109,0-.087.112-.174.174-.261a.508.508,0,0,1,0-.112c2.011-3.14,4.27-6.616,6.6-10.2l1.055-1.626c2.259-3.451,4.555-6.939,6.74-10.228h0c.732-1.1,1.452-2.185,2.172-3.24.3-.459.608-.906.894-1.353h0c.248-.36.5-.757.732-1.154l.223-.372.521-.919.223-.422.559-1.092a2.98,2.98,0,0,1,.137-.285c.236-.484.459-.981.683-1.49v-.149c.2-.472.4-.943.583-1.415a1.164,1.164,0,0,1,.124-.348c.174-.459.348-.919.509-1.378v-.273c.3-.856.571-1.75.819-2.644h0c.248-.906.472-1.825.67-2.743v-.112Z" transform="translate(-74.807 -96.293)"/><path class="ac" d="M305.517,240.117a34.225,34.225,0,0,1-3.848,3.972c-5.66,5.126-12.276,7.6-19.972,12.586-6.206,4.034-15.8,9.93-23.882,14.957a120.735,120.735,0,0,1-26.066,12.015c-7.448,2.209-11.7,2.3-16.136-9.719-2.172-5.9-3.9-11.953-5.784-17.948q-4.183-13.393-8.242-26.823S191.657,204.543,214,192.18c9.719,5.561,13.418,7.807,16.471,19.45,3.649,13.939,9.558,41.445,9.558,41.445a194.543,194.543,0,0,0,23.075-9.831c2.83-1.4,6.318-2.383,8.341-4.9a37.453,37.453,0,0,0,3.55-5.536c.956-1.713,1.638-3.575,2.693-5.213a46.189,46.189,0,0,1,7.336-8.081,3.017,3.017,0,0,1,1.775-1.055,2.06,2.06,0,0,1,1.8,1.092c.819,1.44.062,2.842-.36,4.307-.484,1.676-.968,3.351-1.44,4.965a43.755,43.755,0,0,0,14.237-13.281,7.285,7.285,0,0,1,1.117-1.415,2.16,2.16,0,0,1,1.663-.608c1.49.186,2.967,2.594,3.041,3.972a22.634,22.634,0,0,0,.112,4.208c.335,1.241,1.241,2.358,1.626,3.624a21.094,21.094,0,0,1,.844,4.022,13.777,13.777,0,0,1-2.259,8.428A19.855,19.855,0,0,1,305.517,240.117Z" transform="translate(-54.721 -98.611)"/><path class="e" d="M213.038,191.35c8.5,3.438,14.634,7.323,18.507,20.307s8.093,33.874,8.093,33.874.074,4.357-10.253,10.451a25.421,25.421,0,0,1-20,2.693l-7.8-25.073S187.766,200.014,213.038,191.35Z" transform="translate(-55.1 -98.812)"/><path class="e" d="M189.822,377c-6.827-.348-12.177-5.362-28.412-12.127-29.989-12.5-52.48-22.516-61.057-38.206s-14.634-61.045-12.487-80.681a25.26,25.26,0,0,1,1.465-6.5l-2.11-.31,5.461-4.655h0c5.61-4.568,14.721-.5,21.6,3.252,19.637,10.675,34.991,21.1,47.167,58.55,9.123,28.189,15.143,53.907,27.754,67.66" transform="translate(-81.782 -88.887)"/><path class="ai" d="M89.33,239.479l-2.11-.31,5.461-4.655h0c5.61-4.568,14.721-.5,21.6,3.252,19.637,10.675,34.991,21.1,47.167,58.55,9.123,28.189,15.143,53.907,27.754,67.66l.658,13.008c-6.827-.348-12.177-5.362-28.412-12.127-30.026-12.487-52.517-22.5-61.094-38.193s-14.634-61.045-12.487-80.681a25.794,25.794,0,0,1,1.465-6.5Z" transform="translate(-81.782 -88.887)"/><path class="e" d="M109.651,241.668c19.624,10.675,34.978,21.1,47.167,58.55s18.78,70.6,42.7,77.019c0,0-10.811,4.307-43.953-9.719-10.551-4.456-23.348-12.586-31.751-17.3-16.471-9.247-26.463-16.819-28.04-19.661-8.689-15.627-14.634-61.045-12.5-80.681S99.808,236.306,109.651,241.668Z" transform="translate(-82.839 -87.949)"/></g><g transform="translate(196.198 24.878)"><path class="e" d="M196.134,112.617l-5.387-10.191,4.357-12.6V82.12L181.76,89.828v7.708l5.735,9.93a.77.77,0,0,0,.4.348h0Z" transform="translate(-158.76 -11.068)"/><path class="aj" d="M196.134,112.617l-5.387-10.191,4.357-12.6V82.12L181.76,89.828v7.708l5.735,9.93a.77.77,0,0,0,.4.348h0Z" transform="translate(-158.76 -11.068)"/><path class="e" d="M232.454,34.649a8.862,8.862,0,0,0-4.009-6.939l-3.252-1.874a8.838,8.838,0,0,0-8.006,0l-49.96,28.909a8.85,8.85,0,0,0-4,6.939v55a8.85,8.85,0,0,0,4,6.926l3.264,1.887a8.838,8.838,0,0,0,8.006,0l16.074-9.285,5.735,9.93a.844.844,0,0,0,1.539-.149l6.057-17.477L228.482,96.6a8.862,8.862,0,0,0,3.972-6.951Z" transform="translate(-163.23 -24.878)"/><path class="aj" d="M163.23,110.3a8.85,8.85,0,0,0,4,6.926l3.264,1.887a8.949,8.949,0,0,0,7.323.323c-1.887.708-3.327-.348-3.327-2.631v-55a8.242,8.242,0,0,1,1.179-3.947L164.4,51.35A8.217,8.217,0,0,0,163.23,55.3Z" transform="translate(-163.23 -18.491)"/><path class="n" d="M232.126,33.507c-.459-1.7-2.011-2.234-3.86-1.179l-50,28.921a7.907,7.907,0,0,0-2.818,2.991l-11.271-6.5A8.168,8.168,0,0,1,167,54.757l49.985-28.921a8.838,8.838,0,0,1,8.006,0l3.277,1.887A8.788,8.788,0,0,1,232.126,33.507Z" transform="translate(-163.001 -24.878)"/><g transform="translate(18.61 33.587)"><path class="m" d="M178.232,81.076a2.929,2.929,0,0,1,.2-1.142,8.692,8.692,0,0,1,.583-1.067L189.887,61.3a.82.82,0,0,1,.174-.211l.124-.087a.3.3,0,0,1,.4,0,.72.72,0,0,1,.174.534v6.777a2.9,2.9,0,0,1-.323,1.415,8.887,8.887,0,0,1-.546.931l-5.61,8.54,5.61,2.582a2.383,2.383,0,0,1,.546.261c.211.137.323.484.323,1.03V87.89a1.614,1.614,0,0,1-.174.72,1.03,1.03,0,0,1-.4.5h-.124a.285.285,0,0,1-.174,0l-10.873-4.965a1.106,1.106,0,0,1-.782-1.3Z" transform="translate(-178.223 -49.767)"/><path class="m" d="M199.081,56.111a6.951,6.951,0,0,1,.41-1.092,1.974,1.974,0,0,1,.794-.856l3.637-2.147a.323.323,0,0,1,.422,0,.757.757,0,0,1,.174.546,1.824,1.824,0,0,1,0,.41L195.332,92.12a5.276,5.276,0,0,1-.385,1.055,1.974,1.974,0,0,1-.807.881l-3.562,2.06a.323.323,0,0,1-.422,0,.7.7,0,0,1-.174-.546,1.65,1.65,0,0,1,0-.4Z" transform="translate(-175.389 -51.937)"/><path class="m" d="M215.838,61.961a2.855,2.855,0,0,1-.2,1.142,8.686,8.686,0,0,1-.583,1.067L204.17,81.746a1.625,1.625,0,0,1-.174.2l-.124.1a.31.31,0,0,1-.41,0,.683.683,0,0,1-.161-.534v-6.8a2.78,2.78,0,0,1,.31-1.39c.211-.372.4-.67.559-.906l4.754-7.348-4.754-1.812a1.986,1.986,0,0,1-.559-.285c-.211-.149-.31-.5-.31-1.055V55.134a1.651,1.651,0,0,1,.161-.72,1.155,1.155,0,0,1,.41-.484h.3l10.873,4.965a1.08,1.08,0,0,1,.782,1.241Z" transform="translate(-172.174 -51.456)"/></g></g></g></svg>