<svg xmlns="http://www.w3.org/2000/svg" xmlns:xlink="http://www.w3.org/1999/xlink" width="72" height="72" viewBox="0 0 72 72"><defs><style>.a{fill:none;}.b{fill:#fe9801;}.c{fill:url(#a);}</style><linearGradient id="a" x1="0.5" x2="0.5" y2="1" gradientUnits="objectBoundingBox"><stop offset="0" stop-color="#0056aa"/><stop offset="1" stop-color="#283654"/></linearGradient></defs><g transform="translate(-1207.473 -3611)"><circle class="a" cx="36" cy="36" r="36" transform="translate(1207.473 3611)"/><g transform="translate(-3463.166 894.89)"><g transform="translate(4671.166 2717.123)"><path class="b" d="M4782.105,2798.755a15,15,0,0,1-2.585,5.563,9.071,9.071,0,0,1-7.48,3.728c-2.187-.042-4.376-.014-6.564-.016q-8.206,0-16.412,0c-.482,0-1.106-.225-1.383.4a1.968,1.968,0,0,0,.292,1.639c.29.637.908.383,1.384.385,4.637.024,9.274.045,13.911,0,1-.009,1.388.26,1.358,1.307-.062,2.186-.074,4.378.012,6.563a5.363,5.363,0,0,1-2.312,4.693,16.461,16.461,0,0,1-5.83,2.52c-3.532.892-15.11.579-19.867-.939-3.918-1.537-5.972-3.986-5.987-7.342-.024-5.416,0-10.832,0-16.248a11.537,11.537,0,0,1,.657-3.508c.817-2.571,3.045-3.982,5.1-4.922,1.388-.634,3.522-.365,5.337-.338,5.207.076,10.415.057,15.623.014,5.123-.042,8.514-2.971,9.4-8.022.509-2.9.216-5.821.2-8.728-.009-1.446.459-1.742,1.771-1.7.866.024,1.96.021,2.957.016,1.383-.008,2.579-.021,2.716.024,3.922,1.282,6.072,4.178,7.273,7.938C4783.319,2786.072,4783.319,2792.331,4782.105,2798.755Zm-25.227,16.091a3.013,3.013,0,0,0,.111,5.991c1.635-.009,3.452-1.623,3.427-3.045C4760.39,2816.33,4758.536,2814.786,4756.878,2814.845Z" transform="translate(-4712.023 -2756.07)"/><path class="c" d="M4719.028,2719.463c2.67,1.353,4.72,3.69,4.728,6.676.014,5.365,0,10.731,0,16.1a8.165,8.165,0,0,1-6.3,8.4,14.169,14.169,0,0,1-4.153.57q-8.205-.016-16.411,0a8.837,8.837,0,0,0-9.243,7.755c-.544,3.1-.173,6.237-.225,9.355-.016.97-.16,1.4-1.252,1.316-1.347-.1-2.708-.04-4.062-.017a8.483,8.483,0,0,1-7.137-3.508,16.629,16.629,0,0,1-2.331-4.713,31.586,31.586,0,0,1-1.467-9.892,29.372,29.372,0,0,1,2.342-10.54c2.113-3.435,5.08-5.735,9.576-5.625,7.5.182,15,.026,22.5.075,1.1.007,1.226-.427,1.247-1.353.022-.979-.28-1.205-1.241-1.2-4.843.049-9.687-.013-14.53.026-.979.008-1.369-.2-1.333-1.271.074-2.132.055-4.271-.023-6.4a5.442,5.442,0,0,1,1.9-4.42,12,12,0,0,1,4.492-2.407,44.181,44.181,0,0,1,11.915-1.24A32.828,32.828,0,0,1,4719.028,2719.463Zm-22.029,9.2a3.1,3.1,0,0,0,3.185-3.126,3.32,3.32,0,0,0-3.243-3.128c-1.544-.038-2.763,1.529-2.94,3.1A2.971,2.971,0,0,0,4697,2728.66Z" transform="translate(-4671.166 -2717.123)"/></g></g></g></svg>