<svg xmlns="http://www.w3.org/2000/svg" xmlns:xlink="http://www.w3.org/1999/xlink" width="72" height="72" viewBox="0 0 72 72"><defs><style>.a{fill:none;}.b{fill:url(#a);}.c{fill:#fe9801;}.d{fill:url(#b);}</style><linearGradient id="a" x1="-0.002" y1="0.497" x2="1" y2="0.497" gradientUnits="objectBoundingBox"><stop offset="0" stop-color="#0056aa"/><stop offset="1" stop-color="#283654"/></linearGradient><linearGradient id="b" x1="-0.001" y1="0.5" x2="0.999" y2="0.5" xlink:href="#a"/></defs><g transform="translate(-1519.344 -3611.323)"><circle class="a" cx="36" cy="36" r="36" transform="translate(1519.344 3611.323)"/><g transform="translate(1523.61 3612.131)"><path class="b" d="M-270.347,249.243c-4.265-4.992-5.323-8.827-4.3-10.546.992-1.752,4.86-2.777,11.372-1.587a62.42,62.42,0,0,0-1.19,7.372h0c.364-.264.694-.529,1.058-.76,1.785-1.256,3.6-2.413,5.389-3.471,1.686-8.86,4.926-14.612,7.7-15.968.066-.033.1-.066.165-.066a1.863,1.863,0,0,1,.4-.132.359.359,0,0,1,.165-.033,2.893,2.893,0,0,1,.529-.066,2,2,0,0,1,.727.132c.033,0,.066.033.1.033a2.5,2.5,0,0,1,.727.364c.033.033.1.066.132.1a5.971,5.971,0,0,1,.76.6l.132.132c.264.264.529.529.826.86.033.033.033.066.066.066.264.331.529.694.793,1.058.033.066.1.132.132.2.264.4.529.86.793,1.322a1.035,1.035,0,0,1,.165.331c.264.5.5.992.76,1.554a3.88,3.88,0,0,0,.165.364c.264.6.5,1.223.727,1.884,0,.033,0,.033.033.066h0c.992-.3,1.951-.6,2.942-.826q1.388-.347,2.678-.6c-.033-.066-.033-.132-.066-.2-.165-.43-.3-.86-.463-1.256-.033-.1-.066-.165-.1-.264-.165-.43-.331-.86-.529-1.256-.033-.066-.033-.1-.066-.165a27.079,27.079,0,0,0-3.273-5.62,1.831,1.831,0,0,0-.2-.264c-.165-.2-.364-.4-.529-.6-.1-.1-.2-.231-.3-.331l-.5-.5c-.132-.132-.264-.231-.364-.331l-.5-.4a4.863,4.863,0,0,0-.43-.331c-.165-.1-.3-.231-.463-.331s-.3-.2-.463-.3-.3-.165-.463-.264a2.56,2.56,0,0,0-.529-.231c-.132-.066-.3-.132-.43-.2-.2-.066-.364-.132-.562-.2-.132-.033-.264-.1-.4-.132a4.682,4.682,0,0,0-.661-.132c-.1-.033-.231-.033-.331-.066a10.014,10.014,0,0,0-1.025-.066,9.4,9.4,0,0,0-1.355.132l-.5.1a6.668,6.668,0,0,0-.76.231,10.744,10.744,0,0,0-1.422.6c-.033.033-.066.033-.1.066-.3.165-.6.364-.893.562-.033.033-.1.066-.132.1a14.02,14.02,0,0,0-2.546,2.347.88.88,0,0,0-.165.2,7.767,7.767,0,0,0-.628.826c-.165.231-.331.463-.463.694-.132.2-.264.364-.4.6a33.264,33.264,0,0,0-3.273,7.042c-8.86-1.719-15.34-.231-17.918,4.265s-.661,10.777,5.256,17.555c.6-.661,1.19-1.322,1.851-2.017a13.638,13.638,0,0,1,2.116-2.248" transform="translate(280.791 -218.2)"/><path class="c" d="M-274.878,293.59c-1.124-1.984.364-6.645,6.248-12.662,1.058-1.058,2.215-2.149,3.438-3.174,1.521-1.289,3.141-2.546,4.893-3.8.364-.264.727-.5,1.091-.727,1.62-1.091,3.24-2.149,4.86-3.074s3.306-1.785,5.058-2.612l1.19-.6c1.951-.893,3.868-1.653,5.752-2.314,1.521-.529,3.008-.992,4.463-1.355,8.2-2.083,13.025-1.025,14.183.959.992,1.752-.033,5.554-4.3,10.546.76.694,1.488,1.389,2.182,2.116.661.661,1.256,1.355,1.851,2.017,5.918-6.744,7.835-13.058,5.256-17.555s-9.058-5.984-17.918-4.265q-1.289.248-2.678.6c-.959.231-1.951.529-2.942.826h0a67.954,67.954,0,0,0-8.265,3.174c-2.347,1.058-4.6,2.215-6.744,3.438-.331.2-.694.43-1.025.628-1.818,1.091-3.637,2.215-5.389,3.471-.364.264-.694.529-1.058.76h0a72.973,72.973,0,0,0-5.852,4.761c-.76.694-1.488,1.388-2.182,2.116-.661.661-1.256,1.355-1.851,2.017-5.918,6.744-7.835,13.059-5.256,17.555,1.884,3.273,5.852,4.992,11.306,4.992a35.5,35.5,0,0,0,6.645-.694,52.178,52.178,0,0,1-1.554-5.554c-6.513,1.19-10.381.165-11.405-1.587" transform="translate(280.991 -243.77)"/><path class="d" d="M-191.576,310.193c-.992,1.752-4.893,2.777-11.406,1.587a74.777,74.777,0,0,0,1.719-16.265c0-.4-.033-.793-.033-1.19,1.223,1.058,2.413,2.116,3.471,3.207,5.918,6.017,7.405,10.678,6.248,12.662m-26.778,2.546a69.276,69.276,0,0,0,8.2,3.174c-2.083,5.785-4.794,9.058-7.009,9.058-3.008,0-7.009-6.083-8.959-16.3.331.2.694.43,1.025.628,2.149,1.19,4.4,2.347,6.744,3.438m24.662-19.241c-.694-.694-1.422-1.422-2.182-2.116a70.386,70.386,0,0,0-6.909-5.554c-2.116-1.488-4.265-2.876-6.414-4.1-.331-.165-.661-.364-.992-.529-1.884.661-3.8,1.422-5.752,2.314l-1.19.6c1.752.826,3.438,1.719,5.058,2.612,1.62.926,3.273,1.984,4.86,3.075.132,1.884.231,3.8.231,5.719a69.3,69.3,0,0,1-1.521,14.844,67.871,67.871,0,0,1-7.405-2.876h0c-2.182-.992-4.265-2.083-6.248-3.207-1.62-.926-3.273-1.984-4.86-3.075-.132-1.818-.231-3.7-.231-5.686s.1-3.868.231-5.686c-.364.264-.727.5-1.091.727-1.752,1.223-3.372,2.513-4.893,3.8v1.19a76.88,76.88,0,0,0,1.719,16.265,52.164,52.164,0,0,0,1.554,5.554c2.678,7.835,6.909,13.389,12.629,13.389s9.984-5.554,12.629-13.389a35.5,35.5,0,0,0,6.645.694c5.455,0,9.422-1.686,11.306-4.992,2.579-4.5.661-10.777-5.256-17.555-.628-.661-1.256-1.355-1.917-2.017" transform="translate(248.866 -260.373)"/><path class="c" d="M-195.668,320.363a4.219,4.219,0,0,0,4.232-4.232,4.219,4.219,0,0,0-4.232-4.232,4.219,4.219,0,0,0-4.232,4.232,4.219,4.219,0,0,0,4.232,4.232" transform="translate(226.708 -280.923)"/></g></g></svg>