<svg xmlns="http://www.w3.org/2000/svg" xmlns:xlink="http://www.w3.org/1999/xlink" width="72" height="72" viewBox="0 0 72 72"><defs><style>.a{fill:none;}.b{fill:url(#a);}.c{fill:#fe9801;}</style><linearGradient id="a" x1="0.5" x2="0.5" y2="1" gradientUnits="objectBoundingBox"><stop offset="0" stop-color="#0056aa"/><stop offset="1" stop-color="#283654"/></linearGradient></defs><g transform="translate(-1046.214 -3780.342)"><circle class="a" cx="36" cy="36" r="36" transform="translate(1046.214 3780.342)"/><g transform="translate(-4741.932 2403.424)"><g transform="translate(5792 1377)"><path class="b" d="M5827.19,1460.142q-7.52.009-15.038.017-7.124,0-14.248,0a5.534,5.534,0,0,1-5.791-4.724c-.013-.062-.074-.113-.113-.169v-50.9c.113-.41.211-.826.344-1.23a5.664,5.664,0,0,1,5.7-3.762c14.575.044,29.15.019,43.726.021.238,0,.476.032.714.049l-1.646,1.643c-.24,0-.479.01-.719.01q-21.185,0-42.37-.007a3.859,3.859,0,0,0-3.45,1.828c-.183.276-.5.564-.311.892.15.267.532.114.806.114q19.527.01,39.055.006c1.537,0,3.074.01,4.611.016-.133.514-.6.789-.871,1.208-1.521,2.352-3.025,4.711-4.313,7.2a84.412,84.412,0,0,0-4.559,10.626c-.6,1.692-.9,3.461-1.476,5.158a2.363,2.363,0,0,0-.078,1.814,21.022,21.022,0,0,1,1.238,3.526,2.152,2.152,0,0,1,.169,1.187c-.7-1.276-1.269-2.473-2.043-3.643a15.5,15.5,0,0,0-.706,1.918c-.173.762-.562,1.51-.1,2.348a15.022,15.022,0,0,1,.941,2.3,8.94,8.94,0,0,1,.582,2.417c-.731-1.307-1.409-2.63-2.3-4.02-.24,1.056-.483,1.933-.625,2.826a2.509,2.509,0,0,0,0,1.626,21.461,21.461,0,0,1,1.65,5.27,33.785,33.785,0,0,1,1.021,5.867C5827.11,1454.429,5826.966,1457.29,5827.19,1460.142Z" transform="translate(-5792 -1396.15)"/><path class="c" d="M6031.825,1381.939l1.646-1.643a21.647,21.647,0,0,1,3.785-2.528c.732-.333,1.536-.418,2.254-.768h1.3c3.26.75,5.087,2.949,6,6.018a12.806,12.806,0,0,1,.417,4.712,38.187,38.187,0,0,1-3.916,13.015,98.99,98.99,0,0,1-5.694,10.324,1.523,1.523,0,0,1-.871.675,50.268,50.268,0,0,0-8.56,4.04q3.668-1.12,7.412-1.91c.132.262-.067.383-.159.52-1.9,2.858-3.919,5.636-6.018,8.354a2.8,2.8,0,0,1-.985.807,15.614,15.614,0,0,0-7.461,7.319.252.252,0,0,1-.187.131,111.218,111.218,0,0,1,7.606-24.524c3.493-7.871,7.3-15.577,12.67-22.625a2.139,2.139,0,0,0-.9.67,63.361,63.361,0,0,0-9.89,13.67,88.825,88.825,0,0,0-10.185,28.5,63.616,63.616,0,0,0-1.078,15.057,30.279,30.279,0,0,0,1.012,6.387c.058.2.342.53-.08.664-.481.152-.389-.338-.458-.538a21.085,21.085,0,0,1-.885-4c-.15-1.092-.282-2.187-.422-3.281-.224-2.852-.081-5.713-.2-8.565a33.735,33.735,0,0,0-1.021-5.867,21.5,21.5,0,0,0-1.65-5.27,2.5,2.5,0,0,1,0-1.626c.141-.893.385-1.77.624-2.826.887,1.39,1.565,2.712,2.3,4.02a8.9,8.9,0,0,0-.582-2.417,14.917,14.917,0,0,0-.94-2.3c-.464-.839-.075-1.586.1-2.348a15.644,15.644,0,0,1,.706-1.918c.775,1.17,1.34,2.367,2.043,3.643a2.153,2.153,0,0,0-.168-1.187,21.068,21.068,0,0,0-1.238-3.526,2.368,2.368,0,0,1,.078-1.814c.577-1.7.877-3.466,1.476-5.158a84.485,84.485,0,0,1,4.559-10.626c1.288-2.493,2.792-4.852,4.314-7.2.271-.42.737-.694.871-1.208Z" transform="translate(-5982.989 -1377)"/></g></g></g></svg>