<svg xmlns="http://www.w3.org/2000/svg" width="49.316" height="53.781" viewBox="0 0 49.316 53.781"><defs><style>.a{fill:#fe9801;}.b{fill:#14406d;}</style></defs><path class="a" d="M2459.761,1237c.161.061.32.126.482.184a3.344,3.344,0,0,1-.47,6.483,3.384,3.384,0,0,1-3.577-1.826.649.649,0,0,0-.43-.334c-2.975-.019-5.951-.013-8.926-.01a1.142,1.142,0,0,0-.219.065,17.864,17.864,0,0,1,8.784,12.245c.489,0,.976-.005,1.462,0a1.07,1.07,0,0,1,1.21,1.188q.012,2.179,0,4.358a1.053,1.053,0,0,1-1.172,1.172q-2.179.015-4.358,0a1.067,1.067,0,0,1-1.188-1.21c-.007-1.383,0-2.765,0-4.148,0-1.013.339-1.351,1.354-1.363.121,0,.243,0,.368,0a15.726,15.726,0,0,0-11.775-11.836,1.956,1.956,0,0,0-.029.2c-.051,1.319-.288,1.551-1.59,1.55h-3.675c-1.13,0-1.444-.3-1.459-1.415,0-.1,0-.207,0-.316a15.475,15.475,0,0,0-11.855,11.815c.229,0,.445-.007.661,0a1.036,1.036,0,0,1,1.1,1.08q.025,2.284,0,4.568a1.008,1.008,0,0,1-1.06,1.065q-2.284.027-4.568,0a1.022,1.022,0,0,1-1.082-1.1q-.021-2.258,0-4.516a1.041,1.041,0,0,1,1.135-1.1c.5-.012,1.01,0,1.532,0a17.9,17.9,0,0,1,8.844-12.276c-.279-.019-.425-.038-.571-.038q-4.227,0-8.454,0c-.268,0-.468,0-.619.322a3.171,3.171,0,0,1-3.515,1.867,3.347,3.347,0,0,1-.57-6.479c.178-.065.354-.133.531-.2h1.155a3.23,3.23,0,0,1,2.355,1.813.635.635,0,0,0,.712.425q6.841-.015,13.682-.007h.565c.063-.86-.211-1.766.752-2.23h5.252c.987.467.669,1.411.754,2.231h4.337q4.98,0,9.961-.008c.181,0,.475-.066.524-.183a3.419,3.419,0,0,1,2.49-2.04Z" transform="translate(-2413.255 -1237)"/><path class="b" d="M2565.131,1667.1a.508.508,0,0,0-.124-.087,3.467,3.467,0,0,1-2.591-4.193c.36-1.783.98-3.514,1.5-5.333a3.559,3.559,0,0,0,2.476.663q4.931-.017,9.861,0a3.544,3.544,0,0,0,2.472-.661c.49,1.683,1.013,3.289,1.406,4.926a5.052,5.052,0,0,1,.019,2.113A3.2,3.2,0,0,1,2578,1666.9c-.159.062-.315.129-.473.193Z" transform="translate(-2546.671 -1613.316)"/><path class="b" d="M2532,1355.256c-1.75,0-3.5-.028-5.251.013a1.644,1.644,0,0,1-1.563-.855q-3.337-5.524-6.65-11.061a1.189,1.189,0,0,1,.174-1.323q2.762-4.522,5.527-9.043,3.228-5.283,6.457-10.566a1.278,1.278,0,0,1,2.408,0q6.055,10.011,12.111,20.022a1.215,1.215,0,0,1-.1,1.372q-2.429,4.049-4.86,8.1c-.513.855-1.038,1.7-1.532,2.568a1.4,1.4,0,0,1-1.361.782C2535.568,1355.238,2533.782,1355.256,2532,1355.256Zm.034-17.907a4.477,4.477,0,1,0,4.465,4.483A4.494,4.494,0,0,0,2532.031,1337.349Z" transform="translate(-2507.349 -1312.689)"/><path class="a" d="M2631.231,1495.257a2.23,2.23,0,1,1-2.2-2.253A2.237,2.237,0,0,1,2631.231,1495.257Z" transform="translate(-2604.343 -1466.113)"/></svg>