<svg xmlns="http://www.w3.org/2000/svg" xmlns:xlink="http://www.w3.org/1999/xlink" width="72" height="72" viewBox="0 0 72 72"><defs><style>.a{fill:none;}.b{fill:#fe9801;}.c{fill:url(#a);}</style><linearGradient id="a" x1="0.5" x2="0.5" y2="1" gradientUnits="objectBoundingBox"><stop offset="0" stop-color="#0056aa"/><stop offset="1" stop-color="#283654"/></linearGradient></defs><g transform="translate(-1362.607 -3615.425)"><circle class="a" cx="36" cy="36" r="36" transform="translate(1362.607 3615.425)"/><g transform="translate(-1924.806 217.513)"><g transform="translate(3287.539 3402.822)"><path class="b" d="M3344.939,3402.856q7.061,0,14.122-.007c.3,0,.25.089.139.281q-3.9,6.741-7.786,13.487L3334.457,3446l-10.834,18.768c-.048.084-.1.165-.157.253-.119-.062-.148-.173-.2-.263q-11.754-20.359-23.506-40.719-6.044-10.471-12.088-20.943c-.039-.067-.088-.128-.132-.192v-.06c.1,0,.2.009.3.009l14.121,0a.393.393,0,0,0,.067.226l2.989,5.175,3.241,5.616q1.733,3,3.467,6t3.451,5.978q1.74,3.015,3.478,6.031t3.495,6.056c.383.664.771,1.326,1.148,1.994.114.2.2.209.306,0,.125-.239.259-.472.393-.7q2.773-4.8,5.545-9.6,2.5-4.335,5-8.672t5.026-8.692q2.438-4.217,4.868-8.437A4.027,4.027,0,0,0,3344.939,3402.856Z" transform="translate(-3287.539 -3402.843)"/><path class="c" d="M3524.636,3402.836a4.018,4.018,0,0,1-.507.973q-2.425,4.224-4.869,8.438-2.512,4.346-5.026,8.692t-5,8.672q-2.77,4.8-5.545,9.6c-.134.233-.269.466-.393.705-.109.209-.192.2-.306,0-.378-.667-.765-1.329-1.148-1.994q-1.748-3.027-3.495-6.056t-3.478-6.031q-1.725-2.989-3.451-5.978l-3.467-6-3.241-5.616-2.989-5.175a.394.394,0,0,1-.067-.226l6.972-.006c1.985,0,3.97,0,5.954-.006a.416.416,0,0,1,.416.245q3.955,6.869,7.923,13.729c.065.113.073.324.223.315.126-.008.164-.2.231-.321q3.963-6.862,7.92-13.726c.081-.141.151-.245.355-.244q6.448.012,12.9.007C3524.577,3402.829,3524.607,3402.833,3524.636,3402.836Z" transform="translate(-3467.237 -3402.822)"/></g></g></g></svg>