<svg xmlns="http://www.w3.org/2000/svg" width="55.003" height="48.403" viewBox="0 0 55.003 48.403"><defs><style>.a{fill:#002141;}.b{fill:#14406d;}.c{fill:#fe9801;}</style></defs><g transform="translate(294 -219)"><path class="a" d="M-275.9,254h15.4l1.1,5.5H-277Z" transform="translate(1.701 3.502)"/><path class="b" d="M-275.3,263h17.6l.88,3.3a.877.877,0,0,1-.88,1.1h-17.6a.886.886,0,0,1-.88-1.1Zm36.3-8.8a3.241,3.241,0,0,1-3.3,3.3h-48.4a3.31,3.31,0,0,1-3.3-3.3V222.3a3.241,3.241,0,0,1,3.3-3.3h48.4a3.31,3.31,0,0,1,3.3,3.3Z" transform="translate(0 0)"/><path class="c" d="M-243.038,254.269H-290.37c-1.98,0-3.63-1.412-3.63-3.026V223.3a2.371,2.371,0,0,1,1.21-.3h51.373a2.26,2.26,0,0,1,2.42,2.017v26.07S-238.921,254.269-243.038,254.269Z" transform="translate(0 -1.6)"/></g></svg>