<svg xmlns="http://www.w3.org/2000/svg" xmlns:xlink="http://www.w3.org/1999/xlink" width="72" height="72" viewBox="0 0 72 72"><defs><style>.a{fill:none;}.b{fill:#fe9801;}.c{fill:url(#a);}</style><linearGradient id="a" x1="0.5" x2="0.5" y2="1" gradientUnits="objectBoundingBox"><stop offset="0" stop-color="#0056aa"/><stop offset="1" stop-color="#283654"/></linearGradient></defs><g transform="translate(-1203.6 -3786.167)"><circle class="a" cx="36" cy="36" r="36" transform="translate(1203.6 3786.167)"/><g transform="translate(-4048.4 968.031)"><path class="b" d="M5323.8,2880.492a6.342,6.342,0,0,1-1.447.346q-21.347.029-42.694.015l-10.271-10.53,6.411-6.177s4.485,4.677,6.664,6.653a4.374,4.374,0,0,0,2.644,1.084c7.778.083,15.57.322,23.331-.056,4.591-.223,8.125.793,10.93,4.541A32.69,32.69,0,0,0,5323.8,2880.492Z" transform="translate(0.195 0.417)"/><path class="b" d="M5381.1,2859.349l6.357-6.394c3.112,3.106,6.305,6.277,9.465,9.479a1.751,1.751,0,0,1,.423,1.123c.025,6.862.019,13.725.019,20.723h-8.941v-1.928c0-4.7.063-9.4-.052-14.1a4.67,4.67,0,0,0-1.137-2.8C5385.286,2863.327,5383.152,2861.367,5381.1,2859.349Z" transform="translate(-82.39 -16.564)"/><path class="c" d="M5261.828,2850.411c-.448-.449-1.057-1.023-1.079-1.56-.109-2.742-.051-5.49-.051-8.234h8.939c0,1.157-.056,2.178.019,3.191a3.941,3.941,0,0,0,.475,2.178c1.891,2.087,3.937,4.034,5.808,5.913l9.734-9.722c-1.7-1.626-3.456-3.438-5.367-5.071a4.563,4.563,0,0,0-2.646-1.071c-5.181-.1-10.365-.038-15.546-.063a2.689,2.689,0,0,1-1.692-.347c-2.852-2.831-5.625-5.74-8.422-8.626h31.115l15.572,15.912-3.579,2.718a50.427,50.427,0,0,0,3.791,3.637,6.664,6.664,0,0,1,2.664,6.407c-.24,2.826-.054,5.687-.054,8.533l-.556.284c-3.983-4.069-7.967-8.138-11.766-12.017l-3.9,3.338,12.5,12.041c-3.646,0-7.2.067-10.75-.048a4.211,4.211,0,0,1-2.472-1.053c-1.762-1.6-3.371-3.37-4.782-4.81-3.2,2.832-3.442,3-3.442,3S5266.543,2855.146,5261.828,2850.411Z" transform="translate(0 0)"/></g></g></svg>